<svg width="86" height="83" viewBox="0 0 86 83" fill="none" xmlns="http://www.w3.org/2000/svg">
<path d="M21.3082 31.826C21.2262 29.741 19.9762 29.176 18.3592 29.03C17.8482 28.984 17.3402 28.894 16.8292 28.839C14.8942 28.631 13.2892 27.943 12.3452 26.074C11.7752 24.944 11.0092 23.915 10.3982 22.804C9.76222 21.647 9.86722 21.149 10.9182 20.327C15.4972 16.748 20.6432 14.45 26.4112 13.634C28.5122 13.337 30.6272 13.113 32.7432 12.951C34.4882 12.817 34.7262 13.053 35.2032 14.713C35.4492 15.569 35.6222 16.464 36.0002 17.26C36.6482 18.626 36.6272 19.868 35.8042 21.15C35.2502 22.013 34.8592 22.981 34.3072 23.846C33.9302 24.438 33.8822 24.922 34.2152 25.549C34.5322 26.147 34.7002 26.823 34.9452 27.499C36.7772 27.737 38.7312 27.769 40.5512 28.28C43.1152 29.001 45.3472 28.802 47.7572 27.555C51.3972 25.67 55.3832 24.984 59.5152 25.136C65.8242 25.368 71.2632 27.669 75.8962 31.889C81.2402 36.757 84.2412 42.809 85.0582 50.012C86.0792 59.003 82.5292 66.179 76.2812 72.206C69.6102 78.641 61.5182 80.342 52.5662 78.764C52.1022 78.682 51.5282 78.747 51.1102 78.954C43.4512 82.746 35.5802 83.315 27.4442 80.687C22.1602 78.981 17.5722 76.228 14.0122 71.93C11.3182 68.678 9.79522 64.864 9.28022 60.7C8.25922 52.449 10.1442 44.884 15.0352 38.14C16.8102 35.696 18.8572 33.469 21.3082 31.826ZM83.9042 53.014C83.8082 51.853 83.7642 50.686 83.6082 49.533C82.3602 40.313 77.6132 33.5 69.4622 29.037C65.5292 26.884 61.1412 25.928 56.8592 26.207C49.1122 26.711 42.7362 30.31 38.2072 36.804C35.4902 40.7 33.7812 44.984 33.3052 49.741C32.8192 54.593 34.0232 59.103 36.2892 63.304C37.5342 65.61 39.0132 67.867 40.7682 69.799C42.5462 71.756 44.7672 73.319 46.8442 74.993C48.9262 76.671 51.5572 77.053 54.0262 77.672C57.9502 78.656 61.8662 77.985 65.7062 76.934C71.1132 75.455 75.1722 72.045 78.5042 67.715C81.8232 63.401 83.9892 58.618 83.9042 53.014ZM49.9822 78.02C49.4082 77.756 48.9632 77.629 48.6102 77.373C47.6512 76.678 46.7522 76.826 45.7512 77.316C44.9932 77.687 44.1432 78.019 43.3152 78.071C40.7912 78.229 38.2452 78.447 35.7322 78.276C28.4682 77.781 22.3682 74.933 17.9182 68.961C14.9642 64.996 13.1242 60.61 13.1712 55.634C13.2382 48.484 15.8182 42.251 20.5992 36.949C21.4192 36.04 22.3992 35.262 23.3762 34.516C23.6412 34.314 24.1652 34.45 24.5702 34.431C24.3872 34.755 24.2762 35.162 24.0102 35.39C21.1072 37.884 18.7472 40.782 17.1862 44.304C15.1092 48.988 13.6912 53.799 14.8102 58.97C16.3872 66.257 20.4742 71.697 27.2502 74.902C31.8012 77.055 36.6902 77.387 41.6502 76.961C43.0112 76.844 44.3382 76.62 45.6042 75.826C45.3722 75.638 45.2262 75.505 45.0652 75.392C41.4392 72.859 38.4862 69.703 36.2132 65.904C33.7062 61.714 32.0102 57.244 31.9292 52.324C31.8152 45.404 34.3062 39.391 38.6822 34.106C38.9292 33.808 39.1742 33.507 39.4942 33.116C34.8442 32.456 30.4332 32.905 25.8342 33.887C26.5302 32.698 27.4492 32.404 28.3762 32.187C31.9222 31.356 35.5312 31.225 39.1152 31.697C40.7302 31.91 41.6782 31.284 42.7712 30.063C40.4682 29.737 38.3462 29.322 36.2052 29.157C30.5122 28.717 25.1732 29.994 20.8112 33.712C13.5462 39.903 10.0522 47.948 10.2642 57.517C10.4842 67.433 15.5492 74.136 24.3502 78.193C29.6622 80.642 35.2542 81.592 41.1012 80.773C44.1452 80.345 47.0382 79.46 49.9822 78.02ZM22.7542 30.827C26.0132 28.843 29.6232 27.951 33.4892 27.566C33.0242 26.813 33.3122 25.568 31.9692 25.784C28.9542 26.269 25.9932 26.958 23.3102 28.504C21.9492 29.287 21.9562 29.299 22.7542 30.827ZM11.3052 21.392C13.2212 22.469 14.8652 23.394 16.5792 24.357C16.8502 22.12 17.1032 20.031 17.3892 17.677C15.3312 18.934 13.4482 20.084 11.3052 21.392ZM30.4992 24.558C30.7962 23.258 31.0772 22.027 31.4052 20.592C29.2262 21.228 27.2812 21.796 25.3192 22.369C25.7532 23.489 26.1322 24.468 26.5292 25.492C27.8212 25.188 29.1402 24.878 30.4992 24.558ZM18.9292 16.924C20.7242 18.276 22.2372 19.416 23.8552 20.634C24.3912 18.783 24.8942 17.045 25.3972 15.306C25.3192 15.22 25.2412 15.133 25.1632 15.047C23.1602 15.651 21.1582 16.253 18.9292 16.924ZM30.3662 19.631C29.2692 18.333 27.9942 16.825 26.7132 15.309C26.1432 17.235 25.5832 19.13 24.9782 21.176C27.1442 20.555 29.0702 20.003 30.3662 19.631ZM23.3712 21.741C21.7402 20.505 20.2002 19.339 18.5272 18.072C18.2752 20.248 18.0492 22.195 17.8052 24.3C19.7402 23.411 21.5012 22.601 23.3712 21.741ZM31.9852 19.082C32.1452 18.965 32.3052 18.848 32.4662 18.73C32.9152 17.273 33.3642 15.816 33.8862 14.124C31.8502 14.291 30.0052 14.443 28.0712 14.601C29.4532 16.184 30.7192 17.633 31.9852 19.082ZM24.0222 22.796C22.2282 23.624 20.5652 24.391 18.6952 25.254C20.0742 25.634 21.3092 25.767 22.3262 26.308C23.5752 26.973 24.4042 26.357 25.3712 25.886C24.9242 24.862 24.5042 23.9 24.0222 22.796ZM22.1702 27.362C20.8312 27.005 19.6022 26.746 18.4212 26.343C17.1422 25.907 16.3092 26.492 15.4352 27.34C16.2452 27.427 16.9572 27.482 17.6622 27.585C18.3682 27.688 19.1202 27.717 19.7562 27.997C20.6852 28.405 21.3672 28.19 22.1702 27.362ZM31.7312 24.251C32.5842 24.294 33.6422 22.992 34.6532 20.647C33.9512 20.647 33.2632 20.647 32.6482 20.647C32.3322 21.889 32.0402 23.036 31.7312 24.251ZM12.5912 23.336C12.5332 23.396 12.4752 23.456 12.4172 23.516C13.0812 24.521 13.7452 25.527 14.4432 26.582C14.9902 26.154 15.4342 25.807 15.9962 25.367C14.7842 24.645 13.6882 23.99 12.5912 23.336ZM34.4842 17.081C34.4102 17.091 34.3362 17.101 34.2622 17.11C34.0192 17.832 33.7752 18.553 33.5172 19.319C34.1322 19.319 34.6332 19.319 35.2502 19.319C34.9782 18.523 34.7312 17.802 34.4842 17.081Z" fill="#23C8CC"/>
<path d="M62.3459 6.05191C64.6699 4.05391 67.2659 2.87191 70.3189 2.90891C73.2519 2.94391 74.7469 5.2459 73.5829 7.9159C72.4349 10.5489 70.3369 12.4009 68.2079 14.1819C65.7119 16.2699 63.1109 18.2329 60.5549 20.2499C60.4479 20.3349 60.2779 20.3889 60.2339 20.4969C59.8009 21.5669 59.1329 21.1559 58.6559 20.6479C57.2759 19.1799 55.7719 17.7699 54.6899 16.0959C53.4019 14.1029 52.4219 11.8939 51.4759 9.7059C51.0989 8.8329 51.0619 7.76791 51.0539 6.78891C51.0299 3.99191 53.0349 2.36191 55.7939 2.82391C57.9859 3.19091 59.8279 4.2989 61.6169 5.5269C61.8669 5.6969 62.1079 5.87891 62.3459 6.05191ZM59.4169 19.8519C62.7979 17.0469 66.1359 14.4139 69.2979 11.5849C70.5719 10.4449 71.6199 8.96691 72.4809 7.47591C73.4579 5.78491 72.7189 4.35791 70.7859 4.11891C67.9749 3.77091 65.5699 4.87091 63.4539 6.66791C63.4019 6.71191 63.3429 6.76491 63.3239 6.82591C62.9459 8.05491 62.2999 7.6429 61.5409 7.1809C60.0259 6.2569 58.5459 5.20791 56.9129 4.55991C53.6059 3.24791 51.5979 4.90691 52.3339 8.35491C53.3039 12.9039 55.9739 16.4769 59.4169 19.8519Z" fill="#23C8CC"/>
<path d="M74.8293 18.123C76.3703 18.204 77.8303 18.257 79.2853 18.372C79.6443 18.4 80.0093 18.587 80.3353 18.767C82.0063 19.69 82.2123 21.279 80.6723 22.369C79.6863 23.066 78.5183 23.58 77.3593 23.941C75.3343 24.572 73.2573 25.04 71.1933 25.543C69.9733 25.841 69.6293 25.527 69.6283 24.289C69.6283 22.437 69.5283 20.581 69.6193 18.733C69.6643 17.8 69.9263 16.838 70.2843 15.97C70.6833 15.004 71.5393 14.555 72.6223 14.646C73.6283 14.731 74.1323 15.387 74.3943 16.263C74.5873 16.911 74.7053 17.582 74.8293 18.123ZM71.0013 24.189C72.7863 23.774 74.4683 23.467 76.0963 22.978C77.3943 22.588 78.6773 22.075 79.8693 21.435C80.8193 20.925 80.7163 20.198 79.7603 19.675C79.5233 19.545 79.2573 19.457 78.9943 19.391C77.5293 19.027 76.0883 19.11 74.6473 19.573C74.4123 19.649 74.0703 19.392 73.7783 19.288C74.2533 18.505 73.5043 17.974 73.3273 17.339C73.1813 16.816 72.7643 16.026 72.3903 15.98C71.5223 15.872 71.3303 16.765 71.0983 17.441C71.0323 17.632 71.0073 17.845 71.0073 18.048C70.9983 20.062 71.0013 22.075 71.0013 24.189Z" fill="#23C8CC"/>
<path d="M18.5882 10.5591C18.2442 10.1901 17.7422 9.8791 17.5812 9.4431C16.7422 7.1721 15.9672 4.8761 15.2352 2.5671C15.1452 2.2841 15.4472 1.8771 15.5672 1.5271C15.8482 1.7311 16.2832 1.8771 16.3872 2.1501C17.2792 4.4751 18.1292 6.8181 18.9432 9.1711C19.0712 9.5411 18.9612 9.9941 18.9612 10.4081C18.8372 10.4591 18.7132 10.5091 18.5882 10.5591Z" fill="#23C8CC"/>
<path d="M7.69811 18.664C7.01411 18.613 6.2941 18.68 5.6521 18.489C4.0501 18.014 2.48111 17.426 0.90311 16.871C0.68111 16.793 0.430106 16.695 0.286106 16.527C0.127106 16.342 -0.045888 16.029 0.011112 15.838C0.065112 15.657 0.400103 15.464 0.624103 15.449C1.0251 15.42 1.45412 15.458 1.83712 15.578C3.39912 16.067 4.96511 16.555 6.49411 17.135C7.01311 17.332 7.42911 17.799 7.89211 18.142C7.82711 18.315 7.76311 18.489 7.69811 18.664Z" fill="#23C8CC"/>
<path d="M46.3648 13.4481C46.0718 13.7521 45.8348 14.1861 45.4778 14.3371C43.8068 15.0441 42.1168 15.7121 40.3988 16.2941C40.0688 16.4061 39.5868 16.0711 39.1758 15.9421C39.4318 15.5911 39.6138 15.0731 39.9578 14.9171C41.3618 14.2821 42.8008 13.7111 44.2598 13.2151C44.8578 13.0111 45.5408 13.0561 46.1858 12.9871C46.2458 13.1411 46.3048 13.2951 46.3648 13.4481Z" fill="#23C8CC"/>
<path d="M34.7856 1.288C34.2316 2.964 33.7536 4.56 33.1536 6.109C33.0216 6.45 32.4596 6.624 32.0946 6.875C31.9666 6.481 31.6536 6.04 31.7406 5.702C32.1906 3.956 32.7226 2.22901 33.2866 0.515007C33.3626 0.285007 33.7856 0.169 34.0486 0C34.2816 0.409 34.5156 0.818002 34.7856 1.288Z" fill="#23C8CC"/>
<path d="M11.585 30.2501C11.307 30.6391 11.176 31.008 10.919 31.15C9.51702 31.927 8.09501 32.672 6.64801 33.361C6.43401 33.463 5.99801 33.277 5.76901 33.094C5.66201 33.008 5.70801 32.4701 5.84601 32.3771C7.42501 31.3161 8.94201 30.092 10.985 30.061C11.11 30.06 11.236 30.1381 11.585 30.2501Z" fill="#23C8CC"/>
<path d="M79.7533 29.4991C79.4343 29.6811 78.9772 30.1451 78.4952 30.1721C77.7522 30.2131 77.3512 29.6461 77.3982 28.8761C77.4412 28.1621 77.8772 27.8361 78.5602 27.8981C79.2962 27.9641 79.7563 28.3501 79.7533 29.4991Z" fill="#23C8CC"/>
<path d="M83.6916 26.816C83.3066 27.046 82.9366 27.433 82.5336 27.47C81.8736 27.531 81.3746 27.061 81.5396 26.399C81.6266 26.049 82.2016 25.577 82.5336 25.595C82.9406 25.616 83.3246 26.092 83.7176 26.371C83.7096 26.52 83.7006 26.668 83.6916 26.816Z" fill="#23C8CC"/>
<path d="M83.1257 29.9241C83.5017 30.5551 83.9077 30.9351 83.8767 31.2771C83.8507 31.5691 83.3247 31.8161 83.0197 32.0831C82.7377 31.7591 82.2797 31.4601 82.2297 31.1041C82.1917 30.8331 82.6717 30.4891 83.1257 29.9241Z" fill="#23C8CC"/>
<path d="M57.5696 73.9439C60.9066 74.0729 64.0446 73.4489 66.8696 71.7429C72.6546 68.2489 76.9156 63.3569 78.4196 56.7319C80.1126 49.2749 78.2876 42.5669 72.7406 36.9879C68.8686 33.0929 64.2606 30.7639 58.9196 29.8289C57.7266 29.6199 56.4646 29.8029 55.2346 29.8059C54.7786 29.8069 54.3216 29.8059 53.8656 29.8059C53.8426 29.6699 53.8206 29.5339 53.7976 29.3979C54.9226 29.1539 56.0486 28.7099 57.1726 28.7129C58.8326 28.7179 60.5376 28.8579 62.1436 29.2599C68.5006 30.8519 73.3226 34.6779 76.9466 40.0209C79.9516 44.4509 80.8876 49.5089 80.1296 54.6889C78.7796 63.9139 73.3676 70.2419 65.0316 74.0869C61.8026 75.5759 58.2546 75.5609 54.8036 75.0799C48.2886 74.1709 43.6296 70.5109 40.4526 64.8479C37.9546 60.3949 35.9896 55.7419 36.2686 50.5219C36.7596 41.3579 41.2236 34.6789 49.3176 30.3999C49.3786 30.3679 49.4426 30.3179 49.5046 30.3179C50.0356 30.3199 50.5666 30.3319 51.0986 30.3419C50.7716 30.6729 50.4446 31.0039 50.1196 31.3359C50.0756 31.3809 50.0426 31.4359 49.9636 31.5389C57.3736 35.9859 61.3306 42.8289 62.9546 51.0459C64.5996 59.3669 62.2966 66.9099 57.5696 73.9439ZM37.6126 51.9879C37.5206 56.0029 39.4786 60.3489 41.8566 64.5759C43.8216 68.0689 46.5816 70.6889 50.2286 72.3499C50.5276 72.4859 51.1076 72.5169 51.2796 72.3349C52.4056 71.1419 53.6756 70.0059 54.4916 68.6129C59.0516 60.8379 59.6076 52.7769 55.8396 44.5149C53.8076 40.0609 50.6446 36.7419 46.0456 34.8749C45.4946 34.6509 45.1296 34.6399 44.6906 35.0859C40.3326 39.5079 37.6246 44.6509 37.6126 51.9879ZM46.6396 33.6029C47.0556 33.8049 47.4446 34.0049 47.8446 34.1849C51.7016 35.9209 54.4096 38.8799 56.4116 42.4909C59.3926 47.8669 60.2926 53.6229 59.2756 59.6959C58.4566 64.5839 56.7116 68.9989 53.0696 72.5099C52.8586 72.7129 52.6996 72.9689 52.5016 73.2199C55.0226 74.2359 55.6696 74.0769 57.1396 72.0009C60.2916 67.5489 61.6096 62.4789 61.9526 57.1309C62.3096 51.5699 60.5936 46.4919 57.9086 41.7279C55.8746 38.1169 53.1436 35.1159 49.4936 33.0299C48.0606 32.2119 47.9526 32.2129 46.6396 33.6029Z" fill="#23C8CC"/>
<path d="M74.6803 58.822C74.8053 58.173 74.8873 57.512 75.0623 56.877C75.7793 54.267 76.0693 51.621 75.5573 48.954C75.3683 47.968 74.8473 47.048 74.5173 46.085C74.4143 45.784 74.4373 45.44 74.4023 45.115C74.7283 45.237 75.2404 45.27 75.3504 45.497C75.9404 46.711 76.7264 47.936 76.8934 49.229C77.2434 51.945 77.2754 54.712 76.0184 57.286C75.7394 57.858 75.3673 58.384 75.0383 58.932C74.9193 58.895 74.8003 58.858 74.6803 58.822Z" fill="#23C8CC"/>
<path d="M69.7383 66.499C70.5853 65.121 71.2953 63.938 72.0443 62.78C72.1463 62.622 72.5083 62.463 72.6333 62.529C72.8323 62.633 73.0253 62.911 73.0593 63.139C73.2593 64.466 71.5353 66.401 69.7383 66.499Z" fill="#23C8CC"/>
<path d="M71.203 59.4971C71.123 58.0511 71.547 57.0451 72.321 56.1821C72.463 56.0231 72.902 55.9091 73.024 56.0041C73.219 56.1571 73.393 56.5251 73.351 56.7621C73.142 57.9341 72.445 58.7621 71.203 59.4971Z" fill="#23C8CC"/>
<path d="M76.71 66.8752C77.329 65.8942 77.923 64.8962 78.588 63.9482C78.71 63.7742 79.121 63.8042 79.398 63.7402C79.436 63.9922 79.58 64.2892 79.496 64.4882C78.992 65.6752 78.063 66.4532 77.027 67.1102C76.921 67.0312 76.816 66.9532 76.71 66.8752Z" fill="#23C8CC"/>
<path d="M81.6104 57.5651C81.7204 56.4391 81.7963 55.5031 81.9173 54.5731C81.9383 54.4081 82.1243 54.1771 82.2733 54.1411C82.4173 54.1061 82.6654 54.2421 82.7764 54.3771C83.3724 55.1051 82.8224 56.9991 81.6104 57.5651Z" fill="#23C8CC"/>
<path d="M17.3799 49.9511C17.5029 49.1931 17.4609 48.3541 17.7829 47.6931C18.5259 46.1701 19.4159 44.7141 20.3249 43.2801C20.4679 43.0551 21.0219 43.0921 21.3859 43.0071C21.3299 43.3441 21.3619 43.7311 21.2039 44.0101C20.0589 46.0271 18.8759 48.0211 17.7049 50.0231C17.5959 49.9991 17.4879 49.9751 17.3799 49.9511Z" fill="#23C8CC"/>
<path d="M20.9865 53.318C20.1975 52.277 20.1306 49.822 20.8096 49.058C20.9716 48.876 21.2675 48.728 21.5025 48.728C21.6655 48.728 21.9755 49.017 21.9675 49.162C21.8885 50.575 21.6435 51.953 20.9865 53.318Z" fill="#23C8CC"/>
<path d="M17.4474 58.1361C16.6394 57.3401 16.1863 56.3631 16.2953 55.2261C16.3273 54.8891 16.7793 54.5911 17.0383 54.2761C17.1903 54.5771 17.4333 54.8641 17.4763 55.1801C17.6083 56.1401 17.6643 57.1111 17.7503 58.0781C17.6493 58.0971 17.5484 58.1171 17.4474 58.1361Z" fill="#23C8CC"/>
</svg>
