<svg width="118" height="19" viewBox="0 0 118 19" fill="none" xmlns="http://www.w3.org/2000/svg">
<path d="M6.34916 6.03624C9.35516 6.97324 11.8612 3.58723 9.39216 1.18423C6.90416 -1.23777 2.89617 0.410236 1.10917 2.94424C-3.19183 9.04824 6.08016 12.6532 10.7632 13.2392C15.6012 13.8432 20.6562 12.1362 25.2222 10.7422C31.0362 8.96524 36.6872 6.74724 42.3512 4.55524C44.8492 3.58924 47.4232 2.79323 50.0952 2.52423C52.9782 2.23323 58.5032 3.31124 57.9062 7.25824C57.4332 10.3712 53.2152 11.4992 50.7652 10.3302C48.9452 9.46223 48.9992 7.54324 50.7632 6.84724C51.2322 6.66224 51.7532 6.56423 52.2512 6.50923C52.4012 6.49223 53.6692 6.67423 52.8602 6.60723C51.5922 6.50323 51.6062 8.46624 52.8602 8.57624C55.7802 8.83324 56.1022 4.67224 53.0552 4.52124C50.4092 4.38924 45.4772 6.56024 47.7412 10.0472C50.0892 13.6652 55.0462 12.9572 57.7022 10.1302C60.5162 7.13524 58.4132 3.34924 54.9792 2.17124C49.7042 0.359237 44.2172 2.65923 39.3332 4.62823C32.9192 7.21423 26.2102 9.44623 19.4932 11.1002C14.3052 12.3782 9.64516 12.6232 4.77216 10.1832C3.00616 9.29823 1.12916 7.85724 1.14516 5.70224C1.15516 4.23224 2.48917 2.85624 3.57717 2.05624C4.36017 1.48024 5.31516 1.21724 6.27016 1.12524C8.81916 0.882236 9.36417 4.89424 6.87017 4.14724C5.65517 3.78124 5.14816 5.66224 6.34916 6.03624Z" fill="black"/>
<path d="M18.3456 11.5432C16.8316 11.8302 15.4196 12.1032 14.3006 13.2552C13.2066 14.3832 13.3416 16.2712 14.5276 17.2892C15.5276 18.1492 17.1976 18.3552 18.3846 17.7862C19.4156 17.2912 20.2966 15.6592 18.9806 14.9142C18.6896 14.7492 18.3676 14.9102 18.2596 15.2072C18.0486 15.7932 17.9766 15.9432 17.3276 16.0712C16.7666 16.1812 16.1106 16.1002 15.6986 15.6782C14.4176 14.3642 17.4776 12.2692 18.4626 11.9712C18.7396 11.8892 18.6246 11.4902 18.3456 11.5432Z" fill="black"/>
<path d="M111.33 6.03624C108.324 6.97324 105.818 3.58723 108.287 1.18423C110.775 -1.23777 114.783 0.410236 116.57 2.94424C120.871 9.04824 111.599 12.6532 106.916 13.2392C102.078 13.8432 97.0227 12.1362 92.4567 10.7422C86.6427 8.96524 80.9917 6.74724 75.3277 4.55524C72.8297 3.58924 70.2556 2.79323 67.5836 2.52423C64.7006 2.23323 59.1757 3.31124 59.7727 7.25824C60.2457 10.3712 64.4637 11.4992 66.9137 10.3302C68.7337 9.46223 68.6796 7.54324 66.9156 6.84724C66.4466 6.66224 65.9257 6.56423 65.4277 6.50923C65.2777 6.49223 64.0097 6.67423 64.8187 6.60723C66.0867 6.50323 66.0727 8.46624 64.8187 8.57624C61.8987 8.83324 61.5766 4.67224 64.6236 4.52124C67.2696 4.38924 72.2016 6.56024 69.9376 10.0472C67.5896 13.6652 62.6326 12.9572 59.9766 10.1302C57.1626 7.13524 59.2657 3.34924 62.6997 2.17124C67.9747 0.359237 73.4617 2.65923 78.3457 4.62823C84.7597 7.21423 91.4687 9.44623 98.1857 11.1002C103.374 12.3782 108.034 12.6232 112.907 10.1832C114.673 9.29823 116.55 7.85724 116.534 5.70224C116.524 4.23224 115.19 2.85624 114.102 2.05624C113.319 1.48024 112.364 1.21724 111.409 1.12524C108.86 0.882236 108.315 4.89424 110.809 4.14724C112.024 3.78124 112.531 5.66224 111.33 6.03624Z" fill="black"/>
<path d="M99.3337 11.5432C100.848 11.8302 102.26 12.1032 103.379 13.2552C104.473 14.3832 104.338 16.2712 103.152 17.2892C102.152 18.1492 100.482 18.3552 99.2947 17.7862C98.2637 17.2912 97.3827 15.6592 98.6987 14.9142C98.9897 14.7492 99.3117 14.9102 99.4197 15.2072C99.6307 15.7932 99.7027 15.9432 100.352 16.0712C100.913 16.1812 101.569 16.1002 101.981 15.6782C103.262 14.3642 100.202 12.2692 99.2167 11.9712C98.9397 11.8892 99.0547 11.4902 99.3337 11.5432Z" fill="black"/>
</svg>
