<svg width="118" height="19" viewBox="0 0 118 19" fill="none" xmlns="http://www.w3.org/2000/svg">
<path d="M6.34908 6.03726C9.35508 6.97326 11.8611 3.58826 9.39208 1.18426C6.90408 -1.23774 2.89609 0.410249 1.10909 2.94525C-3.19191 9.04825 6.08008 12.6543 10.7631 13.2403C15.6011 13.8443 20.6561 12.1363 25.2221 10.7423C31.0361 8.96528 36.6871 6.74828 42.3511 4.55628C44.8491 3.59028 47.4231 2.79427 50.0951 2.52527C52.9781 2.23427 58.5031 3.31127 57.9051 7.25827C57.4321 10.3713 53.2141 11.4993 50.7641 10.3303C48.9441 9.46326 48.9981 7.54327 50.7621 6.84827C51.2311 6.66227 51.7521 6.56528 52.2501 6.50928C52.4001 6.49228 53.6681 6.67428 52.8591 6.60828C51.5911 6.50328 51.6051 8.46627 52.8591 8.57727C55.7791 8.83327 56.1011 4.67327 53.0541 4.52127C50.4081 4.38927 45.4761 6.55927 47.7401 10.0473C50.0881 13.6653 55.0451 12.9573 57.7011 10.1293C60.5151 7.13528 58.4121 3.34826 54.9781 2.17026C49.7031 0.35926 44.2161 2.65826 39.3321 4.62726C32.9181 7.21326 26.2091 9.44527 19.4921 11.0993C14.3041 12.3773 9.64408 12.6212 4.77108 10.1822C3.00508 9.29725 1.12809 7.85727 1.14409 5.70227C1.15409 4.23127 2.4881 2.85527 3.5761 2.05527C4.3591 1.47927 5.31409 1.21527 6.26909 1.12427C8.81809 0.881266 9.3631 4.89327 6.8691 4.14627C5.6551 3.78127 5.14708 5.66226 6.34908 6.03726Z" fill="black"/>
<path d="M18.345 11.5431C16.831 11.8301 15.419 12.1031 14.3 13.2561C13.206 14.3831 13.341 16.2722 14.527 17.2892C15.527 18.1492 17.197 18.3551 18.384 17.7861C19.415 17.2911 20.296 15.6592 18.98 14.9142C18.689 14.7502 18.367 14.9101 18.259 15.2081C18.048 15.7941 17.976 15.9441 17.327 16.0721C16.766 16.1821 16.11 16.1011 15.698 15.6791C14.417 14.3661 17.477 12.2701 18.462 11.9721C18.739 11.8891 18.624 11.4901 18.345 11.5431Z" fill="black"/>
<path d="M111.33 6.03726C108.324 6.97326 105.818 3.58827 108.287 1.18427C110.775 -1.23773 114.783 0.410254 116.57 2.94525C120.871 9.04825 111.599 12.6543 106.916 13.2403C102.078 13.8443 97.0226 12.1363 92.4566 10.7423C86.6426 8.96528 80.9916 6.74827 75.3276 4.55627C72.8296 3.59027 70.2556 2.79427 67.5836 2.52527C64.7006 2.23427 59.1755 3.31127 59.7725 7.25827C60.2455 10.3713 64.4636 11.4993 66.9136 10.3303C68.7336 9.46326 68.6796 7.54327 66.9156 6.84827C66.4466 6.66227 65.9255 6.56528 65.4275 6.50928C65.2775 6.49228 64.0096 6.67428 64.8186 6.60828C66.0866 6.50328 66.0726 8.46627 64.8186 8.57727C61.8986 8.83327 61.5765 4.67327 64.6235 4.52127C67.2695 4.38927 72.2016 6.55927 69.9376 10.0473C67.5896 13.6653 62.6326 12.9573 59.9766 10.1293C57.1626 7.13527 59.2656 3.34826 62.6996 2.17026C67.9746 0.359256 73.4615 2.65826 78.3455 4.62726C84.7595 7.21326 91.4686 9.44527 98.1856 11.0993C103.374 12.3773 108.034 12.6213 112.907 10.1823C114.673 9.29725 116.55 7.85727 116.534 5.70227C116.524 4.23127 115.19 2.85527 114.102 2.05527C113.319 1.47927 112.364 1.21527 111.409 1.12427C108.86 0.88127 108.315 4.89327 110.809 4.14627C112.024 3.78127 112.531 5.66226 111.33 6.03726Z" fill="black"/>
<path d="M99.3331 11.5431C100.847 11.8301 102.259 12.1031 103.378 13.2561C104.472 14.3831 104.337 16.2722 103.151 17.2892C102.151 18.1492 100.481 18.3551 99.2941 17.7861C98.2631 17.2911 97.3821 15.6592 98.6981 14.9142C98.9891 14.7502 99.3111 14.9101 99.4191 15.2081C99.6301 15.7941 99.7021 15.9441 100.351 16.0721C100.912 16.1821 101.568 16.1011 101.98 15.6791C103.261 14.3661 100.201 12.2701 99.2161 11.9721C98.9391 11.8891 99.0541 11.4901 99.3331 11.5431Z" fill="black"/>
</svg>
