<svg width="118" height="19" viewBox="0 0 118 19" fill="none" xmlns="http://www.w3.org/2000/svg">
<path d="M111.33 12.0687C108.324 11.1327 105.818 14.5177 108.287 16.9217C110.775 19.3437 114.783 17.6957 116.57 15.1607C120.871 9.0577 111.599 5.45169 106.916 4.86569C102.078 4.26169 97.0226 5.96967 92.4566 7.36367C86.6426 9.14067 80.9916 11.3577 75.3276 13.5497C72.8296 14.5157 70.2556 15.3117 67.5836 15.5807C64.7006 15.8717 59.1756 14.7947 59.7736 10.8477C60.2466 7.73468 64.4646 6.60669 66.9146 7.77569C68.7346 8.64269 68.6806 10.5627 66.9166 11.2577C66.4476 11.4437 65.9266 11.5407 65.4286 11.5967C65.2786 11.6137 64.0106 11.4317 64.8196 11.4977C66.0876 11.6027 66.0736 9.63968 64.8196 9.52868C61.8996 9.27268 61.5776 13.4327 64.6246 13.5847C67.2706 13.7167 72.2026 11.5467 69.9386 8.05868C67.5906 4.44068 62.6336 5.14868 59.9776 7.97668C57.1636 10.9707 59.2666 14.7577 62.7006 15.9357C67.9756 17.7467 73.4626 15.4477 78.3466 13.4787C84.7606 10.8927 91.4696 8.66068 98.1866 7.00668C103.375 5.72868 108.035 5.4847 112.908 7.9237C114.674 8.8087 116.551 10.2487 116.535 12.4037C116.525 13.8747 115.191 15.2507 114.103 16.0507C113.32 16.6267 112.365 16.8907 111.41 16.9817C108.861 17.2247 108.316 13.2127 110.81 13.9597C112.024 14.3247 112.532 12.4437 111.33 12.0687Z" fill="black"/>
<path d="M99.3337 6.56256C100.848 6.27556 102.26 6.00258 103.379 4.84958C104.473 3.72258 104.338 1.83356 103.152 0.816562C102.152 -0.0434384 100.482 -0.249417 99.2947 0.319583C98.2637 0.814583 97.3827 2.44656 98.6987 3.19156C98.9897 3.35556 99.3117 3.19559 99.4197 2.89759C99.6307 2.31159 99.7027 2.16157 100.352 2.03357C100.913 1.92357 101.569 2.00458 101.981 2.42658C103.262 3.73958 100.202 5.83558 99.2167 6.13358C98.9397 6.21658 99.0547 6.61556 99.3337 6.56256Z" fill="black"/>
<path d="M6.34916 12.0687C9.35516 11.1327 11.8612 14.5177 9.39216 16.9217C6.90416 19.3437 2.89617 17.6957 1.10917 15.1607C-3.19183 9.0577 6.08016 5.45169 10.7632 4.86569C15.6012 4.26169 20.6562 5.96967 25.2222 7.36367C31.0362 9.14067 36.6872 11.3577 42.3512 13.5497C44.8492 14.5157 47.4232 15.3117 50.0952 15.5807C52.9782 15.8717 58.5032 14.7947 57.9062 10.8477C57.4332 7.73468 53.2152 6.60669 50.7652 7.77569C48.9452 8.64269 48.9992 10.5627 50.7632 11.2577C51.2322 11.4437 51.7532 11.5407 52.2512 11.5967C52.4012 11.6137 53.6692 11.4317 52.8602 11.4977C51.5922 11.6027 51.6062 9.63968 52.8602 9.52868C55.7802 9.27268 56.1022 13.4327 53.0552 13.5847C50.4092 13.7167 45.4772 11.5467 47.7412 8.05868C50.0892 4.44068 55.0462 5.14868 57.7022 7.97668C60.5162 10.9707 58.4132 14.7577 54.9792 15.9357C49.7042 17.7467 44.2172 15.4477 39.3332 13.4787C32.9192 10.8927 26.2102 8.66068 19.4932 7.00668C14.3052 5.72868 9.64516 5.4847 4.77216 7.9237C3.00616 8.8087 1.12916 10.2487 1.14516 12.4037C1.15516 13.8747 2.48915 15.2507 3.57715 16.0507C4.36015 16.6267 5.31516 16.8907 6.27016 16.9817C8.81916 17.2247 9.36415 13.2127 6.87015 13.9597C5.65515 14.3247 5.14816 12.4437 6.34916 12.0687Z" fill="black"/>
<path d="M18.3456 6.56256C16.8316 6.27556 15.4196 6.00258 14.3006 4.84958C13.2066 3.72258 13.3416 1.83356 14.5276 0.816562C15.5276 -0.0434384 17.1976 -0.249417 18.3846 0.319583C19.4156 0.814583 20.2966 2.44656 18.9806 3.19156C18.6896 3.35556 18.3676 3.19559 18.2596 2.89759C18.0486 2.31159 17.9766 2.16157 17.3276 2.03357C16.7666 1.92357 16.1106 2.00458 15.6986 2.42658C14.4176 3.73958 17.4776 5.83558 18.4626 6.13358C18.7396 6.21658 18.6246 6.61556 18.3456 6.56256Z" fill="black"/>
</svg>
