<svg width="130" height="117" viewBox="0 0 130 117" fill="none" xmlns="http://www.w3.org/2000/svg">
<path d="M0.964996 103.479C0.692996 102.286 0.899997 102.014 2.228 101.956C6.444 101.772 10.661 101.616 14.876 101.408C15.186 101.393 15.648 101.117 15.757 100.848C18.856 93.2272 22.525 85.8262 24.752 77.8672C25.186 76.3172 25.469 74.7232 25.794 73.1442C26.163 71.3492 25.754 69.6682 24.962 68.0592C24.843 67.8182 24.695 67.5572 24.488 67.4002C21.111 64.8202 20.012 61.1532 20.11 57.1972C20.202 53.4752 20.686 49.7432 21.26 46.0562C22.221 39.8832 23.423 33.7472 25.509 27.8342C26.227 25.7992 27.041 23.7842 28.004 21.8572C28.512 20.8402 29.284 19.7882 30.22 19.2032C30.963 18.7382 32.135 18.8762 33.115 18.8892C36.163 18.9302 38.932 20.1002 41.736 21.1172C42.476 21.3852 43.237 21.5942 44.207 21.8992C44.207 21.1522 44.312 20.4802 44.189 19.8512C43.69 17.2952 43.069 14.7632 42.602 12.2022C42.413 11.1692 42.406 10.0782 42.489 9.02721C42.613 7.45921 43.463 6.28021 44.971 5.79621C46.201 5.40121 47.494 5.15722 48.778 4.98722C51.056 4.68522 52.927 3.79021 54.411 1.96021C56.501 -0.618788 59.548 -0.631789 61.795 1.79621C62.828 2.91321 63.122 4.26622 62.943 5.71322C62.725 7.48122 62.494 9.25421 62.116 10.9922C61.695 12.9302 62.092 14.3842 63.883 15.4592C64.869 16.0512 65.765 16.8492 66.562 17.6882C67.643 18.8262 68.048 20.2262 67.543 21.7812C67.156 22.9742 66.3 23.5492 64.945 23.4692C65.151 23.1342 65.322 22.8612 65.488 22.5862C66.546 20.8322 66.337 19.2702 64.795 17.8892C64.132 17.2962 63.423 16.7392 62.676 16.2592C60.77 15.0332 60.294 13.3182 60.69 11.1782C61.07 9.12522 61.418 7.05821 61.604 4.98121C61.77 3.12121 60.907 1.97621 59.214 1.35921C57.586 0.766215 56.453 1.06621 55.316 2.69321C53.503 5.28721 50.853 6.04122 47.94 6.38122C44.212 6.81622 43.38 7.91221 44.035 11.6392C44.402 13.7302 44.984 15.7832 45.358 17.8732C45.621 19.3402 45.696 20.8412 45.875 22.5102C47.409 23.1882 49.194 23.9652 50.967 24.7652C53.988 26.1272 56.769 27.8572 59.297 30.0182C61.008 31.4812 61.632 33.0342 60.957 35.3522C58.447 43.9752 55.19 52.3062 51.401 60.4282C50.335 62.7132 48.944 64.8842 47.447 66.9202C45.001 70.2462 41.56 72.0852 37.519 72.8322C36.519 73.0172 35.534 73.2802 34.532 73.4532C32.848 73.7452 31.931 74.8252 31.364 76.3442C29.972 80.0722 28.535 83.7832 27.151 87.5142C25.385 92.2752 23.64 97.0432 21.934 101.825C21.793 102.22 21.847 102.882 22.096 103.189C24.081 105.639 26.139 108.028 28.164 110.445C29.045 111.496 29.954 112.53 30.751 113.644C31.487 114.673 30.854 116.045 29.588 116.129C28.647 116.191 27.615 116.196 26.751 115.879C21.602 113.987 16.454 112.082 11.378 110.004C7.98499 108.615 4.711 106.934 1.388 105.375C1.048 105.216 0.657009 105.066 0.428009 104.795C0.196009 104.52 0.135 104.1 0 103.744C0.33 103.65 0.660004 103.556 0.992004 103.46C4.013 104.853 6.986 106.359 10.06 107.62C15.738 109.949 21.47 112.151 27.196 114.362C27.906 114.636 28.72 114.643 29.486 114.774C28.468 113.235 27.359 111.977 26.276 110.697C24.726 108.865 23.211 107.004 21.653 105.179C20.328 103.627 20.25 102.002 20.965 100.119C22.887 95.0512 24.668 89.9302 26.553 84.8482C27.769 81.5682 29.051 78.3132 30.341 75.0612C30.909 73.6292 32.003 72.7512 33.5 72.3572C35.548 71.8182 37.62 71.3472 39.623 70.6712C40.872 70.2502 42.075 69.6042 43.188 68.8872C46.318 66.8732 48.19 63.7462 49.652 60.5162C52.323 54.6152 54.682 48.5712 57.072 42.5472C58.039 40.1112 58.746 37.5722 59.55 35.1452C57.952 34.8512 56.489 34.6732 55.075 34.3042C49.493 32.8462 44.29 30.4572 39.267 27.6622C35.936 25.8082 32.318 24.3802 29.732 21.3202C29.613 21.5412 29.503 21.7152 29.423 21.9022C28.855 23.2262 28.232 24.5302 27.741 25.8832C24.214 35.5962 22.366 45.6712 21.578 55.9342C21.297 59.5902 21.966 63.1572 24.881 65.8502C25.798 66.6982 26.432 67.6212 26.813 68.8822C27.393 70.7992 27.437 72.6302 27.027 74.5532C26.117 78.8282 24.825 82.9762 23.127 87.0042C21.183 91.6182 19.273 96.2472 17.343 100.867C17.006 101.674 16.594 102.404 15.594 102.555C14.586 102.707 13.59 103.022 12.58 103.069C8.70999 103.246 4.837 103.348 0.964996 103.479ZM31.023 20.1132C30.958 20.2202 30.892 20.3262 30.827 20.4332C31.322 20.9302 31.743 21.5462 32.324 21.9052C34.682 23.3632 37.06 24.7922 39.483 26.1392C44.619 28.9932 49.92 31.4832 55.631 32.9752C56.716 33.2592 57.851 33.3682 58.97 33.4872C59.257 33.5182 59.671 33.3532 59.84 33.1342C59.946 32.9972 59.771 32.5392 59.602 32.3172C59.273 31.8832 58.882 31.4902 58.478 31.1212C54.734 27.6992 50.146 25.7642 45.552 23.8542C45.305 23.7512 44.794 23.9782 44.558 24.2082C43.574 25.1652 42.478 25.7902 41.064 25.5762C40.748 25.5282 40.463 25.2782 40.164 25.1212C40.465 24.9202 40.749 24.5852 41.071 24.5422C42.078 24.4062 42.875 23.9962 43.496 23.1172C39.498 21.2512 35.492 19.6922 31.023 20.1132Z" fill="#C95571"/>
<path d="M127.727 100.739C127.954 100.667 128.18 100.545 128.409 100.538C128.626 100.532 128.953 100.582 129.039 100.724C129.157 100.92 129.2 101.294 129.087 101.469C128.872 101.801 128.562 102.112 128.222 102.317C120.694 106.861 112.961 111.021 104.878 114.494C103.612 115.038 102.2 115.367 100.827 115.502C99.2882 115.654 98.4942 114.251 99.3612 112.966C100.703 110.978 102.208 109.101 103.598 107.144C104.808 105.44 105.98 103.706 107.105 101.945C107.294 101.648 107.304 101.076 107.151 100.744C103.384 92.5842 99.5552 84.4522 95.8102 76.2822C94.8812 74.2562 93.4722 73.4472 91.2572 73.2932C85.6742 72.9042 80.8962 70.9172 77.3942 66.1952C73.9912 61.6062 71.4302 56.5752 69.0302 51.4522C66.8352 46.7662 64.9152 41.9532 62.8012 37.2282C61.9392 35.3012 62.4652 33.8082 63.8122 32.3772C66.4572 29.5672 69.5572 27.3712 72.9672 25.6272C75.7742 24.1922 78.6592 22.9092 81.5082 21.5562C82.6832 20.9982 83.8542 20.4332 85.1412 19.8162C84.6612 19.4392 84.2222 19.0932 83.7822 18.7482C82.5672 17.7982 81.9202 16.5782 81.9822 15.0102C81.9972 14.6332 81.9842 14.2552 81.9762 13.8772C81.8902 9.6432 77.5002 6.7592 73.5062 8.3062C72.6992 8.6192 72.1502 9.16821 72.0962 10.0372C72.0222 11.2302 71.9842 12.4322 72.0402 13.6252C72.1072 15.0352 72.0942 16.3462 70.8932 17.3962C70.6342 17.6232 70.6572 18.3232 70.7492 18.7642C70.8732 19.3572 71.2262 19.8982 71.4032 20.4862C71.4672 20.6982 71.3052 20.9792 71.2462 21.2282C71.0002 21.1622 70.7012 21.1652 70.5162 21.0202C68.9032 19.7592 68.7062 17.5882 69.9792 16.0482C70.2562 15.7132 70.4412 15.2092 70.4632 14.7722C70.5212 13.6432 70.4532 12.5082 70.4572 11.3752C70.4692 8.1722 71.7102 6.7332 74.8662 6.4472C77.3312 6.2242 79.5602 6.95521 81.4562 8.55221C82.7232 9.62021 83.3782 11.0312 83.4412 12.6982C83.4572 13.1092 83.4682 13.5222 83.4642 13.9332C83.4362 16.5112 84.5962 18.2402 86.9952 19.1032C87.2892 19.2092 87.6632 19.1132 87.9972 19.0812C89.1892 18.9692 90.3802 18.7622 91.5702 18.7682C92.0132 18.7702 92.5582 19.1672 92.8812 19.5372C98.7522 26.2692 100.464 34.7852 102.749 43.0142C103.901 47.1632 104.657 51.4392 105.325 55.7002C105.729 58.2842 105.385 60.9212 104.201 63.3362C103.827 64.0982 103.376 64.8812 102.776 65.4632C100.376 67.7922 100.398 70.5032 101.242 73.4512C102.647 78.3602 104.796 82.9542 107.088 87.4862C109.038 91.3422 111.069 95.1572 113.038 99.0032C113.33 99.5732 113.67 99.7342 114.313 99.7012C118.39 99.4972 122.47 99.3492 126.549 99.1832C126.686 99.1772 126.838 99.1442 126.958 99.1902C127.378 99.3492 127.787 99.5372 128.2 99.7152C128.048 100.062 127.895 100.408 127.742 100.754C124.898 100.83 122.055 100.905 119.211 100.982C117.669 101.024 116.126 101.129 114.586 101.092C113.171 101.058 112.085 100.469 111.438 99.0702C110.575 97.2052 109.593 95.3932 108.611 93.5862C105.711 88.2472 102.976 82.8292 100.866 77.1232C100.273 75.5202 99.7362 73.8632 99.4592 72.1842C99.0262 69.5522 99.4162 67.1032 101.29 64.9232C102.305 63.7422 103.199 62.2132 103.493 60.7132C103.902 58.6302 104.031 56.3732 103.695 54.2852C102.248 45.2852 99.8732 36.5142 96.4192 28.0662C95.4272 25.6392 94.1392 23.3342 93.2342 21.4802C92.1702 22.3102 91.1762 23.2302 90.0492 23.9422C85.0362 27.1102 80.0842 30.3962 74.9122 33.2842C71.6542 35.1032 68.1692 36.6392 64.2962 37.0392C64.3682 37.2552 64.3992 37.3832 64.4522 37.5022C66.6062 42.3222 68.6852 47.1782 70.9392 51.9512C73.1792 56.6952 75.6302 61.3122 78.8042 65.5532C82.0892 69.9442 86.7342 71.4212 91.7382 72.0302C94.2632 72.3372 95.9932 73.1762 97.0612 75.4932C99.1562 80.0402 101.346 84.5442 103.459 89.0832C105.008 92.4112 106.453 95.7872 108.031 99.1002C108.813 100.741 108.847 102.24 107.781 103.734C106.008 106.216 104.238 108.701 102.469 111.185C101.81 112.111 101.156 113.04 100.365 114.158C101.075 114.041 101.533 114.031 101.942 113.885C103.072 113.483 104.229 113.116 105.292 112.572C112.284 108.993 119.256 105.376 126.227 101.755C126.76 101.483 127.228 101.082 127.727 100.739ZM91.7442 20.3022C91.6702 20.1812 91.5962 20.0602 91.5222 19.9392C88.7052 19.8252 86.0482 20.6292 83.4952 21.6862C81.3812 22.5612 79.3802 23.7122 77.3442 24.7712C72.9282 27.0682 68.5062 29.3612 65.0402 33.0672C64.6662 33.4662 64.2932 33.8802 64.0082 34.3422C63.8472 34.6032 63.7602 35.0112 63.8502 35.2842C63.8992 35.4342 64.4002 35.5392 64.6702 35.4942C65.6462 35.3322 66.6472 35.2002 67.5742 34.8752C75.6592 32.0422 82.7292 27.3862 89.6282 22.4462C90.4332 21.8722 91.0432 21.0242 91.7442 20.3022Z" fill="#C95571"/>
<path d="M42.879 85.0704C43.708 84.9124 44.393 84.7814 45.324 84.6034C44.869 85.1664 44.575 85.5294 44.278 85.8964C45.115 86.5604 45.938 87.2124 46.76 87.8644C46.676 88.0164 46.593 88.1684 46.509 88.3194C45.456 87.9454 44.404 87.5714 43.287 87.1754C43.54 89.0414 44.894 90.6554 44.433 92.6564C42.706 91.6264 42.585 89.6794 41.723 88.0934C41.018 89.2764 40.779 90.7064 39.628 91.5244C39.499 91.4814 39.37 91.4384 39.241 91.3964C39.525 90.2574 39.809 89.1184 40.119 87.8734C39.595 88.0184 39.122 88.2084 38.633 88.2604C38.342 88.2914 38.028 88.1064 37.724 88.0174C37.856 87.6984 37.9 87.2184 38.136 87.0884C38.964 86.6314 39.859 86.2954 40.93 85.8244C39.419 85.1294 38.059 84.5294 36.727 83.8724C36.422 83.7214 36.213 83.3754 35.96 83.1194C36.344 83.0014 36.779 82.7064 37.103 82.7984C38.171 83.1024 39.2 83.5474 40.37 83.9854C40.074 83.0724 39.757 82.2814 39.582 81.4604C39.512 81.1334 39.759 80.7394 39.862 80.3754C40.171 80.5874 40.595 80.7314 40.765 81.0244C41.192 81.7574 41.503 82.5584 41.879 83.3734C42.771 82.1784 42.635 80.4194 44.179 79.6934C44.329 81.5844 43.481 83.2044 42.879 85.0704Z" fill="#C95571"/>
<path d="M35.3745 15.4502C34.9315 15.7292 34.5486 16.0282 34.1176 16.2202C33.8786 16.3272 33.5596 16.2552 33.2776 16.2642C33.3126 15.9502 33.2355 15.5432 33.4045 15.3402C33.8595 14.7932 34.4186 14.3322 35.1526 13.6312C34.1136 13.5402 33.3205 13.4992 32.5365 13.3872C32.2545 13.3472 31.9965 13.1392 31.7275 13.0082C31.9895 12.7912 32.2225 12.4542 32.5195 12.3832C33.0335 12.2602 33.5865 12.3032 34.3915 12.2622C33.8355 11.8142 33.4045 11.5462 33.0805 11.1822C32.8425 10.9142 32.7425 10.5232 32.5815 10.1872C32.9795 10.1892 33.4305 10.0712 33.7625 10.2202C34.3095 10.4652 34.7786 10.8842 35.4796 11.3662C35.4026 10.6022 35.3046 10.0162 35.3026 9.43117C35.3016 9.17117 35.4935 8.91017 35.5975 8.64917C35.8455 8.79617 36.2476 8.89216 36.3156 9.09816C36.6026 9.96816 36.7906 10.8712 37.0266 11.8102C37.4136 11.6712 37.8725 11.5062 38.4985 11.2822C38.3565 11.8262 38.2606 12.1962 38.1656 12.5622C38.9036 12.8112 39.6166 13.0522 40.3286 13.2922C40.3186 13.4192 40.3086 13.5462 40.2986 13.6732C39.5936 13.7932 38.8885 13.9132 38.1455 14.0392C38.5005 14.6982 38.8745 15.3922 39.2485 16.0872C39.1585 16.1822 39.0685 16.2772 38.9785 16.3732C38.3185 15.9262 37.6575 15.4802 36.9905 15.0292C36.8545 15.8972 36.7155 16.7802 36.5775 17.6632C36.4335 17.6842 36.2895 17.7052 36.1455 17.7252C35.9005 17.0002 35.6545 16.2742 35.3745 15.4502Z" fill="#C95571"/>
<path d="M111.351 72.534C111.766 73.189 112.088 73.698 112.464 74.293C111.934 74.293 111.453 74.293 110.946 74.293C111.049 75.072 111.146 75.813 111.244 76.555C111.135 76.602 111.025 76.649 110.915 76.696C110.41 76.011 109.904 75.325 109.361 74.588C108.891 75.689 108.432 76.764 107.973 77.84C107.854 77.801 107.735 77.761 107.616 77.722C107.616 76.828 107.616 75.934 107.616 74.984C107.26 74.984 106.848 75.049 106.47 74.966C106.08 74.88 105.723 74.65 105.351 74.482C105.656 74.199 105.918 73.83 106.276 73.653C106.787 73.401 107.367 73.291 108.16 73.046C107.234 72.624 106.502 72.339 105.823 71.958C105.544 71.802 105.38 71.44 105.164 71.171C105.5 71.008 105.833 70.724 106.175 70.711C106.589 70.696 107.012 70.909 107.557 71.057C107.386 70.514 107.192 70.081 107.13 69.63C107.095 69.372 107.277 69.085 107.361 68.811C107.648 68.929 107.994 68.982 108.205 69.18C108.462 69.421 108.606 69.784 108.707 69.947C109.074 69.548 109.42 69.171 109.767 68.793C109.924 69.312 110.091 69.829 110.233 70.353C110.267 70.478 110.224 70.626 110.21 70.762C110.035 72.391 110.035 72.391 111.351 72.534Z" fill="#C95571"/>
<path d="M55.8613 6.99018C56.2383 6.10318 56.8913 5.87418 57.7063 5.96018C58.6693 6.06118 59.3593 6.60019 59.4943 7.53019C59.6143 8.35519 59.6113 9.25718 59.4043 10.0592C59.0193 11.5452 58.4443 12.9812 57.9493 14.4382C57.3653 16.1582 57.6353 16.8472 59.2383 17.6932C60.0853 18.1402 60.9693 18.5252 61.7853 19.0232C62.7223 19.5952 63.1983 20.6732 62.8553 21.4622C62.7213 21.7702 62.2963 21.9522 62.0043 22.1912C61.8683 21.9222 61.7463 21.6452 61.5943 21.3862C61.3363 20.9452 61.1543 20.3772 60.7683 20.1102C60.0723 19.6292 59.2423 19.3452 58.4823 18.9532C56.2773 17.8162 55.7043 16.4022 56.4953 14.0372C56.9613 12.6422 57.4593 11.2592 57.9273 9.86518C58.0243 9.57618 58.0783 9.26618 58.1043 8.96218C58.2253 7.52518 57.8823 7.14418 56.4143 7.04418C56.2513 7.03318 56.0903 7.01318 55.8613 6.99018Z" fill="#C95571"/>
<path d="M72.5547 20.3452C72.7517 18.4632 73.2027 17.0432 74.3527 15.9492C75.1927 15.1502 75.5447 14.2102 75.6687 13.0522C75.7487 12.3012 76.2347 11.5652 76.6567 10.8972C76.7637 10.7282 77.3207 10.8432 77.6707 10.8272C77.6417 11.1082 77.6507 11.3992 77.5757 11.6662C77.4387 12.1562 77.1197 12.6302 77.1107 13.1152C77.0827 14.6962 76.3147 15.8342 75.3427 17.0172C74.6497 17.8612 74.3677 19.0652 73.9987 20.1412C73.8377 20.6112 73.9647 21.3272 73.2417 21.1832C72.9027 21.1152 72.6737 20.5022 72.5547 20.3452Z" fill="#C95571"/>
<path d="M49.4743 9.10419C47.6673 10.5392 48.1913 12.2962 48.6313 14.0982C48.9453 15.3832 49.1353 16.7102 49.2263 18.0292C49.2613 18.5382 48.8673 19.0762 48.6693 19.6012C48.5563 19.5722 48.4433 19.5432 48.3313 19.5142C48.2493 19.2702 48.1303 19.0322 48.0903 18.7812C47.7413 16.5952 47.2963 14.4152 47.1203 12.2132C47.0443 11.2642 47.4153 10.2192 47.8073 9.3152C48.0533 8.7462 48.7213 8.40019 49.4743 9.10419Z" fill="#C95571"/>
<path d="M50.8486 75.3571C50.8716 76.3121 50.0016 77.2601 49.0756 77.2891C48.2166 77.3151 47.6126 76.6531 47.6046 75.6731C47.5956 74.6241 48.2986 73.7001 49.1316 73.6691C50.0386 73.6341 50.8256 74.4081 50.8486 75.3571Z" fill="#C95571"/>
<path d="M85.3028 7.47413C85.5298 7.29613 85.6618 7.21813 85.7628 7.10913C85.9698 6.88513 86.1598 6.64413 86.3568 6.41113C86.6958 6.70213 87.2248 6.93512 87.3358 7.29612C87.5988 8.15212 87.0788 8.73313 86.3048 9.05113C85.4028 9.42213 84.3928 9.11013 83.9418 8.36613C83.5068 7.64813 83.6068 6.63213 84.2168 6.22013C84.4378 6.07113 84.7998 6.02313 85.0578 6.08613C85.1708 6.11413 85.1958 6.53713 85.2418 6.78413C85.2748 6.96613 85.2758 7.15413 85.3028 7.47413Z" fill="#C95571"/>
<path d="M40.7088 5.1901C40.6818 6.3251 39.9148 7.0571 39.1518 7.0211C38.4638 6.9881 37.8868 6.33509 37.9278 5.63209C37.9628 5.03709 38.8598 4.3661 39.7108 4.4951C40.1288 4.5581 40.4858 5.0251 40.7088 5.1901Z" fill="#C95571"/>
<path d="M56.3085 72.529C56.3225 73.679 55.6745 74.355 54.8895 74.333C54.1495 74.313 53.6585 73.943 53.6055 73.165C53.5575 72.463 54.3815 71.627 55.1685 71.762C55.6455 71.844 56.0525 72.346 56.3085 72.529Z" fill="#C95571"/>
<path d="M89.0725 87.8321C89.0145 88.5481 88.5745 88.9961 87.7735 89.0541C86.9795 89.1121 86.2475 88.5051 86.4015 87.7651C86.4995 87.2951 86.9255 86.6721 87.3405 86.5381C88.1105 86.2891 89.0395 87.0541 89.0725 87.8321Z" fill="#C95571"/>
<path d="M115.42 67.766C116.262 67.741 116.823 68.06 116.801 68.921C116.78 69.729 116.229 70.133 115.462 70.183C114.742 70.23 114.147 69.606 114.2 68.881C114.255 68.124 114.631 67.675 115.42 67.766Z" fill="#C95571"/>
<path d="M80.8801 5.7803C80.7231 5.5873 80.2841 5.27529 80.1871 4.87829C80.0311 4.23829 80.8651 3.2523 81.4361 3.2493C82.1491 3.2453 82.504 3.66629 82.554 4.33529C82.609 5.04629 81.9361 5.7393 80.8801 5.7803Z" fill="#C95571"/>
<path d="M54.6347 79.5091C54.6417 80.6101 54.0347 81.3521 53.4077 81.1891C53.0517 81.0971 52.6247 80.6571 52.5337 80.2971C52.3737 79.6621 53.1197 78.7971 53.7067 78.9041C54.1017 78.9761 54.4377 79.3721 54.6347 79.5091Z" fill="#C95571"/>
<path d="M94.0094 89.9414C93.5154 89.1994 93.0774 88.7774 92.9724 88.2844C92.9204 88.0404 93.4314 87.4804 93.7724 87.3904C94.3694 87.2344 95.2664 88.0844 95.0964 88.6044C94.9664 89.0024 94.5454 89.3054 94.0094 89.9414Z" fill="#C95571"/>
<path d="M114.907 78.0672C114.71 77.7502 114.282 77.3722 114.278 76.9902C114.269 76.2592 114.8 75.7362 115.541 75.8322C115.873 75.8752 116.363 76.3882 116.394 76.7242C116.463 77.4732 115.897 77.8542 114.907 78.0672Z" fill="#C95571"/>
<path d="M34.7138 6.55515C34.2878 5.92115 33.8868 5.59416 33.8848 5.26516C33.8808 4.59116 34.3318 4.06515 35.0438 4.15815C35.3308 4.19515 35.8138 4.79215 35.7538 5.01015C35.6228 5.48115 35.2008 5.87215 34.7138 6.55515Z" fill="#C95571"/>
<path d="M85.8164 0.15918C86.1004 0.56518 86.5554 0.949179 86.6094 1.38318C86.6454 1.66918 86.1534 2.22017 85.8094 2.30917C85.1954 2.46717 84.7014 2.02418 84.7504 1.39418C84.7834 0.97818 85.1644 0.590186 85.3894 0.190186C85.5314 0.180186 85.6744 0.16918 85.8164 0.15918Z" fill="#C95571"/>
<path d="M91.8672 92.0645C92.1942 92.4975 92.5482 92.7645 92.5152 92.9715C92.4712 93.2545 92.1332 93.4925 91.9222 93.7505C91.6832 93.5285 91.2742 93.3225 91.2512 93.0805C91.2272 92.8215 91.5672 92.5285 91.8672 92.0645Z" fill="#C95571"/>
<path d="M39.709 2.4383C40.132 2.1623 40.401 1.84931 40.622 1.88031C40.852 1.91231 41.2 2.28331 41.192 2.49531C41.184 2.70831 40.811 3.05731 40.581 3.07031C40.358 3.08231 40.112 2.7483 39.709 2.4383Z" fill="#C95571"/>
<path d="M56.0004 41.0632C55.4124 42.9112 54.9614 44.8172 54.2104 46.5972C52.4504 50.7682 50.5804 54.8942 48.6864 59.0072C48.0144 60.4672 47.2184 61.8832 46.3524 63.2382C43.4814 67.7362 39.9904 69.1482 34.7384 68.0432C31.9244 67.4512 29.4674 66.1032 27.1984 64.4082C24.6254 62.4872 23.4934 59.7542 23.3234 56.6522C23.0804 52.2132 23.5084 47.8152 24.5114 43.4772C25.0234 41.2642 26.2494 39.6192 28.2894 38.6142C29.3964 38.0682 30.5174 37.5462 31.6564 37.0712C34.8494 35.7422 37.3624 33.6952 38.8514 30.4972C38.9994 30.1792 39.3794 29.9692 39.6514 29.7102C39.7364 30.1432 40.0014 30.6382 39.8784 30.9992C39.0664 33.3702 37.6824 35.3672 35.5144 36.6762C34.0814 37.5412 32.5374 38.2242 31.0334 38.9692C30.1734 39.3952 29.1864 39.6462 28.4534 40.2252C27.5964 40.9032 26.5714 41.7372 26.2834 42.7022C24.7534 47.8432 24.1824 53.1072 25.0214 58.4532C25.3344 60.4492 26.4264 62.0402 27.9984 63.2372C30.6304 65.2412 33.5304 66.6602 36.9024 66.9282C40.0954 67.1832 42.6844 66.0292 44.4234 63.3902C45.7954 61.3082 46.9734 59.0792 48.0504 56.8272C50.2254 52.2782 52.2654 47.6642 54.3824 43.0872C54.7344 42.3262 55.1944 41.6162 55.6044 40.8822C55.7364 40.9432 55.8684 41.0032 56.0004 41.0632Z" fill="#C95571"/>
<path d="M42.5287 41.5693C44.2917 41.4363 45.7127 43.0393 45.4297 44.6113C45.1557 46.1313 43.7687 47.3093 42.1527 47.3923C40.6807 47.4683 39.4557 46.5963 39.0637 45.1963C38.6337 43.6583 39.3057 41.6553 40.5497 41.0323C40.8677 40.8733 41.3477 41.0373 41.7527 41.0523C41.6217 41.3793 41.5067 41.7143 41.3557 42.0313C41.0407 42.6913 40.4837 43.3293 40.4467 43.9993C40.4167 44.5443 40.8637 45.3443 41.3407 45.6353C42.0637 46.0763 42.8717 45.7253 43.4437 45.0613C43.9727 44.4483 43.8967 43.8183 43.4787 43.1713C43.1577 42.6743 42.8717 42.1513 42.5287 41.5693Z" fill="#C95571"/>
<path d="M27.4615 34.8351C27.4615 34.2111 27.3025 33.5342 27.4895 32.9722C28.1895 30.8662 28.9825 28.7902 29.7985 26.7262C29.8995 26.4712 30.3475 26.3531 30.6345 26.1711C30.6925 26.5131 30.8795 26.8961 30.7855 27.1891C30.4505 28.2301 30.0075 29.2362 29.6275 30.2632C29.1875 31.4512 28.7775 32.6501 28.3395 33.8391C28.2045 34.2041 28.0185 34.5501 27.8555 34.9041C27.7235 34.8811 27.5925 34.8581 27.4615 34.8351Z" fill="#C95571"/>
<path d="M30.6313 34.2322C30.5043 31.9502 31.1023 29.8342 31.9383 27.7772C32.0223 27.5702 32.4433 27.3332 32.6373 27.3832C32.8383 27.4352 33.1163 27.8462 33.0823 28.0542C32.7163 30.2812 31.9473 32.3602 30.6313 34.2322Z" fill="#C95571"/>
<path d="M34.4107 42.1743C34.4767 41.9303 34.4897 41.6513 34.6207 41.4493C34.8217 41.1403 35.1197 40.6443 35.3477 40.6593C35.7057 40.6833 36.2047 40.9933 36.3497 41.3143C36.7207 42.1383 36.3137 42.8563 35.6907 43.4083C35.0667 43.9613 34.2657 44.3243 33.5517 43.7743C33.1737 43.4833 33.1257 42.7633 32.9297 42.2373C33.3637 42.1303 33.7977 42.0223 34.2317 41.9143C34.2917 42.0013 34.3517 42.0883 34.4107 42.1743Z" fill="#C95571"/>
<path d="M35.8511 49.2542C35.8141 50.2662 34.9661 51.1132 34.0711 51.2722C33.4051 51.3902 32.8521 51.2212 32.5281 50.5752C32.1571 49.8362 32.462 49.4072 33.292 49.3612C33.559 49.3462 33.7991 49.0422 34.0711 48.9132C34.4351 48.7412 34.869 48.4302 35.181 48.5152C35.505 48.6032 35.7191 49.0942 35.8511 49.2542Z" fill="#C95571"/>
<path d="M90.5234 24.5813C91.0314 24.8493 91.5524 24.9823 91.8624 25.3133C92.9494 26.4743 93.1024 27.9513 93.0194 29.4533C92.8774 32.0233 91.8524 34.2493 90.1474 36.1313C88.3044 38.1653 86.3184 40.0693 84.4944 42.1193C83.4754 43.2633 82.5344 44.5163 81.7784 45.8453C80.2574 48.5183 80.8184 51.1233 83.1644 53.1253C84.8654 54.5763 86.9004 55.1333 89.0664 55.2003C91.3294 55.2693 93.5964 55.1723 95.8604 55.2113C97.9554 55.2473 99.4564 56.4463 100.689 57.9823C101.014 58.3863 101.014 59.0513 101.163 59.5963C101.036 59.6533 100.909 59.7093 100.782 59.7663C100.464 59.4333 100.129 59.1143 99.8304 58.7653C98.1034 56.7483 95.9414 55.9863 93.3044 56.3063C90.8044 56.6093 88.3024 56.5173 85.8514 55.8443C84.1554 55.3783 82.7054 54.4893 81.5144 53.1993C79.5044 51.0223 79.0934 48.1513 80.3444 45.4603C81.4964 42.9813 83.3764 41.0703 85.2154 39.1253C86.5594 37.7043 87.9734 36.3443 89.2444 34.8603C90.8324 33.0073 91.7984 30.8223 91.6284 28.3533C91.5484 27.1943 90.9784 26.0703 90.5234 24.5813Z" fill="#C95571"/>
<path d="M97.9991 60.987C97.4621 61.139 97.2031 61.242 96.9351 61.273C96.8301 61.286 96.6921 61.155 96.5931 61.063C95.0051 59.589 93.0621 59.372 91.0221 59.46C88.5251 59.568 86.0241 59.764 83.5291 59.721C80.8811 59.675 78.9831 58.163 77.5411 56.054C77.3761 55.812 77.4851 55.383 77.4671 55.04C77.7901 55.129 78.2491 55.112 78.4161 55.324C80.9031 58.487 84.2911 58.559 87.8631 58.24C89.7651 58.07 91.7011 58.003 93.5991 58.16C94.6351 58.246 95.6711 58.812 96.6141 59.33C97.1021 59.598 97.3901 60.232 97.9991 60.987Z" fill="#C95571"/>
<path d="M98.7238 66.1993C98.4008 67.5353 97.6717 68.0703 96.8457 68.3873C91.1827 70.5633 85.1047 70.2273 80.3937 65.4633C80.1437 65.2103 80.0787 64.7753 79.9277 64.4253C80.3137 64.5123 80.7787 64.4893 81.0717 64.7033C82.8717 66.0203 84.6437 67.3283 86.8757 67.9043C90.2887 68.7853 93.5217 68.2153 96.7117 66.9693C97.2967 66.7393 97.8838 66.5193 98.7238 66.1993Z" fill="#C95571"/>
<path d="M71.8926 44.5051C70.0956 44.5161 68.7936 43.0741 68.7746 41.0511C68.7596 39.4381 69.9756 38.4021 71.9386 38.3581C73.3556 38.3261 74.7716 39.9141 74.7906 41.5581C74.8106 43.4111 73.7456 44.4941 71.8926 44.5051ZM73.3666 41.5571C73.3706 40.3491 72.4166 39.4431 71.1066 39.4081C70.4526 39.3901 69.8516 40.0881 69.8466 40.8711C69.8386 42.0871 70.7066 43.0941 71.7636 43.0931C72.8466 43.0921 73.3636 42.5971 73.3666 41.5571Z" fill="#C95571"/>
<path d="M100.929 49.5672C100.504 48.3542 100.049 47.1502 99.6625 45.9252C99.1045 44.1622 98.5734 42.3892 98.0844 40.6062C98.0044 40.3152 98.1985 39.9492 98.2665 39.6172C98.5675 39.7772 99.0464 39.8682 99.1404 40.1092C100.274 43.0182 101.257 45.9722 101.362 49.1362C101.366 49.2562 101.309 49.3772 101.28 49.4982C101.162 49.5212 101.046 49.5442 100.929 49.5672Z" fill="#C95571"/>
<path d="M97.6066 47.9052C97.4556 47.7112 97.2396 47.5392 97.1646 47.3192C96.5576 45.5412 95.9576 43.7592 95.4076 41.9632C95.3256 41.6962 95.5196 41.3442 95.5866 41.0322C95.8826 41.2082 96.3136 41.3112 96.4516 41.5712C97.4846 43.5082 97.9646 45.5812 97.8706 47.7702C97.7836 47.8152 97.6946 47.8602 97.6066 47.9052Z" fill="#C95571"/>
<path d="M76.8323 37.3982C77.2573 37.1032 77.4543 36.8902 77.6923 36.8202C77.9803 36.7362 78.4223 36.6442 78.5813 36.7912C78.7653 36.9602 78.8603 37.5702 78.7373 37.6672C78.2103 38.0882 77.6113 38.6012 76.9943 38.6672C76.5643 38.7132 75.7783 38.1702 75.6593 37.7462C75.4903 37.1442 75.7594 36.4052 75.9114 35.7412C75.9374 35.6282 76.3153 35.5302 76.5173 35.5512C76.6133 35.5612 76.7214 35.8632 76.7474 36.0442C76.7984 36.4042 76.7973 36.7712 76.8323 37.3982Z" fill="#C95571"/>
<path d="M77.2974 44.3972C76.9374 43.8432 76.5504 43.4212 76.6194 43.3242C76.9644 42.8402 77.4294 42.4412 77.8524 42.0122C78.0784 42.2962 78.5544 42.6972 78.4854 42.8422C78.2544 43.3342 77.8304 43.7352 77.2974 44.3972Z" fill="#C95571"/>
</svg>
