<svg width="122" height="82" viewBox="0 0 122 82" fill="none" xmlns="http://www.w3.org/2000/svg">
<path d="M82.6836 68.8104C82.4746 71.3514 83.0426 67.3834 82.5026 69.9224C82.3476 69.9374 82.1926 69.9524 82.0376 69.9684C81.8826 69.0734 81.6276 68.1834 81.5916 67.2844C81.4746 64.3374 81.4876 61.3844 81.3586 58.4384C81.1486 53.6404 80.8126 48.8474 80.6286 44.0484C80.4016 38.1214 80.2696 32.1894 80.1106 26.2594C80.0766 24.9764 80.1056 23.6914 80.1056 22.2934C78.9166 22.3774 77.9026 22.4414 76.8906 22.5224C73.7876 22.7724 70.6846 23.0304 67.5816 23.2844C67.5486 23.2874 67.5056 23.2734 67.4836 23.2894C66.1536 24.2714 64.7296 23.2374 63.3396 23.4804C61.8796 23.7354 60.3706 23.7114 58.8826 23.8054C57.3946 23.8994 55.9076 24.0014 54.4186 24.0784C45.6506 24.5314 36.8776 24.9104 28.1156 25.4524C22.7316 25.7854 17.3636 26.3684 11.9866 26.8284C11.3936 26.8794 10.7916 26.8974 10.1986 26.8574C9.88358 26.8364 9.57957 26.6574 9.27057 26.5504C9.26957 26.4274 9.26858 26.3044 9.26758 26.1824C9.99358 25.9904 10.7186 25.7984 11.5766 25.5714C11.4976 24.8054 11.4246 23.9944 11.3286 23.1874C11.2146 22.2244 11.6506 21.6384 12.5026 21.2314C15.4846 19.8084 18.6516 19.7424 21.8446 19.9604C22.9266 20.0344 23.2746 20.9214 23.4316 21.8554C23.5676 22.6634 23.6616 23.4784 23.7876 24.3824C25.3326 24.2804 26.8166 24.2144 28.2896 24.0524C28.5106 24.0284 28.7786 23.5854 28.8636 23.2894C29.6046 20.7134 30.3466 18.1354 31.0106 15.5384C31.3956 14.0334 32.3016 13.1644 33.8046 12.9894C38.0446 12.4964 42.2806 11.9374 46.5346 11.6174C50.4976 11.3194 54.4806 11.2904 58.4546 11.1504C59.3236 11.1194 60.0486 10.9754 60.4856 12.2324C60.9366 13.5294 62.0596 14.5804 62.8116 15.7874C63.9676 17.6424 65.0856 19.5234 66.1576 21.4284C66.5026 22.0404 66.8546 22.2524 67.4826 21.9554C67.6636 20.7474 66.3236 19.0664 68.5696 18.5534C68.6116 18.4844 68.6766 18.4294 68.6746 18.3754C68.6056 16.3994 68.7746 16.0454 70.7086 15.8414C72.8416 15.6164 75.0006 15.6324 77.1496 15.5744C78.0426 15.5504 78.5556 16.0604 78.7416 16.9154C78.8186 17.2714 78.8866 17.6284 78.9576 17.9764C80.6946 18.3934 80.8006 18.5684 80.9416 21.1914C80.9636 21.6064 81.0056 22.0204 81.0566 22.6694C81.4066 22.2884 81.6016 22.0894 81.7816 21.8784C85.3946 17.6434 89.0026 13.4044 92.6206 9.17338C93.3726 8.29338 93.9526 8.13938 94.9746 8.75838C96.8426 9.88938 98.7376 11.0054 100.47 12.3254C105.266 15.9824 109.992 19.7304 114.725 23.4694C115.577 24.1424 116.397 24.8844 117.087 25.7154C117.298 25.9704 117.191 26.7474 116.948 27.0794C115.537 29.0024 114.029 30.8534 112.578 32.7464C109.918 36.2164 107.275 39.6994 104.541 43.2884C106.068 44.6124 107.516 45.9044 109.005 47.1484C111.167 48.9554 113.359 50.7244 115.535 52.5144C116.603 53.3934 116.748 54.0454 115.888 55.1414C113.332 58.3994 110.715 61.6104 108.128 64.8444C104.111 69.8654 100.104 74.8934 96.0826 79.9114C94.8166 81.4924 94.8056 81.4774 93.0886 80.4064C89.6596 78.2664 86.2246 76.1364 82.8036 73.9844C82.4686 73.7734 82.2106 73.4414 81.8586 73.1114C78.3216 73.4184 74.6686 73.7984 71.0066 74.0394C65.3556 74.4114 59.6986 74.7224 54.0416 74.9994C46.8926 75.3494 39.7416 75.6414 32.5906 75.9534C29.0486 76.1084 25.5056 76.2514 21.9636 76.4034C18.8866 76.5364 15.8106 76.7054 12.7326 76.7814C12.2206 76.7944 11.2356 76.3284 11.2536 76.2314C11.4186 75.3534 12.2086 75.6744 12.7776 75.6384C16.3476 75.4084 19.9186 75.1984 23.4906 75.0024C27.0636 74.8064 30.6366 74.6084 34.2106 74.4564C42.6196 74.0994 51.0336 73.8274 59.4396 73.4084C64.6316 73.1494 69.8146 72.6974 74.9986 72.3024C77.1776 72.1364 79.3496 71.8854 81.5266 71.6924C82.4676 71.6094 82.7366 71.8924 82.7236 72.6684C86.6676 75.0914 90.5306 77.4644 94.3756 79.8264C101.291 71.2564 108.271 62.6044 115.325 53.8614C106.644 47.1654 98.9156 39.3764 89.8176 33.0644C89.2926 33.7554 88.7906 34.3574 88.3536 35.0024C86.3666 37.9374 84.3556 40.8584 82.4536 43.8484C82.0226 44.5264 81.9956 45.4604 81.7816 46.2764C81.8866 46.3074 81.9916 46.3384 82.0956 46.3694C83.2376 44.8914 84.3456 43.3854 85.5306 41.9434C86.4336 40.8444 87.3936 39.7854 88.4006 38.7824C89.2866 37.8984 90.1096 37.8774 91.1416 38.6394C95.1116 41.5744 99.0706 44.5224 103.025 47.4784C105.493 49.3234 107.962 51.1694 110.397 53.0574C111.81 54.1534 111.867 54.5724 110.81 56.0634C109.892 57.3604 108.926 58.6294 107.896 59.8394C104.59 63.7254 98.2546 72.5874 94.9016 76.4334C94.5036 76.8894 94.1656 77.2884 93.2966 76.6474C88.9066 73.4084 87.3026 71.9054 82.8356 68.7724C83.5236 69.2624 83.5726 69.2624 82.6836 68.8104ZM82.5686 27.6794C84.0296 28.7714 85.5036 29.8344 86.9206 30.9674C87.1846 31.1794 87.2216 31.6754 87.3636 32.0404C86.9836 31.9514 86.5366 31.9604 86.2346 31.7554C84.8926 30.8454 83.5826 29.8864 82.2846 28.9134C82.0156 28.7114 81.6196 28.3114 81.6756 28.1124C81.8766 27.3914 82.0996 26.5924 82.5726 26.0454C86.1306 21.9354 89.7816 17.9064 93.3326 13.7904C94.6616 12.2504 95.0886 11.5804 96.9866 13.5544C97.0546 13.6254 97.1406 13.6804 97.2196 13.7414C101.124 16.7624 108.027 22.7844 111.933 25.8034C112.821 26.4904 112.96 27.2844 112.283 28.1784C111.424 29.3144 110.543 30.4364 109.652 31.5474C107.031 34.8164 104.401 38.0774 101.767 41.3504C103.408 42.7374 103.285 42.6044 103.655 42.4814C107.841 36.9624 111.974 31.5144 116.138 26.0254C108.789 20.4304 101.902 14.2814 93.9766 9.30137C90.3876 13.5494 86.8646 17.7254 83.3326 21.8944C82.7776 22.5504 82.1656 23.1584 81.6156 23.8174C81.4146 24.0584 81.1926 24.3824 81.1876 24.6724C81.1516 26.8234 81.1686 28.9754 81.1686 30.8124C83.2246 32.3114 84.9716 33.5844 86.7126 34.8534C87.7456 33.7064 88.6846 32.6474 88.3626 30.9704C88.2556 30.4134 88.5936 29.7714 88.7286 29.1684C88.8786 29.1714 89.0286 29.1734 89.1796 29.1764C89.2976 29.8284 89.3886 30.4874 89.5446 31.1304C89.6216 31.4494 89.7396 31.8634 89.9786 32.0164C90.6076 32.4194 91.3136 32.7034 92.0816 33.0804C92.1586 30.5464 91.8116 28.0194 93.0326 25.6964C93.1906 26.0434 93.2966 26.3894 93.3096 26.7404C93.3936 29.0234 93.4346 31.3074 93.5476 33.5884C93.5676 33.9914 93.8536 34.3804 94.0166 34.7764C94.1386 34.7494 94.2596 34.7214 94.3816 34.6944C94.6166 32.1854 94.4936 29.6084 95.6266 27.2494C95.8086 27.5724 95.8996 27.8894 95.8896 28.2024C95.8216 30.3834 95.8696 32.5814 95.5936 34.7374C95.4436 35.9054 95.9856 36.2304 96.8096 36.6734C96.7506 35.2244 96.7176 33.8584 97.4446 32.6434C97.5586 32.6434 97.6726 32.6444 97.7876 32.6444C97.9126 34.0514 97.3796 37.7154 100.941 40.1084C104.436 35.7264 108.07 31.3644 111.466 27.1074C106.893 23.5764 99.4146 17.1194 94.9816 13.6954C90.8706 18.3234 86.6986 23.0254 82.5686 27.6794ZM101.33 63.7944C102.744 62.4874 104.949 62.4424 105.529 60.4864C104.256 60.6514 102.947 60.8214 101.638 60.9914C101.606 60.8784 101.573 60.7664 101.541 60.6534C101.804 60.4974 102.051 60.3014 102.332 60.1904C103.502 59.7314 104.651 59.1674 105.865 58.8884C107.543 58.5024 108.264 57.1814 109.171 55.9694C108.79 55.9904 108.452 56.0924 108.115 56.1964C105.111 57.1234 102.113 58.0724 99.0986 58.9624C98.3826 59.1734 97.6106 59.1914 96.8636 59.2974C96.8296 59.1744 96.7956 59.0514 96.7616 58.9284C97.4266 58.5974 98.0646 58.1834 98.7626 57.9494C102.026 56.8544 105.306 55.8094 108.578 54.7424C108.994 54.6074 109.403 54.4504 110.09 54.2054C109.089 53.8524 108.839 52.8124 107.741 53.1564C105.533 53.8464 103.302 54.4684 101.061 55.0384C100.339 55.2224 99.5536 55.1554 98.7976 55.2034C98.7726 55.0704 98.7476 54.9374 98.7236 54.8044C101.271 53.4174 104.202 53.0864 107.066 52.0104C101.218 47.6294 95.4776 43.3284 89.6836 38.9884C89.1276 39.5754 88.6086 40.0794 88.1386 40.6274C86.1826 42.9094 84.2396 45.2024 82.2996 47.4974C82.2026 47.6124 82.1196 47.7844 82.1216 47.9284C82.1326 48.6384 82.1746 49.3474 82.2106 50.1394C83.5036 49.6004 84.6486 49.0914 85.8166 48.6444C87.9656 47.8214 88.6716 47.7674 89.5386 48.3694C88.9766 48.6874 88.4916 49.0264 87.9586 49.2514C86.3736 49.9224 84.7906 50.6114 83.1636 51.1674C82.3796 51.4354 82.1666 51.7964 82.4376 52.5564C85.3926 51.9304 88.0816 50.0864 91.2816 50.5114C88.5896 52.3094 85.4476 52.9224 82.4456 54.0234C82.4826 54.4954 82.5176 54.9494 82.5546 55.4264C83.6286 55.3074 84.5616 54.3864 85.7796 55.0514C85.0236 56.3264 83.7296 56.3974 82.6046 56.8014C82.6046 57.0874 82.6046 57.3694 82.6046 57.6464C83.1516 57.7044 83.6476 57.7574 84.1446 57.8094C84.1886 57.9204 84.2316 58.0324 84.2756 58.1434C83.7566 58.5264 83.2376 58.9084 82.6816 59.3184C82.4636 60.2194 82.5156 67.5354 83.3266 68.0874C87.7546 71.1004 89.5336 72.4164 93.9946 75.5224C95.8196 73.4794 100.793 66.2704 102.891 63.9214C102.273 63.8714 101.902 63.8414 101.33 63.7944ZM64.9546 22.2454C64.7356 21.8374 64.6646 21.6904 64.5806 21.5514C62.8326 18.6654 61.0936 15.7734 59.3136 12.9074C59.1746 12.6834 58.7386 12.5194 58.4506 12.5324C52.7946 12.7834 47.1376 13.0074 41.4876 13.3624C38.5926 13.5444 35.7126 13.9684 32.8486 14.2814C31.9356 17.5594 31.0686 20.6774 30.1386 24.0184C41.7806 23.4244 53.2676 22.8404 64.9546 22.2454ZM22.5356 24.4174C22.3946 23.4984 22.3116 22.6174 22.0966 21.7684C22.0316 21.5104 21.6166 21.1814 21.3396 21.1594C18.5376 20.9414 15.7766 21.1124 13.1816 22.3314C12.9326 22.4484 12.6206 22.7974 12.6286 23.0284C12.6576 23.8374 12.8156 24.6424 12.9236 25.4504C16.1666 25.1024 19.2806 24.7674 22.5356 24.4174ZM79.5926 21.0374C79.5486 19.2974 79.5476 19.2484 77.9346 19.2774C75.6516 19.3184 73.3696 19.4174 71.0906 19.5404C70.2536 19.5864 69.4246 19.7734 68.5126 19.9074C68.6326 20.6574 68.7276 21.2584 68.8346 21.9254C72.5006 21.6234 76.0486 21.3304 79.5926 21.0374ZM81.4596 32.3674C81.5706 35.7024 81.6746 38.8204 81.7856 42.1714C83.2666 39.9524 84.6106 37.9394 85.9706 35.9044C84.4866 34.7404 83.0666 33.6264 81.4596 32.3674ZM70.0726 18.3674C72.6006 18.2224 75.0996 18.0794 77.6036 17.9354C77.7046 17.1544 77.4556 16.7044 76.6686 16.7424C74.6896 16.8374 72.7116 16.9574 70.7326 17.0614C69.8916 17.1064 69.7166 17.5304 70.0726 18.3674Z" fill="#C95571"/>
<path d="M67.4258 49.8172C67.1558 51.8822 67.0818 54.3332 66.4878 56.6522C64.5138 64.3562 59.4548 68.9732 51.7378 70.7012C41.9388 72.8962 32.0518 68.6012 27.1078 60.0642C25.2618 56.8762 24.5038 53.4042 24.5098 49.7782C24.5208 43.0912 26.7508 37.1692 31.0808 32.0872C33.1288 29.6842 35.6368 28.0272 38.7738 27.0712C41.3938 26.2722 43.9488 25.8062 46.6578 25.8772C56.6808 26.1392 65.3298 33.7202 66.8128 43.6292C67.1008 45.5562 67.2028 47.5102 67.4258 49.8172ZM66.0778 49.8292C65.8438 47.5512 65.7478 45.5932 65.4258 43.6742C64.4498 37.8552 61.4468 33.2692 56.3978 30.2632C51.2048 27.1712 45.6628 26.1572 39.6528 27.9702C36.0938 29.0442 33.3948 31.0512 31.2048 33.8952C28.0918 37.9362 26.3108 42.5432 25.9048 47.6072C25.5798 51.6572 26.1108 55.6062 28.1838 59.2292C32.6858 67.0962 41.6608 71.2682 50.5918 69.5762C58.0288 68.1672 63.0968 64.0002 65.1038 56.5852C65.7188 54.3092 65.7958 51.8882 66.0778 49.8292Z" fill="#C95571"/>
<path d="M8.99914 26.8342C9.12114 27.1382 9.32515 27.4352 9.35315 27.7472C9.76115 32.3302 10.2361 36.9102 10.5121 41.5012C10.9131 48.1812 11.1671 54.8712 11.4801 61.5562C11.5231 62.4832 11.5071 63.4152 11.6011 64.3362C11.6291 64.6042 11.9001 64.9972 12.1401 65.0702C16.1101 66.2672 17.8491 67.7152 19.5531 71.2992C22.7061 71.1512 25.8512 70.8032 28.9792 70.9132C32.0492 71.0212 35.1682 70.6432 38.2202 71.1502C38.2292 71.3182 38.2382 71.4862 38.2472 71.6542C37.7612 71.7822 37.2801 71.9942 36.7881 72.0222C35.0691 72.1172 33.3472 72.1552 31.6252 72.2032C27.7532 72.3122 23.8791 72.3802 20.0101 72.5442C19.0181 72.5862 18.4661 72.4022 18.0721 71.3892C16.9741 68.5652 14.6452 67.1472 11.7962 66.2162C11.5182 69.3972 12.1212 72.5322 11.3712 75.5702C11.2402 75.5802 11.1082 75.5912 10.9772 75.6012C10.8422 74.7832 10.6211 73.9692 10.5861 73.1472C10.4091 68.9122 10.3061 64.6732 10.1281 60.4382C9.81014 52.8562 9.48816 45.2742 9.10216 37.6952C8.96116 34.9192 8.60914 32.1542 8.40214 29.3812C8.34114 28.5642 8.44915 27.7342 8.48015 26.9102C8.65315 26.8852 8.82614 26.8602 8.99914 26.8342Z" fill="#C95571"/>
<path d="M18.0811 6.8003C18.7081 5.5853 19.1751 4.3153 19.9511 3.2743C20.7431 2.2113 21.7131 1.1723 22.8281 0.481304C24.6921 -0.674697 26.4101 0.348306 26.2421 2.51831C26.1001 4.34331 25.6791 6.17531 25.1501 7.93431C24.4831 10.1503 23.5841 12.2963 22.7781 14.4693C22.2901 15.7873 21.8741 15.9943 20.5291 15.7263C17.2181 15.0653 14.1491 13.8743 11.7161 11.4573C10.9871 10.7333 10.3651 9.7983 9.99413 8.8433C9.43413 7.4053 10.1811 6.30231 11.7051 5.98631C13.5761 5.59731 15.3951 5.8733 17.1801 6.4763C17.4891 6.5813 17.7951 6.6973 18.0811 6.8003ZM13.5141 6.91931C13.4881 6.99331 13.4621 7.06731 13.4361 7.14131C13.0091 7.18031 12.5731 7.17731 12.1571 7.26631C11.1881 7.47331 10.9571 7.8703 11.4121 8.7413C11.7271 9.3453 12.1601 9.9203 12.6521 10.3923C14.8441 12.4973 17.5271 13.6213 20.4681 14.2423C21.1161 14.3793 21.4181 14.2773 21.6531 13.6433C22.5391 11.2563 23.5481 8.9123 24.3611 6.5023C24.8101 5.1703 25.0591 3.74931 25.2131 2.34831C25.3271 1.31531 24.6391 0.908299 23.6611 1.2673C23.3561 1.3793 23.0631 1.5613 22.8081 1.7653C20.9451 3.2503 19.9071 5.2643 19.3021 7.5043C19.0171 8.5583 18.9901 8.6113 17.9311 8.2563C16.4731 7.7653 14.9871 7.36031 13.5141 6.91931Z" fill="#C95571"/>
<path d="M23.662 34.5232C23.708 35.5742 23.286 36.5832 22.506 37.4682C21.108 39.0542 19.326 39.8712 17.247 39.8772C14.817 39.8842 12.885 37.9732 12.49 35.3562C12.146 33.0742 13.594 30.3363 15.764 29.8393C17.974 29.3322 20.316 29.0442 22.212 30.9142C23.182 31.8702 23.684 33.0152 23.662 34.5232ZM16.994 38.4142C18.533 38.3752 19.998 37.8883 21.16 36.6713C22.455 35.3153 22.47 33.4222 21.229 32.0112C20.273 30.9242 17.419 30.3012 16.044 30.9742C14.658 31.6522 13.868 32.8843 13.782 34.3763C13.706 35.7173 14.174 36.9632 15.338 37.6882C15.479 37.2992 15.611 36.9362 15.742 36.5732C16.239 36.8572 16.779 37.0902 17.204 37.4572C17.318 37.5552 17.079 38.0612 16.994 38.4142Z" fill="#C95571"/>
<path d="M64.9491 27.4844C65.2471 28.9184 65.5271 30.2674 65.8181 31.6674C68.4721 31.4934 71.0731 31.3194 73.6741 31.1544C74.2011 31.1204 74.7351 31.0704 75.2561 31.1214C75.4581 31.1414 75.7931 31.4304 75.7841 31.5814C75.7711 31.8154 75.5641 32.1504 75.3541 32.2384C75.0021 32.3864 74.5841 32.3964 74.1911 32.4244C71.6171 32.6104 69.0421 32.7734 66.4691 32.9704C65.3131 33.0594 64.8351 32.8654 64.4921 31.6434C64.1101 30.2804 63.8921 28.8664 63.6851 27.4624C63.5741 26.7104 64.1791 26.3684 64.7931 26.3134C68.2841 26.0014 71.7791 25.7404 75.2731 25.4594C76.0141 25.3994 76.3871 25.7904 76.4921 26.4724C76.7221 27.9754 76.9621 29.4774 77.1271 30.9884C77.1571 31.2614 76.8461 31.5714 76.6921 31.8634C76.4261 31.6314 75.9861 31.4374 75.9261 31.1614C75.6841 30.0324 75.5591 28.8794 75.3881 27.7354C75.3401 27.4124 75.2831 27.0904 75.2081 26.6324C71.7811 26.9164 68.4031 27.1974 64.9491 27.4844Z" fill="#C95571"/>
<path d="M80.397 64.2392C79.645 64.7732 79.065 65.2342 78.439 65.6192C77.122 66.4272 75.878 67.3042 75.331 68.8332C75.175 69.2692 75.25 69.7872 75.096 70.2252C75.007 70.4802 74.69 70.8112 74.451 70.8332C73.135 70.9542 71.81 70.9902 70.489 71.0562C66.755 71.2422 63.02 71.4102 59.287 71.6222C57.671 71.7142 56.061 71.8992 54.448 72.0322C54.185 72.0542 53.91 72.0662 53.658 72.0092C53.493 71.9722 53.359 71.8002 53.21 71.6892C53.336 71.5212 53.435 71.2442 53.594 71.2042C54.232 71.0442 54.885 70.9002 55.54 70.8552C58.739 70.6342 61.94 70.4392 65.14 70.2482C67.977 70.0792 70.815 69.9292 73.717 69.7672C73.963 67.2442 75.443 65.5742 77.612 64.4452C78.393 64.0392 79.233 63.7252 80.397 64.2392Z" fill="#C95571"/>
<path d="M68.596 7.32727C68.318 6.38327 68.007 5.57828 67.866 4.74428C67.79 4.29928 68.006 3.80428 68.091 3.33228C68.393 3.67328 68.75 3.98027 68.982 4.36427C69.218 4.75327 69.331 5.21627 69.579 5.85527C69.959 5.15927 70.226 4.58228 70.579 4.06328C70.741 3.82528 71.07 3.70128 71.324 3.52528C71.393 3.81728 71.577 4.13828 71.51 4.39528C71.296 5.22028 70.989 6.02028 70.718 6.83028C71.498 6.83028 72.272 6.83028 73.046 6.83028C73.086 6.91528 73.126 7.00027 73.167 7.08627C72.503 7.49227 71.839 7.89828 71.172 8.30528C71.961 8.82928 72.807 9.39028 73.653 9.95128C73.601 10.0803 73.549 10.2093 73.497 10.3383C72.719 10.2133 71.94 10.0893 71.085 9.95227C71.085 10.6123 71.085 11.2943 71.085 11.9753C70.967 12.0183 70.849 12.0613 70.73 12.1043C70.257 11.2793 69.784 10.4533 69.3 9.60928C68.591 10.7023 67.874 11.8083 67.157 12.9153C67.013 12.8503 66.87 12.7853 66.726 12.7213C67.086 11.5323 67.447 10.3433 67.805 9.16127C65.607 9.25327 65.609 8.98627 66.066 7.95427C65.686 7.78327 65.275 7.65428 64.932 7.42328C64.72 7.28028 64.612 6.98328 64.457 6.75528C64.734 6.63828 65.042 6.37728 65.282 6.43028C66.343 6.66428 67.386 6.98927 68.596 7.32727Z" fill="#C95571"/>
<path d="M114.169 39.8674C113.951 38.7304 113.735 37.7994 113.613 36.8574C113.573 36.5484 113.777 36.2073 113.87 35.8813C114.129 36.0963 114.484 36.2613 114.628 36.5363C114.896 37.0503 115.042 37.6284 115.267 38.2614C115.542 37.8824 115.724 37.5084 116.016 37.2654C116.305 37.0254 116.705 36.9173 117.057 36.7523C117.041 37.1163 117.122 37.5204 116.992 37.8354C116.666 38.6224 116.243 39.3684 115.846 40.1564C116.502 40.2504 117.073 40.3334 117.824 40.4414C117.513 40.8524 117.313 41.1164 117.118 41.3734C117.822 41.9214 118.522 42.4654 119.221 43.0104C119.146 43.1464 119.071 43.2814 118.996 43.4174C117.938 43.0464 116.88 42.6754 115.769 42.2854C115.619 42.8824 115.452 43.5454 115.285 44.2094C115.178 44.2174 115.072 44.2254 114.965 44.2334C114.747 43.8234 114.528 43.4124 114.294 42.9734C113.575 43.9534 112.86 44.9293 112.144 45.9053C111.473 44.5633 112.365 43.7204 112.703 42.6364C112.237 42.6794 111.795 42.7924 111.377 42.7334C111.107 42.6954 110.713 42.4354 110.669 42.2164C110.628 42.0074 110.915 41.5933 111.151 41.4953C111.757 41.2443 112.415 41.1194 113.265 40.8854C112.726 40.5624 112.292 40.3624 111.935 40.0684C111.641 39.8254 111.439 39.4704 111.197 39.1644C111.613 39.1274 112.056 38.9814 112.437 39.0784C112.971 39.2124 113.456 39.5294 114.169 39.8674Z" fill="#C95571"/>
<path d="M80.4909 9.01026C81.3019 8.99626 81.9059 9.56925 81.9019 10.3493C81.8979 11.1313 81.2429 11.7983 80.4499 11.8283C79.6089 11.8603 78.9538 11.2193 78.9288 10.3413C78.9018 9.42525 79.3659 9.02926 80.4909 9.01026Z" fill="#C95571"/>
<path d="M6.33467 49.9093C6.32867 51.0763 5.72968 51.9683 4.99068 51.9813C4.53868 51.9893 3.92767 51.7383 3.67767 51.3933C3.50267 51.1523 3.79268 50.5483 3.92368 50.1223C3.97568 49.9553 4.22967 49.8483 4.27667 49.6813C4.45267 49.0483 4.90068 48.7133 5.45268 48.9793C5.88368 49.1853 6.16067 49.7133 6.33467 49.9093Z" fill="#C95571"/>
<path d="M4.57681 59.7772C3.76181 59.7822 3.08381 59.1452 3.18481 58.3702C3.23181 58.0092 3.59581 57.4602 3.89381 57.4032C4.80281 57.2312 5.7708 57.9342 5.7358 58.6132C5.6958 59.3632 5.21981 59.7092 4.57681 59.7772Z" fill="#C95571"/>
<path d="M30.0693 8.17032C30.3303 7.26232 30.5603 6.64032 31.3593 6.68432C32.0423 6.72132 32.5373 7.14232 32.5723 7.89532C32.6043 8.58132 31.9423 9.30132 31.3213 9.11732C30.8513 8.97832 30.4833 8.49832 30.0693 8.17032Z" fill="#C95571"/>
<path d="M84.7637 10.9974C84.9137 10.0634 85.6247 9.13838 86.1677 9.19538C86.8927 9.27138 87.1707 9.78438 87.1667 10.4434C87.1617 11.1984 86.7807 11.7914 86.0037 11.7444C85.5767 11.7194 85.1757 11.2614 84.7637 10.9974Z" fill="#C95571"/>
<path d="M31.6566 2.18629C31.5796 2.78629 31.2676 3.29928 30.5126 3.33628C29.8786 3.36728 29.2946 2.50528 29.4686 1.61228C29.5286 1.30628 30.0536 0.94028 30.4146 0.87728C31.1056 0.75728 31.6676 1.38629 31.6566 2.18629Z" fill="#C95571"/>
<path d="M83.4998 6.9234C83.2628 6.5664 82.7478 6.0164 82.8388 5.8864C83.1578 5.4264 83.6548 5.0564 84.1568 4.7874C84.2478 4.7384 84.9618 5.4284 84.8998 5.5914C84.7088 6.0944 84.2808 6.5084 83.9448 6.9564C83.7968 6.9454 83.6478 6.9344 83.4998 6.9234Z" fill="#C95571"/>
<path d="M117.836 32.2174C118.475 31.7514 118.797 31.3344 119.163 31.2904C119.812 31.2124 120.292 31.7014 120.143 32.3234C120.051 32.7094 119.529 33.1964 119.15 33.2454C118.845 33.2854 118.463 32.7354 117.836 32.2174Z" fill="#C95571"/>
<path d="M35.9133 6.63338C35.6623 6.24638 35.2013 5.84839 35.2203 5.47639C35.2383 5.13539 35.8233 4.52339 36.0723 4.56339C36.4633 4.62639 37.0033 5.0994 37.0663 5.4694C37.1243 5.8084 36.6333 6.24038 36.3843 6.63138C36.2273 6.63238 36.0713 6.63338 35.9133 6.63338Z" fill="#C95571"/>
<path d="M73.2086 29.2523C72.7746 29.2523 72.5846 29.3053 72.4496 29.2413C72.1526 29.1013 71.8826 28.9034 71.6016 28.7294C71.8796 28.5124 72.1276 28.2004 72.4416 28.1024C72.8036 27.9904 73.2426 27.9963 73.6146 28.0863C73.9066 28.1563 74.1496 28.4324 74.4146 28.6174C74.1856 28.8184 73.9836 29.0764 73.7186 29.2014C73.4976 29.3054 73.2026 29.2533 73.2086 29.2523Z" fill="#C95571"/>
<path d="M69.3044 28.6333C68.5214 29.6323 67.5985 29.4713 66.7245 29.4063C66.5695 29.3943 66.3284 29.1073 66.3224 28.9403C66.3154 28.7643 66.5114 28.4643 66.6744 28.4193C67.5264 28.1823 68.3894 28.0633 69.3044 28.6333Z" fill="#C95571"/>
<path d="M0.98375 51.9834C1.25075 52.3334 1.73475 52.6894 1.72475 53.0304C1.71375 53.3744 1.21176 53.7024 0.92476 54.0374C0.59976 53.7374 0.0767604 53.4774 0.00676043 53.1264C-0.0582396 52.8034 0.361757 52.3814 0.568757 52.0034C0.706757 51.9964 0.84575 51.9894 0.98375 51.9834Z" fill="#C95571"/>
<path d="M71.5681 30.5163C70.8681 30.6103 70.1672 30.7593 69.4662 30.7643C69.2682 30.7653 69.0682 30.3462 68.8682 30.1202C69.0852 29.9612 69.3052 29.6643 69.5192 29.6683C70.2042 29.6823 70.8872 29.8083 71.5702 29.8903C71.5702 30.1003 71.5691 30.3083 71.5681 30.5163Z" fill="#C95571"/>
<path d="M120.867 38.4942C120.453 37.9232 120.005 37.5622 120.061 37.3202C120.142 36.9762 120.554 36.6332 120.908 36.4732C121.027 36.4192 121.616 36.9312 121.605 37.1682C121.59 37.5272 121.238 37.8712 120.867 38.4942Z" fill="#C95571"/>
<path d="M35.721 16.2974C38.549 16.0874 41.377 15.8854 44.204 15.6654C46.379 15.4964 48.5509 15.2734 50.7279 15.1354C52.5109 15.0224 54.3019 15.0414 56.0839 14.9204C57.0359 14.8564 57.5649 15.2084 57.8859 16.0864C58.2599 17.1104 58.7059 18.1094 59.1449 19.1084C59.6039 20.1534 59.4129 20.6354 58.2929 20.7484C56.0549 20.9754 53.8109 21.1544 51.5649 21.2784C46.2769 21.5704 40.9869 21.8164 35.6979 22.0874C35.2029 22.1124 34.711 22.2184 34.217 22.2234C33.34 22.2324 32.9529 21.7674 33.2179 20.9604C33.6729 19.5784 34.161 18.2044 34.708 16.8564C34.84 16.5304 35.2559 16.3184 35.5409 16.0544C35.6019 16.1354 35.662 16.2164 35.721 16.2974ZM57.609 19.4814C57.352 18.7264 57.181 18.2614 57.035 17.7884C56.572 16.2854 56.5719 16.2224 55.0369 16.2914C51.2689 16.4594 47.5029 16.6844 43.7369 16.8984C41.1039 17.0474 38.4709 17.2154 35.7019 17.3824C35.4499 18.3164 35.142 19.4564 34.785 20.7784C42.413 20.3454 49.936 19.9174 57.609 19.4814Z" fill="#C95571"/>
<path d="M31.1879 39.2792C36.3049 41.7232 36.3049 41.7232 36.7879 43.0792C34.3679 42.9712 32.8299 41.0782 30.7529 40.5102C28.0709 45.2302 28.3539 52.7042 32.2179 57.7682C33.2729 57.4712 34.0019 56.2422 35.6599 56.6342C34.7789 57.5512 34.036 58.3252 33.23 59.1642C33.608 59.6062 34.053 60.1262 34.532 60.6872C35.386 60.1122 35.9509 59.0732 37.2179 59.2792C37.3029 60.4182 36.5389 61.0252 35.7499 61.7372C36.2149 62.1142 36.6399 62.4582 37.0809 62.8162C37.5179 62.3992 37.89 61.9742 38.337 61.6522C38.537 61.5082 38.968 61.4572 39.144 61.5802C39.294 61.6852 39.3209 62.1322 39.2359 62.3682C39.0709 62.8262 38.7879 63.2422 38.4789 63.8152C39.4529 64.2922 40.4119 64.7622 41.3139 65.2042C41.6379 64.3332 41.8609 63.5152 42.2529 62.7892C42.3979 62.5192 42.9389 62.4632 43.2999 62.3092C43.3869 62.6662 43.629 63.0732 43.531 63.3692C43.286 64.1122 42.888 64.8042 42.48 65.6692C43.669 65.9072 44.8699 66.1482 45.9869 66.3722C45.9869 65.4492 45.936 64.6562 46.018 63.8782C46.043 63.6452 46.4839 63.2492 46.6589 63.2862C46.9329 63.3442 47.3509 63.7132 47.3439 63.9392C47.3179 64.7492 47.1379 65.5532 47.0069 66.4262C48.8189 66.6402 50.6229 65.8772 52.5599 65.2702C52.3359 64.9282 52.0269 64.6572 51.9919 64.3562C51.9429 63.9232 52.0929 63.4662 52.1579 63.0202C52.5879 63.2262 53.0829 63.3592 53.4269 63.6622C53.6599 63.8682 53.6799 64.3132 53.8219 64.7302C58.0839 62.5822 61.1499 59.5042 62.2349 54.7362C63.8739 47.5322 62.6549 41.0032 57.4199 35.5772C53.7709 31.7952 49.2349 30.0782 43.9389 30.5672C43.5109 30.6062 43.083 30.6472 42.54 30.6982C43.09 31.6362 43.8549 32.5022 43.2529 33.7312C42.0299 33.1812 41.6549 32.0552 41.0899 30.9742C40.0829 31.1732 39.057 31.3772 38.031 31.5802C37.983 31.4912 37.9349 31.4012 37.8869 31.3122C38.5069 30.9582 39.0889 30.4952 39.7519 30.2652C46.7659 27.8332 53.0719 29.2792 58.2389 34.4302C64.8579 41.0292 65.8309 49.0632 62.7909 57.6052C61.0889 62.3892 57.152 65.0522 52.557 66.8272C48.128 68.5382 43.8069 68.0762 39.6589 66.0342C33.6359 63.0692 29.4919 58.4352 27.9899 51.7772C26.9299 47.0772 27.9499 42.6012 30.1909 38.4342C31.0729 36.7942 32.3629 35.3712 33.4939 33.8702C33.7069 33.5882 34.0169 33.3222 34.3399 33.1982C34.6329 33.0862 35.0029 33.1772 35.3399 33.1792C35.2269 33.4552 35.1859 33.8052 34.9899 33.9962C33.4129 35.5382 32.0829 37.2472 31.1879 39.2792Z" fill="#C95571"/>
<path d="M41.4646 40.7372C42.2856 39.4402 43.4336 39.1802 44.5546 39.0382C52.2906 38.0622 58.8676 45.3652 57.1806 52.9992C56.4086 56.4962 53.9036 58.3502 50.8586 59.6032C44.6226 62.1692 36.4006 58.0202 34.9416 51.6422C34.1356 48.1192 36.1896 42.9922 39.2376 41.0582C39.7316 40.7442 40.3696 40.6572 40.9406 40.4652C41.0006 40.5872 41.0596 40.7092 41.1196 40.8312C40.8816 41.0262 40.6436 41.2212 40.4066 41.4172C38.1966 43.2402 36.8136 45.5882 36.2766 48.3692C35.6866 51.4222 36.9086 53.9392 39.1346 55.9162C42.4036 58.8182 47.1876 60.1272 51.7376 57.4992C55.2226 55.4872 56.5486 52.5362 55.5746 48.6202C55.5506 48.5242 55.5216 48.4282 55.5006 48.3312C54.0526 41.6522 48.6046 39.7412 42.8806 40.5442C42.4746 40.6032 42.0676 40.6562 41.4646 40.7372Z" fill="#C95571"/>
<path d="M58.6386 54.5324C58.7536 53.8904 58.8886 53.2514 58.9806 52.6064C59.7366 47.3154 58.4416 42.7234 54.1756 39.2834C53.2326 38.5224 51.9376 38.1994 50.8076 37.6684C50.4836 37.5164 50.1696 37.3444 49.8506 37.1824C49.8686 37.0614 49.8856 36.9394 49.9036 36.8184C50.3246 36.7784 50.7586 36.6524 51.1646 36.7134C52.8716 36.9694 54.4226 37.6154 55.6786 38.8274C59.5846 42.5984 61.2716 47.1024 60.0416 52.5024C59.8686 53.2614 59.3896 53.9514 59.0516 54.6734C58.9136 54.6274 58.7766 54.5804 58.6386 54.5324Z" fill="#C95571"/>
<path d="M44.9969 44.6223C44.0719 44.6223 43.2109 44.6223 42.3159 44.6223C42.9829 43.0433 45.3149 42.6923 46.2919 43.9473C46.7479 44.5333 46.6669 45.1543 46.1939 45.6683C45.6589 46.2513 45.0789 46.8043 44.4639 47.3023C43.4849 48.0943 42.7259 49.0193 42.3499 50.2383C42.2729 50.4893 42.1509 50.7293 42.0339 50.9663C41.5849 51.8723 40.9299 52.4643 39.8399 52.3153C38.7939 52.1723 38.2039 51.5153 37.9389 50.5343C37.6399 49.4243 37.7269 48.3493 38.4239 47.4133C38.5979 47.1793 39.0229 47.1323 39.3319 46.9983C39.3769 47.3183 39.4639 47.6393 39.4579 47.9583C39.4449 48.7643 39.2429 49.5983 39.3949 50.3663C39.5369 51.0833 40.3769 51.1513 40.5889 50.4813C41.3389 48.1093 43.0129 46.5053 44.8449 44.9993C44.9079 44.9493 44.9159 44.8323 44.9969 44.6223Z" fill="#C95571"/>
<path d="M32.6134 51.7494C32.3434 51.2554 31.9884 50.8214 31.8594 50.3284C31.4444 48.7504 31.6074 47.1784 32.1704 45.6584C32.2894 45.3364 32.5194 44.9914 32.7984 44.8074C33.1924 44.5474 33.6514 44.6374 33.5984 45.2224C33.4074 47.3134 33.1604 49.3994 32.9264 51.4874C32.9214 51.5324 32.8334 51.5684 32.6134 51.7494Z" fill="#C95571"/>
<path d="M38.8424 38.1423C38.5354 38.0223 38.1614 37.9903 37.9864 37.7873C37.1724 36.8443 36.3964 35.8662 35.6504 34.8682C35.5314 34.7092 35.5784 34.3673 35.6554 34.1473C35.6874 34.0563 36.0084 34.0023 36.1804 34.0323C37.2524 34.2193 39.0624 36.9143 38.8424 38.1423Z" fill="#C95571"/>
<path d="M51.0034 64.3704C50.6324 64.8134 50.3514 65.1484 50.0714 65.4834C49.7764 65.1794 49.4804 64.8764 49.1874 64.5704C49.1674 64.5494 49.1584 64.5084 49.1604 64.4774C49.1994 63.9814 49.2114 63.4804 49.3144 62.9974C49.3294 62.9254 49.8974 62.8334 50.0004 62.9444C50.3514 63.3234 50.6084 63.7884 51.0034 64.3704Z" fill="#C95571"/>
<path d="M55.3047 60.0173C55.7207 59.3253 56.0207 58.7203 56.4297 58.2023C56.5727 58.0213 57.0907 57.9133 57.2497 58.0293C57.4357 58.1643 57.5597 58.6503 57.4597 58.8643C57.0887 59.6533 56.4517 60.1033 55.3047 60.0173Z" fill="#C95571"/>
<path d="M15.5804 32.1953C15.6854 32.4493 15.9163 32.7273 15.8733 32.9533C15.7343 33.6853 15.5214 34.4073 15.2744 35.1123C15.2214 35.2633 14.9074 35.3233 14.7144 35.4253C14.5274 34.8703 14.1223 34.2783 14.2093 33.7693C14.3093 33.1793 14.8404 32.6613 15.1844 32.1123C15.3154 32.1393 15.4484 32.1673 15.5804 32.1953Z" fill="#C95571"/>
<path d="M17.5929 35.7143C16.7939 36.0913 16.2069 35.9203 16.0539 35.1913C15.9889 34.8823 16.2318 34.5093 16.3348 34.1653C16.6098 34.3253 16.9239 34.4443 17.1469 34.6583C17.3249 34.8303 17.3989 35.1143 17.5039 35.3553C17.5529 35.4693 17.5659 35.5983 17.5929 35.7143Z" fill="#C95571"/>
</svg>
