<svg width="64" height="34" viewBox="0 0 64 34" fill="none" xmlns="http://www.w3.org/2000/svg">
<path d="M0.843525 24.9034C6.89453 25.5054 13.0385 25.2694 19.0505 24.3864C25.2015 23.4824 31.9565 21.8344 37.2475 18.4484C39.5505 16.9744 41.5245 14.6534 42.1105 11.9444C42.1975 11.4834 42.2035 11.0204 42.1265 10.5544C42.0215 9.61544 40.1275 7.28343 38.8995 8.61243C37.9305 9.66244 38.3016 11.7424 38.3646 13.0054C38.5586 16.8754 36.7505 19.5924 33.0375 20.6874C32.7475 20.7734 32.5685 20.3974 32.8465 20.2514C36.4705 18.3434 37.6506 15.8274 37.4375 11.7924C37.3695 10.4994 37.5395 8.01544 38.9145 7.31645C40.4215 6.54944 42.5765 7.66744 43.2136 9.16744C44.1586 11.3914 43.3635 13.6074 42.1095 15.5354C38.4605 21.1484 30.2475 23.0344 24.1645 24.3534C16.4905 26.0184 8.57053 26.5074 0.809529 25.1984C0.620529 25.1674 0.651525 24.8844 0.843525 24.9034Z" fill="black"/>
<path d="M35.0204 19.8184C34.2314 20.4234 33.3004 20.8844 32.4494 21.4004C31.6924 21.8594 30.9814 22.2273 30.1104 22.3983C29.9944 22.4213 29.9154 22.2523 30.0154 22.1843C30.8484 21.6153 31.7014 21.0974 32.5624 20.5704C33.2804 20.1324 34.0514 19.6533 34.8964 19.5343C35.0534 19.5123 35.1494 19.7194 35.0204 19.8184Z" fill="black"/>
<path d="M2.70914 25.0924C8.30514 26.2854 14.3601 24.6095 19.4611 22.3265C22.0411 21.1725 24.4621 19.6474 26.5691 17.7674C28.6831 15.8824 29.8511 13.4545 31.5361 11.2495C31.6711 11.0725 32.0301 11.1764 31.9711 11.4224C30.6581 16.7974 25.0611 20.4665 20.4281 22.7705C15.1551 25.3925 8.40615 27.2515 2.62315 25.4305C2.43515 25.3715 2.51614 25.0514 2.70914 25.0924Z" fill="black"/>
<path d="M35.78 7.92942C36.252 10.1654 34.4641 11.3694 32.3851 11.3144C30.3631 11.2614 27.938 9.11542 28.595 6.93542C28.659 6.72142 29.003 6.72243 29.077 6.92843C29.36 7.72343 29.4271 8.45842 29.9901 9.14242C30.4781 9.73542 31.346 10.0144 32.068 10.1624C33.656 10.4904 35.2821 9.60742 35.5241 7.93342C35.5461 7.78742 35.75 7.78742 35.78 7.92942Z" fill="black"/>
<path d="M35.5254 8.16247C35.2324 7.82247 34.9964 7.61246 34.5444 7.81446C34.1374 7.99546 33.9324 8.47647 33.6424 8.77947C33.5834 8.84147 33.4894 8.83946 33.4484 8.75646C32.7394 7.32046 35.5064 6.13947 36.0714 7.83447C36.1844 8.17447 35.7724 8.44847 35.5254 8.16247Z" fill="black"/>
<path d="M33.5776 8.25343C33.4806 7.65843 33.1266 7.11543 32.4586 7.22043C31.7106 7.34043 31.9956 8.26543 31.5366 8.58943C31.4726 8.63443 31.4096 8.63042 31.3456 8.59242C30.9396 8.35242 31.1386 7.63043 31.3256 7.30543C31.5506 6.90943 31.9136 6.65343 32.3576 6.56343C33.3666 6.36043 33.9516 7.38244 33.8876 8.24744C33.8746 8.42744 33.6046 8.42443 33.5776 8.25343Z" fill="black"/>
<path d="M31.2901 8.12454C31.1611 7.30954 30.3721 6.99653 29.6441 7.26353C29.4061 7.35053 29.1361 7.51352 28.8801 7.42652C28.6431 7.34552 28.8451 6.98052 28.9251 6.87052C29.3161 6.33152 30.2191 6.34753 30.7771 6.53253C31.4671 6.76153 31.7631 7.43653 31.6771 8.11753C31.6501 8.33653 31.3241 8.34354 31.2901 8.12454Z" fill="black"/>
<path d="M35.4965 8.23736C37.0305 6.63936 38.7685 5.02636 39.5145 2.88236C39.6185 3.05836 39.7235 3.23436 39.8285 3.41036C36.9855 2.91436 36.4125 6.32536 34.6025 7.61836C34.5605 7.64936 34.4945 7.61936 34.5015 7.56236C34.6815 6.32236 35.6515 5.02037 36.4535 4.10737C37.3495 3.08637 38.5355 2.42837 39.9165 2.64137C40.1765 2.68137 40.3105 2.92637 40.2305 3.16937C39.4905 5.44037 37.5765 7.07436 35.6975 8.42936C35.5735 8.52136 35.3805 8.35736 35.4965 8.23736Z" fill="black"/>
<path d="M34.4377 7.71349C34.3967 6.93449 34.8397 6.02749 35.0567 5.29549C35.3987 4.13049 35.9437 2.8305 35.7757 1.5935C35.6407 0.598496 34.8057 1.7995 34.6647 2.0745C34.3817 2.6225 34.2157 3.2395 34.0517 3.8305C33.7807 4.8125 33.7207 5.90149 33.2637 6.82349C33.2067 6.93549 33.0507 6.92049 33.0227 6.79549C32.7567 5.58449 33.6687 -0.111507 35.7067 0.528493C37.9637 1.23849 35.3687 6.6115 34.6427 7.7615C34.5897 7.84249 34.4427 7.80849 34.4377 7.71349Z" fill="black"/>
<path d="M33.0162 6.91947C32.9362 4.84747 33.3242 2.34347 31.9492 0.622472C32.1532 0.619472 32.3582 0.617461 32.5612 0.614461C31.6542 1.55046 31.4602 2.78246 31.3972 4.03646C31.3432 5.09146 31.6732 6.17047 31.4172 7.20647C31.4022 7.27047 31.3182 7.31146 31.2712 7.24846C30.5952 6.32846 30.6752 5.04647 30.6862 3.95447C30.7012 2.60547 31.0102 1.16547 31.9432 0.150472C32.1142 -0.0375283 32.3822 -0.0595392 32.5552 0.142461C34.2562 2.11446 33.6513 4.59246 33.2483 6.91646C33.2273 7.03846 33.0222 7.05847 33.0162 6.91947Z" fill="black"/>
<path d="M31.1674 7.34436C30.7114 5.24336 30.5954 1.77836 28.3284 0.794362C28.4744 0.753362 28.6224 0.712353 28.7694 0.672352C28.0384 1.84335 28.4924 3.22335 28.9884 4.39035C29.3434 5.22735 30.1834 6.10535 30.2104 7.03435C30.2124 7.12135 30.1424 7.19635 30.0504 7.16135C28.9714 6.74835 28.3884 5.00835 28.0204 4.03435C27.5424 2.76735 27.4284 1.39736 28.1694 0.221364C28.2564 0.0833637 28.4664 0.0353626 28.6094 0.0983626C31.3764 1.30736 31.1994 4.78436 31.4754 7.29636C31.4974 7.49836 31.2094 7.54136 31.1674 7.34436Z" fill="black"/>
<path d="M29.7991 6.60956C28.4271 5.09656 28.2881 2.14655 26.1071 1.53255C26.2651 1.46555 26.4231 1.39856 26.5821 1.33056C25.9751 2.76156 26.2451 3.99556 27.2101 5.17556C27.9041 6.02556 29.0561 6.49256 29.6361 7.41556C29.6931 7.50556 29.6391 7.61456 29.5271 7.61056C28.2111 7.56056 26.9561 6.18555 26.2531 5.17655C25.3791 3.92455 25.3291 2.43555 25.9071 1.05656C25.9911 0.857555 26.1881 0.801559 26.3821 0.854559C28.9491 1.56456 28.7271 4.61656 30.0101 6.44256C30.1051 6.58556 29.9141 6.73656 29.7991 6.60956Z" fill="black"/>
<path d="M31.4557 12.5706C31.4187 12.5596 31.3817 12.5496 31.3447 12.5386C31.5147 12.5586 31.6837 12.5776 31.8517 12.5976C31.8197 12.5986 31.7877 12.5996 31.7527 12.6006C31.9557 12.4786 32.1587 12.3576 32.3607 12.2356C32.3407 12.2596 32.3197 12.2826 32.2977 12.3076C31.6067 13.1076 30.3797 12.4146 30.7067 11.4076C30.8497 10.9676 31.2327 10.7396 31.6727 10.6846C32.3057 10.6066 32.8767 11.1216 32.8017 11.7716C32.7227 12.4586 32.0607 12.7426 31.4557 12.5706Z" fill="black"/>
<path d="M40.7623 9.29657C40.4493 9.45957 40.1363 9.62257 39.8223 9.78557C39.7433 10.2866 39.7173 10.7916 39.7453 11.3006C39.7573 11.8206 39.8173 12.3426 39.8513 12.8616C39.9303 14.0486 39.6663 15.2166 39.2833 16.3316C38.6293 18.2326 36.4103 19.6646 34.6533 20.4066C34.5293 20.4586 34.4153 20.3126 34.4933 20.2046C35.8543 18.3386 37.4413 17.1036 38.0143 14.7326C38.4753 12.8156 38.0263 10.8506 38.6423 8.94856C39.3893 6.64356 42.7763 7.82657 40.7933 9.31357C40.7793 9.32457 40.7623 9.31357 40.7623 9.29657Z" fill="black"/>
<path d="M41.6857 8.90045C41.3127 10.6994 40.8127 12.4944 40.3687 14.2804C40.0177 15.6884 39.5166 17.3924 38.0766 17.9934C37.8326 18.0954 37.4947 17.8964 37.5537 17.6074C37.8497 16.1574 38.7027 14.8244 39.1127 13.3784C39.5787 11.7344 39.8237 9.92143 41.0557 8.64843C41.2677 8.42843 41.7647 8.51645 41.6857 8.90045Z" fill="black"/>
<path d="M40.7172 8.76652C41.0842 9.56152 40.7422 10.4185 40.4422 11.1825C40.2162 11.7555 39.6512 13.3945 38.8722 13.3445C37.9962 13.2875 38.5311 12.1365 38.7581 11.7375C39.3091 10.7645 39.7721 9.81153 40.1851 8.77553C40.2791 8.53853 40.6122 8.54252 40.7172 8.76652Z" fill="black"/>
<path d="M39.8099 8.8174C39.1409 9.9314 39.4459 11.3794 38.7169 12.4404C38.6269 12.5714 38.4059 12.5444 38.3479 12.3974C37.8259 11.0954 38.3709 9.31841 39.4329 8.44941C39.6809 8.24641 39.9569 8.5724 39.8099 8.8174Z" fill="black"/>
<path d="M38.6826 9.00142C38.4336 9.80242 38.3296 10.6054 38.2896 11.4394C38.2606 12.0494 38.1656 12.5534 37.8536 13.0754C37.7886 13.1844 37.5906 13.1594 37.5506 13.0404C37.1086 11.7094 37.6486 10.0424 38.1896 8.80141C38.3276 8.48441 38.7826 8.67642 38.6826 9.00142Z" fill="black"/>
<path d="M9.53649 25.7494C15.8945 24.6414 22.6065 24.4004 29.0465 23.9674C31.8945 23.7764 34.6565 24.0114 37.4985 23.9804C40.7375 23.9434 44.0145 23.8744 47.1825 24.6344C47.4935 24.7084 47.4585 25.1654 47.1235 25.1384C44.2085 24.9024 41.3405 24.2884 38.4035 24.1574C35.0345 24.0054 31.5735 24.4514 28.2025 24.6424C22.0395 24.9924 15.7085 26.1794 9.53847 25.8724C9.46647 25.8694 9.46949 25.7604 9.53649 25.7494Z" fill="black"/>
<path d="M52.8671 22.2735C51.1461 22.1945 47.3771 22.9615 48.1301 25.4866C48.6631 27.2736 51.3671 27.3236 52.7701 27.7886C52.8681 27.8206 52.8971 27.9795 52.8061 28.0355C51.8791 28.6095 50.413 28.3315 49.439 28.0295C48.225 27.6535 47.1841 26.6295 47.0061 25.3565C46.5841 22.3375 50.7941 21.4766 52.9271 22.0406C53.0661 22.0776 52.9961 22.2795 52.8671 22.2735Z" fill="black"/>
<path d="M52.1665 27.9375C52.3895 27.3595 52.3654 26.8056 51.8444 26.4126C51.3494 26.0396 50.7785 26.2376 50.2485 26.0346C50.1405 25.9926 50.1285 25.8736 50.1795 25.7836C50.6365 24.9796 51.9764 25.4526 52.4804 25.9426C53.1354 26.5816 53.1925 27.5646 52.4385 28.1416C52.2985 28.2486 52.1025 28.1025 52.1665 27.9375Z" fill="black"/>
<path d="M51.2271 25.5674C51.8181 25.6304 52.7171 25.5764 52.9451 24.9024C53.1331 24.3484 51.9831 24.1554 51.7191 23.9124C51.6471 23.8464 51.6341 23.7374 51.7171 23.6714C52.5531 22.9984 53.9441 23.9644 53.7411 24.9734C53.4991 26.1684 52.0681 26.2784 51.1441 25.8904C50.9691 25.8164 51.0371 25.5474 51.2271 25.5674Z" fill="black"/>
<path d="M52.09 23.9355C52.528 23.6905 52.915 23.4996 53.004 22.9606C53.09 22.4286 52.527 22.2935 52.27 21.9615C52.211 21.8855 52.217 21.7615 52.299 21.7035C53.137 21.1135 53.865 22.2505 53.832 22.9765C53.796 23.7505 52.879 24.6455 52.094 24.2305C51.967 24.1635 51.964 24.0055 52.09 23.9355Z" fill="black"/>
<path d="M47.3017 24.5256C47.3047 24.5036 47.3077 24.4816 47.3117 24.4596C47.2447 24.3056 47.1767 24.1516 47.1097 23.9986C47.1187 24.0126 47.1277 24.0276 47.1357 24.0406C46.7457 23.9436 46.3557 23.8466 45.9657 23.7506C45.9767 23.7476 45.9867 23.7446 45.9957 23.7406C45.8667 23.8446 45.7347 23.9476 45.6037 24.0516C45.6177 24.0296 45.6297 24.0076 45.6437 23.9866C45.8717 23.6186 46.4137 23.5156 46.7907 23.6676C47.3237 23.8826 47.4757 24.4286 47.3307 24.9396C47.3227 24.9646 47.3157 24.9896 47.3087 25.0156C47.2097 25.3576 46.8587 25.5426 46.5437 25.6206C46.5327 25.6226 46.5217 25.6256 46.5127 25.6286C46.0607 25.7416 45.6597 25.4136 45.4577 25.0496C45.3307 24.8196 45.3377 24.5526 45.3527 24.2996C45.3827 23.7656 45.9317 23.3796 46.4397 23.4386C47.0137 23.5056 47.3067 23.9916 47.3017 24.5256Z" fill="black"/>
<path d="M50.5134 21.9024C52.3934 21.1804 54.2684 20.5154 56.2264 20.0024C57.8754 19.5694 60.7214 18.6474 62.2724 19.8234C63.6064 20.8334 62.0044 22.0974 61.0714 22.4084C59.5784 22.9074 55.4234 23.6814 54.0144 22.6524C53.9514 22.6064 53.9404 22.4884 54.0124 22.4424C55.1234 21.7314 57.3224 22.1604 58.5924 22.0564C59.5674 21.9754 60.5494 21.8594 61.4624 21.4934C62.6774 21.0064 61.7104 20.2534 61.1684 20.1404C60.6744 20.0374 60.1474 20.1004 59.6524 20.1474C56.5454 20.4434 53.7184 22.0574 50.6574 22.4024C50.3714 22.4334 50.2264 22.0124 50.5134 21.9024Z" fill="black"/>
<path d="M54.6018 22.5585C56.2988 22.3325 63.7428 21.6255 63.5438 24.5225C63.3538 27.3015 54.8758 25.2465 53.4338 24.7225C53.3268 24.6835 53.3438 24.5095 53.4588 24.4985C56.3628 24.2265 59.6308 25.9235 62.4558 24.8235C63.7898 24.3045 61.6528 23.5585 61.3128 23.4825C60.4948 23.3005 59.6418 23.2675 58.8088 23.2225C57.4188 23.1495 55.9918 23.3115 54.6118 23.1345C54.2888 23.0925 54.2708 22.6015 54.6018 22.5585Z" fill="black"/>
<path d="M54.9928 22.8393C54.5188 22.8913 53.9678 22.9593 53.5158 22.7783C53.3868 22.7273 53.3688 22.5563 53.4718 22.4703C53.9078 22.1043 54.5558 22.2943 55.0368 22.4643C55.2178 22.5293 55.1838 22.8183 54.9928 22.8393Z" fill="black"/>
<path d="M53.4076 24.8235C54.9916 24.7345 60.7516 25.0815 60.4366 27.6175C60.2636 29.0145 58.1336 28.3655 57.3376 28.1545C56.2976 27.8775 55.2746 27.5475 54.2556 27.1985C53.6396 26.9875 52.7286 26.8275 52.2446 26.3585C52.0666 26.1855 52.1116 25.8975 52.3746 25.8415C53.1996 25.6645 54.3976 26.3865 55.1486 26.6515C56.4516 27.1115 57.9636 27.7585 59.3716 27.6915C60.2596 27.6485 58.6816 26.6425 58.5716 26.5895C57.9906 26.3035 57.3576 26.1295 56.7406 25.9395C55.6656 25.6085 54.5456 25.2265 53.4136 25.1495C53.2326 25.1365 53.2226 24.8345 53.4076 24.8235Z" fill="black"/>
<path d="M52.7054 25.8484C54.2044 26.2254 59.3344 28.2864 57.1254 30.5534C55.5744 32.1444 52.5564 28.3854 52.0464 27.1644C51.9884 27.0264 52.1494 26.8974 52.2714 26.9864C53.1374 27.6174 55.3464 31.0284 56.5614 30.1984C58.2444 29.0474 53.2674 26.6174 52.5744 26.1774C52.4254 26.0834 52.5274 25.8044 52.7054 25.8484Z" fill="black"/>
<path d="M38.3639 10.7804C38.1309 16.1664 36.9329 20.0544 31.7099 22.4664C28.7499 23.8334 25.3969 24.3364 22.1899 24.7074C18.3809 25.1484 14.5739 25.5944 10.7439 25.7994C10.4999 25.8124 10.3409 25.4344 10.6139 25.3534C15.9499 23.7574 21.7169 23.7224 27.1429 22.4034C30.1759 21.6674 33.3309 20.4124 35.3559 17.9454C36.9409 16.0134 37.3719 13.1074 37.8299 10.7184C37.8949 10.3764 38.3789 10.4324 38.3639 10.7804Z" fill="black"/>
<path d="M0.18194 25.1854C3.44694 25.1914 6.79493 25.3924 9.91793 24.2684C14.2529 22.7094 15.7749 16.4704 10.9669 14.3914C9.76494 13.8704 8.46494 14.1634 7.40594 14.8414C6.26994 15.5434 5.98095 16.6114 6.54095 18.0444C7.32595 18.7794 8.60793 18.4574 9.52493 18.3274C10.8729 18.1364 11.9289 18.4554 12.7299 19.5684C14.1529 21.5444 11.8659 24.5594 10.1129 25.3574C9.87794 25.4644 9.60494 25.1554 9.78994 24.9484C10.7009 23.9294 11.5629 22.7554 11.8719 21.4034C12.3369 19.3704 8.48594 20.1614 7.64395 20.1634C5.81495 20.1684 4.65595 18.4054 4.69195 16.7744C4.72895 15.0484 6.91892 13.2994 8.47292 13.0164C10.2949 12.6834 12.218 13.1964 13.52 14.5734C16.303 17.5184 15.4579 22.0004 12.2499 24.2594C8.94793 26.5854 3.87894 26.3514 0.142938 25.5204C-0.070062 25.4714 -0.0350605 25.1844 0.18194 25.1854Z" fill="black"/>
<path d="M10.4512 24.3183C11.5612 22.7783 12.4422 19.4553 10.7292 18.0623C10.1872 17.6213 9.43518 17.4093 8.74418 17.4363C7.96718 17.4673 7.54917 18.0003 7.04017 18.5083C6.72317 18.8253 6.20617 18.5273 6.13517 18.1533C5.90017 16.9233 6.93516 15.9593 8.06516 15.7123C9.32116 15.4373 10.5732 15.8123 11.6292 16.4993C12.8972 17.3223 13.2772 18.7123 13.3012 20.1423C13.3352 22.0943 12.0452 23.4093 10.6962 24.5573C10.5432 24.6853 10.3392 24.4743 10.4512 24.3183Z" fill="black"/>
<path d="M6.55902 18.4174C6.62202 16.9464 9.321 16.7374 10.332 16.9204C11.089 17.0574 11.84 17.4674 12.204 18.1704C12.542 18.8214 12.52 19.9764 11.688 20.2484C11.411 20.3394 11.144 20.2944 10.948 20.0644C10.663 19.7284 10.816 19.3094 10.604 18.9834C10.419 18.6984 9.958 18.6204 9.651 18.5684C9.16 18.4854 8.66201 18.4814 8.17001 18.5484C7.73001 18.6084 7.287 18.8044 6.84 18.7724C6.656 18.7594 6.55102 18.5854 6.55902 18.4174Z" fill="black"/>
<path d="M12.4667 21.8194C12.9957 20.2334 12.4177 18.9314 11.0957 18.0024C10.4987 17.5824 9.75271 17.3854 9.03471 17.3294C8.27171 17.2704 7.68272 17.7274 6.99772 17.9464C6.57572 18.0814 6.08872 17.7254 6.28672 17.2564C7.22972 15.0264 10.4637 15.7674 11.9907 16.8114C13.7417 18.0074 14.6377 20.6014 12.7617 22.0414C12.6037 22.1624 12.4067 21.9984 12.4667 21.8194Z" fill="black"/>
<path d="M6.34852 17.8074C5.42052 17.0644 6.24353 15.7304 7.04853 15.2864C8.28053 14.6064 9.81253 14.7724 11.1165 15.1184C12.5895 15.5094 13.9205 16.5134 14.5835 17.8894C15.2895 19.3594 14.9095 21.8504 13.2605 22.5364C13.0595 22.6204 12.7535 22.5004 12.7445 22.2534C12.6985 21.0764 13.4565 19.9564 13.0545 18.7674C12.7265 17.7924 11.7805 17.1554 10.8805 16.7674C9.98053 16.3794 8.96654 16.2034 7.99754 16.3874C7.09954 16.5584 7.06253 17.1134 6.62153 17.7674C6.56453 17.8554 6.42852 17.8724 6.34852 17.8074Z" fill="black"/>
<path d="M0.911095 24.8864C1.2711 24.5554 1.6401 24.2404 2.0191 23.9324C2.3921 23.6314 2.67808 23.2094 3.10308 23.0444C3.63508 22.8374 4.3701 23.2464 4.2431 23.8864C4.1081 24.5594 3.47209 24.8834 2.92809 25.2074C2.41409 25.5134 1.7001 25.7144 1.1061 25.5674C0.779102 25.4864 0.647095 25.1294 0.911095 24.8864Z" fill="black"/>
<path d="M46.8814 25.0674C42.7994 24.3074 39.0254 24.0794 34.8634 24.3624C31.2774 24.6074 27.7264 25.0934 24.1274 24.8664C23.9774 24.8574 23.9754 24.6234 24.1234 24.6034C28.2054 24.0534 32.2924 23.4844 36.4114 23.2914C39.8734 23.1284 43.8074 23.1084 46.9844 24.6614C47.1874 24.7614 47.1274 25.1124 46.8814 25.0674Z" fill="black"/>
<path d="M38.5763 23.6185C40.9353 23.5055 43.3563 22.4145 45.4553 21.4125C47.1393 20.6085 52.0783 18.2485 51.0503 15.6825C49.6513 12.1955 45.7263 18.4385 44.9873 19.5585C44.0543 20.9725 42.5903 24.2345 40.6193 24.4205C40.3843 24.4425 40.1373 24.1515 40.3323 23.9415C42.7063 21.3985 44.3533 18.3055 46.6843 15.7305C48.2323 14.0185 50.8433 12.7665 52.1333 15.5005C53.3583 18.0955 49.2313 20.5825 47.5433 21.5725C45.3553 22.8565 41.1683 25.0365 38.5433 23.9095C38.4153 23.8555 38.4183 23.6265 38.5763 23.6185Z" fill="black"/>
<path d="M41.7666 23.3545C43.5006 21.9365 45.2426 20.6845 46.7736 19.0195C47.6146 18.1045 48.3726 17.1225 49.0606 16.0885C49.4826 15.4545 49.6686 14.5885 50.3846 14.2295C50.5836 14.1285 50.8866 14.1975 51.0146 14.3865C52.1116 16.0145 49.1826 18.6925 48.1856 19.7055C46.6796 21.2395 44.2056 23.7155 41.8756 23.7365C41.6766 23.7375 41.6366 23.4615 41.7666 23.3545Z" fill="black"/>
<path d="M50.7294 14.4996C51.9344 15.9186 51.8674 17.3536 50.4824 18.6846C49.2424 19.8776 47.1784 20.8996 45.4354 21.0126C45.0594 21.0376 44.8904 20.6276 45.1544 20.3686C46.6494 18.9036 51.2614 17.7346 50.1774 14.8306C50.0494 14.4866 50.4854 14.2136 50.7294 14.4996Z" fill="black"/>
<path d="M24.3796 24.2564C28.2126 24.1364 32.1006 24.5674 35.3826 26.6924C37.1306 27.8244 39.8537 30.1654 38.6017 32.4934C37.4877 34.5684 34.9596 33.7314 33.6636 32.4054C32.4876 31.2014 31.5826 29.8054 30.6466 28.4144C29.2426 26.3234 27.4967 25.4684 25.2507 24.5344C25.0827 24.4644 25.1187 24.2254 25.2907 24.1904C29.8147 23.2694 31.7926 28.5524 34.1636 31.3084C34.7026 31.9334 35.3777 32.4864 36.2037 32.6764C38.7257 33.2584 37.6147 30.5774 37.2087 29.9704C36.5727 29.0204 35.6007 28.2854 34.6837 27.6234C31.8047 25.5384 27.8457 24.9624 24.3897 24.7754C24.0977 24.7594 24.0836 24.2664 24.3796 24.2564Z" fill="black"/>
<path d="M27.674 24.3266C29.788 25.0626 31.635 25.9455 33.186 27.5995C33.899 28.3605 34.51 29.2185 35.166 30.0285C35.73 30.7275 36.736 31.2805 37.009 32.1465C37.159 32.6205 36.944 33.0506 36.449 33.1676C34.853 33.5426 33.4589 30.9965 32.6799 29.9505C31.1839 27.9425 29.4289 26.2996 27.3569 24.8876C27.0429 24.6716 27.339 24.2096 27.674 24.3266Z" fill="black"/>
<path d="M37.1182 33.2286C35.5722 32.1646 34.8872 30.3936 33.8132 28.9156C32.6232 27.2766 30.4002 26.8146 29.2962 25.1646C29.1512 24.9496 29.2932 24.6756 29.5592 24.6916C33.7702 24.9456 35.8772 29.4626 37.8262 32.5026C38.1342 32.9806 37.6172 33.5726 37.1182 33.2286Z" fill="black"/>
<path d="M33.3515 10.8163C32.9395 10.9113 32.4945 10.8193 32.0845 10.7443C31.5505 10.6473 31.0175 10.6713 30.4955 10.5033C29.6235 10.2223 29.8245 8.85435 30.6985 8.74735C31.8005 8.61335 33.5415 8.85434 33.8835 10.0893C33.9815 10.4423 33.6575 10.7463 33.3515 10.8163Z" fill="black"/>
<path d="M30.8594 7.84642C31.2744 8.07842 31.5454 8.39342 31.8704 8.73442C32.0034 8.87342 32.1564 8.97942 32.2714 9.13742C32.3754 9.26742 32.4385 9.41342 32.4645 9.57642C32.4605 9.85442 32.4644 9.91241 32.4764 9.74841C32.5324 10.0684 32.3425 10.3674 32.0595 10.5044C31.0685 10.9844 30.0824 9.89941 29.6754 9.06441C29.3484 8.39241 30.1414 7.44542 30.8594 7.84642Z" fill="black"/>
<path d="M33.2342 8.05744C33.9022 8.58244 33.7082 9.49544 33.4832 10.2014C33.3232 10.7064 32.6792 10.9254 32.2172 10.7384C31.7002 10.5304 31.5162 9.97543 31.6802 9.47243C31.8722 8.88143 31.8813 8.27044 32.5203 7.97544C32.7463 7.87044 33.0372 7.90344 33.2342 8.05744Z" fill="black"/>
<path d="M34.8003 8.96356C34.8553 9.48956 34.5853 10.1526 34.1403 10.4656C33.6143 10.8366 32.7103 11.1606 32.2223 10.5246C31.4753 9.54656 33.4223 8.60756 34.1853 8.51356C34.4653 8.48056 34.7693 8.66556 34.8003 8.96356Z" fill="black"/>
<path d="M52.172 23.6244C51.542 24.3434 50.644 24.6574 49.761 24.9614C49.101 25.1884 47.887 25.5104 47.401 24.8044C46.897 24.0724 47.978 23.5044 48.519 23.2964C48.962 23.1264 49.422 23.0004 49.868 22.8314C50.374 22.6384 50.846 22.4034 51.384 22.3084C52.067 22.1874 52.659 23.0684 52.172 23.6244Z" fill="black"/>
<path d="M50.792 25.7875C49.768 25.8145 47.902 25.8675 47.368 24.8235C47.212 24.5185 47.339 24.1276 47.593 23.9216C48.373 23.2876 49.829 23.8725 50.755 23.8665C51.845 23.8595 51.879 25.7585 50.792 25.7875Z" fill="black"/>
<path d="M50.7058 22.9713C50.1348 23.1993 49.7848 23.5913 49.3378 23.9883C49.0598 24.2373 48.4108 24.5953 48.1918 24.0953C47.9698 23.5923 48.4908 22.9713 48.8808 22.7363C49.4208 22.4103 49.9738 22.2763 50.6018 22.2773C50.9718 22.2783 51.0238 22.8443 50.7058 22.9713Z" fill="black"/>
<path d="M50.9802 27.6374C50.3502 27.7054 49.6992 27.0014 49.1972 26.6724C48.5112 26.2224 47.6542 25.7414 47.6732 24.8144C47.6812 24.4004 48.1162 24.1484 48.4842 24.1714C49.1092 24.2104 49.7102 24.7804 50.2132 25.1144C50.7312 25.4574 51.3762 25.8194 51.6292 26.4184C51.7512 26.7064 51.7212 27.0494 51.5262 27.2994C51.3962 27.4704 51.2022 27.6134 50.9802 27.6374Z" fill="black"/>
<path d="M49.0538 25.8614C49.4978 25.9554 49.5758 26.1884 49.7568 26.5564C49.5648 26.4144 49.3728 26.2734 49.1808 26.1314C49.1938 26.1324 49.2068 26.1334 49.2208 26.1344C49.9508 26.2034 50.0298 27.1824 49.4228 27.4854C49.4108 27.4914 49.3988 27.4974 49.3878 27.5034C49.0258 27.6844 48.6058 27.4714 48.4408 27.1344C48.2338 26.7184 48.3968 25.7234 49.0538 25.8614Z" fill="black"/>
</svg>
