<svg width="64" height="34" viewBox="0 0 64 34" fill="none" xmlns="http://www.w3.org/2000/svg">
<path d="M62.7044 24.9034C56.6534 25.5054 50.5094 25.2694 44.4974 24.3864C38.3464 23.4824 31.5914 21.8344 26.3004 18.4484C23.9974 16.9744 22.0234 14.6534 21.4374 11.9444C21.3504 11.4834 21.3444 11.0204 21.4214 10.5544C21.5254 9.61544 23.4204 7.28343 24.6484 8.61243C25.6174 9.66244 25.2464 11.7424 25.1834 13.0054C24.9894 16.8754 26.7974 19.5924 30.5104 20.6874C30.8004 20.7734 30.9794 20.3974 30.7014 20.2514C27.0774 18.3434 25.8974 15.8274 26.1104 11.7924C26.1784 10.4994 26.0084 8.01544 24.6334 7.31645C23.1264 6.54944 20.9714 7.66744 20.3344 9.16744C19.3894 11.3914 20.1844 13.6074 21.4384 15.5354C25.0874 21.1484 33.3004 23.0344 39.3834 24.3534C47.0574 26.0184 54.9774 26.5074 62.7384 25.1984C62.9274 25.1674 62.8954 24.8844 62.7044 24.9034Z" fill="black"/>
<path d="M28.5283 19.8184C29.3173 20.4234 30.2483 20.8844 31.0993 21.4004C31.8563 21.8594 32.5673 22.2273 33.4383 22.3983C33.5543 22.4213 33.6333 22.2523 33.5333 22.1843C32.7003 21.6153 31.8463 21.0974 30.9863 20.5704C30.2683 20.1324 29.4973 19.6533 28.6523 19.5343C28.4953 19.5123 28.3983 19.7194 28.5283 19.8184Z" fill="black"/>
<path d="M60.8388 25.0924C55.2428 26.2854 49.1878 24.6095 44.0868 22.3265C41.5068 21.1725 39.0858 19.6474 36.9788 17.7674C34.8648 15.8824 33.6968 13.4545 32.0118 11.2495C31.8768 11.0725 31.5178 11.1764 31.5768 11.4224C32.8898 16.7974 38.4868 20.4665 43.1198 22.7705C48.3928 25.3925 55.1418 27.2515 60.9248 25.4305C61.1128 25.3715 61.0318 25.0514 60.8388 25.0924Z" fill="black"/>
<path d="M27.7668 7.92942C27.2948 10.1654 29.0828 11.3694 31.1618 11.3144C33.1838 11.2614 35.6088 9.11542 34.9518 6.93542C34.8878 6.72142 34.5438 6.72243 34.4698 6.92843C34.1868 7.72343 34.1198 8.45842 33.5568 9.14242C33.0688 9.73542 32.2008 10.0144 31.4788 10.1624C29.8908 10.4904 28.2648 9.60742 28.0228 7.93342C28.0018 7.78742 27.7978 7.78742 27.7668 7.92942Z" fill="black"/>
<path d="M28.0219 8.16247C28.3149 7.82247 28.5509 7.61246 29.0029 7.81446C29.4099 7.99546 29.6149 8.47647 29.9049 8.77947C29.9639 8.84147 30.0579 8.83946 30.0989 8.75646C30.8079 7.32046 28.0409 6.13947 27.4759 7.83447C27.3639 8.17447 27.7759 8.44847 28.0219 8.16247Z" fill="black"/>
<path d="M29.969 8.25343C30.066 7.65843 30.42 7.11543 31.088 7.22043C31.836 7.34043 31.551 8.26543 32.01 8.58943C32.073 8.63443 32.137 8.63042 32.201 8.59242C32.607 8.35242 32.408 7.63043 32.222 7.30543C31.997 6.90943 31.634 6.65343 31.19 6.56343C30.181 6.36043 29.596 7.38244 29.66 8.24744C29.673 8.42744 29.942 8.42443 29.969 8.25343Z" fill="black"/>
<path d="M32.2579 8.12454C32.3869 7.30954 33.1759 6.99653 33.9039 7.26353C34.1419 7.35053 34.4119 7.51352 34.6679 7.42652C34.9049 7.34552 34.7029 6.98052 34.6229 6.87052C34.2319 6.33152 33.3289 6.34753 32.7719 6.53253C32.0819 6.76153 31.7859 7.43653 31.8719 8.11753C31.8969 8.33653 32.2229 8.34354 32.2579 8.12454Z" fill="black"/>
<path d="M28.0504 8.23736C26.5164 6.63936 24.7784 5.02636 24.0324 2.88236C23.9284 3.05836 23.8234 3.23436 23.7194 3.41036C26.5624 2.91436 27.1354 6.32536 28.9454 7.61836C28.9874 7.64936 29.0534 7.61936 29.0464 7.56236C28.8664 6.32236 27.8964 5.02037 27.0944 4.10737C26.1984 3.08637 25.0124 2.42837 23.6314 2.64137C23.3714 2.68137 23.2374 2.92637 23.3184 3.16937C24.0584 5.44037 25.9724 7.07436 27.8514 8.42936C27.9724 8.52136 28.1664 8.35736 28.0504 8.23736Z" fill="black"/>
<path d="M29.1099 7.71349C29.1509 6.93449 28.7079 6.02749 28.4909 5.29549C28.1489 4.13049 27.6039 2.8305 27.7719 1.5935C27.9069 0.598496 28.7419 1.7995 28.8829 2.0745C29.1659 2.6225 29.3319 3.2395 29.4959 3.8305C29.7669 4.8125 29.8269 5.90149 30.2839 6.82349C30.3409 6.93549 30.4969 6.92049 30.5249 6.79549C30.7909 5.58449 29.8789 -0.111507 27.8409 0.528493C25.5839 1.23849 28.1789 6.6115 28.9049 7.7615C28.9579 7.84249 29.1039 7.80849 29.1099 7.71349Z" fill="black"/>
<path d="M30.5323 6.91947C30.6123 4.84747 30.2243 2.34347 31.5993 0.622472C31.3953 0.619472 31.1903 0.617461 30.9873 0.614461C31.8943 1.55046 32.0883 2.78246 32.1513 4.03646C32.2053 5.09146 31.8753 6.17047 32.1303 7.20647C32.1453 7.27047 32.2293 7.31146 32.2763 7.24846C32.9523 6.32846 32.8723 5.04647 32.8613 3.95447C32.8463 2.60547 32.5373 1.16547 31.6043 0.150472C31.4333 -0.0375283 31.1653 -0.0595392 30.9923 0.142461C29.2913 2.11446 29.8963 4.59246 30.2993 6.91646C30.3213 7.03846 30.5263 7.05847 30.5323 6.91947Z" fill="black"/>
<path d="M32.3805 7.34436C32.8365 5.24336 32.9525 1.77836 35.2195 0.794362C35.0735 0.753362 34.9255 0.712353 34.7785 0.672352C35.5095 1.84335 35.0555 3.22335 34.5595 4.39035C34.2045 5.22735 33.3645 6.10535 33.3375 7.03435C33.3355 7.12135 33.4055 7.19635 33.4975 7.16135C34.5765 6.74835 35.1595 5.00835 35.5275 4.03435C36.0065 2.76735 36.1195 1.39736 35.3785 0.221364C35.2915 0.0833637 35.0815 0.0353626 34.9385 0.0983626C32.1715 1.30736 32.3485 4.78436 32.0725 7.29636C32.0505 7.49836 32.3385 7.54136 32.3805 7.34436Z" fill="black"/>
<path d="M33.7488 6.60956C35.1208 5.09656 35.2598 2.14655 37.4408 1.53255C37.2828 1.46555 37.1247 1.39856 36.9657 1.33056C37.5727 2.76156 37.3027 3.99556 36.3377 5.17556C35.6437 6.02556 34.4917 6.49256 33.9117 7.41556C33.8547 7.50556 33.9087 7.61456 34.0207 7.61056C35.3367 7.56056 36.5917 6.18555 37.2947 5.17655C38.1687 3.92455 38.2187 2.43555 37.6407 1.05656C37.5567 0.857555 37.3598 0.801559 37.1658 0.854559C34.5988 1.56456 34.8208 4.61656 33.5378 6.44256C33.4418 6.58556 33.6338 6.73656 33.7488 6.60956Z" fill="black"/>
<path d="M32.0919 12.5706C32.1289 12.5596 32.1659 12.5496 32.2029 12.5386C32.0329 12.5586 31.8639 12.5776 31.6959 12.5976C31.7279 12.5986 31.7599 12.5996 31.7949 12.6006C31.5919 12.4786 31.3889 12.3576 31.1869 12.2356C31.2059 12.2596 31.2279 12.2826 31.2499 12.3076C31.9409 13.1076 33.1679 12.4146 32.8409 11.4076C32.6979 10.9676 32.3149 10.7396 31.8749 10.6846C31.2419 10.6066 30.6709 11.1216 30.7459 11.7716C30.8249 12.4586 31.4869 12.7426 32.0919 12.5706Z" fill="black"/>
<path d="M22.786 9.29657C23.099 9.45957 23.412 9.62257 23.725 9.78557C23.804 10.2866 23.83 10.7916 23.802 11.3006C23.79 11.8206 23.73 12.3426 23.696 12.8616C23.617 14.0486 23.882 15.2166 24.264 16.3316C24.918 18.2326 27.137 19.6646 28.894 20.4066C29.018 20.4586 29.132 20.3126 29.054 20.2046C27.693 18.3386 26.106 17.1036 25.533 14.7326C25.072 12.8156 25.521 10.8506 24.905 8.94856C24.158 6.64356 20.771 7.82657 22.754 9.31357C22.768 9.32457 22.786 9.31357 22.786 9.29657Z" fill="black"/>
<path d="M21.8619 8.90045C22.2349 10.6994 22.7349 12.4944 23.1789 14.2804C23.5299 15.6884 24.0319 17.3924 25.4709 17.9934C25.7149 18.0954 26.0529 17.8964 25.9939 17.6074C25.6979 16.1574 24.8449 14.8244 24.4349 13.3784C23.9689 11.7344 23.7239 9.92143 22.4919 8.64843C22.2799 8.42843 21.7829 8.51645 21.8619 8.90045Z" fill="black"/>
<path d="M22.8312 8.76652C22.4642 9.56152 22.8061 10.4185 23.1061 11.1825C23.3321 11.7555 23.8971 13.3945 24.6761 13.3445C25.5521 13.2875 25.0172 12.1365 24.7902 11.7375C24.2392 10.7645 23.7762 9.81153 23.3632 8.77553C23.2682 8.53853 22.9352 8.54252 22.8312 8.76652Z" fill="black"/>
<path d="M23.7384 8.8174C24.4074 9.9314 24.1024 11.3794 24.8314 12.4404C24.9214 12.5714 25.1424 12.5444 25.2004 12.3974C25.7214 11.0954 25.1774 9.31841 24.1154 8.44941C23.8674 8.24641 23.5914 8.5724 23.7384 8.8174Z" fill="black"/>
<path d="M24.8651 9.00142C25.1141 9.80242 25.2181 10.6054 25.2581 11.4394C25.2871 12.0494 25.3821 12.5534 25.6941 13.0754C25.7591 13.1844 25.9571 13.1594 25.9971 13.0404C26.4391 11.7094 25.8991 10.0424 25.3581 8.80141C25.2191 8.48441 24.7641 8.67642 24.8651 9.00142Z" fill="black"/>
<path d="M54.0098 25.7494C47.6518 24.6414 40.9398 24.4004 34.4998 23.9674C31.6518 23.7764 28.8898 24.0114 26.0478 23.9804C22.8088 23.9434 19.5318 23.8744 16.3638 24.6344C16.0518 24.7084 16.0878 25.1654 16.4228 25.1384C19.3378 24.9024 22.2058 24.2884 25.1428 24.1574C28.5118 24.0054 31.9728 24.4514 35.3438 24.6424C41.5068 24.9924 47.8378 26.1794 54.0078 25.8724C54.0808 25.8694 54.0779 25.7604 54.0098 25.7494Z" fill="black"/>
<path d="M10.6798 22.2735C12.4008 22.1945 16.1698 22.9615 15.4168 25.4866C14.8838 27.2736 12.1798 27.3236 10.7768 27.7886C10.6788 27.8206 10.6498 27.9795 10.7408 28.0355C11.6678 28.6095 13.1348 28.3315 14.1078 28.0295C15.3218 27.6535 16.3628 26.6295 16.5408 25.3565C16.9628 22.3375 12.7528 21.4766 10.6198 22.0406C10.4808 22.0776 10.5518 22.2795 10.6798 22.2735Z" fill="black"/>
<path d="M11.3819 27.9375C11.1589 27.3595 11.1829 26.8056 11.7039 26.4126C12.1989 26.0396 12.7709 26.2376 13.2999 26.0346C13.4079 25.9926 13.4199 25.8736 13.3689 25.7836C12.9119 24.9796 11.5719 25.4526 11.0679 25.9426C10.4129 26.5816 10.3559 27.5646 11.1099 28.1416C11.2499 28.2486 11.4459 28.1025 11.3819 27.9375Z" fill="black"/>
<path d="M12.3211 25.5674C11.7301 25.6304 10.8311 25.5764 10.6031 24.9024C10.4151 24.3484 11.5651 24.1554 11.8281 23.9124C11.9001 23.8464 11.9131 23.7374 11.8301 23.6714C10.9941 22.9984 9.60312 23.9644 9.80612 24.9734C10.0481 26.1684 11.4791 26.2784 12.4031 25.8904C12.5791 25.8164 12.5101 25.5474 12.3211 25.5674Z" fill="black"/>
<path d="M11.4579 23.9355C11.0199 23.6905 10.6329 23.4996 10.5439 22.9606C10.4579 22.4286 11.0209 22.2935 11.2779 21.9615C11.3369 21.8855 11.3309 21.7615 11.2489 21.7035C10.4109 21.1135 9.68292 22.2505 9.71592 22.9765C9.75192 23.7505 10.6689 24.6455 11.4539 24.2305C11.5809 24.1635 11.5839 24.0055 11.4579 23.9355Z" fill="black"/>
<path d="M16.2464 24.5256C16.2434 24.5036 16.2404 24.4816 16.2364 24.4596C16.3034 24.3056 16.3714 24.1516 16.4384 23.9986C16.4294 24.0126 16.4204 24.0276 16.4124 24.0406C16.8024 23.9436 17.1924 23.8466 17.5824 23.7506C17.5714 23.7476 17.5624 23.7446 17.5524 23.7406C17.6814 23.8446 17.8134 23.9476 17.9444 24.0516C17.9304 24.0296 17.9184 24.0076 17.9044 23.9866C17.6764 23.6186 17.1344 23.5156 16.7584 23.6676C16.2254 23.8826 16.0724 24.4286 16.2184 24.9396C16.2264 24.9646 16.2334 24.9896 16.2394 25.0156C16.3384 25.3576 16.6894 25.5426 17.0044 25.6206C17.0154 25.6226 17.0254 25.6256 17.0354 25.6286C17.4874 25.7416 17.8884 25.4136 18.0904 25.0496C18.2174 24.8196 18.2104 24.5526 18.1954 24.2996C18.1654 23.7656 17.6164 23.3796 17.1084 23.4386C16.5344 23.5056 16.2414 23.9916 16.2464 24.5256Z" fill="black"/>
<path d="M13.0349 21.9024C11.1549 21.1804 9.27988 20.5154 7.32188 20.0024C5.67288 19.5694 2.82688 18.6474 1.27588 19.8234C-0.0581167 20.8334 1.54488 22.0974 2.47688 22.4084C3.96988 22.9074 8.12488 23.6814 9.53388 22.6524C9.59688 22.6064 9.60788 22.4884 9.53588 22.4424C8.42488 21.7314 6.22488 22.1604 4.95588 22.0564C3.98088 21.9754 2.99888 21.8594 2.08588 21.4934C0.870881 21.0064 1.83788 20.2534 2.37988 20.1404C2.87388 20.0374 3.40088 20.1004 3.89588 20.1474C7.00288 20.4434 9.82888 22.0574 12.8909 22.4024C13.1769 22.4334 13.3219 22.0124 13.0349 21.9024Z" fill="black"/>
<path d="M8.94592 22.5585C7.24892 22.3325 -0.195084 21.6255 0.00391607 24.5225C0.193916 27.3015 8.67192 25.2465 10.1139 24.7225C10.2209 24.6835 10.2039 24.5095 10.0889 24.4985C7.18491 24.2265 3.91691 25.9235 1.09191 24.8235C-0.242087 24.3045 1.89492 23.5585 2.23492 23.4825C3.05292 23.3005 3.90592 23.2675 4.73892 23.2225C6.12892 23.1495 7.55591 23.3115 8.93591 23.1345C9.25891 23.0925 9.27692 22.6015 8.94592 22.5585Z" fill="black"/>
<path d="M8.55372 22.8393C9.02772 22.8913 9.57871 22.9593 10.0317 22.7783C10.1607 22.7273 10.1777 22.5563 10.0757 22.4703C9.63971 22.1043 8.99172 22.2943 8.51072 22.4643C8.32972 22.5293 8.36372 22.8183 8.55372 22.8393Z" fill="black"/>
<path d="M10.1391 24.8235C8.55509 24.7345 2.79509 25.0815 3.11009 27.6175C3.28309 29.0145 5.41309 28.3655 6.20909 28.1545C7.24909 27.8775 8.27209 27.5475 9.29109 27.1985C9.90709 26.9875 10.8181 26.8275 11.3021 26.3585C11.4801 26.1855 11.4351 25.8975 11.1721 25.8415C10.3471 25.6645 9.14909 26.3865 8.39809 26.6515C7.09509 27.1115 5.58309 27.7585 4.17509 27.6915C3.28709 27.6485 4.86509 26.6425 4.97509 26.5895C5.55609 26.3035 6.18909 26.1295 6.80609 25.9395C7.88109 25.6085 9.00109 25.2265 10.1331 25.1495C10.3151 25.1365 10.3251 24.8345 10.1391 24.8235Z" fill="black"/>
<path d="M10.8432 25.8484C9.34423 26.2254 4.21423 28.2864 6.42323 30.5534C7.97423 32.1444 10.9922 28.3854 11.5022 27.1644C11.5602 27.0264 11.3982 26.8974 11.2772 26.9864C10.4112 27.6174 8.20223 31.0284 6.98723 30.1984C5.30423 29.0474 10.2812 26.6174 10.9742 26.1774C11.1232 26.0834 11.0202 25.8044 10.8432 25.8484Z" fill="black"/>
<path d="M25.1829 10.7804C25.4159 16.1664 26.6139 20.0544 31.8369 22.4664C34.7969 23.8334 38.1499 24.3364 41.3579 24.7074C45.1669 25.1484 48.9739 25.5944 52.8039 25.7994C53.0479 25.8124 53.2069 25.4344 52.9339 25.3534C47.5979 23.7574 41.8309 23.7224 36.4049 22.4034C33.3719 21.6674 30.2169 20.4124 28.1919 17.9454C26.6069 16.0134 26.1759 13.1074 25.7179 10.7184C25.6529 10.3764 25.1689 10.4324 25.1829 10.7804Z" fill="black"/>
<path d="M63.3654 25.1854C60.1004 25.1914 56.7524 25.3924 53.6294 24.2684C49.2944 22.7094 47.7734 16.4704 52.5804 14.3914C53.7824 13.8704 55.0824 14.1634 56.1414 14.8414C57.2774 15.5434 57.5664 16.6114 57.0064 18.0444C56.2214 18.7794 54.9394 18.4574 54.0224 18.3274C52.6744 18.1364 51.6184 18.4554 50.8174 19.5684C49.3944 21.5444 51.6814 24.5594 53.4344 25.3574C53.6694 25.4644 53.9424 25.1554 53.7574 24.9484C52.8464 23.9294 51.9844 22.7554 51.6754 21.4034C51.2104 19.3704 55.0614 20.1614 55.9044 20.1634C57.7334 20.1684 58.8924 18.4054 58.8564 16.7744C58.8194 15.0484 56.6294 13.2994 55.0754 13.0164C53.2534 12.6834 51.3304 13.1964 50.0284 14.5734C47.2454 17.5184 48.0904 22.0004 51.2984 24.2594C54.6004 26.5854 59.6694 26.3514 63.4054 25.5204C63.6174 25.4714 63.5824 25.1844 63.3654 25.1854Z" fill="black"/>
<path d="M53.0958 24.3183C51.9858 22.7783 51.1048 19.4553 52.8178 18.0623C53.3598 17.6213 54.1118 17.4093 54.8028 17.4363C55.5798 17.4673 55.9978 18.0003 56.5068 18.5083C56.8238 18.8253 57.3408 18.5273 57.4118 18.1533C57.6468 16.9233 56.6118 15.9593 55.4818 15.7123C54.2258 15.4373 52.9738 15.8123 51.9178 16.4993C50.6498 17.3223 50.2698 18.7123 50.2458 20.1423C50.2118 22.0943 51.5018 23.4093 52.8508 24.5573C53.0048 24.6853 53.2088 24.4743 53.0958 24.3183Z" fill="black"/>
<path d="M56.9893 18.4174C56.9263 16.9464 54.2273 16.7374 53.2173 16.9204C52.4603 17.0574 51.7093 17.4674 51.3453 18.1704C51.0073 18.8214 51.0293 19.9764 51.8613 20.2484C52.1383 20.3394 52.4053 20.2944 52.6013 20.0644C52.8863 19.7284 52.7333 19.3094 52.9453 18.9834C53.1303 18.6984 53.5913 18.6204 53.8983 18.5684C54.3893 18.4854 54.8873 18.4814 55.3793 18.5484C55.8193 18.6084 56.2623 18.8044 56.7093 18.7724C56.8913 18.7594 56.9973 18.5854 56.9893 18.4174Z" fill="black"/>
<path d="M51.0805 21.8194C50.5515 20.2334 51.1295 18.9314 52.4515 18.0024C53.0485 17.5824 53.7945 17.3854 54.5125 17.3294C55.2755 17.2704 55.8645 17.7274 56.5495 17.9464C56.9715 18.0814 57.4585 17.7254 57.2605 17.2564C56.3175 15.0264 53.0835 15.7674 51.5565 16.8114C49.8055 18.0074 48.9105 20.6014 50.7855 22.0414C50.9425 22.1624 51.1395 21.9984 51.0805 21.8194Z" fill="black"/>
<path d="M57.1992 17.8074C58.1272 17.0644 57.3042 15.7304 56.4992 15.2864C55.2662 14.6064 53.7352 14.7724 52.4312 15.1184C50.9582 15.5094 49.6272 16.5134 48.9642 17.8894C48.2582 19.3594 48.6382 21.8504 50.2872 22.5364C50.4882 22.6204 50.7942 22.5004 50.8032 22.2534C50.8492 21.0764 50.0912 19.9564 50.4922 18.7674C50.8202 17.7924 51.7662 17.1554 52.6662 16.7674C53.5662 16.3794 54.5802 16.2034 55.5492 16.3874C56.4472 16.5584 56.4842 17.1134 56.9252 17.7674C56.9832 17.8554 57.1192 17.8724 57.1992 17.8074Z" fill="black"/>
<path d="M62.6365 24.8864C62.2765 24.5554 61.9075 24.2404 61.5285 23.9324C61.1555 23.6314 60.8695 23.2094 60.4445 23.0444C59.9125 22.8374 59.1775 23.2464 59.3045 23.8864C59.4395 24.5594 60.0755 24.8834 60.6205 25.2074C61.1345 25.5134 61.8495 25.7144 62.4425 25.5674C62.7675 25.4864 62.9005 25.1294 62.6365 24.8864Z" fill="black"/>
<path d="M16.6668 25.0674C20.7488 24.3074 24.5238 24.0794 28.6848 24.3624C32.2708 24.6074 35.8218 25.0934 39.4208 24.8664C39.5708 24.8574 39.5728 24.6234 39.4248 24.6034C35.3428 24.0534 31.2558 23.4844 27.1368 23.2914C23.6748 23.1284 19.7408 23.1084 16.5638 24.6614C16.3608 24.7614 16.4208 25.1124 16.6668 25.0674Z" fill="black"/>
<path d="M24.9712 23.6185C22.6122 23.5055 20.1912 22.4145 18.0922 21.4125C16.4082 20.6085 11.4692 18.2485 12.4972 15.6825C13.8962 12.1955 17.8212 18.4385 18.5602 19.5585C19.4932 20.9725 20.9582 24.2345 22.9282 24.4205C23.1632 24.4425 23.4102 24.1515 23.2152 23.9415C20.8412 21.3985 19.1942 18.3055 16.8632 15.7305C15.3152 14.0185 12.7042 12.7665 11.4142 15.5005C10.1892 18.0955 14.3162 20.5825 16.0042 21.5725C18.1922 22.8565 22.3792 25.0365 25.0042 23.9095C25.1332 23.8555 25.1302 23.6265 24.9712 23.6185Z" fill="black"/>
<path d="M21.7811 23.3545C20.0471 21.9365 18.3052 20.6845 16.7742 19.0195C15.9332 18.1045 15.1752 17.1225 14.4872 16.0885C14.0652 15.4545 13.8792 14.5885 13.1632 14.2295C12.9642 14.1285 12.6611 14.1975 12.5331 14.3865C11.4361 16.0145 14.3652 18.6925 15.3622 19.7055C16.8682 21.2395 19.3421 23.7155 21.6721 23.7365C21.8711 23.7375 21.9111 23.4615 21.7811 23.3545Z" fill="black"/>
<path d="M12.8191 14.4996C11.6141 15.9186 11.6811 17.3536 13.0661 18.6846C14.3061 19.8776 16.3701 20.8996 18.1131 21.0126C18.4891 21.0376 18.6581 20.6276 18.3941 20.3686C16.8991 18.9036 12.2871 17.7346 13.3711 14.8306C13.4991 14.4866 13.0621 14.2136 12.8191 14.4996Z" fill="black"/>
<path d="M39.1676 24.2564C35.3346 24.1364 31.4466 24.5674 28.1646 26.6924C26.4166 27.8244 23.6936 30.1654 24.9456 32.4934C26.0596 34.5684 28.5876 33.7314 29.8836 32.4054C31.0596 31.2014 31.9646 29.8054 32.9006 28.4144C34.3046 26.3234 36.0506 25.4684 38.2966 24.5344C38.4646 24.4644 38.4286 24.2254 38.2566 24.1904C33.7326 23.2694 31.7546 28.5524 29.3836 31.3084C28.8446 31.9334 28.1696 32.4864 27.3436 32.6764C24.8216 33.2584 25.9326 30.5774 26.3386 29.9704C26.9746 29.0204 27.9466 28.2854 28.8626 27.6234C31.7416 25.5384 35.7006 24.9624 39.1566 24.7754C39.4496 24.7594 39.4636 24.2664 39.1676 24.2564Z" fill="black"/>
<path d="M35.8742 24.3266C33.7602 25.0626 31.9132 25.9455 30.3622 27.5995C29.6492 28.3605 29.0382 29.2185 28.3822 30.0285C27.8182 30.7275 26.8122 31.2805 26.5392 32.1465C26.3892 32.6205 26.6042 33.0506 27.0992 33.1676C28.6952 33.5426 30.0892 30.9965 30.8682 29.9505C32.3642 27.9425 34.1192 26.2996 36.1912 24.8876C36.5052 24.6716 36.2092 24.2096 35.8742 24.3266Z" fill="black"/>
<path d="M26.4287 33.2286C27.9747 32.1646 28.6597 30.3936 29.7337 28.9156C30.9237 27.2766 33.1467 26.8146 34.2517 25.1646C34.3967 24.9496 34.2547 24.6756 33.9887 24.6916C29.7777 24.9456 27.6707 29.4626 25.7217 32.5026C25.4137 32.9806 25.9297 33.5726 26.4287 33.2286Z" fill="black"/>
<path d="M30.1964 10.8163C30.6084 10.9113 31.0533 10.8193 31.4633 10.7443C31.9973 10.6473 32.5304 10.6713 33.0524 10.5033C33.9244 10.2223 33.7234 8.85435 32.8494 8.74735C31.7474 8.61335 30.0064 8.85434 29.6644 10.0893C29.5664 10.4423 29.8894 10.7463 30.1964 10.8163Z" fill="black"/>
<path d="M32.6893 7.84642C32.2743 8.07842 32.0023 8.39342 31.6783 8.73442C31.5453 8.87342 31.3923 8.97942 31.2773 9.13742C31.1733 9.26742 31.1103 9.41342 31.0843 9.57642C31.0883 9.85442 31.0843 9.91241 31.0723 9.74841C31.0163 10.0684 31.2063 10.3674 31.4893 10.5044C32.4803 10.9844 33.4663 9.89941 33.8733 9.06441C34.2003 8.39241 33.4073 7.44542 32.6893 7.84642Z" fill="black"/>
<path d="M30.3142 8.05744C29.6462 8.58244 29.8402 9.49544 30.0652 10.2014C30.2252 10.7064 30.8692 10.9254 31.3312 10.7384C31.8482 10.5304 32.0322 9.97543 31.8682 9.47243C31.6762 8.88143 31.6672 8.27044 31.0282 7.97544C30.8022 7.87044 30.5102 7.90344 30.3142 8.05744Z" fill="black"/>
<path d="M28.7483 8.96356C28.6933 9.48956 28.9633 10.1526 29.4083 10.4656C29.9343 10.8366 30.8383 11.1606 31.3263 10.5246C32.0733 9.54656 30.1263 8.60756 29.3633 8.51356C29.0833 8.48056 28.7793 8.66556 28.7483 8.96356Z" fill="black"/>
<path d="M11.3763 23.6244C12.0063 24.3434 12.9043 24.6574 13.7873 24.9614C14.4473 25.1884 15.6613 25.5104 16.1473 24.8044C16.6513 24.0724 15.5703 23.5044 15.0293 23.2964C14.5863 23.1264 14.1263 23.0004 13.6803 22.8314C13.1743 22.6384 12.7023 22.4034 12.1643 22.3084C11.4803 22.1874 10.8883 23.0684 11.3763 23.6244Z" fill="black"/>
<path d="M12.7561 25.7875C13.7801 25.8145 15.6461 25.8675 16.1801 24.8235C16.3361 24.5185 16.2091 24.1276 15.9551 23.9216C15.1751 23.2876 13.7191 23.8725 12.7931 23.8665C11.7031 23.8595 11.6691 25.7585 12.7561 25.7875Z" fill="black"/>
<path d="M12.8416 22.9713C13.4126 23.1993 13.7626 23.5913 14.2096 23.9883C14.4876 24.2373 15.1366 24.5953 15.3556 24.0953C15.5776 23.5923 15.0566 22.9713 14.6656 22.7363C14.1256 22.4103 13.5726 22.2763 12.9446 22.2773C12.5756 22.2783 12.5226 22.8443 12.8416 22.9713Z" fill="black"/>
<path d="M12.5673 27.6374C13.1973 27.7054 13.8483 27.0014 14.3503 26.6724C15.0373 26.2224 15.8933 25.7414 15.8743 24.8144C15.8663 24.4004 15.4313 24.1484 15.0633 24.1714C14.4383 24.2104 13.8373 24.7804 13.3343 25.1144C12.8163 25.4574 12.1713 25.8194 11.9183 26.4184C11.7963 26.7064 11.8263 27.0494 12.0213 27.2994C12.1523 27.4704 12.3453 27.6134 12.5673 27.6374Z" fill="black"/>
<path d="M14.4937 25.8614C14.0497 25.9554 13.9717 26.1884 13.7907 26.5564C13.9827 26.4144 14.1747 26.2734 14.3667 26.1314C14.3537 26.1324 14.3407 26.1334 14.3267 26.1344C13.5967 26.2034 13.5177 27.1824 14.1247 27.4854C14.1367 27.4914 14.1497 27.4974 14.1597 27.5034C14.5217 27.6844 14.9417 27.4714 15.1067 27.1344C15.3127 26.7184 15.1497 25.7234 14.4937 25.8614Z" fill="black"/>
</svg>
