<svg width="116" height="150" viewBox="0 0 116 150" fill="none" xmlns="http://www.w3.org/2000/svg">
<path d="M115.026 92.799C113.911 92.596 112.784 92.446 111.685 92.176C110.593 91.908 109.53 91.519 108.391 91.164C108.08 93.393 107.841 95.556 107.468 97.695C106.504 103.231 105.385 108.742 104.505 114.291C103.394 121.295 102.433 128.323 101.458 135.347C101.106 137.885 100.929 140.446 100.591 142.986C100.56 143.22 99.953 143.52 99.595 143.548C95.391 143.873 91.183 144.152 86.976 144.446C86.913 144.45 86.852 144.495 86.715 144.554C86.554 145.518 86.378 146.524 86.219 147.532C86.13 148.093 85.944 148.507 85.262 148.499C79.634 148.44 74.005 148.403 68.377 148.329C67.386 148.316 67.211 147.925 67.574 147.017C69.688 141.715 71.242 136.283 71.884 130.576C72.484 125.238 71.169 120.431 68.404 115.96C64.294 109.313 56.91 108.623 50.883 112.333C45.933 115.379 43.413 120.023 42.556 125.668C41.931 129.788 42.876 133.791 43.475 137.815C44.024 141.505 45.256 144.986 46.864 148.341C47.208 149.06 46.958 149.516 46.21 149.512C41.268 149.484 36.326 149.403 31.384 149.423C30.286 149.427 29.788 148.971 29.671 148.005C29.571 147.18 29.185 146.992 28.385 147C25.022 147.036 21.658 147.007 18.294 146.969C16.743 146.951 16.669 146.858 16.349 145.318C14.27 135.32 12.195 125.321 10.116 115.323C8.84 109.185 7.562 103.048 6.28 96.911C6.211 96.58 6.104 96.257 6.005 95.896C4.358 96.348 2.751 96.814 1.127 97.212C0.782001 97.297 0.377 97.135 0 97.087C0.231 96.791 0.403 96.392 0.705 96.222C1.297 95.889 1.945 95.634 2.597 95.434C9.75 93.239 16.303 89.811 22.441 85.6C26.512 82.808 30.406 79.759 34.436 76.905C36.278 75.601 36.932 73.947 37.032 71.714C37.418 63.114 37.926 54.519 38.495 45.929C38.821 41.006 39.354 36.098 39.805 31.057C37.656 31.057 35.493 31.057 33.075 31.057C33.354 30.65 33.461 30.423 33.63 30.258C39.693 24.341 44.701 17.625 48.771 10.206C49.048 9.70001 49.17 9.06 49.194 8.474C49.253 7.044 49.213 5.61101 49.213 4.05501C48.414 4.10601 47.805 4.207 47.207 4.16C46.862 4.134 46.534 3.87101 46.199 3.71501C46.453 3.43901 46.704 3.15901 46.966 2.88901C47.006 2.84801 47.096 2.84101 47.163 2.84201C48.546 2.84801 49.278 2.26901 49.145 0.779007C49.124 0.537007 49.489 0.26 49.675 0C49.911 0.253 50.248 0.467006 50.36 0.766006C50.534 1.23301 50.556 1.75701 50.657 2.34401C51.472 2.24801 52.251 2.06701 53.02 2.10301C53.437 2.12201 53.838 2.51101 54.246 2.73401C53.895 3.04101 53.587 3.511 53.182 3.621C52.399 3.834 51.561 3.84501 50.654 3.95001C50.654 4.34501 50.645 4.74101 50.656 5.13701C50.682 6.06201 50.91 7.032 50.708 7.903C50.322 9.566 51.124 10.594 52.17 11.656C56.021 15.569 59.803 19.551 63.681 23.437C65.008 24.767 66.562 25.868 67.964 27.128C68.284 27.415 68.563 27.926 68.572 28.339C68.587 29.013 68.183 29.443 67.398 29.464C66.546 29.486 65.696 29.621 64.761 29.715C65.316 31.545 65.955 33.345 66.405 35.19C68.508 43.807 70.556 52.437 72.629 61.062C73.165 63.294 73.632 65.548 74.309 67.737C74.553 68.525 75.278 69.188 75.856 69.845C80.625 75.271 86.694 78.959 92.854 82.524C99.322 86.267 106.073 89.345 113.301 91.324C113.975 91.509 114.597 91.882 115.243 92.168C115.169 92.379 115.098 92.589 115.026 92.799ZM45.602 148.364C45.44 147.949 45.344 147.736 45.271 147.514C44.323 144.623 43.142 141.783 42.489 138.826C41.515 134.418 40.639 129.943 41.309 125.376C42.36 118.206 45.91 112.768 52.707 109.902C58.681 107.382 64.763 108.727 68.648 113.95C72.289 118.844 73.774 124.43 73.194 130.531C72.687 135.863 71.235 140.956 69.297 145.927C69.141 146.328 69.013 146.74 68.879 147.124C74.306 147.124 79.615 147.124 84.96 147.124C85.89 141.485 86.801 135.966 87.713 130.437C87.043 130.491 86.515 130.635 86.033 130.541C85.596 130.456 85.209 130.111 84.801 129.88C85.161 129.691 85.514 129.489 85.883 129.319C86.034 129.249 86.217 129.25 86.386 129.218C88.006 128.908 88.007 128.908 88.169 127.301C88.175 127.245 88.121 127.184 88.067 127.064C87.518 127.171 86.958 127.324 86.388 127.381C85.542 127.466 84.689 127.513 83.84 127.504C83.657 127.502 83.478 127.19 83.297 127.022C83.453 126.858 83.581 126.607 83.77 126.547C84.223 126.402 84.703 126.332 85.176 126.259C86.247 126.093 87.322 125.943 88.402 125.785C88.506 124.985 88.597 124.288 88.696 123.522C87.612 123.65 86.636 123.796 85.654 123.872C84.698 123.946 83.733 124.007 82.778 123.951C82.419 123.93 82.081 123.565 81.733 123.357C82.042 123.147 82.325 122.836 82.666 122.748C83.224 122.605 83.819 122.604 84.399 122.548C85.891 122.403 87.383 122.26 88.898 122.115C88.979 121.444 89.046 120.888 89.121 120.268C86.522 120.268 84.055 120.308 81.592 120.236C81.068 120.221 80.557 119.801 80.039 119.567C80.55 119.328 81.052 118.906 81.573 118.881C83.697 118.781 85.827 118.801 87.955 118.779C89.411 118.764 89.413 118.766 89.514 117.312C89.529 117.089 89.516 116.864 89.516 116.568C89 116.568 88.593 116.57 88.185 116.568C85.645 116.557 83.104 116.586 80.567 116.498C80.042 116.48 79.533 116.022 79.017 115.767C79.541 115.556 80.061 115.176 80.589 115.164C83.299 115.102 86.011 115.133 88.723 115.135C89.94 115.136 90.006 115.055 89.796 113.663C88.203 113.663 86.593 113.713 84.989 113.628C84.58 113.606 84.194 113.156 83.797 112.903C84.201 112.683 84.597 112.292 85.009 112.274C86.68 112.202 88.357 112.244 90.128 112.244C90.188 111.928 90.267 111.51 90.349 111.073C88.681 110.97 87.107 110.915 85.544 110.748C85.142 110.705 84.777 110.311 84.394 110.078C84.784 109.892 85.161 109.665 85.568 109.536C85.816 109.457 86.113 109.519 86.387 109.533C87.747 109.598 89.107 109.669 90.489 109.739C91.236 105.357 91.971 101.048 92.69 96.833C79.312 90.34 67.045 82.414 56.088 72.529C55.588 73.224 55.169 73.898 54.66 74.496C48.916 81.258 42.781 87.632 35.795 93.132C31.806 96.273 27.675 99.21 22.683 101.142C25.35 116.856 28.028 132.642 30.697 148.368C35.749 148.364 40.58 148.364 45.602 148.364ZM37.742 83.264C39.015 82.037 40.255 81 41.308 79.799C45.105 75.468 48.838 71.08 52.598 66.717C53.47 65.705 54.338 64.689 55.24 63.705C55.693 63.21 56.159 63.26 56.647 63.762C57.411 64.548 58.194 65.326 59.036 66.027C64.019 70.177 69.019 74.306 74.021 78.434C74.642 78.947 75.305 79.409 76.127 80.029C75.991 79.435 75.912 79.073 75.825 78.712C73.821 70.389 71.725 62.088 69.839 53.738C68.087 45.983 66.255 38.258 63.849 30.675C63.636 30.004 63.375 29.766 62.644 29.797C59.628 29.926 56.606 29.929 53.591 30.075C50.338 30.233 47.09 30.496 43.841 30.721C42.954 30.782 41.747 30.552 41.269 31.033C40.753 31.553 40.879 32.746 40.796 33.653C40.473 37.168 40.145 40.683 39.883 44.203C39.59 48.135 39.362 52.072 39.114 56.008C38.972 58.257 38.846 60.507 38.711 62.768C39.611 62.626 40.452 62.399 41.294 62.398C41.789 62.397 42.284 62.757 42.779 62.954C42.322 63.235 41.898 63.643 41.402 63.77C40.518 63.996 39.591 64.052 38.622 64.187C38.567 64.903 38.516 65.553 38.464 66.228C40.234 65.917 41.847 65.594 43.474 65.361C44.59 65.201 45.723 65.135 46.85 65.097C47.083 65.089 47.326 65.39 47.564 65.548C47.398 65.783 47.281 66.104 47.055 66.231C46.738 66.409 46.345 66.475 45.976 66.532C43.479 66.918 40.979 67.288 38.44 67.67C38.379 68.54 38.321 69.367 38.257 70.281C39.792 69.972 41.159 69.63 42.547 69.452C43.067 69.385 43.635 69.7 44.182 69.84C43.745 70.167 43.351 70.668 42.864 70.789C41.378 71.155 39.855 71.374 38.235 71.671C38.207 72.185 38.174 72.805 38.139 73.439C40.122 73.32 41.957 72.383 43.823 73.464C43.347 73.846 42.857 74.158 42.324 74.285C41.192 74.554 40.043 74.795 38.888 74.913C38.15 74.988 38.025 75.295 38.011 75.951C37.957 78.312 37.842 80.674 37.742 83.264ZM77.135 80.838C77.304 80.968 77.599 81.203 77.902 81.427C85.559 87.107 93.627 92.073 102.511 95.631C103.088 95.862 103.944 96.003 103.779 96.912C103.764 96.997 102.577 97.049 102.049 96.833C99.859 95.938 97.714 94.934 95.552 93.973C95.257 93.842 94.952 93.731 94.395 93.509C91.919 110.248 89.472 126.796 87.022 143.355C87.918 143.276 88.768 143.192 89.62 143.128C92.594 142.905 95.568 142.68 98.544 142.478C99.107 142.44 99.278 142.201 99.323 141.653C99.447 140.15 99.611 138.649 99.816 137.154C100.799 129.991 101.673 122.809 102.83 115.673C104.129 107.658 105.684 99.683 107.149 91.695C107.266 91.058 107.195 90.705 106.515 90.451C102.171 88.827 97.982 86.882 93.946 84.578C88.338 81.375 82.719 78.21 77.95 73.771C76.926 72.818 75.859 71.911 74.812 70.983C74.965 70.978 74.989 71.141 75.031 71.299C75.697 73.816 76.386 76.328 77.016 78.854C77.157 79.418 77.094 80.032 77.135 80.838ZM7.057 95.423C7.235 96.089 7.418 96.672 7.547 97.267C9.031 104.131 10.533 110.992 11.978 117.865C13.889 126.953 15.764 136.048 17.615 145.149C17.761 145.866 18.146 145.808 18.63 145.805C21.822 145.786 25.015 145.77 28.207 145.75C28.504 145.748 28.8 145.721 29.198 145.7C28.802 143.675 28.424 141.739 28.038 139.766C26.482 140.044 25.008 140.32 23.529 140.565C22.753 140.693 21.968 140.814 21.185 140.833C20.923 140.84 20.654 140.521 20.388 140.351C20.606 140.121 20.785 139.794 21.053 139.684C21.456 139.519 21.92 139.502 22.36 139.431C24.143 139.145 25.927 138.862 27.793 138.564C27.598 137.513 27.425 136.587 27.264 135.716C25.852 135.918 24.535 136.152 23.208 136.264C22.865 136.293 22.49 135.938 22.13 135.759C22.433 135.529 22.706 135.165 23.043 135.092C24.341 134.81 25.658 134.621 27.018 134.389C26.919 133.852 26.827 133.356 26.707 132.703C25.09 132.991 23.548 133.267 22.006 133.539C21.028 133.712 20.053 133.936 19.067 134.016C18.717 134.044 18.337 133.716 17.971 133.551C18.259 133.31 18.517 133.009 18.844 132.845C19.139 132.697 19.508 132.695 19.845 132.636C22.033 132.253 24.222 131.872 26.513 131.472C26.35 130.631 26.184 129.778 26.015 128.91C25.719 128.94 25.516 128.958 25.313 128.981C24.122 129.115 22.934 129.275 21.74 129.363C21.503 129.38 21.246 129.12 20.998 128.988C21.202 128.788 21.373 128.493 21.617 128.408C22.097 128.242 22.616 128.182 23.122 128.098C24.015 127.95 24.911 127.818 25.84 127.673C25.698 126.966 25.587 126.413 25.47 125.832C23.375 126.045 21.402 126.269 19.423 126.425C19.077 126.452 18.708 126.199 18.35 126.076C18.668 125.821 18.975 125.549 19.31 125.32C19.441 125.23 19.637 125.226 19.806 125.202C21.599 124.952 23.392 124.706 25.304 124.442C25.216 123.966 25.122 123.461 25.033 122.98C23.781 122.998 22.603 123.64 21.603 122.798C21.593 122.645 21.583 122.492 21.574 122.339C22.643 122.135 23.713 121.931 24.879 121.709C24.774 120.968 24.67 120.238 24.558 119.445C22.752 119.704 21.03 119.97 19.302 120.189C18.697 120.266 18.011 120.488 17.423 119.572C19.722 118.692 22.101 118.78 24.342 118.321C23.286 111.42 22.234 104.542 21.183 97.67C19.112 98.783 17.079 99.919 15.002 100.967C14.217 101.363 13.338 101.591 12.48 101.815C12.267 101.87 11.972 101.611 11.715 101.496C11.878 101.27 11.993 100.951 12.214 100.837C12.759 100.556 13.375 100.415 13.923 100.138C22.165 95.984 29.489 90.512 36.396 84.444C36.591 84.272 36.754 83.947 36.757 83.691C36.772 82.084 36.734 80.476 36.719 78.868C36.712 78.142 36.718 77.416 36.718 76.545C32.32 80.69 27.472 83.936 22.632 87.195C17.75 90.484 12.569 93.202 7.057 95.423ZM92.929 95.429C93.056 94.719 93.124 94.244 93.23 93.778C93.37 93.162 93.193 92.806 92.592 92.487C86.884 89.451 81.501 85.891 76.404 81.933C69.337 76.444 62.418 70.767 55.873 64.811C53.427 67.877 51.004 71.075 48.413 74.132C41.426 82.375 33.388 89.468 24.382 95.424C22.787 96.479 21.985 97.471 22.591 99.332C22.64 99.482 22.663 99.641 22.739 99.982C24.567 98.945 26.333 98.042 27.998 96.982C38.156 90.515 46.427 81.975 54.228 72.938C56.021 70.861 55.893 70.831 58 72.594C60.761 74.905 63.536 77.206 66.403 79.383C72.533 84.038 79.114 88.011 85.763 91.862C88.035 93.178 90.468 94.215 92.929 95.429ZM38.785 26.92C46.928 26.127 54.802 25.36 62.676 24.594C62.751 24.472 62.826 24.349 62.901 24.226C61.838 23.262 60.789 22.282 59.699 21.35C59.498 21.178 59.127 21.127 58.842 21.143C53.642 21.431 48.443 21.733 43.245 22.053C43.006 22.068 42.714 22.222 42.557 22.406C41.356 23.81 40.184 25.237 38.785 26.92ZM67.113 28.234C66.305 27.535 65.616 27.025 65.035 26.412C64.489 25.836 63.91 25.634 63.128 25.715C59.247 26.117 55.363 26.495 51.478 26.859C47.319 27.249 43.162 27.679 38.996 27.955C37.474 28.056 36.631 28.903 35.762 29.908C46.187 29.352 56.559 28.798 67.113 28.234ZM58.101 19.919C58.161 19.821 58.221 19.724 58.281 19.626C57.599 19.006 56.956 18.334 56.22 17.786C55.8 17.473 55.227 17.184 54.729 17.192C52.746 17.227 50.762 17.344 48.785 17.512C47.74 17.601 46.517 17.576 45.725 18.116C44.854 18.711 44.385 19.897 43.668 20.931C48.644 20.583 53.373 20.251 58.101 19.919ZM54.332 15.926C52.869 14.255 51.458 12.642 50.012 10.99C48.882 12.861 47.773 14.697 46.64 16.574C49.24 16.355 51.745 16.144 54.332 15.926Z" fill="#C95571"/>
<path d="M56.1861 125.238C56.6511 124.688 57.0191 124.142 57.4951 123.716C58.1281 123.15 58.7851 122.557 59.5351 122.185C62.5791 120.675 65.3141 122.141 65.5791 125.533C65.6961 127.032 65.5081 128.629 65.1001 130.081C64.0381 133.861 61.7551 137.049 59.7311 140.351C59.2581 141.122 58.1051 141.167 57.0871 140.393C55.6131 139.273 54.1101 138.16 52.8051 136.857C51.0881 135.142 49.4771 133.304 47.9631 131.406C46.8141 129.966 46.3961 128.22 46.6641 126.357C46.9001 124.713 47.7661 123.537 49.3661 123.053C52.0981 122.225 54.4471 122.785 56.1861 125.238ZM58.4311 139.713C59.1371 138.599 59.8041 137.602 60.4161 136.572C61.8891 134.092 63.3191 131.59 64.0411 128.76C64.3961 127.367 64.4621 125.973 63.9561 124.61C63.4071 123.129 62.5991 122.755 61.0551 123.102C59.2961 123.498 58.2971 124.796 57.3151 126.137C56.4081 127.377 55.9601 127.38 55.1381 126.113C54.4261 125.014 53.4761 124.259 52.1741 124.096C49.1151 123.714 47.3901 125.382 48.0431 128.259C48.3061 129.418 48.9471 130.568 49.6691 131.534C52.0731 134.748 55.1701 137.25 58.4311 139.713Z" fill="#C95571"/>
<path d="M89.1491 56.712C90.9171 56.108 92.6551 55.402 94.4561 54.947C95.3071 54.732 96.3071 54.874 97.1901 55.072C99.2971 55.543 100.334 57.4759 99.7021 59.5989C99.1821 61.3459 98.0221 62.718 96.6571 63.79C93.6681 66.138 90.5501 68.324 87.4761 70.564C87.0621 70.866 86.6211 71.1489 86.1561 71.3579C85.5091 71.6489 84.8861 71.5299 84.6001 70.8319C82.9591 66.8229 81.2781 62.794 81.7481 58.333C81.9021 56.871 82.2951 55.32 83.0141 54.057C84.3811 51.653 86.9691 51.821 88.2481 54.277C88.6841 55.11 88.9111 56.051 89.1491 56.712ZM85.9731 69.805C89.7371 67.61 93.2921 65.286 96.3391 62.275C97.1101 61.513 97.8261 60.629 98.3281 59.675C99.2191 57.982 98.4711 56.485 96.5931 56.135C93.8031 55.615 91.5131 56.804 89.4041 58.466C89.0341 58.758 88.7131 59.119 88.3241 59.379C88.1341 59.506 87.8371 59.4719 87.5891 59.5109C87.5831 59.2279 87.5191 58.931 87.5861 58.667C87.6661 58.352 88.0341 58.022 87.9731 57.773C87.6981 56.65 87.4451 55.49 86.9371 54.465C86.3451 53.272 85.1831 53.2529 84.3671 54.3209C84.0411 54.7469 83.7211 55.266 83.6471 55.779C83.4311 57.263 83.1811 58.7709 83.2331 60.2589C83.3471 63.6039 84.5721 66.674 85.9731 69.805Z" fill="#C95571"/>
<path d="M21.9772 79.4551C21.3422 79.3371 20.6492 79.3441 20.0822 79.0801C16.5682 77.4451 13.3702 75.3351 10.8322 72.3691C10.1832 71.6101 9.71121 70.6391 9.37321 69.6891C8.84621 68.2101 9.48721 66.9821 10.9302 66.3421C12.3572 65.7091 13.8382 65.7991 15.2642 66.2291C16.8922 66.7191 18.4692 67.3811 19.8142 67.8751C20.5832 66.2621 21.3152 64.5441 22.2112 62.9161C22.7552 61.9271 23.7292 61.3331 24.8812 61.1671C26.5122 60.9321 27.8622 61.7041 28.0602 63.3451C28.2572 64.9781 28.1682 66.6841 27.9382 68.3211C27.4262 71.9571 25.9132 75.2811 24.3922 78.5841C24.2122 78.9751 23.9102 79.3411 23.5802 79.6181C23.3902 79.7781 23.0292 79.7361 22.7462 79.7841C22.7662 79.5081 22.7112 79.2001 22.8162 78.9611C24.5442 75.0361 26.2062 71.0861 26.8332 66.8051C26.9752 65.8351 26.9562 64.8071 26.8062 63.8381C26.5982 62.5001 25.6082 62.0091 24.4692 62.7271C23.7532 63.1781 23.1052 63.9051 22.7102 64.6571C22.0612 65.8911 21.6432 67.2461 21.1272 68.5501C21.1142 68.5821 21.0872 68.6101 21.0832 68.6421C20.8772 70.2221 20.9152 70.1371 19.4022 69.4581C17.6952 68.6921 15.9422 67.9951 14.1502 67.4651C12.9652 67.1151 11.4932 67.0281 10.7802 68.2461C10.1042 69.4001 11.0402 70.4841 11.7552 71.3901C13.7722 73.9471 16.5322 75.5771 19.2542 77.2451C20.0722 77.7461 20.8932 78.2411 21.7002 78.7591C21.8522 78.8561 21.9442 79.0471 22.0642 79.1941C22.0332 79.2841 22.0052 79.3691 21.9772 79.4551Z" fill="#C95571"/>
<path d="M81.8296 41.6559C82.1076 39.9409 82.6756 38.4369 83.8546 37.2819C84.2356 36.9079 84.9746 36.5859 85.4346 36.7009C85.8346 36.8009 86.2996 37.5289 86.3456 38.0169C86.7016 41.7739 86.0316 45.3069 83.7686 48.4279C83.2686 49.1179 82.6086 49.2999 81.8946 48.8029C80.0416 47.5139 78.1426 46.2739 76.4066 44.8409C75.6006 44.1749 74.9726 43.1739 74.5396 42.2019C73.8436 40.6379 74.7346 39.4239 76.4406 39.3139C78.3706 39.1899 80.0106 39.7849 81.3456 41.1949C81.4806 41.3369 81.6296 41.4669 81.8296 41.6559ZM82.5086 47.8239C84.5566 44.7169 85.0856 41.5949 84.8546 38.2549C84.3496 38.8169 83.9816 39.4429 83.6166 40.0689C83.1796 40.8189 82.6136 41.5239 82.3356 42.3289C81.8306 43.7929 81.3176 42.8299 80.7446 42.4479C79.8746 41.8679 79.0406 41.1499 78.0776 40.8209C77.3996 40.5889 76.5346 40.9049 75.7526 40.9769C76.0306 41.7159 76.1016 42.6889 76.6246 43.1509C78.4596 44.7709 80.4486 46.2129 82.5086 47.8239Z" fill="#C95571"/>
<path d="M25.7211 54.5521C27.6871 51.7111 30.3171 49.5311 30.7761 45.9461C28.9291 45.7631 28.1791 47.6811 26.2941 47.8991C26.6461 47.2591 26.7711 46.7621 27.0901 46.5061C27.8821 45.8711 28.7011 45.2021 29.6211 44.8101C31.1021 44.1791 32.3001 45.1621 31.9941 46.7451C31.7961 47.7711 31.4661 48.8441 30.9111 49.7151C29.6261 51.7341 28.2091 53.6731 26.7651 55.5851C26.0791 56.4941 25.2811 56.4701 24.6801 55.5081C23.3041 53.3041 22.0191 51.0421 20.7331 48.7831C20.5201 48.4091 20.4421 47.9391 20.3761 47.5031C20.2001 46.3581 20.7991 45.5461 21.9161 45.3511C23.2501 45.1181 25.3531 46.0531 25.9891 47.2531C26.1611 47.5781 26.0511 48.0521 26.0701 48.4581C25.6871 48.3451 25.2721 48.2921 24.9261 48.1081C24.1851 47.7141 23.5211 47.1471 22.7481 46.8481C21.9461 46.5381 21.5821 46.9131 21.8721 47.7071C22.7571 50.1301 24.1391 52.2801 25.7211 54.5521Z" fill="#C95571"/>
<path d="M98.0743 79.4412C98.3283 78.3492 98.5823 77.2582 98.8543 76.0842C98.1903 76.2592 97.5813 76.4752 96.9543 76.5602C96.6743 76.5982 96.3583 76.3742 96.0583 76.2702C96.2283 75.9752 96.3313 75.5902 96.5823 75.4052C96.9543 75.1302 97.4303 74.9972 98.0323 74.7262C97.2013 74.2822 96.4733 73.9482 95.8133 73.5122C95.5573 73.3432 95.4523 72.9452 95.2793 72.6512C95.6333 72.5542 96.0343 72.2992 96.3303 72.3892C97.1673 72.6452 97.9603 73.0432 98.9283 73.4512C98.5983 72.4282 98.2703 71.5742 98.0663 70.6912C97.9883 70.3552 98.1983 69.9532 98.2763 69.5812C98.5703 69.8122 98.9663 69.9862 99.1373 70.2872C99.5223 70.9672 99.7963 71.7112 100.182 72.5822C100.703 71.4802 101.168 70.4972 101.633 69.5142C101.76 69.5632 101.888 69.6122 102.015 69.6622C102.432 71.0182 101.648 72.2422 101.405 73.5362C102.197 73.4792 102.939 73.4272 103.68 73.3742C103.732 73.4972 103.784 73.6192 103.836 73.7422C103.387 74.1442 102.938 74.5472 102.483 74.9552C103.17 75.4292 103.869 75.9112 104.568 76.3942C104.517 76.5302 104.465 76.6662 104.414 76.8022C103.511 76.6492 102.609 76.4972 101.701 76.3432C101.943 77.5642 102.194 78.8282 102.445 80.0912C102.307 80.1352 102.168 80.1792 102.03 80.2232C100.761 79.5422 100.868 77.9932 100.156 76.9512C99.6563 77.8622 99.1583 78.7702 98.6603 79.6782C98.4663 79.5982 98.2703 79.5192 98.0743 79.4412Z" fill="#C95571"/>
<path d="M9.95392 85.325C9.47292 86.401 9.03192 87.3879 8.58992 88.3759C8.48492 88.3569 8.37892 88.3369 8.27392 88.3179C8.20392 87.8779 8.13292 87.4379 8.05392 86.9429C7.70592 87.1079 7.38392 87.3259 7.03192 87.4029C6.77192 87.4599 6.47092 87.3329 6.18892 87.2879C6.25992 86.9859 6.23092 86.5769 6.41892 86.4009C7.03392 85.8269 7.72792 85.3379 8.63692 84.6239C7.50292 84.4609 6.64592 84.3549 5.79692 84.2089C5.32892 84.1289 4.84192 84.0449 4.42592 83.8369C4.22392 83.7359 4.16692 83.3459 4.04492 83.0869C4.27092 82.9809 4.50592 82.7689 4.72192 82.7859C5.87792 82.8779 7.02992 83.0259 8.26192 83.1639C7.79892 81.9149 6.41592 81.1689 6.47692 79.5229C7.77392 79.8719 8.09892 81.1029 9.07492 81.7439C9.25292 81.1119 9.34992 80.4789 9.61292 79.9249C9.80092 79.5279 10.2109 79.2369 10.5229 78.8979C10.6109 79.3319 10.8109 79.7799 10.7629 80.1989C10.6479 81.2089 10.4159 82.2059 10.2159 83.2859C11.1049 82.8849 11.8989 82.5259 12.6929 82.1669C12.7549 82.2599 12.8179 82.3529 12.8799 82.4459C12.6209 82.8639 12.3619 83.2829 12.0979 83.7089C12.5429 83.9369 12.9489 84.1439 13.3549 84.3519C13.3429 84.4369 13.3309 84.5229 13.3179 84.6089C12.7729 84.7129 12.2289 84.8169 11.6339 84.9309C11.9029 85.9409 13.2339 86.5759 12.7119 88.2289C11.7559 87.2229 10.9379 86.361 9.95392 85.325Z" fill="#C95571"/>
<path d="M8.33739 74.6279C8.33039 75.4309 7.70039 76.0719 6.91539 76.0749C6.10039 76.0779 5.27339 75.3089 5.27539 74.5489C5.27639 73.8799 6.08739 73.2739 6.98039 73.2739C7.76539 73.2749 8.34439 73.8529 8.33739 74.6279Z" fill="#C95571"/>
<path d="M106.03 65.452C106.047 66.225 105.51 66.835 104.796 66.787C103.914 66.728 103.555 66.156 103.535 65.334C103.518 64.669 103.646 64.078 104.482 64.027C105.336 63.974 106.011 64.602 106.03 65.452Z" fill="#C95571"/>
<path d="M4.13226 76.983C3.81126 77.683 3.69926 78.232 3.36726 78.552C3.11926 78.791 2.53127 78.884 2.20027 78.76C1.97927 78.678 1.90127 78.108 1.83827 77.742C1.80127 77.526 1.97226 77.28 1.95526 77.054C1.90526 76.371 2.12127 75.774 2.85327 75.925C3.31827 76.022 3.68426 76.593 4.13226 76.983Z" fill="#C95571"/>
<path d="M19.0572 57.3501C18.3232 57.2751 17.7432 56.9711 17.7422 56.1761C17.7402 55.0781 18.7042 55.144 19.3932 55.056C20.0812 54.967 20.5072 55.4461 20.4532 56.1341C20.3902 56.9441 19.8202 57.2941 19.0572 57.3501Z" fill="#C95571"/>
<path d="M16.3688 58.817C16.2638 59.87 15.5298 60.552 14.9238 60.297C14.5218 60.128 14.0978 59.598 14.0178 59.168C13.8958 58.506 14.7368 57.763 15.3478 57.972C15.7988 58.125 16.1348 58.612 16.3688 58.817Z" fill="#C95571"/>
<path d="M96.1075 46.337C95.6755 46.612 95.2565 47.092 94.8095 47.119C93.9805 47.169 93.6555 46.507 93.6715 45.743C93.6845 45.151 93.9175 44.657 94.6205 44.658C95.2515 44.66 95.9915 45.488 96.1075 46.337Z" fill="#C95571"/>
<path d="M108.713 68.688C108.949 69.109 109.362 69.522 109.382 69.953C109.415 70.676 108.916 71.181 108.159 71.204C107.519 71.223 107.143 70.82 107.132 70.168C107.121 69.521 107.854 68.808 108.713 68.688Z" fill="#C95571"/>
<path d="M30.3193 57.8921C30.5423 57.6861 30.9153 57.3411 31.2883 56.9971C31.6953 57.4781 32.2733 57.9001 32.4633 58.4551C32.6633 59.0361 32.1573 59.4871 31.5203 59.4901C30.7283 59.4931 30.4003 58.9721 30.3193 57.8921Z" fill="#C95571"/>
<path d="M16.1935 53.343C16.0245 54.347 15.7335 54.929 14.9265 54.915C14.2775 54.903 13.9465 54.464 13.9625 53.82C13.9805 53.119 14.7135 52.291 15.2295 52.487C15.6515 52.649 15.9555 53.121 16.1935 53.343Z" fill="#C95571"/>
<path d="M95.0418 42.3241C94.8438 42.0221 94.3738 41.6181 94.3318 41.1741C94.2608 40.4191 94.8748 40.1751 95.5698 40.1561C96.2248 40.1381 96.6758 40.4201 96.6518 41.0811C96.6248 41.8361 96.1018 42.2061 95.0418 42.3241Z" fill="#C95571"/>
<path d="M99.3486 46.305C99.9886 45.751 100.355 45.194 100.778 45.147C101.092 45.112 101.705 45.69 101.786 46.078C101.924 46.743 101.451 47.309 100.732 47.245C100.344 47.21 99.9936 46.763 99.3486 46.305Z" fill="#C95571"/>
<path d="M109.321 62.1899C109.658 62.6159 110.197 63.0049 110.283 63.4769C110.398 64.1029 109.821 64.4339 109.202 64.3949C108.546 64.3539 108.041 63.9649 108.123 63.2899C108.169 62.9069 108.595 62.5699 108.85 62.2119C109.007 62.2049 109.164 62.1979 109.321 62.1899Z" fill="#C95571"/>
<path d="M2.79341 73.5941C2.55141 73.2441 2.07241 72.8491 2.12741 72.5541C2.19641 72.1801 2.70041 71.8861 3.01641 71.5581C3.31241 71.8631 3.83141 72.1581 3.84741 72.4771C3.86541 72.8451 3.43841 73.2341 3.20541 73.6141C3.06741 73.6061 2.93041 73.6001 2.79341 73.5941Z" fill="#C95571"/>
<path d="M54.5138 105.854C53.6248 105.913 52.7288 106.063 51.8488 105.995C51.3958 105.96 50.8388 105.642 50.5568 105.276C47.4788 101.27 47.3408 96.5912 47.6158 91.8472C47.7438 89.6392 48.2828 87.5222 49.3698 85.5642C51.4068 81.8932 55.7748 80.1722 59.5698 81.5502C61.0118 82.0742 62.1308 82.9812 62.9488 84.2692C65.1838 87.7892 65.7698 91.6872 65.2918 95.7242C64.9468 98.6382 64.2698 101.512 63.7438 104.404C63.5968 105.211 63.0188 105.409 62.3148 105.452C59.7158 105.611 57.1168 105.772 54.5188 105.933C54.5168 105.907 54.5148 105.88 54.5138 105.854ZM63.9758 93.7942C64.0478 90.7042 63.4428 87.9292 61.9548 85.3682C60.7198 83.2442 58.8078 82.3162 56.4378 82.5232C52.9558 82.8282 50.9018 84.9822 49.8108 88.1452C48.9478 90.6452 48.8078 93.2552 48.9778 95.8652C49.1428 98.4002 49.5188 100.904 50.7318 103.205C51.3028 104.288 51.8778 105.247 53.3558 104.641C53.5048 104.58 53.6958 104.623 53.8668 104.613C56.3978 104.464 58.9298 104.334 61.4578 104.14C61.8118 104.113 62.3808 103.826 62.4448 103.561C63.2268 100.301 64.0458 97.0382 63.9758 93.7942Z" fill="#C95571"/>
<path d="M61.1173 44.659C61.0333 45.872 61.4393 47.017 60.3553 47.76C60.0903 47.942 59.7733 48.13 59.4663 48.156C55.4043 48.499 51.3403 48.816 47.2763 49.135C45.4453 49.279 45.1923 49.115 44.5983 47.427C43.1063 43.187 44.9173 36.431 48.3273 33.521C50.9313 31.298 54.0333 31.318 56.5993 33.667C59.8743 36.666 61.0983 40.524 61.1173 44.659ZM59.8143 46.819C59.8143 46.065 59.8293 45.349 59.8123 44.634C59.7243 40.929 58.6133 37.618 55.9293 34.97C53.5953 32.667 50.9273 32.664 48.7423 35.114C46.0093 38.178 45.1243 41.903 45.5873 45.916C45.8243 47.971 45.9513 47.956 47.9373 47.798C48.1763 47.779 48.4173 47.785 48.6563 47.765C52.3363 47.453 56.0153 47.141 59.8143 46.819Z" fill="#C95571"/>
</svg>
