<svg width="177" height="17" viewBox="0 0 177 17" fill="none" xmlns="http://www.w3.org/2000/svg">
<path d="M159.05 7.84179C147.169 7.12979 135.193 7.50179 123.296 7.50179C111.048 7.50179 98.7976 7.56481 86.5496 7.52181C85.7786 7.51881 85.7796 8.71279 86.5496 8.71679C98.3176 8.78079 110.085 8.76779 121.853 8.85479C133.689 8.94179 145.747 9.60081 157.55 8.70181C158.3 8.64381 158.3 7.5958 157.55 7.5378C146.062 6.6618 134.329 7.2938 122.81 7.3778C110.724 7.4668 98.6366 7.45481 86.5496 7.52181C85.7796 7.52581 85.7786 8.7208 86.5496 8.7178C98.4676 8.6758 110.387 8.73782 122.304 8.73782C134.53 8.73782 146.841 9.12979 159.05 8.39779C159.408 8.37479 159.408 7.86279 159.05 7.84179Z" fill="black"/>
<path d="M154.717 8.91885C154.781 8.91885 154.781 8.81885 154.717 8.81885C154.653 8.81885 154.653 8.91885 154.717 8.91885Z" fill="black"/>
<path d="M152.265 8.31981C154.781 11.4218 158.976 12.4438 162.775 12.8268C167.922 13.3468 171.968 11.3938 176.33 8.9308C176.786 8.6728 176.617 8.0868 176.198 7.9178C172.855 6.5728 169.207 6.64879 165.665 6.74379C161.34 6.85779 156.931 6.92579 152.64 7.50279C152.285 7.55079 152.421 8.0428 152.718 8.0778C160.285 8.9818 168.592 6.01679 175.903 8.98579C175.859 8.64779 175.815 8.31079 175.771 7.97279C171.962 10.1608 168.617 11.8848 164.103 11.8048C160.123 11.7348 155.685 10.6168 152.669 7.91679C152.39 7.66779 152.036 8.03881 152.265 8.31981Z" fill="black"/>
<path d="M175.933 8.10378C172.076 7.26978 167.881 7.97878 163.987 8.26778C159.681 8.58678 155.574 7.98978 151.299 7.91878C151.102 7.91578 151.026 8.19278 151.198 8.28978C154.686 10.2378 159.224 9.88477 163.07 9.63677C167.32 9.36277 171.726 9.12377 175.932 8.46477C176.117 8.43577 176.107 8.14078 175.933 8.10378Z" fill="black"/>
<path d="M174.717 7.81988C167.45 6.86688 160.372 7.75687 153.134 8.50387C152.828 8.53487 152.738 8.96088 153.06 9.05688C156.438 10.0589 159.998 9.20486 163.421 8.85086C167.179 8.46286 170.958 8.72488 174.717 8.24988C174.993 8.21488 174.992 7.85588 174.717 7.81988Z" fill="black"/>
<path d="M175.466 7.97998C171.652 7.80698 167.93 8.37998 164.127 8.52798C160.506 8.66998 156.578 7.447 153.049 8.397C152.741 8.479 152.752 8.91798 153.049 9.00598C156.206 9.94798 159.932 9.926 163.208 9.971C167.342 10.029 171.389 9.09298 175.466 8.58898C175.848 8.54298 175.868 7.99898 175.466 7.97998Z" fill="black"/>
<path d="M170.216 6.58598C168.635 5.76098 167.124 4.81296 165.465 4.14796C163.343 3.29896 160.697 3.42899 158.467 3.51399C156.044 3.60699 153.778 4.21197 151.503 5.01597C149.098 5.86597 146.6 6.45398 144.213 7.30198C143.936 7.40098 143.865 7.87298 144.213 7.93498C148.076 8.61598 152.234 5.82696 155.976 5.08796C158.65 4.56096 161.738 4.63297 164.414 5.10997C166.352 5.45697 168.04 6.72297 169.964 7.18397C170.316 7.27097 170.556 6.76298 170.216 6.58598Z" fill="black"/>
<path d="M169.58 7.42373C166.234 4.92373 163.129 4.08675 158.966 4.39575C155.173 4.67675 150.301 5.26773 147.09 7.42773C146.773 7.64173 146.86 8.22676 147.299 8.19876C150.927 7.97276 154.498 6.52476 158.139 6.09076C159.826 5.88976 161.515 5.86174 163.206 6.00274C165.434 6.19074 167.273 7.35773 169.405 7.83773C169.669 7.89573 169.782 7.57373 169.58 7.42373Z" fill="black"/>
<path d="M143.383 8.40195C145.023 8.58395 146.636 8.85594 148.06 9.73594C149.887 10.8649 150.492 12.9959 148.902 14.5669C148.022 15.4359 146.668 15.6749 145.486 15.6449C144.898 15.6299 144.111 15.4689 143.746 14.9599C142.97 13.8729 144.7 13.447 145.384 13.889C145.318 13.371 145.25 12.8529 145.184 12.3339C145.15 12.3699 145.116 12.4049 145.082 12.4409C144.398 13.1559 145.092 14.1919 146 14.0179C146.049 14.0079 146.098 13.9979 146.147 13.9899C147.061 13.8139 147.024 12.6229 146.384 12.1799C144.25 10.7029 141.541 12.4219 142.328 14.9809C142.943 16.9799 145.744 17.0449 147.394 16.7009C149.842 16.1899 151.702 13.9649 151.014 11.4539C150.124 8.20892 146.144 7.74794 143.383 8.00394C143.124 8.02794 143.128 8.37395 143.383 8.40195Z" fill="black"/>
<path d="M137.3 8.30987C140.176 8.52587 143.735 8.44187 145.282 5.54187C146.758 2.77687 143.357 0.176869 140.904 0.00786866C139.053 -0.120131 135.524 1.32187 136.712 3.72287C137.719 5.75887 141.872 6.08787 141.298 3.11587C141.178 2.49887 140.405 2.26685 139.905 2.54885C139.863 2.57185 139.822 2.59586 139.78 2.61886C139.216 2.93486 139.216 3.80088 139.78 4.11688C139.822 4.13988 139.863 4.16385 139.905 4.18685C139.748 3.91385 139.591 3.64085 139.435 3.36785C139.407 3.72285 138.43 3.43086 138.282 3.30386C137.519 2.65286 138.459 2.12486 138.997 1.85586C140.39 1.15886 141.889 1.47786 143.144 2.28286C145.547 3.82286 143.765 6.16487 141.844 6.97387C140.44 7.56487 138.808 7.79885 137.3 7.92785C137.054 7.94785 137.053 8.29187 137.3 8.30987Z" fill="black"/>
<path d="M17.55 8.39594C29.431 9.10794 41.407 8.73594 53.304 8.73594C65.552 8.73594 77.802 8.67295 90.05 8.71595C90.821 8.71895 90.821 7.52494 90.05 7.52094C78.282 7.45694 66.515 7.46994 54.747 7.38294C42.911 7.29594 30.854 6.63692 19.05 7.53592C18.3 7.59392 18.3 8.64193 19.05 8.69993C30.538 9.57593 42.271 8.94393 53.79 8.85993C65.876 8.77093 77.963 8.78194 90.05 8.71494C90.821 8.71094 90.821 7.51693 90.05 7.51993C78.132 7.56193 66.213 7.49994 54.296 7.49994C42.069 7.49994 29.759 7.10794 17.55 7.83994C17.193 7.86294 17.193 8.37494 17.55 8.39594Z" fill="black"/>
<path d="M21.883 8.91885C21.947 8.91885 21.947 8.81885 21.883 8.81885C21.819 8.81885 21.819 8.91885 21.883 8.91885Z" fill="black"/>
<path d="M23.9306 7.91785C21.0066 10.5358 16.9796 11.4878 13.1556 11.7748C8.42861 12.1288 4.7966 10.2538 0.829603 7.97284C0.785603 8.31084 0.741599 8.64784 0.697599 8.98584C8.0096 6.01684 16.3156 8.98185 23.8836 8.07785C24.1806 8.04285 24.3176 7.55084 23.9616 7.50284C19.6696 6.92584 15.2626 6.86684 10.9366 6.74384C7.3966 6.64284 3.74261 6.57485 0.403608 7.91785C-0.0153916 8.08685 -0.184395 8.67285 0.271605 8.93085C4.4786 11.3078 8.2186 13.0929 13.1566 12.8759C17.1226 12.7019 21.7346 11.5279 24.3366 8.31985C24.5636 8.03885 24.2096 7.66785 23.9306 7.91785Z" fill="black"/>
<path d="M0.665272 8.46573C4.88127 9.12573 9.26927 9.31972 13.5273 9.63772C17.3503 9.92272 21.9343 10.2267 25.3993 8.29071C25.5723 8.19371 25.4963 7.91671 25.2983 7.91971C21.0243 7.98971 16.9163 8.55471 12.6103 8.26871C8.70328 8.00871 4.53428 7.2677 0.664281 8.1047C0.49228 8.1407 0.481272 8.43573 0.665272 8.46573Z" fill="black"/>
<path d="M1.88241 8.24988C5.63941 8.72488 9.40941 8.55686 13.1784 8.85086C16.6394 9.12186 20.1214 10.0709 23.5394 9.05688C23.8604 8.96088 23.7714 8.53587 23.4654 8.50387C16.2274 7.75687 9.14941 6.86688 1.88241 7.81988C1.60741 7.85588 1.60641 8.21488 1.88241 8.24988Z" fill="black"/>
<path d="M1.13292 8.58978C4.92892 9.05878 8.63992 9.76778 12.4719 9.95678C15.9509 10.1288 20.1989 10.0078 23.5499 9.00677C23.8469 8.91877 23.8579 8.47976 23.5499 8.39776C20.3459 7.53576 16.6749 8.46478 13.3909 8.53478C9.28293 8.61978 5.25092 7.79477 1.13292 7.98077C0.730915 7.99877 0.750915 8.54278 1.13292 8.58978Z" fill="black"/>
<path d="M6.63646 7.18475C8.57446 6.71975 10.2704 5.64975 12.1864 5.11075C14.7524 4.38875 18.0315 4.72474 20.6245 5.08874C24.4995 5.63274 28.4115 8.63576 32.3875 7.93576C32.7355 7.87476 32.6645 7.40173 32.3875 7.30273C30.2705 6.54973 28.0504 6.08975 25.9234 5.31775C23.6444 4.48975 21.4395 3.82976 19.0235 3.57776C16.6555 3.33176 14.1915 3.44675 11.8605 3.92575C9.90746 4.32575 8.12245 5.68076 6.38445 6.58676C6.04345 6.76276 6.28346 7.27075 6.63646 7.18475Z" fill="black"/>
<path d="M7.19368 7.83774C8.82568 7.47074 10.2887 6.65174 11.9087 6.22974C14.0077 5.68374 16.3317 5.88377 18.4607 6.09077C22.1297 6.44677 25.6547 7.97277 29.3007 8.19877C29.7397 8.22577 29.8267 7.64074 29.5097 7.42774C26.4487 5.36774 22.0457 4.91176 18.4607 4.47776C14.0367 3.94176 10.5807 4.76274 7.01968 7.42374C6.81768 7.57374 6.92968 7.89574 7.19368 7.83774Z" fill="black"/>
<path d="M33.2162 8.00389C30.4822 7.74989 26.9432 8.13588 25.7402 11.0759C24.6372 13.7719 26.6652 16.0139 29.2052 16.7009C30.8602 17.1489 33.4122 16.9069 34.2032 15.1409C35.3652 12.5519 32.3282 10.7179 30.2162 12.1799C29.5762 12.6219 29.5392 13.8139 30.4532 13.9899C30.5022 13.9989 30.5512 14.0079 30.5992 14.0179C31.5072 14.1919 32.2012 13.1559 31.5172 12.4409C31.4842 12.4059 31.4502 12.3709 31.4152 12.3339C31.3492 12.8529 31.2812 13.3709 31.2152 13.8889C31.8702 13.4649 32.8422 13.4909 32.9652 14.5209C33.0542 15.2599 32.0892 15.4849 31.5652 15.5989C30.2402 15.8869 28.7182 15.3989 27.6972 14.5669C26.1582 13.3129 26.6812 11.4369 27.9182 10.2189C29.2772 8.87989 31.4112 8.6019 33.2162 8.4019C33.4712 8.3739 33.4752 8.02789 33.2162 8.00389Z" fill="black"/>
<path d="M39.2995 7.92782C37.1145 7.74082 29.6925 6.22183 32.9985 2.66583C34.0995 1.48183 35.7515 1.27785 37.2175 1.71185C37.6785 1.84885 38.7115 2.26083 38.6045 2.89483C38.5375 3.29683 37.2045 3.86284 37.1655 3.36984C37.0095 3.64284 36.8525 3.91584 36.6955 4.18884C36.7375 4.16584 36.7785 4.14183 36.8205 4.11883C37.3835 3.80283 37.3835 2.93685 36.8205 2.62085C36.7785 2.59785 36.7375 2.57384 36.6955 2.55084C36.1945 2.26984 35.4225 2.50083 35.3015 3.11783C34.7275 6.08983 38.8805 5.76085 39.8875 3.72485C41.1175 1.23685 37.5085 0.0198235 35.6955 0.00982349C33.1895 -0.00517651 29.9055 2.89885 31.3175 5.54385C32.8645 8.44285 36.4235 8.52683 39.2995 8.31183C39.5465 8.29183 39.5455 7.94782 39.2995 7.92782Z" fill="black"/>
</svg>
