<svg width="309" height="52" viewBox="0 0 309 52" fill="none" xmlns="http://www.w3.org/2000/svg">
<path d="M164.259 11.9734C165.346 11.0694 165.239 9.60035 164.292 8.58235C162.826 7.00635 160.752 6.11236 158.577 6.56236C154.395 7.42736 153.554 11.7124 154.312 15.3694C155.279 20.0324 159.296 24.3114 162.839 27.2214C166.672 30.3674 171.383 32.5254 176.324 33.0604C186.043 34.1124 197.564 23.8214 192.298 13.8793C191.21 11.8273 186.563 7.39536 184.385 10.7944C182.088 14.3794 187.402 17.2974 189.965 18.3724C200.176 22.6544 212.253 17.8344 222.092 14.7674C230.643 12.1024 240.011 8.77836 249.07 9.34636C254.045 9.65936 258.25 12.0084 260.736 16.3744C263.649 21.4924 261.464 28.4134 254.814 28.3564C252.028 28.3324 248.814 25.6924 249.297 22.7414C249.575 21.0364 251.813 18.7694 253.665 19.2214C254.854 19.5124 255.542 20.8344 255.871 21.8954C256.477 23.8544 254.73 24.0674 253.23 23.6934C252.457 23.5014 252.157 24.6284 252.904 24.8764C259.657 27.1144 258.674 17.3454 253.325 17.1794C249.999 17.0754 246.616 21.1114 247.47 24.3754C248.608 28.7204 253.351 30.7714 257.466 29.6654C261.559 28.5654 264.097 24.6164 263.536 20.4494C262.927 15.9174 259.879 12.0084 255.843 9.96636C247.463 5.72736 236.742 9.48335 228.38 11.8364C218.582 14.5944 208.535 18.7724 198.225 18.6644C195.314 18.6354 192.439 18.0374 189.761 16.9024C188.096 16.1974 184.349 14.1544 185.436 11.7724C186.688 9.02936 190.559 13.5524 191.195 14.5234C193.127 17.4704 192.532 21.1064 190.999 24.0474C188.549 28.7454 183.425 31.8574 178.22 32.2034C173.22 32.5344 168.322 30.3364 164.351 27.4804C160.48 24.6954 157.129 20.7154 155.671 16.1284C155.03 14.1164 155.079 11.7634 156.107 9.89836C156.783 8.67036 158.095 8.21636 159.405 8.09136C160.314 8.00336 164.798 9.43738 163.379 11.0944C162.856 11.7074 163.644 12.4854 164.259 11.9734Z" fill="black"/>
<path d="M254.271 10.1183C260.152 13.2053 266.749 15.4133 273.119 17.2403C278.896 18.8973 285.206 20.2503 291.22 19.2863C296.045 18.5133 300.44 15.2713 301.963 10.5353C303.406 6.04329 298.943 1.6613 295.13 0.3423C292.132 -0.6947 288.592 0.682292 287.408 3.69029C286.344 6.39929 287.127 9.63331 289.988 10.8173C292.968 12.0493 296.531 10.9933 296.812 7.4463C297.07 4.1943 293.37 2.66529 290.947 4.39729C290.256 4.89129 290.679 5.8973 291.516 5.7473C292.613 5.5503 293.876 5.26529 294.594 6.34529C295.265 7.35329 294.792 8.6673 293.87 9.3073C291.181 11.1713 288.126 8.55029 288.196 5.78529C288.277 2.63029 291.305 0.934311 294.152 1.39131C298.374 2.06931 302.112 7.04331 300.208 11.1763C296.513 19.1963 286.791 18.8323 279.475 17.4983C270.801 15.9163 262.911 11.7633 254.345 9.93931C254.241 9.91831 254.168 10.0653 254.271 10.1183Z" fill="black"/>
<path d="M253.259 9.88933C259.184 12.5713 262.48 16.9293 265.443 22.5733C267.109 25.7453 268.402 29.0993 269.596 32.4713C270.753 35.7373 271.187 39.0863 271.983 42.4333C272.007 42.5323 272.162 42.5104 272.16 42.4094C272.054 35.3864 269.491 28.2593 266.239 22.1083C263.444 16.8213 259.634 10.8943 253.352 9.66832C253.226 9.64332 253.126 9.82833 253.259 9.88933Z" fill="black"/>
<path d="M255.55 10.2312C258.651 11.2002 261.143 14.8132 263.65 16.8102C267.289 19.7062 271.093 22.5312 275.074 24.9392C278.814 27.2022 282.927 28.8362 287.066 30.2042C291.135 31.5502 295.532 32.8752 299.82 33.2182C300.038 33.2362 300.054 32.9222 299.869 32.8582C295.776 31.4332 291.431 30.7022 287.293 29.3822C282.636 27.8962 278.178 25.8902 274.036 23.2912C269.947 20.7262 265.635 17.8212 262.038 14.5992C260.221 12.9702 258.162 10.4352 255.59 10.0882C255.497 10.0742 255.456 10.2012 255.55 10.2312Z" fill="black"/>
<path d="M274.581 45.6523C274.92 44.7663 274.842 44.0543 274.333 43.2393C273.823 42.4213 272.856 41.8253 271.876 41.9713C270.815 42.1313 270.241 42.8873 270.115 43.9073C270.04 44.5123 270.369 45.8823 270.948 46.1983C271.012 46.2333 271.1 46.2043 271.12 46.1283C271.235 45.6693 271.056 45.1713 271.167 44.6853C271.288 44.1583 271.573 43.6193 272.117 43.4453C273.187 43.1033 274.278 44.6643 274.175 45.5973C274.147 45.8463 274.505 45.8533 274.581 45.6523Z" fill="black"/>
<path d="M270.815 46.1313C271.243 46.4513 271.867 46.4653 272.384 46.4813C273.075 46.5023 273.769 46.5283 274.447 46.3683C274.646 46.3213 274.802 46.1143 274.796 45.9093C274.773 45.1723 274.774 44.5363 274.254 43.9753C274.171 43.8853 273.99 43.9243 273.967 44.0513C273.852 44.6763 273.862 45.2743 273.845 45.9083C274.004 45.7503 274.162 45.5923 274.321 45.4333C273.681 45.3493 273.03 45.3763 272.385 45.3753C271.872 45.3743 271.244 45.3703 270.816 45.6853C270.649 45.8083 270.651 46.0103 270.815 46.1313Z" fill="black"/>
<path d="M274.432 45.7073C275.164 46.2703 275.828 46.9103 276.173 47.7853C276.519 48.6613 276.194 49.8003 275.079 49.7963C274.333 49.7933 273.916 48.4963 273.747 47.9573C273.586 47.4413 273.547 46.4553 273.15 46.0783C273.066 45.9983 272.947 46.0033 272.863 46.0783C272.152 46.7093 272.857 48.5533 273.155 49.2403C273.611 50.2963 274.512 51.0473 275.695 50.8043C278.882 50.1543 277.299 45.2513 274.768 44.9073C274.268 44.8393 274.026 45.3973 274.432 45.7073Z" fill="black"/>
<path d="M272.811 46.1622C272.419 46.4572 272.509 47.4262 272.484 47.8622C272.437 48.6442 272.563 50.1272 271.613 50.4102C269.72 50.9732 271.169 46.7752 270.959 46.0862C270.897 45.8832 270.655 45.8263 270.502 45.9653C269.795 46.6063 269.756 48.2262 269.734 49.1172C269.712 50.0972 270.092 51.2642 271.217 51.3812C272.519 51.5162 273.172 50.5392 273.354 49.3682C273.451 48.7422 273.41 48.1093 273.33 47.4823C273.285 47.1343 273.264 46.4262 272.983 46.1832C272.938 46.1472 272.863 46.1232 272.811 46.1622Z" fill="black"/>
<path d="M270.6 45.9903C270.406 46.6013 269.911 47.2113 269.555 47.7383C269.203 48.2583 268.707 49.0073 268.076 49.2083C267.834 49.2853 267.716 48.9243 267.654 48.7583C267.463 48.2373 267.656 47.8243 268.029 47.4533C268.764 46.7183 269.796 46.6333 270.737 46.3653C271.094 46.2633 271.154 45.6443 270.737 45.5823C269.523 45.4043 267.994 46.1533 267.22 47.0703C266.528 47.8923 266.546 49.3433 267.499 49.9733C268.363 50.5443 269.365 49.4473 269.832 48.8513C270.443 48.0703 270.966 47.0483 270.921 46.0333C270.914 45.8483 270.656 45.8123 270.6 45.9903Z" fill="black"/>
<path d="M302.63 34.0662C301.983 33.9192 301.425 33.8483 300.927 33.3663C300.679 33.1253 300.322 32.5292 300.716 32.2592C301.131 31.9732 302.263 31.9543 302.422 32.5583C302.611 33.2733 302.213 33.9552 302.304 34.6602C302.319 34.7712 302.451 34.8592 302.544 34.7602C303.132 34.1272 303.554 32.7443 303.233 31.9163C302.786 30.7623 300.966 30.7253 300.087 31.3703C298.236 32.7323 300.999 35.7673 302.683 34.4813C302.826 34.3713 302.842 34.1132 302.63 34.0662Z" fill="black"/>
<path d="M302.482 34.4104C301.434 36.1254 306.679 37.7114 307.851 37.0944C308.933 36.5254 308.664 35.2233 307.829 34.5694C306.816 33.7764 304.873 33.2274 303.603 33.5554C303.324 33.6274 303.296 34.0004 303.527 34.1464C304.23 34.5924 305.14 34.6264 305.933 34.8154C306.455 34.9394 306.976 35.1204 307.445 35.3814C307.968 35.6734 308.218 36.4144 307.504 36.6264C306.618 36.8894 305.391 36.2794 304.635 35.8884C304.129 35.6274 303.03 35.1224 302.933 34.4694C302.898 34.2454 302.582 34.2454 302.482 34.4104Z" fill="black"/>
<path d="M303.03 33.8233C303.654 34.3433 304.777 34.3023 305.541 34.3203C306.523 34.3423 307.808 34.2874 308.41 33.3824C309.115 32.3234 307.838 31.1264 306.885 30.9524C305.531 30.7064 303.825 31.2684 302.868 32.2064C302.634 32.4364 302.933 32.8134 303.215 32.6544C303.495 32.4954 304.203 32.6204 304.555 32.5594C305.125 32.4614 305.682 32.2053 306.15 31.8713C307.058 31.2213 307.448 30.1544 306.928 29.1334C306.45 28.1904 304.808 27.8174 303.924 28.3184C302.792 28.9624 302.14 30.3404 301.984 31.5934C301.948 31.8864 302.375 32.0374 302.557 31.8314C303.418 30.8564 304.238 28.0443 305.958 29.5993C306.677 30.2493 305.527 31.1194 305.082 31.4134C304.779 31.6134 303.565 32.3694 303.214 32.1594C303.165 32.3374 303.117 32.5143 303.069 32.6913C303.985 32.6863 304.766 32.3584 305.665 32.1764C306.154 32.0764 306.893 32.0044 307.225 32.4654C307.465 32.7974 307.352 32.9043 307.01 33.0303C306.256 33.3083 305.372 33.2993 304.579 33.3083C304.123 33.3143 303.434 33.3023 303.057 33.5913C302.993 33.6483 302.951 33.7583 303.03 33.8233Z" fill="black"/>
<path d="M164.003 11.7212C164.149 10.0732 162.521 9.54923 161.126 9.49523C159.288 9.42423 158.076 11.1952 157.555 12.7282C156.138 16.8902 160.276 20.6002 164.031 21.0782C167.254 21.4872 172.171 17.4242 168.349 14.6502C167.024 13.6892 164.322 13.0662 163.3 14.8512C162.452 16.3332 162.938 18.2812 164.911 17.9452C165.819 17.7912 165.607 16.2762 164.694 16.3422C165.165 15.6532 165.75 15.4462 166.45 15.7252C167.102 15.8522 167.654 16.2922 167.899 16.9112C168.338 18.0212 167.161 18.9852 166.368 19.4872C164.651 20.5692 162.409 20.1282 160.786 19.1382C158.815 17.9362 157.876 15.6842 158.315 13.4552C158.55 12.2642 159.463 10.9062 160.759 10.7422C161.627 10.6332 162.871 10.8772 163.151 11.8362C163.294 12.3282 163.961 12.1952 164.003 11.7212Z" fill="black"/>
<path d="M200.383 19.3074C204.439 19.8214 210.961 19.2874 211.794 14.3094C212.468 10.2844 208.44 7.13536 204.671 8.01836C201.529 8.75236 199.974 13.4154 203.692 14.4674C205.367 14.9404 207.29 14.3114 207.817 12.6134C208.327 10.9684 205.963 9.91836 204.769 10.6004C204.266 10.8884 204.347 11.5364 204.769 11.8414C205.648 12.4764 205.95 12.7064 204.617 12.9814C202.158 13.4904 202.11 11.2594 203.334 9.92138C205.267 7.80838 208.643 9.10138 210.109 11.0034C211.727 13.1014 210.791 15.9214 208.7 17.1984C206.341 18.6394 203.095 19.1924 200.383 19.0094C200.188 18.9974 200.198 19.2834 200.383 19.3074Z" fill="black"/>
<path d="M165.731 28.8112C171.337 31.3132 177.239 27.9073 183.025 29.2713C185.501 29.8543 188.511 31.1693 189.3 33.8013C189.866 35.6943 188.364 37.3893 186.917 38.2883C185.981 38.8693 182.857 39.0503 183.949 36.6543C184.352 35.7713 185.364 35.5643 185.993 36.3813C186.432 36.9533 187.562 36.8702 187.507 35.9712C187.275 32.2442 182.209 34.0123 181.999 37.0243C181.906 38.3413 183.392 39.8212 184.688 39.8112C186.398 39.7972 188.164 38.9362 189.191 37.5432C191.964 33.7772 188.343 30.4343 184.982 28.9783C178.819 26.3083 172.202 30.1303 165.866 28.4893C165.679 28.4413 165.544 28.7272 165.731 28.8112Z" fill="black"/>
<path d="M189.777 31.0882C191.408 32.2542 192.944 33.6533 193.673 35.5673C193.854 36.0433 193.983 36.5312 194.089 37.0272C194.175 37.4312 194.199 37.8682 194.138 38.2772C194.005 39.1692 193.132 38.5723 192.947 38.0473C192.152 35.8033 193.224 32.4472 190.581 31.1132C190.439 31.0412 190.217 31.0933 190.185 31.2743C190.161 31.4143 190.14 31.5173 190.203 31.6493C190.611 32.5083 191.023 33.3233 191.268 34.2483C191.505 35.1443 191.435 36.1172 191.561 37.0322C191.766 38.5102 192.456 40.5062 194.349 39.8552C196.029 39.2772 195.302 36.6602 194.895 35.5002C194.082 33.1862 192.154 31.5782 189.937 30.7082C189.703 30.6172 189.601 30.9612 189.777 31.0882Z" fill="black"/>
<path d="M190.026 30.8893C190.951 31.9523 191.34 33.6233 191.857 34.9183C192.358 36.1683 192.346 37.8253 193.154 38.8913C193.311 39.0983 193.58 39.1143 193.734 38.8913C194.67 37.5413 193.837 35.6743 193.206 34.3493C192.478 32.8173 191.631 31.5963 190.207 30.6573C190.059 30.5583 189.921 30.7683 190.026 30.8893Z" fill="black"/>
<path d="M193.908 39.2283C195.254 38.3013 194.61 35.7453 193.164 35.2583C192.881 35.1623 192.697 35.4483 192.731 35.6903C192.806 36.2293 193.109 36.7423 193.264 37.2643C193.443 37.8673 193.37 38.4463 193.471 39.0513C193.502 39.2333 193.76 39.3303 193.908 39.2283Z" fill="black"/>
<path d="M190.094 30.9553C191.353 31.7963 193.144 31.9803 194.624 32.1683C196.249 32.3713 199.12 31.0193 199.505 29.2833C199.871 27.6333 198.745 26.0193 196.947 26.3433C196.012 26.5123 195.114 26.9123 194.36 27.4943C193.819 27.9143 193.361 28.4203 192.877 28.9013C191.913 29.8613 191.057 30.0603 189.757 30.2243C189.45 30.2633 189.338 30.6133 189.601 30.8003C190.986 31.7833 192.591 30.6453 193.676 29.6983C194.34 29.1203 194.905 28.5023 195.663 28.0383C196.049 27.8013 196.471 27.6473 196.902 27.5193C198.403 27.0783 198.692 28.7163 197.87 29.6103C196.573 31.0203 194.695 30.9053 193.018 30.6353C192.219 30.5063 190.758 30.0753 190.054 30.6413C189.947 30.7293 189.997 30.8913 190.094 30.9553Z" fill="black"/>
<path d="M190.07 30.6692C190.626 31.8632 193.389 31.1472 194.314 30.9412C195.841 30.6032 198.077 29.6232 198.476 27.9282C198.718 26.8982 197.337 26.3042 196.775 27.2112C196.002 28.4562 194.542 29.0182 193.218 29.5152C192.322 29.8512 190.809 29.8532 190.092 30.4942C190.042 30.5402 190.044 30.6122 190.07 30.6692Z" fill="black"/>
<path d="M196.883 27.6822C196.119 27.6042 195.385 28.0432 194.752 28.4212C194.076 28.8262 193.174 29.3982 192.854 30.1472C192.745 30.4052 192.865 30.7522 193.195 30.7412C193.952 30.7142 194.641 30.1912 195.238 29.7682C195.891 29.3052 196.707 28.8122 197.133 28.1182C197.257 27.9142 197.09 27.7032 196.883 27.6822Z" fill="black"/>
<path d="M213.227 14.6132C214.997 13.4062 216.427 11.6583 216.887 9.52126C217.114 8.46626 217.162 6.64624 216.18 5.92324C215.005 5.06124 214.02 6.11426 213.629 7.18926C213.34 7.98126 213.304 8.90226 213.244 9.73626C213.146 11.1113 212.518 12.4812 212.699 13.8452C212.723 14.0312 212.964 14.2062 213.119 14.0192C214.792 12.0002 213.808 9.26424 214.917 7.07024C215.407 6.09724 215.712 7.94126 215.718 8.01626C215.756 8.45826 215.742 8.93126 215.667 9.37026C215.367 11.1113 214.08 12.9053 212.852 14.1273C212.609 14.3713 212.931 14.8152 213.227 14.6132Z" fill="black"/>
<path d="M213.003 14.7183C214.073 13.5293 214.73 12.3093 215.236 10.7953C215.646 9.5663 216.322 7.58229 215.335 6.51829C215.152 6.32129 214.866 6.36029 214.679 6.51829C213.789 7.26729 213.92 8.73331 213.735 9.81431C213.463 11.3993 213.074 12.9833 212.717 14.5513C212.68 14.7093 212.882 14.8533 213.003 14.7183Z" fill="black"/>
<path d="M215.444 14.2444C217.698 14.2994 219.748 13.3714 221.698 12.3124C222.894 11.6644 224.212 10.2074 223.995 8.77037C223.694 6.79137 220.795 7.88436 219.906 8.53936C219.108 9.12736 218.447 9.88137 217.759 10.5884C216.844 11.5304 215.873 12.4514 215.522 13.7544C215.495 13.8584 215.602 13.9204 215.688 13.8814C217.01 13.2954 218.078 12.0454 219.09 11.0354C219.518 10.6074 219.953 10.1934 220.414 9.80236C220.602 9.64436 222.792 8.43837 222.559 9.36937C222.309 10.3684 221 11.1914 220.214 11.7244C218.807 12.6784 217.199 13.8494 215.443 13.9474C215.254 13.9594 215.252 14.2404 215.444 14.2444Z" fill="black"/>
<path d="M215.569 14.1863C216.913 14.2003 217.947 13.2333 218.894 12.3933C219.621 11.7483 220.358 11.1723 221.164 10.6273C221.861 10.1553 222.411 9.85629 222.728 9.07229C222.868 8.72429 222.507 8.24629 222.132 8.29129C220.816 8.44929 219.525 9.7473 218.546 10.6073C217.423 11.5953 216.535 12.8283 215.417 13.8193C215.272 13.9473 215.392 14.1843 215.569 14.1863Z" fill="black"/>
<path d="M264.054 26.2782C264.96 29.4062 265.88 33.8262 264.222 36.9092C262.954 36.9172 262.513 36.4312 262.9 35.4522C262.986 35.0762 263.091 34.7062 263.217 34.3422C263.472 33.5362 263.825 32.7652 264.085 31.9622C264.595 30.3822 264.865 28.2392 264.317 26.6542C264.246 26.4472 263.965 26.3922 263.846 26.5932C263.131 27.7892 263.251 29.4392 262.992 30.7942C262.708 32.2782 262.031 33.6472 261.683 35.1172C261.31 36.6882 261.915 38.8102 263.879 38.6982C265.564 38.6032 266.062 35.9662 266.256 34.7202C266.695 31.8972 265.612 28.6312 264.437 26.1162C264.336 25.8952 263.988 26.0522 264.054 26.2782Z" fill="black"/>
<path d="M263.98 26.5372C263.623 28.0922 263.553 29.6272 263.482 31.2182C263.392 33.2422 262.543 35.2232 262.632 37.2212C262.649 37.5922 263.102 37.8152 263.379 37.5322C265.79 35.0662 265.146 29.5932 264.409 26.5382C264.359 26.3252 264.03 26.3222 263.98 26.5372Z" fill="black"/>
<path d="M263.333 36.6073C263.739 35.3523 264.388 33.6452 263.899 32.3362C263.823 32.1312 263.508 32.0352 263.392 32.2702C262.784 33.4942 262.991 35.1342 262.805 36.4622C262.758 36.8022 263.222 36.9513 263.333 36.6073Z" fill="black"/>
<path d="M261.367 29.1664C260.023 31.7094 259.145 34.3264 256.5 35.8394C255.437 36.4474 252.398 36.2844 252.812 34.4624C252.961 33.8054 253.999 33.3844 254.53 33.1244C255.999 32.4054 257.628 32.0114 259.174 31.4924C260.126 31.1724 261.571 30.6704 261.503 29.4714C261.494 29.3194 261.306 29.2204 261.19 29.3424C259.892 30.6994 256.956 31.0244 255.275 31.6474C253.887 32.1624 251.806 32.9444 251.705 34.6834C251.567 37.0434 254.863 37.5984 256.473 37.0124C259.795 35.8034 260.713 32.3074 261.797 29.3464C261.888 29.0954 261.489 28.9334 261.367 29.1664Z" fill="black"/>
<path d="M261.446 29.0712C260.092 30.0952 258.791 31.1742 257.363 32.0962C255.908 33.0352 254.008 33.2192 252.657 34.2282C252.294 34.5002 252.263 35.1502 252.794 35.2712C254.476 35.6562 256.335 34.6052 257.752 33.7772C259.496 32.7562 260.941 31.2482 261.783 29.4082C261.873 29.2122 261.665 28.9052 261.446 29.0712Z" fill="black"/>
<path d="M252.894 35.3982C254.07 36.6492 255.978 35.9242 257.243 35.2152C258.461 34.5332 260.673 32.8972 260.358 31.2782C260.282 30.8862 259.816 30.7752 259.503 30.9302C258.52 31.4182 257.851 32.7061 256.949 33.3801C255.825 34.2181 254.595 34.6772 253.194 34.6692C252.814 34.6682 252.644 35.1312 252.894 35.3982Z" fill="black"/>
<path d="M259.624 30.5744C258.486 31.2904 257.107 31.6644 255.833 32.0714C254.751 32.4174 253.421 32.7504 252.894 33.8584C252.778 34.1034 252.919 34.3634 253.195 34.3804C254.474 34.4664 255.818 33.7124 256.986 33.2624C258.213 32.7884 259.227 32.1864 260.093 31.1814C260.368 30.8634 260.015 30.3294 259.624 30.5744Z" fill="black"/>
<path d="M276.837 14.6953C279.19 15.6773 281.601 16.6013 284.2 16.2993C285.456 16.1533 287.593 15.0653 287.554 13.5413C287.506 11.7273 286.038 10.7643 284.341 11.0313C283.321 11.1923 282.416 12.0503 281.586 12.5903C280.001 13.6203 278.267 13.8313 276.444 14.0103C276.255 14.0303 276.13 14.3023 276.337 14.4033C278.471 15.4493 281.569 14.0023 283.528 13.0193C283.909 12.7893 284.313 12.6133 284.742 12.4883C285.989 13.3943 286.11 14.0873 285.103 14.5643C284.337 15.0913 283.457 15.1483 282.56 15.1873C280.677 15.2713 278.686 15.0383 276.926 14.3713C276.722 14.2943 276.643 14.6143 276.837 14.6953Z" fill="black"/>
<path d="M276.69 14.7822C279.658 15.7252 282.997 15.9122 285.414 13.5532C286.171 12.8152 285.184 11.4972 284.277 12.0782C281.981 13.5492 279.441 13.9692 276.759 14.2752C276.477 14.3092 276.397 14.6902 276.69 14.7822Z" fill="black"/>
<path d="M277.402 14.2724C276.988 14.1514 276.403 13.9443 275.973 14.0393C275.896 14.0563 275.856 14.1574 275.899 14.2234C276.216 14.7144 277.001 14.7494 277.436 14.4034C277.485 14.3634 277.454 14.2854 277.402 14.2724Z" fill="black"/>
<path d="M274.632 14.5142C276.391 14.5352 278.327 13.3212 279.18 11.7912C279.767 10.7402 280.256 8.67024 278.92 7.92824C275.348 5.94324 275.348 12.2133 274.113 13.8523C273.976 14.0343 274.201 14.2403 274.383 14.2023C276.337 13.7883 276.154 10.6702 277.032 9.30425C277.302 8.88425 278.126 8.76724 278.325 9.31124C278.507 9.80324 278.303 10.4082 278.141 10.8762C277.687 12.1942 276.023 13.9532 274.631 14.0542C274.339 14.0742 274.331 14.5102 274.632 14.5142Z" fill="black"/>
<path d="M274.903 14.4083C276.606 13.2093 278.491 10.8263 277.96 8.59526C277.763 7.77126 276.687 7.90926 276.429 8.59526C276.105 9.45626 276.023 10.4253 275.741 11.3123C275.442 12.2483 275.002 13.1643 274.508 14.0123C274.369 14.2503 274.657 14.5813 274.903 14.4083Z" fill="black"/>
<path d="M144.354 11.9734C143.267 11.0694 143.375 9.60035 144.321 8.58235C145.787 7.00635 147.861 6.11236 150.036 6.56236C154.218 7.42736 155.058 11.7124 154.301 15.3694C153.334 20.0324 149.317 24.3114 145.774 27.2214C141.941 30.3674 137.23 32.5254 132.289 33.0604C122.57 34.1124 111.049 23.8214 116.315 13.8793C117.403 11.8273 122.05 7.39536 124.228 10.7944C126.525 14.3794 121.211 17.2974 118.648 18.3724C108.437 22.6544 96.3604 17.8344 86.5214 14.7674C77.9704 12.1024 68.6024 8.77836 59.5424 9.34636C54.5674 9.65936 50.3624 12.0084 47.8764 16.3744C44.9634 21.4924 47.1494 28.4134 53.7984 28.3564C56.5844 28.3324 59.7984 25.6924 59.3154 22.7414C59.0374 21.0364 56.7994 18.7694 54.9474 19.2214C53.7594 19.5124 53.0704 20.8344 52.7414 21.8954C52.1344 23.8544 53.8824 24.0674 55.3824 23.6934C56.1554 23.5014 56.4554 24.6284 55.7084 24.8764C48.9554 27.1144 49.9374 17.3454 55.2874 17.1794C58.6134 17.0754 61.9964 21.1114 61.1414 24.3754C60.0034 28.7204 55.2604 30.7714 51.1454 29.6654C47.0524 28.5654 44.5144 24.6164 45.0754 20.4494C45.6844 15.9174 48.7324 12.0084 52.7684 9.96636C61.1484 5.72736 71.8694 9.48335 80.2314 11.8364C90.0294 14.5944 100.076 18.7724 110.386 18.6644C113.297 18.6354 116.172 18.0374 118.85 16.9024C120.515 16.1974 124.262 14.1544 123.175 11.7724C121.923 9.02936 118.052 13.5524 117.416 14.5234C115.484 17.4704 116.079 21.1064 117.612 24.0474C120.062 28.7454 125.186 31.8574 130.391 32.2034C135.391 32.5344 140.289 30.3364 144.26 27.4804C148.131 24.6954 151.482 20.7154 152.94 16.1284C153.581 14.1164 153.532 11.7634 152.504 9.89836C151.828 8.67036 150.516 8.21636 149.206 8.09136C148.297 8.00336 143.813 9.43738 145.232 11.0944C145.757 11.7074 144.969 12.4854 144.354 11.9734Z" fill="black"/>
<path d="M54.3428 10.1183C48.4618 13.2053 41.8658 15.4133 35.4948 17.2403C29.7178 18.8973 23.4078 20.2503 17.3938 19.2863C12.5688 18.5133 8.17384 15.2713 6.65084 10.5353C5.20784 6.04329 9.67084 1.6613 13.4838 0.3423C16.4818 -0.6947 20.0218 0.682292 21.2058 3.69029C22.2698 6.39929 21.4868 9.63331 18.6258 10.8173C15.6458 12.0493 12.0828 10.9933 11.8018 7.4463C11.5438 4.1943 15.2438 2.66529 17.6668 4.39729C18.3578 4.89129 17.9358 5.8973 17.0978 5.7473C16.0008 5.5503 14.7378 5.26529 14.0198 6.34529C13.3488 7.35329 13.8218 8.6673 14.7438 9.3073C17.4328 11.1713 20.4878 8.55029 20.4178 5.78529C20.3368 2.63029 17.3088 0.934311 14.4618 1.39131C10.2398 2.06931 6.50183 7.04331 8.40583 11.1763C12.1008 19.1963 21.8228 18.8323 29.1388 17.4983C37.8128 15.9163 45.7028 11.7633 54.2688 9.93931C54.3718 9.91831 54.4448 10.0653 54.3428 10.1183Z" fill="black"/>
<path d="M55.3541 9.88933C49.4291 12.5713 46.1331 16.9293 43.1701 22.5733C41.5041 25.7453 40.2111 29.0993 39.0171 32.4713C37.8601 35.7373 37.4261 39.0863 36.6301 42.4333C36.6061 42.5323 36.4511 42.5104 36.4531 42.4094C36.5591 35.3864 39.1221 28.2593 42.3741 22.1083C45.1691 16.8213 48.9781 10.8943 55.2611 9.66832C55.3871 9.64332 55.4861 9.82833 55.3541 9.88933Z" fill="black"/>
<path d="M53.0638 10.2312C49.9628 11.2002 47.4708 14.8132 44.9638 16.8102C41.3248 19.7062 37.5208 22.5312 33.5398 24.9392C29.7998 27.2022 25.6878 28.8362 21.5478 30.2042C17.4788 31.5502 13.0818 32.8752 8.7938 33.2182C8.5758 33.2362 8.55979 32.9222 8.74479 32.8582C12.8378 31.4332 17.1828 30.7022 21.3208 29.3822C25.9778 27.8962 30.4358 25.8902 34.5778 23.2912C38.6668 20.7262 42.9788 17.8212 46.5758 14.5992C48.3928 12.9702 50.4518 10.4352 53.0238 10.0882C53.1158 10.0742 53.1568 10.2012 53.0638 10.2312Z" fill="black"/>
<path d="M34.0319 45.6523C33.6929 44.7663 33.7709 44.0543 34.2799 43.2393C34.7899 42.4213 35.7569 41.8253 36.7369 41.9713C37.7979 42.1313 38.3719 42.8873 38.4979 43.9073C38.5729 44.5123 38.2439 45.8823 37.6649 46.1983C37.6009 46.2333 37.5129 46.2043 37.4929 46.1283C37.3779 45.6693 37.5569 45.1713 37.4459 44.6853C37.3249 44.1583 37.0399 43.6193 36.4959 43.4453C35.4259 43.1033 34.3349 44.6643 34.4379 45.5973C34.4659 45.8463 34.1079 45.8533 34.0319 45.6523Z" fill="black"/>
<path d="M37.7985 46.1313C37.3705 46.4513 36.7465 46.4653 36.2295 46.4813C35.5385 46.5023 34.8445 46.5283 34.1665 46.3683C33.9675 46.3213 33.8125 46.1143 33.8175 45.9093C33.8405 45.1723 33.8385 44.5363 34.3595 43.9753C34.4425 43.8853 34.6235 43.9243 34.6465 44.0513C34.7615 44.6763 34.7505 45.2743 34.7685 45.9083C34.6095 45.7503 34.4515 45.5923 34.2925 45.4333C34.9325 45.3493 35.5835 45.3763 36.2285 45.3753C36.7415 45.3743 37.3695 45.3703 37.7975 45.6853C37.9635 45.8083 37.9615 46.0103 37.7985 46.1313Z" fill="black"/>
<path d="M34.1817 45.7073C33.4497 46.2703 32.7857 46.9103 32.4407 47.7853C32.0947 48.6613 32.4197 49.8003 33.5347 49.7963C34.2807 49.7933 34.6977 48.4963 34.8667 47.9573C35.0277 47.4413 35.0667 46.4553 35.4637 46.0783C35.5477 45.9983 35.6667 46.0033 35.7507 46.0783C36.4617 46.7093 35.7567 48.5533 35.4587 49.2403C35.0027 50.2963 34.1027 51.0473 32.9187 50.8043C29.7327 50.1543 31.3147 45.2513 33.8457 44.9073C34.3457 44.8393 34.5867 45.3973 34.1817 45.7073Z" fill="black"/>
<path d="M35.8026 46.1622C36.1946 46.4572 36.1046 47.4262 36.1296 47.8622C36.1766 48.6442 36.0506 50.1272 37.0006 50.4102C38.8946 50.9732 37.4446 46.7752 37.6546 46.0862C37.7166 45.8832 37.9586 45.8263 38.1116 45.9653C38.8186 46.6063 38.8576 48.2262 38.8796 49.1172C38.9016 50.0972 38.5227 51.2642 37.3977 51.3812C36.0957 51.5162 35.4426 50.5392 35.2606 49.3682C35.1636 48.7422 35.2046 48.1093 35.2846 47.4823C35.3296 47.1343 35.3506 46.4262 35.6316 46.1832C35.6756 46.1472 35.7496 46.1232 35.8026 46.1622Z" fill="black"/>
<path d="M38.0146 45.9903C38.2086 46.6013 38.7026 47.2113 39.0596 47.7383C39.4116 48.2583 39.9076 49.0073 40.5386 49.2083C40.7806 49.2853 40.8986 48.9243 40.9606 48.7583C41.1516 48.2373 40.9586 47.8243 40.5856 47.4533C39.8506 46.7183 38.8176 46.6333 37.8776 46.3653C37.5206 46.2633 37.4606 45.6443 37.8776 45.5823C39.0916 45.4043 40.6206 46.1533 41.3946 47.0703C42.0866 47.8923 42.0686 49.3433 41.1156 49.9733C40.2516 50.5443 39.2496 49.4473 38.7826 48.8513C38.1716 48.0703 37.6486 47.0483 37.6936 46.0333C37.6996 45.8483 37.9576 45.8123 38.0146 45.9903Z" fill="black"/>
<path d="M5.98227 34.0662C6.62927 33.9192 7.18727 33.8483 7.68527 33.3663C7.93327 33.1253 8.29027 32.5292 7.89627 32.2592C7.48127 31.9732 6.34927 31.9543 6.19027 32.5583C6.00227 33.2733 6.39927 33.9552 6.30827 34.6602C6.29327 34.7712 6.16127 34.8592 6.06827 34.7602C5.48027 34.1272 5.05827 32.7443 5.37927 31.9163C5.82627 30.7623 7.64727 30.7253 8.52527 31.3703C10.3763 32.7323 7.61327 35.7673 5.92927 34.4813C5.78627 34.3713 5.77127 34.1132 5.98227 34.0662Z" fill="black"/>
<path d="M6.13175 34.4104C7.17975 36.1254 1.93476 37.7114 0.762758 37.0944C-0.319242 36.5254 -0.0502468 35.2233 0.784753 34.5694C1.79775 33.7764 3.74076 33.2274 5.01076 33.5554C5.28976 33.6274 5.31776 34.0004 5.08676 34.1464C4.38376 34.5924 3.47376 34.6264 2.68076 34.8154C2.15876 34.9394 1.63776 35.1204 1.16876 35.3814C0.645756 35.6734 0.395758 36.4144 1.10976 36.6264C1.99576 36.8894 3.22275 36.2794 3.97875 35.8884C4.48475 35.6274 5.58376 35.1224 5.68076 34.4694C5.71476 34.2454 6.03075 34.2454 6.13175 34.4104Z" fill="black"/>
<path d="M5.58362 33.8233C4.95962 34.3433 3.83661 34.3023 3.07261 34.3203C2.09061 34.3423 0.804618 34.2874 0.203618 33.3824C-0.501382 32.3234 0.775612 31.1264 1.72861 30.9524C3.08261 30.7064 4.78962 31.2684 5.74562 32.2064C5.97962 32.4364 5.68062 32.8134 5.39862 32.6544C5.11862 32.4954 4.41061 32.6204 4.05861 32.5594C3.48861 32.4614 2.93161 32.2053 2.46361 31.8713C1.55561 31.2213 1.16561 30.1544 1.68561 29.1334C2.16461 28.1904 3.80562 27.8174 4.68962 28.3184C5.82162 28.9624 6.47361 30.3404 6.62861 31.5934C6.66461 31.8864 6.23762 32.0374 6.05562 31.8314C5.19462 30.8564 4.37461 28.0443 2.65461 29.5993C1.93561 30.2493 3.08561 31.1194 3.53061 31.4134C3.83361 31.6134 5.04762 32.3694 5.39862 32.1594C5.44762 32.3374 5.49561 32.5143 5.54361 32.6913C4.62761 32.6863 3.84661 32.3584 2.94761 32.1764C2.45861 32.0764 1.72062 32.0044 1.38762 32.4654C1.14762 32.7974 1.26061 32.9043 1.60261 33.0303C2.35661 33.3083 3.24061 33.2993 4.03361 33.3083C4.48961 33.3143 5.17762 33.3023 5.55462 33.5913C5.62062 33.6483 5.66262 33.7583 5.58362 33.8233Z" fill="black"/>
<path d="M144.609 11.7212C144.463 10.0732 146.091 9.54923 147.486 9.49523C149.324 9.42423 150.536 11.1952 151.057 12.7282C152.474 16.8902 148.336 20.6002 144.581 21.0782C141.358 21.4872 136.441 17.4242 140.263 14.6502C141.588 13.6892 144.29 13.0662 145.312 14.8512C146.16 16.3332 145.674 18.2812 143.701 17.9452C142.793 17.7912 143.005 16.2762 143.918 16.3422C143.447 15.6532 142.862 15.4462 142.162 15.7252C141.51 15.8522 140.958 16.2922 140.713 16.9112C140.274 18.0212 141.451 18.9852 142.244 19.4872C143.961 20.5692 146.203 20.1282 147.826 19.1382C149.797 17.9362 150.736 15.6842 150.297 13.4552C150.062 12.2642 149.149 10.9062 147.853 10.7422C146.985 10.6332 145.741 10.8772 145.461 11.8362C145.318 12.3282 144.651 12.1952 144.609 11.7212Z" fill="black"/>
<path d="M108.231 19.3074C104.175 19.8214 97.6535 19.2874 96.8205 14.3094C96.1465 10.2844 100.175 7.13536 103.943 8.01836C107.085 8.75236 108.64 13.4154 104.922 14.4674C103.247 14.9404 101.324 14.3114 100.797 12.6134C100.287 10.9684 102.652 9.91836 103.845 10.6004C104.348 10.8884 104.267 11.5364 103.845 11.8414C102.966 12.4764 102.664 12.7064 103.997 12.9814C106.456 13.4904 106.504 11.2594 105.28 9.92138C103.347 7.80838 99.9715 9.10138 98.5055 11.0034C96.8875 13.1014 97.8235 15.9214 99.9145 17.1984C102.273 18.6394 105.518 19.1924 108.231 19.0094C108.426 18.9974 108.415 19.2834 108.231 19.3074Z" fill="black"/>
<path d="M142.882 28.8112C137.276 31.3132 131.374 27.9073 125.588 29.2713C123.112 29.8543 120.102 31.1693 119.313 33.8013C118.747 35.6943 120.249 37.3893 121.696 38.2883C122.633 38.8693 125.757 39.0503 124.664 36.6543C124.261 35.7713 123.249 35.5643 122.62 36.3813C122.181 36.9533 121.051 36.8702 121.106 35.9712C121.338 32.2442 126.404 34.0123 126.614 37.0243C126.707 38.3413 125.221 39.8212 123.925 39.8112C122.215 39.7972 120.449 38.9362 119.422 37.5432C116.649 33.7772 120.27 30.4343 123.631 28.9783C129.794 26.3083 136.411 30.1303 142.747 28.4893C142.934 28.4413 143.068 28.7272 142.882 28.8112Z" fill="black"/>
<path d="M118.835 31.0882C117.204 32.2542 115.668 33.6533 114.939 35.5673C114.758 36.0433 114.628 36.5312 114.523 37.0272C114.437 37.4312 114.413 37.8682 114.474 38.2772C114.607 39.1692 115.48 38.5723 115.665 38.0473C116.46 35.8033 115.388 32.4472 118.031 31.1132C118.173 31.0412 118.395 31.0933 118.426 31.2743C118.45 31.4143 118.471 31.5173 118.408 31.6493C118 32.5083 117.588 33.3233 117.343 34.2483C117.106 35.1443 117.176 36.1172 117.05 37.0322C116.845 38.5102 116.154 40.5062 114.262 39.8552C112.582 39.2772 113.309 36.6602 113.716 35.5002C114.529 33.1862 116.457 31.5782 118.674 30.7082C118.909 30.6172 119.012 30.9612 118.835 31.0882Z" fill="black"/>
<path d="M118.586 30.8893C117.661 31.9523 117.273 33.6233 116.755 34.9183C116.254 36.1683 116.266 37.8253 115.458 38.8913C115.301 39.0983 115.032 39.1143 114.878 38.8913C113.941 37.5413 114.775 35.6743 115.406 34.3493C116.135 32.8173 116.981 31.5963 118.405 30.6573C118.554 30.5583 118.691 30.7683 118.586 30.8893Z" fill="black"/>
<path d="M114.705 39.2283C113.359 38.3013 114.003 35.7453 115.449 35.2583C115.732 35.1623 115.916 35.4483 115.882 35.6903C115.807 36.2293 115.504 36.7423 115.349 37.2643C115.17 37.8673 115.243 38.4463 115.142 39.0513C115.111 39.2333 114.854 39.3303 114.705 39.2283Z" fill="black"/>
<path d="M118.52 30.9553C117.261 31.7963 115.47 31.9803 113.99 32.1683C112.365 32.3713 109.494 31.0193 109.109 29.2833C108.743 27.6333 109.869 26.0193 111.667 26.3433C112.601 26.5123 113.5 26.9123 114.254 27.4943C114.795 27.9143 115.253 28.4203 115.737 28.9013C116.701 29.8613 117.557 30.0603 118.857 30.2243C119.164 30.2633 119.276 30.6133 119.013 30.8003C117.628 31.7833 116.023 30.6453 114.938 29.6983C114.274 29.1203 113.708 28.5023 112.951 28.0383C112.565 27.8013 112.143 27.6473 111.712 27.5193C110.211 27.0783 109.922 28.7163 110.744 29.6103C112.041 31.0203 113.919 30.9053 115.597 30.6353C116.396 30.5063 117.857 30.0753 118.561 30.6413C118.666 30.7293 118.616 30.8913 118.52 30.9553Z" fill="black"/>
<path d="M118.544 30.6692C117.988 31.8632 115.225 31.1472 114.3 30.9412C112.773 30.6032 110.537 29.6232 110.138 27.9282C109.896 26.8982 111.277 26.3042 111.839 27.2112C112.612 28.4562 114.072 29.0182 115.396 29.5152C116.292 29.8512 117.805 29.8532 118.522 30.4942C118.572 30.5402 118.57 30.6122 118.544 30.6692Z" fill="black"/>
<path d="M111.732 27.6822C112.496 27.6042 113.23 28.0432 113.863 28.4212C114.539 28.8262 115.441 29.3982 115.76 30.1472C115.869 30.4052 115.749 30.7522 115.419 30.7412C114.662 30.7142 113.973 30.1912 113.376 29.7682C112.723 29.3052 111.907 28.8122 111.481 28.1182C111.358 27.9142 111.524 27.7032 111.732 27.6822Z" fill="black"/>
<path d="M95.3879 14.6132C93.6179 13.4062 92.1879 11.6583 91.7279 9.52126C91.5009 8.46626 91.4529 6.64624 92.4349 5.92324C93.6099 5.06124 94.5949 6.11426 94.9859 7.18926C95.2749 7.98126 95.3109 8.90226 95.3709 9.73626C95.4689 11.1113 96.0969 12.4812 95.9159 13.8452C95.8919 14.0312 95.6509 14.2062 95.4959 14.0192C93.8229 12.0002 94.8069 9.26424 93.6979 7.07024C93.2079 6.09724 92.9029 7.94126 92.8969 8.01626C92.8589 8.45826 92.8729 8.93126 92.9479 9.37026C93.2479 11.1113 94.5349 12.9053 95.7629 14.1273C96.0059 14.3713 95.6839 14.8152 95.3879 14.6132Z" fill="black"/>
<path d="M95.6092 14.7183C94.5392 13.5293 93.8822 12.3093 93.3762 10.7953C92.9662 9.5663 92.2902 7.58229 93.2772 6.51829C93.4602 6.32129 93.7462 6.36029 93.9332 6.51829C94.8232 7.26729 94.6922 8.73331 94.8772 9.81431C95.1482 11.3993 95.5382 12.9833 95.8952 14.5513C95.9332 14.7093 95.7312 14.8533 95.6092 14.7183Z" fill="black"/>
<path d="M93.1684 14.2444C90.9144 14.2994 88.8644 13.3714 86.9144 12.3124C85.7184 11.6644 84.4004 10.2074 84.6174 8.77037C84.9184 6.79137 87.8174 7.88436 88.7064 8.53936C89.5044 9.12736 90.1654 9.88137 90.8524 10.5884C91.7674 11.5304 92.7384 12.4514 93.0894 13.7544C93.1164 13.8584 93.0094 13.9204 92.9234 13.8814C91.6014 13.2954 90.5334 12.0454 89.5214 11.0354C89.0934 10.6074 88.6584 10.1934 88.1974 9.80236C88.0094 9.64436 85.8194 8.43837 86.0524 9.36937C86.3024 10.3684 87.6114 11.1914 88.3974 11.7244C89.8044 12.6784 91.4124 13.8494 93.1674 13.9474C93.3584 13.9594 93.3604 14.2404 93.1684 14.2444Z" fill="black"/>
<path d="M93.0433 14.1863C91.6993 14.2003 90.6653 13.2333 89.7183 12.3933C88.9913 11.7483 88.2543 11.1723 87.4483 10.6273C86.7513 10.1553 86.2013 9.85629 85.8843 9.07229C85.7443 8.72429 86.1053 8.24629 86.4803 8.29129C87.7963 8.44929 89.0873 9.7473 90.0663 10.6073C91.1893 11.5953 92.0773 12.8283 93.1953 13.8193C93.3403 13.9473 93.2213 14.1843 93.0433 14.1863Z" fill="black"/>
<path d="M44.5596 26.2782C43.6536 29.4062 42.7336 33.8262 44.3916 36.9092C45.6596 36.9172 46.1006 36.4312 45.7136 35.4522C45.6276 35.0762 45.5226 34.7062 45.3966 34.3422C45.1416 33.5362 44.7886 32.7652 44.5286 31.9622C44.0186 30.3822 43.7486 28.2392 44.2966 26.6542C44.3676 26.4472 44.6486 26.3922 44.7676 26.5932C45.4826 27.7892 45.3626 29.4392 45.6216 30.7942C45.9056 32.2782 46.5826 33.6472 46.9306 35.1172C47.3036 36.6882 46.6986 38.8102 44.7346 38.6982C43.0496 38.6032 42.5516 35.9662 42.3576 34.7202C41.9186 31.8972 43.0016 28.6312 44.1766 26.1162C44.2766 25.8952 44.6246 26.0522 44.5596 26.2782Z" fill="black"/>
<path d="M44.6332 26.5372C44.9902 28.0922 45.0602 29.6272 45.1312 31.2182C45.2212 33.2422 46.0692 35.2232 45.9812 37.2212C45.9642 37.5922 45.5112 37.8152 45.2342 37.5322C42.8232 35.0662 43.4672 29.5932 44.2042 26.5382C44.2542 26.3252 44.5832 26.3222 44.6332 26.5372Z" fill="black"/>
<path d="M45.28 36.6073C44.874 35.3523 44.2251 33.6452 44.7141 32.3362C44.7901 32.1312 45.1051 32.0352 45.2211 32.2702C45.8291 33.4942 45.6221 35.1342 45.8081 36.4622C45.8551 36.8022 45.392 36.9513 45.28 36.6073Z" fill="black"/>
<path d="M47.2459 29.1664C48.5899 31.7094 49.4679 34.3264 52.1129 35.8394C53.1759 36.4474 56.2149 36.2844 55.8009 34.4624C55.6519 33.8054 54.6139 33.3844 54.0829 33.1244C52.6139 32.4054 50.9849 32.0114 49.4389 31.4924C48.4869 31.1724 47.0418 30.6704 47.1098 29.4714C47.1188 29.3194 47.3069 29.2204 47.4229 29.3424C48.7209 30.6994 51.6569 31.0244 53.3379 31.6474C54.7259 32.1624 56.8069 32.9444 56.9079 34.6834C57.0459 37.0434 53.7498 37.5984 52.1398 37.0124C48.8178 35.8034 47.8999 32.3074 46.8159 29.3464C46.7259 29.0954 47.1239 28.9334 47.2459 29.1664Z" fill="black"/>
<path d="M47.1681 29.0712C48.5231 30.0952 49.8231 31.1742 51.2511 32.0962C52.7061 33.0352 54.6061 33.2192 55.9571 34.2282C56.3201 34.5002 56.3501 35.1502 55.8201 35.2712C54.1381 35.6562 52.2791 34.6052 50.8621 33.7772C49.1181 32.7562 47.6731 31.2482 46.8311 29.4082C46.7411 29.2122 46.9491 28.9052 47.1681 29.0712Z" fill="black"/>
<path d="M55.7199 35.3982C54.5439 36.6492 52.6359 35.9242 51.3709 35.2152C50.1529 34.5332 47.9409 32.8972 48.2559 31.2782C48.3319 30.8862 48.7979 30.7752 49.1109 30.9302C50.0939 31.4182 50.7629 32.7061 51.6649 33.3801C52.7889 34.2181 54.019 34.6772 55.42 34.6692C55.8 34.6682 55.9699 35.1312 55.7199 35.3982Z" fill="black"/>
<path d="M48.9885 30.5744C50.1265 31.2904 51.5055 31.6644 52.7795 32.0714C53.8615 32.4174 55.1915 32.7504 55.7185 33.8584C55.8345 34.1034 55.6935 34.3634 55.4175 34.3804C54.1385 34.4664 52.7945 33.7124 51.6265 33.2624C50.3985 32.7884 49.3855 32.1864 48.5195 31.1814C48.2445 30.8634 48.5985 30.3294 48.9885 30.5744Z" fill="black"/>
<path d="M31.7751 14.6953C29.4221 15.6773 27.0111 16.6013 24.4121 16.2993C23.1561 16.1533 21.0191 15.0653 21.0581 13.5413C21.1061 11.7273 22.5741 10.7643 24.2711 11.0313C25.2911 11.1923 26.1961 12.0503 27.0261 12.5903C28.6111 13.6203 30.3451 13.8313 32.1681 14.0103C32.3571 14.0303 32.4821 14.3023 32.2741 14.4033C30.1401 15.4493 27.0431 14.0023 25.0841 13.0193C24.7031 12.7893 24.2991 12.6133 23.8701 12.4883C22.6231 13.3943 22.5021 14.0873 23.5091 14.5643C24.2751 15.0913 25.1551 15.1483 26.0521 15.1873C27.9351 15.2713 29.9261 15.0383 31.6861 14.3713C31.8911 14.2943 31.9701 14.6143 31.7751 14.6953Z" fill="black"/>
<path d="M31.925 14.7822C28.957 15.7252 25.618 15.9122 23.201 13.5532C22.444 12.8152 23.43 11.4972 24.338 12.0782C26.634 13.5492 29.174 13.9692 31.857 14.2752C32.138 14.3092 32.218 14.6902 31.925 14.7822Z" fill="black"/>
<path d="M31.2109 14.2724C31.6249 14.1514 32.2099 13.9443 32.6399 14.0393C32.7169 14.0563 32.7569 14.1574 32.7139 14.2234C32.3969 14.7144 31.6119 14.7494 31.1769 14.4034C31.1279 14.3634 31.1589 14.2854 31.2109 14.2724Z" fill="black"/>
<path d="M33.9815 14.5142C32.2225 14.5352 30.2865 13.3212 29.4335 11.7912C28.8465 10.7402 28.3575 8.67024 29.6935 7.92824C33.2655 5.94324 33.2655 12.2133 34.5005 13.8523C34.6375 14.0343 34.4125 14.2403 34.2305 14.2023C32.2765 13.7883 32.4605 10.6702 31.5815 9.30425C31.3115 8.88425 30.4875 8.76724 30.2885 9.31124C30.1065 9.80324 30.3115 10.4082 30.4725 10.8762C30.9265 12.1942 32.5905 13.9532 33.9825 14.0542C34.2735 14.0742 34.2815 14.5102 33.9815 14.5142Z" fill="black"/>
<path d="M33.7099 14.4083C32.0069 13.2093 30.1218 10.8263 30.6528 8.59526C30.8498 7.77126 31.9259 7.90926 32.1839 8.59526C32.5079 9.45626 32.5898 10.4253 32.8728 11.3123C33.1718 12.2483 33.6119 13.1643 34.1059 14.0123C34.2439 14.2503 33.9559 14.5813 33.7099 14.4083Z" fill="black"/>
</svg>
