<svg width="309" height="52" viewBox="0 0 309 52" fill="none" xmlns="http://www.w3.org/2000/svg">
<path d="M144.354 39.4194C143.267 40.3234 143.375 41.7924 144.321 42.8094C145.787 44.3864 147.861 45.2794 150.036 44.8304C154.218 43.9654 155.058 39.6794 154.301 36.0224C153.334 31.3594 149.317 27.0804 145.774 24.1714C141.941 21.0244 137.23 18.8674 132.289 18.3324C122.57 17.2804 111.049 27.5724 116.315 37.5124C117.403 39.5644 122.05 43.9974 124.228 40.5984C126.525 37.0134 121.211 34.0944 118.648 33.0204C108.437 28.7384 96.3604 33.5594 86.5214 36.6254C77.9704 39.2904 68.6024 42.6154 59.5424 42.0454C54.5674 41.7324 50.3624 39.3834 47.8764 35.0174C44.9634 29.8994 47.1494 22.9784 53.7984 23.0364C56.5844 23.0604 59.7984 25.7004 59.3154 28.6524C59.0374 30.3574 56.7994 32.6234 54.9474 32.1714C53.7594 31.8814 53.0704 30.5594 52.7414 29.4984C52.1344 27.5384 53.8824 27.3264 55.3824 27.7004C56.1554 27.8924 56.4554 26.7654 55.7084 26.5174C48.9554 24.2794 49.9374 34.0494 55.2874 34.2154C58.6134 34.3194 61.9964 30.2834 61.1414 27.0184C60.0034 22.6734 55.2604 20.6224 51.1454 21.7274C47.0524 22.8274 44.5144 26.7774 45.0754 30.9434C45.6844 35.4754 48.7324 39.3844 52.7684 41.4254C61.1484 45.6644 71.8694 41.9084 80.2314 39.5544C90.0294 36.7964 100.076 32.6194 110.386 32.7264C113.297 32.7564 116.172 33.3534 118.85 34.4884C120.515 35.1934 124.262 37.2374 123.175 39.6184C121.923 42.3624 118.052 37.8384 117.416 36.8684C115.484 33.9204 116.079 30.2854 117.612 27.3444C120.062 22.6464 125.186 19.5344 130.391 19.1894C135.391 18.8574 140.289 21.0564 144.26 23.9124C148.131 26.6974 151.482 30.6764 152.94 35.2634C153.581 37.2754 153.532 39.6284 152.504 41.4944C151.828 42.7234 150.516 43.1764 149.206 43.3014C148.297 43.3884 143.813 41.9554 145.232 40.2984C145.757 39.6844 144.969 38.9084 144.354 39.4194Z" fill="black"/>
<path d="M54.3428 41.2746C48.4618 38.1876 41.8658 35.9796 35.4948 34.1526C29.7178 32.4956 23.4078 31.1426 17.3938 32.1066C12.5688 32.8796 8.17384 36.1206 6.65084 40.8576C5.20784 45.3496 9.67084 49.7316 13.4838 51.0506C16.4818 52.0876 20.0218 50.7106 21.2058 47.7026C22.2698 44.9946 21.4868 41.7586 18.6258 40.5756C15.6458 39.3436 12.0828 40.3996 11.8018 43.9476C11.5438 47.1986 15.2438 48.7286 17.6668 46.9966C18.3578 46.5016 17.9358 45.4966 17.0978 45.6466C16.0008 45.8436 14.7378 46.1276 14.0198 45.0486C13.3488 44.0406 13.8218 42.7256 14.7438 42.0866C17.4328 40.2226 20.4878 42.8436 20.4178 45.6086C20.3368 48.7636 17.3088 50.4586 14.4618 50.0026C10.2398 49.3256 6.50183 44.3506 8.40583 40.2166C12.1008 32.1966 21.8228 32.5606 29.1388 33.8946C37.8128 35.4766 45.7028 39.6296 54.2688 41.4536C54.3718 41.4746 54.4448 41.3276 54.3428 41.2746Z" fill="black"/>
<path d="M55.3541 41.5045C49.4291 38.8225 46.1331 34.4645 43.1701 28.8205C41.5041 25.6485 40.2111 22.2935 39.0171 18.9215C37.8601 15.6555 37.4261 12.3065 36.6301 8.95949C36.6061 8.86049 36.4511 8.88249 36.4531 8.98349C36.5591 16.0075 39.1221 23.1345 42.3741 29.2855C45.1691 34.5715 48.9781 40.4985 55.2611 41.7255C55.3871 41.7505 55.4861 41.5645 55.3541 41.5045Z" fill="black"/>
<path d="M53.0638 41.1616C49.9628 40.1926 47.4708 36.5796 44.9638 34.5826C41.3248 31.6866 37.5208 28.8616 33.5398 26.4536C29.7998 24.1906 25.6878 22.5566 21.5478 21.1886C17.4788 19.8436 13.0818 18.5186 8.7938 18.1746C8.5758 18.1566 8.55979 18.4706 8.74479 18.5356C12.8378 19.9606 17.1828 20.6916 21.3208 22.0116C25.9778 23.4976 30.4358 25.5026 34.5778 28.1016C38.6668 30.6676 42.9788 33.5706 46.5758 36.7936C48.3928 38.4226 50.4518 40.9586 53.0238 41.3046C53.1158 41.3176 53.1568 41.1916 53.0638 41.1616Z" fill="black"/>
<path d="M34.0319 5.74141C33.6929 6.62641 33.7709 7.33941 34.2799 8.15441C34.7899 8.97241 35.7569 9.56941 36.7369 9.42141C37.7979 9.26141 38.3719 8.50641 38.4979 7.48641C38.5729 6.88041 38.2439 5.51141 37.6649 5.19541C37.6009 5.15941 37.5129 5.19041 37.4929 5.26541C37.3779 5.72441 37.5569 6.22241 37.4459 6.70841C37.3249 7.23641 37.0399 7.77541 36.4959 7.94941C35.4259 8.29141 34.3349 6.73041 34.4379 5.79641C34.4659 5.54741 34.1079 5.53941 34.0319 5.74141Z" fill="black"/>
<path d="M37.7985 5.26144C37.3705 4.94244 36.7465 4.92844 36.2295 4.91244C35.5385 4.89144 34.8445 4.86644 34.1665 5.02544C33.9675 5.07244 33.8125 5.27944 33.8175 5.48344C33.8405 6.22144 33.8385 6.85644 34.3595 7.41744C34.4425 7.50744 34.6235 7.46844 34.6465 7.34144C34.7615 6.71644 34.7505 6.11844 34.7685 5.48344C34.6095 5.64144 34.4515 5.80044 34.2925 5.95844C34.9325 6.04344 35.5835 6.01544 36.2285 6.01644C36.7415 6.01744 37.3695 6.02144 37.7975 5.70644C37.9635 5.58444 37.9615 5.38344 37.7985 5.26144Z" fill="black"/>
<path d="M34.1817 5.68456C33.4497 5.12256 32.7857 4.48156 32.4407 3.60656C32.0947 2.73156 32.4197 1.59256 33.5347 1.59656C34.2807 1.59956 34.6977 2.89556 34.8667 3.43456C35.0277 3.95056 35.0667 4.93656 35.4637 5.31456C35.5477 5.39456 35.6667 5.38956 35.7507 5.31456C36.4617 4.68356 35.7567 2.83956 35.4587 2.15156C35.0027 1.09656 34.1027 0.345558 32.9187 0.587558C29.7327 1.23756 31.3147 6.14056 33.8457 6.48556C34.3457 6.55356 34.5867 5.99556 34.1817 5.68456Z" fill="black"/>
<path d="M35.8026 5.23051C36.1946 4.93551 36.1046 3.9675 36.1296 3.5305C36.1766 2.7475 36.0506 1.26551 37.0006 0.982507C38.8946 0.419507 37.4446 4.6165 37.6546 5.3065C37.7166 5.5095 37.9586 5.56551 38.1116 5.42751C38.8186 4.78751 38.8576 3.16751 38.8796 2.27551C38.9016 1.29451 38.5227 0.129506 37.3977 0.0125057C36.0957 -0.122494 35.4426 0.854507 35.2606 2.02451C35.1636 2.65151 35.2046 3.28351 35.2846 3.90951C35.3296 4.25851 35.3506 4.9655 35.6316 5.2085C35.6756 5.2455 35.7496 5.26951 35.8026 5.23051Z" fill="black"/>
<path d="M38.0146 5.40252C38.2086 4.79152 38.7026 4.18252 39.0596 3.65452C39.4116 3.13452 39.9076 2.38552 40.5386 2.18452C40.7806 2.10652 40.8986 2.46952 40.9606 2.63452C41.1516 3.15652 40.9586 3.56852 40.5856 3.94052C39.8506 4.67552 38.8176 4.76052 37.8776 5.02752C37.5206 5.12852 37.4606 5.74852 37.8776 5.81052C39.0916 5.98852 40.6206 5.23952 41.3946 4.32252C42.0866 3.50052 42.0686 2.04952 41.1156 1.41952C40.2516 0.848519 39.2496 1.94652 38.7826 2.54152C38.1716 3.32252 37.6486 4.34352 37.6936 5.35852C37.6996 5.54452 37.9576 5.58052 38.0146 5.40252Z" fill="black"/>
<path d="M5.98227 17.3264C6.62927 17.4744 7.18727 17.5434 7.68527 18.0274C7.93327 18.2684 8.29027 18.8634 7.89627 19.1344C7.48127 19.4204 6.34927 19.4394 6.19027 18.8344C6.00227 18.1204 6.39927 17.4374 6.30827 16.7324C6.29327 16.6214 6.16127 16.5334 6.06827 16.6324C5.48027 17.2654 5.05827 18.6484 5.37927 19.4774C5.82627 20.6314 7.64727 20.6684 8.52527 20.0224C10.3763 18.6604 7.61327 15.6244 5.92927 16.9114C5.78627 17.0214 5.77127 17.2784 5.98227 17.3264Z" fill="black"/>
<path d="M6.13175 16.9825C7.17975 15.2675 1.93476 13.6805 0.762758 14.2975C-0.319242 14.8675 -0.0502468 16.1695 0.784753 16.8235C1.79775 17.6175 3.74076 18.1645 5.01076 17.8375C5.28976 17.7655 5.31776 17.3925 5.08676 17.2465C4.38376 16.8005 3.47376 16.7665 2.68076 16.5775C2.15876 16.4535 1.63776 16.2735 1.16876 16.0115C0.645756 15.7195 0.395758 14.9785 1.10976 14.7665C1.99576 14.5045 3.22275 15.1135 3.97875 15.5045C4.48475 15.7655 5.58376 16.2705 5.68076 16.9235C5.71476 17.1475 6.03075 17.1475 6.13175 16.9825Z" fill="black"/>
<path d="M5.58362 17.5696C4.95962 17.0486 3.83661 17.0906 3.07261 17.0726C2.09061 17.0506 0.804618 17.1056 0.203618 18.0096C-0.501382 19.0686 0.775612 20.2656 1.72861 20.4396C3.08261 20.6866 4.78962 20.1236 5.74562 19.1866C5.97962 18.9566 5.68062 18.5796 5.39862 18.7376C5.11862 18.8966 4.41061 18.7716 4.05861 18.8316C3.48861 18.9296 2.93161 19.1856 2.46361 19.5196C1.55561 20.1686 1.16561 21.2356 1.68561 22.2566C2.16461 23.1996 3.80562 23.5736 4.68962 23.0716C5.82162 22.4276 6.47361 21.0506 6.62861 19.7956C6.66461 19.5036 6.23762 19.3516 6.05562 19.5586C5.19462 20.5326 4.37461 23.3446 2.65461 21.7896C1.93561 21.1406 3.08561 20.2696 3.53061 19.9756C3.83361 19.7756 5.04762 19.0196 5.39862 19.2296C5.44762 19.0526 5.49561 18.8746 5.54361 18.6976C4.62761 18.7026 3.84661 19.0296 2.94761 19.2126C2.45861 19.3126 1.72062 19.3836 1.38762 18.9226C1.14762 18.5906 1.26061 18.4846 1.60261 18.3576C2.35661 18.0786 3.24061 18.0886 4.03361 18.0796C4.48961 18.0736 5.17762 18.0856 5.55462 17.7956C5.62062 17.7446 5.66262 17.6356 5.58362 17.5696Z" fill="black"/>
<path d="M144.609 39.6715C144.463 41.3205 146.091 41.8435 147.486 41.8975C149.324 41.9685 150.536 40.1975 151.057 38.6645C152.474 34.5025 148.336 30.7915 144.581 30.3145C141.358 29.9055 136.441 33.9685 140.263 36.7415C141.588 37.7025 144.29 38.3255 145.312 36.5405C146.16 35.0585 145.674 33.1105 143.701 33.4465C142.793 33.6005 143.005 35.1155 143.918 35.0505C143.447 35.7405 142.862 35.9465 142.162 35.6675C141.51 35.5405 140.958 35.1005 140.713 34.4825C140.274 33.3725 141.451 32.4075 142.244 31.9065C143.961 30.8235 146.203 31.2645 147.826 32.2545C149.797 33.4565 150.736 35.7085 150.297 37.9365C150.062 39.1285 149.149 40.4855 147.853 40.6495C146.985 40.7585 145.741 40.5155 145.461 39.5555C145.318 39.0645 144.651 39.1975 144.609 39.6715Z" fill="black"/>
<path d="M108.231 32.0855C104.175 31.5725 97.6535 32.1055 96.8205 37.0845C96.1465 41.1095 100.175 44.2575 103.943 43.3755C107.085 42.6405 108.64 37.9785 104.922 36.9265C103.247 36.4525 101.324 37.0825 100.797 38.7795C100.287 40.4245 102.652 41.4755 103.845 40.7925C104.348 40.5035 104.267 39.8565 103.845 39.5515C102.966 38.9165 102.664 38.6865 103.997 38.4115C106.456 37.9035 106.504 40.1335 105.28 41.4715C103.347 43.5845 99.9715 42.2915 98.5055 40.3895C96.8875 38.2925 97.8235 35.4715 99.9145 34.1935C102.273 32.7525 105.518 32.2005 108.231 32.3825C108.426 32.3955 108.415 32.1085 108.231 32.0855Z" fill="black"/>
<path d="M142.882 22.5816C137.276 20.0796 131.374 23.4866 125.588 22.1216C123.112 21.5386 120.102 20.2246 119.313 17.5906C118.747 15.6986 120.249 14.0026 121.696 13.1036C122.633 12.5226 125.757 12.3416 124.664 14.7366C124.261 15.6196 123.249 15.8266 122.62 15.0096C122.181 14.4376 121.051 14.5206 121.106 15.4196C121.338 19.1476 126.404 17.3786 126.614 14.3676C126.707 13.0506 125.221 11.5706 123.925 11.5806C122.215 11.5946 120.449 12.4556 119.422 13.8486C116.649 17.6136 120.27 20.9566 123.631 22.4126C129.794 25.0816 136.411 21.2596 142.747 22.9016C142.934 22.9516 143.068 22.6656 142.882 22.5816Z" fill="black"/>
<path d="M118.835 20.3056C117.204 19.1396 115.668 17.7406 114.939 15.8256C114.758 15.3506 114.628 14.8626 114.523 14.3656C114.437 13.9616 114.413 13.5246 114.474 13.1156C114.607 12.2226 115.48 12.8206 115.665 13.3456C116.46 15.5896 115.388 18.9456 118.031 20.2796C118.173 20.3516 118.395 20.3006 118.426 20.1186C118.45 19.9796 118.471 19.8756 118.408 19.7436C118 18.8846 117.588 18.0696 117.343 17.1446C117.106 16.2486 117.176 15.2756 117.05 14.3606C116.845 12.8826 116.154 10.8866 114.262 11.5376C112.582 12.1156 113.309 14.7326 113.716 15.8916C114.529 18.2056 116.457 19.8136 118.674 20.6836C118.909 20.7756 119.012 20.4316 118.835 20.3056Z" fill="black"/>
<path d="M118.586 20.5035C117.661 19.4415 117.273 17.7695 116.755 16.4745C116.254 15.2235 116.266 13.5665 115.458 12.5015C115.301 12.2945 115.032 12.2795 114.878 12.5015C113.941 13.8505 114.775 15.7185 115.406 17.0435C116.135 18.5755 116.981 19.7955 118.405 20.7365C118.554 20.8345 118.691 20.6245 118.586 20.5035Z" fill="black"/>
<path d="M114.705 12.1644C113.359 13.0914 114.003 15.6474 115.449 16.1344C115.732 16.2294 115.916 15.9444 115.882 15.7024C115.807 15.1634 115.504 14.6504 115.349 14.1274C115.17 13.5244 115.243 12.9454 115.142 12.3414C115.111 12.1594 114.854 12.0624 114.705 12.1644Z" fill="black"/>
<path d="M118.52 20.4365C117.261 19.5965 115.47 19.4115 113.99 19.2245C112.365 19.0205 109.494 20.3735 109.109 22.1095C108.743 23.7595 109.869 25.3735 111.667 25.0495C112.601 24.8815 113.5 24.4805 114.254 23.8975C114.795 23.4785 115.253 22.9725 115.737 22.4905C116.701 21.5305 117.557 21.3315 118.857 21.1665C119.164 21.1275 119.276 20.7785 119.013 20.5915C117.628 19.6075 116.023 20.7465 114.938 21.6925C114.274 22.2715 113.708 22.8895 112.951 23.3535C112.565 23.5905 112.143 23.7445 111.712 23.8715C110.211 24.3125 109.922 22.6745 110.744 21.7805C112.041 20.3705 113.919 20.4855 115.597 20.7555C116.396 20.8835 117.857 21.3165 118.561 20.7495C118.666 20.6645 118.616 20.5015 118.52 20.4365Z" fill="black"/>
<path d="M118.544 20.7234C117.988 19.5294 115.225 20.2464 114.3 20.4514C112.773 20.7894 110.537 21.7694 110.138 23.4634C109.896 24.4934 111.277 25.0864 111.839 24.1804C112.612 22.9354 114.072 22.3734 115.396 21.8774C116.292 21.5414 117.805 21.5384 118.522 20.8984C118.572 20.8524 118.57 20.7804 118.544 20.7234Z" fill="black"/>
<path d="M111.732 23.7106C112.496 23.7896 113.23 23.3506 113.863 22.9716C114.539 22.5666 115.441 21.9946 115.76 21.2456C115.869 20.9886 115.749 20.6406 115.419 20.6516C114.662 20.6786 113.973 21.2016 113.376 21.6256C112.723 22.0886 111.907 22.5816 111.481 23.2756C111.358 23.4776 111.524 23.6886 111.732 23.7106Z" fill="black"/>
<path d="M95.3879 36.7794C93.6179 37.9864 92.1879 39.7344 91.7279 41.8704C91.5009 42.9244 91.4529 44.7464 92.4349 45.4674C93.6099 46.3304 94.5949 45.2764 94.9859 44.2014C95.2749 43.4094 95.3109 42.4884 95.3709 41.6554C95.4689 40.2804 96.0969 38.9094 95.9159 37.5454C95.8919 37.3604 95.6509 37.1844 95.4959 37.3714C93.8229 39.3904 94.8069 42.1264 93.6979 44.3214C93.2079 45.2934 92.9029 43.4494 92.8969 43.3744C92.8589 42.9314 92.8729 42.4594 92.9479 42.0204C93.2479 40.2784 94.5349 38.4844 95.7629 37.2634C96.0059 37.0214 95.6839 36.5784 95.3879 36.7794Z" fill="black"/>
<path d="M95.6092 36.6744C94.5392 37.8624 93.8822 39.0834 93.3762 40.5974C92.9662 41.8244 92.2902 43.8104 93.2772 44.8744C93.4602 45.0714 93.7462 45.0324 93.9332 44.8744C94.8232 44.1254 94.6922 42.6594 94.8772 41.5784C95.1482 39.9934 95.5382 38.4094 95.8952 36.8414C95.9332 36.6834 95.7312 36.5394 95.6092 36.6744Z" fill="black"/>
<path d="M93.1684 37.1476C90.9144 37.0926 88.8644 38.0206 86.9144 39.0796C85.7184 39.7276 84.4004 41.1846 84.6174 42.6216C84.9184 44.6006 87.8174 43.5066 88.7064 42.8526C89.5044 42.2656 90.1654 41.5116 90.8524 40.8036C91.7674 39.8616 92.7384 38.9406 93.0894 37.6386C93.1164 37.5346 93.0094 37.4716 92.9234 37.5106C91.6014 38.0976 90.5334 39.3466 89.5214 40.3576C89.0934 40.7846 88.6584 41.1996 88.1974 41.5906C88.0094 41.7486 85.8194 42.9556 86.0524 42.0236C86.3024 41.0236 87.6114 40.2006 88.3974 39.6676C89.8044 38.7136 91.4124 37.5426 93.1674 37.4446C93.3584 37.4336 93.3604 37.1526 93.1684 37.1476Z" fill="black"/>
<path d="M93.0433 37.2064C91.6993 37.1924 90.6653 38.1604 89.7183 38.9994C88.9913 39.6444 88.2543 40.2214 87.4483 40.7664C86.7513 41.2374 86.2013 41.5364 85.8843 42.3204C85.7443 42.6684 86.1053 43.1464 86.4803 43.1014C87.7963 42.9434 89.0873 41.6455 90.0663 40.7855C91.1893 39.7975 92.0773 38.5644 93.1953 37.5744C93.3403 37.4444 93.2213 37.2084 93.0433 37.2064Z" fill="black"/>
<path d="M44.5596 25.1156C43.6536 21.9876 42.7336 17.5676 44.3916 14.4846C45.6596 14.4766 46.1006 14.9616 45.7136 15.9416C45.6276 16.3176 45.5226 16.6876 45.3966 17.0516C45.1416 17.8566 44.7886 18.6286 44.5286 19.4316C44.0186 21.0116 43.7486 23.1536 44.2966 24.7396C44.3676 24.9476 44.6486 25.0016 44.7676 24.8016C45.4826 23.6046 45.3626 21.9546 45.6216 20.5996C45.9056 19.1156 46.5826 17.7456 46.9306 16.2766C47.3036 14.7046 46.6986 12.5836 44.7346 12.6946C43.0496 12.7896 42.5516 15.4266 42.3576 16.6726C41.9186 19.4966 43.0016 22.7616 44.1766 25.2776C44.2766 25.4976 44.6246 25.3406 44.5596 25.1156Z" fill="black"/>
<path d="M44.6332 24.8554C44.9902 23.3014 45.0602 21.7664 45.1312 20.1744C45.2212 18.1494 46.0692 16.1704 45.9812 14.1714C45.9642 13.8004 45.5112 13.5784 45.2342 13.8614C42.8232 16.3264 43.4672 21.7994 44.2042 24.8554C44.2542 25.0674 44.5832 25.0694 44.6332 24.8554Z" fill="black"/>
<path d="M45.28 14.7856C44.874 16.0406 44.2251 17.7476 44.7141 19.0566C44.7901 19.2616 45.1051 19.3576 45.2211 19.1226C45.8291 17.8996 45.6221 16.2576 45.8081 14.9306C45.8551 14.5906 45.392 14.4416 45.28 14.7856Z" fill="black"/>
<path d="M47.2459 22.2265C48.5899 19.6825 49.4679 17.0655 52.1129 15.5535C53.1759 14.9455 56.2149 15.1085 55.8009 16.9305C55.6519 17.5885 54.6139 18.0085 54.0829 18.2685C52.6139 18.9875 50.9849 19.3815 49.4389 19.9005C48.4869 20.2205 47.0418 20.7225 47.1098 21.9215C47.1188 22.0745 47.3069 22.1735 47.4229 22.0515C48.7209 20.6945 51.6569 20.3695 53.3379 19.7465C54.7259 19.2315 56.8069 18.4495 56.9079 16.7105C57.0459 14.3505 53.7498 13.7955 52.1398 14.3805C48.8178 15.5905 47.8999 19.0865 46.8159 22.0465C46.7259 22.2975 47.1239 22.4595 47.2459 22.2265Z" fill="black"/>
<path d="M47.1681 22.3216C48.5231 21.2976 49.8231 20.2196 51.2511 19.2966C52.7061 18.3576 54.6061 18.1736 55.9571 17.1646C56.3201 16.8936 56.3501 16.2436 55.8201 16.1226C54.1381 15.7366 52.2791 16.7876 50.8621 17.6166C49.1181 18.6376 47.6731 20.1456 46.8311 21.9866C46.7411 22.1806 46.9491 22.4876 47.1681 22.3216Z" fill="black"/>
<path d="M55.7199 15.9946C54.5439 14.7436 52.6359 15.4676 51.3709 16.1766C50.1529 16.8586 47.9409 18.4946 48.2559 20.1136C48.3319 20.5056 48.7979 20.6166 49.1109 20.4616C50.0939 19.9736 50.7629 18.6856 51.6649 18.0116C52.7889 17.1726 54.019 16.7136 55.42 16.7216C55.8 16.7236 55.9699 16.2616 55.7199 15.9946Z" fill="black"/>
<path d="M48.9885 20.8175C50.1265 20.1025 51.5055 19.7285 52.7795 19.3205C53.8615 18.9745 55.1915 18.6415 55.7185 17.5335C55.8345 17.2885 55.6935 17.0295 55.4175 17.0105C54.1385 16.9255 52.7945 17.6785 51.6265 18.1295C50.3985 18.6035 49.3855 19.2055 48.5195 20.2105C48.2445 20.5295 48.5985 21.0635 48.9885 20.8175Z" fill="black"/>
<path d="M31.7751 36.6966C29.4221 35.7146 27.0111 34.7916 24.4121 35.0926C23.1561 35.2386 21.0191 36.3276 21.0581 37.8506C21.1061 39.6656 22.5741 40.6286 24.2711 40.3606C25.2911 40.1996 26.1961 39.3426 27.0261 38.8026C28.6111 37.7726 30.3451 37.5616 32.1681 37.3816C32.3571 37.3626 32.4821 37.0906 32.2741 36.9886C30.1401 35.9436 27.0431 37.3896 25.0841 38.3726C24.7031 38.6016 24.2991 38.7796 23.8701 38.9046C22.6231 37.9976 22.5021 37.3056 23.5091 36.8286C24.2751 36.3016 25.1551 36.2446 26.0521 36.2046C27.9351 36.1216 29.9261 36.3536 31.6861 37.0206C31.8911 37.0986 31.9701 36.7786 31.7751 36.6966Z" fill="black"/>
<path d="M31.925 36.6105C28.957 35.6675 25.618 35.4815 23.201 37.8405C22.444 38.5785 23.43 39.8955 24.338 39.3145C26.634 37.8435 29.174 37.4245 31.857 37.1175C32.138 37.0845 32.218 36.7025 31.925 36.6105Z" fill="black"/>
<path d="M31.2109 37.1216C31.6249 37.2416 32.2099 37.4486 32.6399 37.3546C32.7169 37.3376 32.7569 37.2365 32.7139 37.1705C32.3969 36.6795 31.6119 36.6445 31.1769 36.9905C31.1279 37.0295 31.1589 37.1066 31.2109 37.1216Z" fill="black"/>
<path d="M33.9815 36.8784C32.2225 36.8574 30.2865 38.0724 29.4335 39.6014C28.8465 40.6524 28.3575 42.7234 29.6935 43.4654C33.2655 45.4504 33.2655 39.1794 34.5005 37.5414C34.6375 37.3594 34.4125 37.1534 34.2305 37.1914C32.2765 37.6064 32.4605 40.7234 31.5815 42.0894C31.3115 42.5084 30.4875 42.6264 30.2885 42.0824C30.1065 41.5904 30.3115 40.9854 30.4725 40.5174C30.9265 39.1994 32.5905 37.4394 33.9825 37.3384C34.2735 37.3174 34.2815 36.8824 33.9815 36.8784Z" fill="black"/>
<path d="M33.7099 36.9845C32.0069 38.1845 30.1218 40.5665 30.6528 42.7975C30.8498 43.6225 31.9259 43.4835 32.1839 42.7975C32.5079 41.9355 32.5898 40.9675 32.8728 40.0805C33.1718 39.1445 33.6119 38.2285 34.1059 37.3805C34.2439 37.1415 33.9559 36.8115 33.7099 36.9845Z" fill="black"/>
<path d="M164.259 39.4194C165.346 40.3234 165.239 41.7924 164.292 42.8094C162.826 44.3864 160.752 45.2794 158.577 44.8304C154.395 43.9654 153.554 39.6794 154.312 36.0224C155.279 31.3594 159.296 27.0804 162.839 24.1714C166.672 21.0244 171.383 18.8674 176.324 18.3324C186.043 17.2804 197.564 27.5724 192.298 37.5124C191.21 39.5644 186.563 43.9974 184.385 40.5984C182.088 37.0134 187.402 34.0944 189.965 33.0204C200.176 28.7384 212.253 33.5594 222.092 36.6254C230.643 39.2904 240.011 42.6154 249.07 42.0454C254.045 41.7324 258.25 39.3834 260.736 35.0174C263.649 29.8994 261.464 22.9784 254.814 23.0364C252.028 23.0604 248.814 25.7004 249.297 28.6524C249.575 30.3574 251.813 32.6234 253.665 32.1714C254.854 31.8814 255.542 30.5594 255.871 29.4984C256.477 27.5384 254.73 27.3264 253.23 27.7004C252.457 27.8924 252.157 26.7654 252.904 26.5174C259.657 24.2794 258.674 34.0494 253.325 34.2154C249.999 34.3194 246.616 30.2834 247.47 27.0184C248.608 22.6734 253.351 20.6224 257.466 21.7274C261.559 22.8274 264.097 26.7774 263.536 30.9434C262.927 35.4754 259.879 39.3844 255.843 41.4254C247.463 45.6644 236.742 41.9084 228.38 39.5544C218.582 36.7964 208.535 32.6194 198.225 32.7264C195.314 32.7564 192.439 33.3534 189.761 34.4884C188.096 35.1934 184.349 37.2374 185.436 39.6184C186.688 42.3624 190.559 37.8384 191.195 36.8684C193.127 33.9204 192.532 30.2854 190.999 27.3444C188.549 22.6464 183.425 19.5344 178.22 19.1894C173.22 18.8574 168.322 21.0564 164.351 23.9124C160.48 26.6974 157.129 30.6764 155.671 35.2634C155.03 37.2754 155.079 39.6284 156.107 41.4944C156.783 42.7234 158.095 43.1764 159.405 43.3014C160.314 43.3884 164.798 41.9554 163.379 40.2984C162.856 39.6844 163.644 38.9084 164.259 39.4194Z" fill="black"/>
<path d="M254.271 41.2746C260.152 38.1876 266.749 35.9796 273.119 34.1526C278.896 32.4956 285.206 31.1426 291.22 32.1066C296.045 32.8796 300.44 36.1206 301.963 40.8576C303.406 45.3496 298.943 49.7316 295.13 51.0506C292.132 52.0876 288.592 50.7106 287.408 47.7026C286.344 44.9946 287.127 41.7586 289.988 40.5756C292.968 39.3436 296.531 40.3996 296.812 43.9476C297.07 47.1986 293.37 48.7286 290.947 46.9966C290.256 46.5016 290.679 45.4966 291.516 45.6466C292.613 45.8436 293.876 46.1276 294.594 45.0486C295.265 44.0406 294.792 42.7256 293.87 42.0866C291.181 40.2226 288.126 42.8436 288.196 45.6086C288.277 48.7636 291.305 50.4586 294.152 50.0026C298.374 49.3256 302.112 44.3506 300.208 40.2166C296.513 32.1966 286.791 32.5606 279.475 33.8946C270.801 35.4766 262.911 39.6296 254.345 41.4536C254.241 41.4746 254.168 41.3276 254.271 41.2746Z" fill="black"/>
<path d="M253.259 41.5045C259.184 38.8225 262.48 34.4645 265.443 28.8205C267.109 25.6485 268.402 22.2935 269.596 18.9215C270.753 15.6555 271.187 12.3065 271.983 8.95949C272.007 8.86049 272.162 8.88249 272.16 8.98349C272.054 16.0075 269.491 23.1345 266.239 29.2855C263.444 34.5715 259.634 40.4985 253.352 41.7255C253.226 41.7505 253.126 41.5645 253.259 41.5045Z" fill="black"/>
<path d="M255.55 41.1616C258.651 40.1926 261.143 36.5796 263.65 34.5826C267.289 31.6866 271.093 28.8616 275.074 26.4536C278.814 24.1906 282.927 22.5566 287.066 21.1886C291.135 19.8436 295.532 18.5186 299.82 18.1746C300.038 18.1566 300.054 18.4706 299.869 18.5356C295.776 19.9606 291.431 20.6916 287.293 22.0116C282.636 23.4976 278.178 25.5026 274.036 28.1016C269.947 30.6676 265.635 33.5706 262.038 36.7936C260.221 38.4226 258.162 40.9586 255.59 41.3046C255.497 41.3176 255.456 41.1916 255.55 41.1616Z" fill="black"/>
<path d="M274.581 5.74141C274.92 6.62641 274.842 7.33941 274.333 8.15441C273.823 8.97241 272.856 9.56941 271.876 9.42141C270.815 9.26141 270.241 8.50641 270.115 7.48641C270.04 6.88041 270.369 5.51141 270.948 5.19541C271.012 5.15941 271.1 5.19041 271.12 5.26541C271.235 5.72441 271.056 6.22241 271.167 6.70841C271.288 7.23641 271.573 7.77541 272.117 7.94941C273.187 8.29141 274.278 6.73041 274.175 5.79641C274.147 5.54741 274.505 5.53941 274.581 5.74141Z" fill="black"/>
<path d="M270.815 5.26144C271.243 4.94244 271.867 4.92844 272.384 4.91244C273.075 4.89144 273.769 4.86644 274.447 5.02544C274.646 5.07244 274.802 5.27944 274.796 5.48344C274.773 6.22144 274.774 6.85644 274.254 7.41744C274.171 7.50744 273.99 7.46844 273.967 7.34144C273.852 6.71644 273.862 6.11844 273.845 5.48344C274.004 5.64144 274.162 5.80044 274.321 5.95844C273.681 6.04344 273.03 6.01544 272.385 6.01644C271.872 6.01744 271.244 6.02144 270.816 5.70644C270.649 5.58444 270.651 5.38344 270.815 5.26144Z" fill="black"/>
<path d="M274.432 5.68456C275.164 5.12256 275.828 4.48156 276.173 3.60656C276.519 2.73156 276.194 1.59256 275.079 1.59656C274.333 1.59956 273.916 2.89556 273.747 3.43456C273.586 3.95056 273.547 4.93656 273.15 5.31456C273.066 5.39456 272.947 5.38956 272.863 5.31456C272.152 4.68356 272.857 2.83956 273.155 2.15156C273.611 1.09656 274.512 0.345558 275.695 0.587558C278.882 1.23756 277.299 6.14056 274.768 6.48556C274.268 6.55356 274.026 5.99556 274.432 5.68456Z" fill="black"/>
<path d="M272.811 5.23051C272.419 4.93551 272.509 3.9675 272.484 3.5305C272.437 2.7475 272.563 1.26551 271.613 0.982507C269.72 0.419507 271.169 4.6165 270.959 5.3065C270.897 5.5095 270.655 5.56551 270.502 5.42751C269.795 4.78751 269.756 3.16751 269.734 2.27551C269.712 1.29451 270.092 0.129506 271.217 0.0125057C272.519 -0.122494 273.172 0.854507 273.354 2.02451C273.451 2.65151 273.41 3.28351 273.33 3.90951C273.285 4.25851 273.264 4.9655 272.983 5.2085C272.938 5.2455 272.863 5.26951 272.811 5.23051Z" fill="black"/>
<path d="M270.6 5.40252C270.406 4.79152 269.911 4.18252 269.555 3.65452C269.203 3.13452 268.707 2.38552 268.076 2.18452C267.834 2.10652 267.716 2.46952 267.654 2.63452C267.463 3.15652 267.656 3.56852 268.029 3.94052C268.764 4.67552 269.796 4.76052 270.737 5.02752C271.094 5.12852 271.154 5.74852 270.737 5.81052C269.523 5.98852 267.994 5.23952 267.22 4.32252C266.528 3.50052 266.546 2.04952 267.499 1.41952C268.363 0.848519 269.365 1.94652 269.832 2.54152C270.443 3.32252 270.966 4.34352 270.921 5.35852C270.914 5.54452 270.656 5.58052 270.6 5.40252Z" fill="black"/>
<path d="M302.63 17.3264C301.983 17.4744 301.425 17.5434 300.927 18.0274C300.679 18.2684 300.322 18.8634 300.716 19.1344C301.131 19.4204 302.263 19.4394 302.422 18.8344C302.611 18.1204 302.213 17.4374 302.304 16.7324C302.319 16.6214 302.451 16.5334 302.544 16.6324C303.132 17.2654 303.554 18.6484 303.233 19.4774C302.786 20.6314 300.966 20.6684 300.087 20.0224C298.236 18.6604 300.999 15.6244 302.683 16.9114C302.826 17.0214 302.842 17.2784 302.63 17.3264Z" fill="black"/>
<path d="M302.482 16.9825C301.434 15.2675 306.679 13.6805 307.851 14.2975C308.933 14.8675 308.664 16.1695 307.829 16.8235C306.816 17.6175 304.873 18.1645 303.603 17.8375C303.324 17.7655 303.296 17.3925 303.527 17.2465C304.23 16.8005 305.14 16.7665 305.933 16.5775C306.455 16.4535 306.976 16.2735 307.445 16.0115C307.968 15.7195 308.218 14.9785 307.504 14.7665C306.618 14.5045 305.391 15.1135 304.635 15.5045C304.129 15.7655 303.03 16.2705 302.933 16.9235C302.898 17.1475 302.582 17.1475 302.482 16.9825Z" fill="black"/>
<path d="M303.03 17.5696C303.654 17.0486 304.777 17.0906 305.541 17.0726C306.523 17.0506 307.808 17.1056 308.41 18.0096C309.115 19.0686 307.838 20.2656 306.885 20.4396C305.531 20.6866 303.825 20.1236 302.868 19.1866C302.634 18.9566 302.933 18.5796 303.215 18.7376C303.495 18.8966 304.203 18.7716 304.555 18.8316C305.125 18.9296 305.682 19.1856 306.15 19.5196C307.058 20.1686 307.448 21.2356 306.928 22.2566C306.45 23.1996 304.808 23.5736 303.924 23.0716C302.792 22.4276 302.14 21.0506 301.984 19.7956C301.948 19.5036 302.375 19.3516 302.557 19.5586C303.418 20.5326 304.238 23.3446 305.958 21.7896C306.677 21.1406 305.527 20.2696 305.082 19.9756C304.779 19.7756 303.565 19.0196 303.214 19.2296C303.165 19.0526 303.117 18.8746 303.069 18.6976C303.985 18.7026 304.766 19.0296 305.665 19.2126C306.154 19.3126 306.893 19.3836 307.225 18.9226C307.465 18.5906 307.352 18.4846 307.01 18.3576C306.256 18.0786 305.372 18.0886 304.579 18.0796C304.123 18.0736 303.434 18.0856 303.057 17.7956C302.993 17.7446 302.951 17.6356 303.03 17.5696Z" fill="black"/>
<path d="M164.003 39.6715C164.149 41.3205 162.521 41.8435 161.126 41.8975C159.288 41.9685 158.076 40.1975 157.555 38.6645C156.138 34.5025 160.276 30.7915 164.031 30.3145C167.254 29.9055 172.171 33.9685 168.349 36.7415C167.024 37.7025 164.322 38.3255 163.3 36.5405C162.452 35.0585 162.938 33.1105 164.911 33.4465C165.819 33.6005 165.607 35.1155 164.694 35.0505C165.165 35.7405 165.75 35.9465 166.45 35.6675C167.102 35.5405 167.654 35.1005 167.899 34.4825C168.338 33.3725 167.161 32.4075 166.368 31.9065C164.651 30.8235 162.409 31.2645 160.786 32.2545C158.815 33.4565 157.876 35.7085 158.315 37.9365C158.55 39.1285 159.463 40.4855 160.759 40.6495C161.627 40.7585 162.871 40.5155 163.151 39.5555C163.294 39.0645 163.961 39.1975 164.003 39.6715Z" fill="black"/>
<path d="M200.383 32.0855C204.439 31.5725 210.961 32.1055 211.794 37.0845C212.468 41.1095 208.44 44.2575 204.671 43.3755C201.529 42.6405 199.974 37.9785 203.692 36.9265C205.367 36.4525 207.29 37.0825 207.817 38.7795C208.327 40.4245 205.963 41.4755 204.769 40.7925C204.266 40.5035 204.347 39.8565 204.769 39.5515C205.648 38.9165 205.95 38.6865 204.617 38.4115C202.158 37.9035 202.11 40.1335 203.334 41.4715C205.267 43.5845 208.643 42.2915 210.109 40.3895C211.727 38.2925 210.791 35.4715 208.7 34.1935C206.341 32.7525 203.095 32.2005 200.383 32.3825C200.188 32.3955 200.198 32.1085 200.383 32.0855Z" fill="black"/>
<path d="M165.731 22.5816C171.337 20.0796 177.239 23.4866 183.025 22.1216C185.501 21.5386 188.511 20.2246 189.3 17.5906C189.866 15.6986 188.364 14.0026 186.917 13.1036C185.981 12.5226 182.857 12.3416 183.949 14.7366C184.352 15.6196 185.364 15.8266 185.993 15.0096C186.432 14.4376 187.562 14.5206 187.507 15.4196C187.275 19.1476 182.209 17.3786 181.999 14.3676C181.906 13.0506 183.392 11.5706 184.688 11.5806C186.398 11.5946 188.164 12.4556 189.191 13.8486C191.964 17.6136 188.343 20.9566 184.982 22.4126C178.819 25.0816 172.202 21.2596 165.866 22.9016C165.679 22.9516 165.544 22.6656 165.731 22.5816Z" fill="black"/>
<path d="M189.777 20.3056C191.408 19.1396 192.944 17.7406 193.673 15.8256C193.854 15.3506 193.983 14.8626 194.089 14.3656C194.175 13.9616 194.199 13.5246 194.138 13.1156C194.005 12.2226 193.132 12.8206 192.947 13.3456C192.152 15.5896 193.224 18.9456 190.581 20.2796C190.439 20.3516 190.217 20.3006 190.185 20.1186C190.161 19.9796 190.14 19.8756 190.203 19.7436C190.611 18.8846 191.023 18.0696 191.268 17.1446C191.505 16.2486 191.435 15.2756 191.561 14.3606C191.766 12.8826 192.456 10.8866 194.349 11.5376C196.029 12.1156 195.302 14.7326 194.895 15.8916C194.082 18.2056 192.154 19.8136 189.937 20.6836C189.703 20.7756 189.601 20.4316 189.777 20.3056Z" fill="black"/>
<path d="M190.026 20.5035C190.951 19.4415 191.34 17.7695 191.857 16.4745C192.358 15.2235 192.346 13.5665 193.154 12.5015C193.311 12.2945 193.58 12.2795 193.734 12.5015C194.67 13.8505 193.837 15.7185 193.206 17.0435C192.478 18.5755 191.631 19.7955 190.207 20.7365C190.059 20.8345 189.921 20.6245 190.026 20.5035Z" fill="black"/>
<path d="M193.908 12.1644C195.254 13.0914 194.61 15.6474 193.164 16.1344C192.881 16.2294 192.697 15.9444 192.731 15.7024C192.806 15.1634 193.109 14.6504 193.264 14.1274C193.443 13.5244 193.37 12.9454 193.471 12.3414C193.502 12.1594 193.76 12.0624 193.908 12.1644Z" fill="black"/>
<path d="M190.094 20.4365C191.353 19.5965 193.144 19.4115 194.624 19.2245C196.249 19.0205 199.12 20.3735 199.505 22.1095C199.871 23.7595 198.745 25.3735 196.947 25.0495C196.012 24.8815 195.114 24.4805 194.36 23.8975C193.819 23.4785 193.361 22.9725 192.877 22.4905C191.913 21.5305 191.057 21.3315 189.757 21.1665C189.45 21.1275 189.338 20.7785 189.601 20.5915C190.986 19.6075 192.591 20.7465 193.676 21.6925C194.34 22.2715 194.905 22.8895 195.663 23.3535C196.049 23.5905 196.471 23.7445 196.902 23.8715C198.403 24.3125 198.692 22.6745 197.87 21.7805C196.573 20.3705 194.695 20.4855 193.018 20.7555C192.219 20.8835 190.758 21.3165 190.054 20.7495C189.947 20.6645 189.997 20.5015 190.094 20.4365Z" fill="black"/>
<path d="M190.07 20.7234C190.626 19.5294 193.389 20.2464 194.314 20.4514C195.841 20.7894 198.077 21.7694 198.476 23.4634C198.718 24.4934 197.337 25.0864 196.775 24.1804C196.002 22.9354 194.542 22.3734 193.218 21.8774C192.322 21.5414 190.809 21.5384 190.092 20.8984C190.042 20.8524 190.044 20.7804 190.07 20.7234Z" fill="black"/>
<path d="M196.883 23.7106C196.119 23.7896 195.385 23.3506 194.752 22.9716C194.076 22.5666 193.174 21.9946 192.854 21.2456C192.745 20.9886 192.865 20.6406 193.195 20.6516C193.952 20.6786 194.641 21.2016 195.238 21.6256C195.891 22.0886 196.707 22.5816 197.133 23.2756C197.257 23.4776 197.09 23.6886 196.883 23.7106Z" fill="black"/>
<path d="M213.227 36.7794C214.997 37.9864 216.427 39.7344 216.887 41.8704C217.114 42.9244 217.162 44.7464 216.18 45.4674C215.005 46.3304 214.02 45.2764 213.629 44.2014C213.34 43.4094 213.304 42.4884 213.244 41.6554C213.146 40.2804 212.518 38.9094 212.699 37.5454C212.723 37.3604 212.964 37.1844 213.119 37.3714C214.792 39.3904 213.808 42.1264 214.917 44.3214C215.407 45.2934 215.712 43.4494 215.718 43.3744C215.756 42.9314 215.742 42.4594 215.667 42.0204C215.367 40.2784 214.08 38.4844 212.852 37.2634C212.609 37.0214 212.931 36.5784 213.227 36.7794Z" fill="black"/>
<path d="M213.003 36.6744C214.073 37.8624 214.73 39.0834 215.236 40.5974C215.646 41.8244 216.322 43.8104 215.335 44.8744C215.152 45.0714 214.866 45.0324 214.679 44.8744C213.789 44.1254 213.92 42.6594 213.735 41.5784C213.463 39.9934 213.074 38.4094 212.717 36.8414C212.68 36.6834 212.882 36.5394 213.003 36.6744Z" fill="black"/>
<path d="M215.444 37.1476C217.698 37.0926 219.748 38.0206 221.698 39.0796C222.894 39.7276 224.212 41.1846 223.995 42.6216C223.694 44.6006 220.795 43.5066 219.906 42.8526C219.108 42.2656 218.447 41.5116 217.759 40.8036C216.844 39.8616 215.873 38.9406 215.522 37.6386C215.495 37.5346 215.602 37.4716 215.688 37.5106C217.01 38.0976 218.078 39.3466 219.09 40.3576C219.518 40.7846 219.953 41.1996 220.414 41.5906C220.602 41.7486 222.792 42.9556 222.559 42.0236C222.309 41.0236 221 40.2006 220.214 39.6676C218.807 38.7136 217.199 37.5426 215.443 37.4446C215.254 37.4336 215.252 37.1526 215.444 37.1476Z" fill="black"/>
<path d="M215.569 37.2064C216.913 37.1924 217.947 38.1604 218.894 38.9994C219.621 39.6444 220.358 40.2214 221.164 40.7664C221.861 41.2374 222.411 41.5364 222.728 42.3204C222.868 42.6684 222.507 43.1464 222.132 43.1014C220.816 42.9434 219.525 41.6455 218.546 40.7855C217.423 39.7975 216.535 38.5644 215.417 37.5744C215.272 37.4444 215.392 37.2084 215.569 37.2064Z" fill="black"/>
<path d="M264.054 25.1156C264.96 21.9876 265.88 17.5676 264.222 14.4846C262.954 14.4766 262.513 14.9616 262.9 15.9416C262.986 16.3176 263.091 16.6876 263.217 17.0516C263.472 17.8566 263.825 18.6286 264.085 19.4316C264.595 21.0116 264.865 23.1536 264.317 24.7396C264.246 24.9476 263.965 25.0016 263.846 24.8016C263.131 23.6046 263.251 21.9546 262.992 20.5996C262.708 19.1156 262.031 17.7456 261.683 16.2766C261.31 14.7046 261.915 12.5836 263.879 12.6946C265.564 12.7896 266.062 15.4266 266.256 16.6726C266.695 19.4966 265.612 22.7616 264.437 25.2776C264.336 25.4976 263.988 25.3406 264.054 25.1156Z" fill="black"/>
<path d="M263.98 24.8554C263.623 23.3014 263.553 21.7664 263.482 20.1744C263.392 18.1494 262.543 16.1704 262.632 14.1714C262.649 13.8004 263.102 13.5784 263.379 13.8614C265.79 16.3264 265.146 21.7994 264.409 24.8554C264.359 25.0674 264.03 25.0694 263.98 24.8554Z" fill="black"/>
<path d="M263.333 14.7856C263.739 16.0406 264.388 17.7476 263.899 19.0566C263.823 19.2616 263.508 19.3576 263.392 19.1226C262.784 17.8996 262.991 16.2576 262.805 14.9306C262.758 14.5906 263.222 14.4416 263.333 14.7856Z" fill="black"/>
<path d="M261.367 22.2265C260.023 19.6825 259.145 17.0655 256.5 15.5535C255.437 14.9455 252.398 15.1085 252.812 16.9305C252.961 17.5885 253.999 18.0085 254.53 18.2685C255.999 18.9875 257.628 19.3815 259.174 19.9005C260.126 20.2205 261.571 20.7225 261.503 21.9215C261.494 22.0745 261.306 22.1735 261.19 22.0515C259.892 20.6945 256.956 20.3695 255.275 19.7465C253.887 19.2315 251.806 18.4495 251.705 16.7105C251.567 14.3505 254.863 13.7955 256.473 14.3805C259.795 15.5905 260.713 19.0865 261.797 22.0465C261.888 22.2975 261.489 22.4595 261.367 22.2265Z" fill="black"/>
<path d="M261.446 22.3216C260.092 21.2976 258.791 20.2196 257.363 19.2966C255.908 18.3576 254.008 18.1736 252.657 17.1646C252.294 16.8936 252.263 16.2436 252.794 16.1226C254.476 15.7366 256.335 16.7876 257.752 17.6166C259.496 18.6376 260.941 20.1456 261.783 21.9866C261.873 22.1806 261.665 22.4876 261.446 22.3216Z" fill="black"/>
<path d="M252.894 15.9946C254.07 14.7436 255.978 15.4676 257.243 16.1766C258.461 16.8586 260.673 18.4946 260.358 20.1136C260.282 20.5056 259.816 20.6166 259.503 20.4616C258.52 19.9736 257.851 18.6856 256.949 18.0116C255.825 17.1726 254.595 16.7136 253.194 16.7216C252.814 16.7236 252.644 16.2616 252.894 15.9946Z" fill="black"/>
<path d="M259.624 20.8175C258.486 20.1025 257.107 19.7285 255.833 19.3205C254.751 18.9745 253.421 18.6415 252.894 17.5335C252.778 17.2885 252.919 17.0295 253.195 17.0105C254.474 16.9255 255.818 17.6785 256.986 18.1295C258.213 18.6035 259.227 19.2055 260.093 20.2105C260.368 20.5295 260.015 21.0635 259.624 20.8175Z" fill="black"/>
<path d="M276.837 36.6966C279.19 35.7146 281.601 34.7916 284.2 35.0926C285.456 35.2386 287.593 36.3276 287.554 37.8506C287.506 39.6656 286.038 40.6286 284.341 40.3606C283.321 40.1996 282.416 39.3426 281.586 38.8026C280.001 37.7726 278.267 37.5616 276.444 37.3816C276.255 37.3626 276.13 37.0906 276.337 36.9886C278.471 35.9436 281.569 37.3896 283.528 38.3726C283.909 38.6016 284.313 38.7796 284.742 38.9046C285.989 37.9976 286.11 37.3056 285.103 36.8286C284.337 36.3016 283.457 36.2446 282.56 36.2046C280.677 36.1216 278.686 36.3536 276.926 37.0206C276.722 37.0986 276.643 36.7786 276.837 36.6966Z" fill="black"/>
<path d="M276.69 36.6105C279.658 35.6675 282.997 35.4815 285.414 37.8405C286.171 38.5785 285.184 39.8955 284.277 39.3145C281.981 37.8435 279.441 37.4245 276.759 37.1175C276.477 37.0845 276.397 36.7025 276.69 36.6105Z" fill="black"/>
<path d="M277.402 37.1216C276.988 37.2416 276.403 37.4486 275.973 37.3546C275.896 37.3376 275.856 37.2365 275.899 37.1705C276.216 36.6795 277.001 36.6445 277.436 36.9905C277.485 37.0295 277.454 37.1066 277.402 37.1216Z" fill="black"/>
<path d="M274.632 36.8784C276.391 36.8574 278.327 38.0724 279.18 39.6014C279.767 40.6524 280.256 42.7234 278.92 43.4654C275.348 45.4504 275.348 39.1794 274.113 37.5414C273.976 37.3594 274.201 37.1534 274.383 37.1914C276.337 37.6064 276.154 40.7234 277.032 42.0894C277.302 42.5084 278.126 42.6264 278.325 42.0824C278.507 41.5904 278.303 40.9854 278.141 40.5174C277.687 39.1994 276.023 37.4394 274.631 37.3384C274.339 37.3174 274.331 36.8824 274.632 36.8784Z" fill="black"/>
<path d="M274.903 36.9845C276.606 38.1845 278.491 40.5665 277.96 42.7975C277.763 43.6225 276.687 43.4835 276.429 42.7975C276.105 41.9355 276.023 40.9675 275.741 40.0805C275.442 39.1445 275.002 38.2285 274.508 37.3805C274.369 37.1415 274.657 36.8115 274.903 36.9845Z" fill="black"/>
</svg>
