<svg width="421" height="413" viewBox="0 0 421 413" fill="none" xmlns="http://www.w3.org/2000/svg">
<path d="M118.815 44.0621L263.148 22.7141L395.815 203.988L312.481 371.996L165.815 386.544L26.4814 203.988L118.815 44.0621Z" stroke="#E3AE56" stroke-width="2" stroke-miterlimit="10"/>
<path d="M371.074 111.655L393.834 267.144L259.148 394.5L51.2224 296.322L31.7354 140.117L179.148 15.5459L371.074 111.655Z" stroke="#C48E68" stroke-width="2" stroke-miterlimit="10"/>
<path d="M309.254 71.7771C315.279 68.6501 321.894 66.5011 328.704 66.1551C336.277 65.7701 343.999 67.1281 351.598 67.2241C357.286 67.2961 362.18 66.7011 367.536 64.7671" stroke="#93A0DD" stroke-width="2" stroke-miterlimit="10"/>
<path d="M376.833 35.267C377.371 32.463 377.354 29.787 380.155 28.251C376.313 28.549 372.234 30.035 368.863 31.865C365.373 33.76 362.292 36.372 359.708 39.378C355.698 44.043 352.851 49.605 350.614 55.336C349.963 57.004 349.354 58.705 348.4 60.221C346.695 62.932 344.019 64.86 341.397 66.698C350.371 71.038 362.448 62.809 367.829 56.026C371.003 52.025 373.164 47.34 374.773 42.519C375.559 40.162 376.364 37.71 376.833 35.267Z" fill="#93A0DD"/>
<path d="M344.311 65.8601C346.324 65.1281 348.22 64.1311 349.94 62.8911C351.679 61.6801 353.261 60.2551 354.675 58.6861C356.103 57.1231 357.321 55.4231 358.313 53.5531C359.324 51.6951 360.142 49.7351 361.111 47.7951C363.108 43.9681 365.537 40.3631 368.404 37.1461C369.843 35.5431 371.372 34.0231 372.99 32.6091C374.63 31.2201 376.333 29.9061 378.148 28.7661C376.466 30.0911 374.836 31.4721 373.321 32.9711C371.785 34.4451 370.336 36.0061 368.987 37.6471C366.283 40.9191 363.893 44.4551 362 48.2481C361.03 50.1211 360.169 52.1031 359.108 53.9901C358.059 55.8791 356.782 57.6971 355.232 59.2111C352.219 62.3001 348.482 64.7961 344.311 65.8601Z" fill="#AEC3E8"/>
<path d="M391.825 69.8091C389.968 70.5691 388.015 71.0771 385.966 71.2571C378.201 71.9391 370.852 69.6151 363.405 67.8401C362.875 67.7141 360.433 66.7521 360.026 67.0021C364.102 64.5001 366.695 60.9231 369.86 57.4751C378.463 48.1021 391.233 41.4091 404.291 43.4281C407.673 43.9511 411.041 44.5541 414.41 45.1561C414.268 45.1311 410.275 52.3101 409.801 52.9951C405.393 59.3791 399.413 66.7021 391.825 69.8091Z" fill="#AEC3E8"/>
<path d="M411.423 46.113C407.587 48.5 403.738 50.858 399.805 53.093C395.878 55.342 391.81 57.341 387.699 59.234C383.55 61.045 379.332 62.733 374.98 64.011C372.803 64.641 370.611 65.221 368.389 65.668C366.163 66.088 363.927 66.45 361.674 66.641C366.119 65.831 370.487 64.714 374.748 63.277C379.014 61.858 383.197 60.192 387.289 58.322C391.413 56.514 395.448 54.515 399.436 52.42C401.437 51.382 403.422 50.311 405.409 49.24C407.414 48.198 409.399 47.12 411.423 46.113Z" fill="#93A0DD"/>
<path d="M411.675 77.738C409.515 75.72 406.815 74.284 403.934 73.623" stroke="#9D96C8" stroke-miterlimit="10"/>
<path d="M415.937 70.9102C379.154 80.2772 340.871 83.7272 303.006 81.0892" stroke="#9D96C8" stroke-miterlimit="10"/>
<path d="M420.507 70.2311C420.921 67.0121 416.17 66.1301 415.182 69.1851C413.873 73.2401 420.057 73.7251 420.507 70.2311Z" fill="#F23C5A"/>
<path d="M414.94 77.943C415.354 74.724 410.603 73.842 409.615 76.897C408.305 80.951 414.49 81.437 414.94 77.943Z" fill="#F23C5A"/>
<path d="M379.247 67.4001C378.457 71.3681 376.81 75.3891 374.526 78.9281" stroke="#9D96C8" stroke-miterlimit="10"/>
<path d="M381.79 66.6781C383.445 69.4691 379.432 72.1621 377.315 69.7471C374.507 66.5431 379.993 63.6481 381.79 66.6781Z" fill="#F23C5A"/>
<path d="M403.866 64.3411C402.967 65.4331 401.327 68.1081 401.99 69.6341C402.747 71.3761 404.776 70.0871 405.755 69.2421C407.658 67.6011 409.429 65.6501 410.145 63.2411C410.278 62.7931 410.367 62.2851 410.137 61.8781C409.8 61.2801 408.96 61.2041 408.293 61.3651C406.768 61.7331 404.846 63.1511 403.866 64.3411Z" fill="#9D96C8"/>
<path d="M404.442 67.4741C402.715 70.0311 400.818 72.4741 398.768 74.7801" stroke="#9D96C8" stroke-miterlimit="10"/>
<path d="M383.993 87.451C382.85 86.618 380.595 84.436 380.856 82.793C381.154 80.917 383.441 81.66 384.6 82.234C386.852 83.349 389.054 84.796 390.348 86.95C390.589 87.351 390.801 87.821 390.68 88.272C390.503 88.935 389.708 89.218 389.022 89.229C387.453 89.253 385.239 88.359 383.993 87.451Z" fill="#9D96C8"/>
<path d="M383.768 84.273C381.458 82.227 379.012 80.335 376.452 78.613" stroke="#9D96C8" stroke-miterlimit="10"/>
<path d="M403.574 80.782C402.476 79.891 399.789 78.27 398.268 78.944C396.531 79.713 397.835 81.733 398.687 82.706C400.342 84.597 402.305 86.355 404.719 87.053C405.168 87.183 405.677 87.268 406.082 87.036C406.677 86.695 406.747 85.854 406.582 85.188C406.202 83.665 404.771 81.753 403.574 80.782Z" fill="#9D96C8"/>
<path d="M400.444 81.3781C397.875 79.6691 395.419 77.7901 393.098 75.7561" stroke="#9D96C8" stroke-miterlimit="10"/>
<path d="M387.858 66.166C387.216 67.426 386.19 70.392 387.167 71.739C388.281 73.277 389.985 71.581 390.759 70.545C392.264 68.532 393.573 66.246 393.753 63.739C393.786 63.273 393.763 62.758 393.452 62.41C392.994 61.899 392.157 62.006 391.54 62.307C390.129 62.994 388.558 64.792 387.858 66.166Z" fill="#9D96C8"/>
<path d="M389.094 69.1021C387.959 71.9711 386.633 74.765 385.128 77.459" stroke="#9D96C8" stroke-miterlimit="10"/>
<path d="M394.19 149.503C394.048 146.924 392.526 144.013 391.486 142.084C390.489 140.236 389.284 138.469 388.389 136.584C387.756 135.251 386.704 133.107 385.366 132.315C389.354 134.676 393.734 136.541 398.351 136.951C403.026 137.366 411.417 136.043 412.615 130.424C413.891 124.438 406.49 119.377 401.523 118.174C397.948 117.308 394.147 116.817 390.475 117.245C393.649 116.077 396.86 114.889 399.644 112.969C401.356 111.788 402.901 110.304 404.014 108.537C407.155 103.547 402.536 99.0088 397.554 98.7358C393.653 98.5218 389.294 99.7108 385.613 100.924C381.738 102.201 378.027 103.954 374.524 106.04C371.21 108.014 368.015 110.341 365.759 113.469C364.651 115.006 363.789 116.711 363.122 118.485C362.345 120.55 361.827 122.733 361.834 124.939C361.847 129.065 363.684 132.877 365.873 136.277C368.069 139.688 370.572 143.132 373.242 146.187C376.11 149.469 379.653 152.254 383.76 153.714C386.525 154.697 389.559 155.455 392.171 153.78C393.784 152.742 394.283 151.194 394.19 149.503Z" fill="#FBC9C3"/>
<path d="M381.139 114.967C380.995 114.455 380.589 114.036 379.82 114.032C378.419 114.024 378.716 115.584 379.365 116.332C380.514 117.655 381.453 116.087 381.139 114.967Z" fill="#581F36"/>
<path d="M380.248 115.55C379.721 115.712 379.195 115.875 378.668 116.037C376.704 116.642 374.74 117.248 372.776 117.854" stroke="#581F36" stroke-miterlimit="10"/>
<path d="M379.839 122.387C379.918 121.861 379.72 121.313 379.021 120.993C377.747 120.41 377.376 121.954 377.661 122.903C378.165 124.581 379.666 123.537 379.839 122.387Z" fill="#581F36"/>
<path d="M378.789 122.553C378.242 122.485 377.695 122.416 377.148 122.348C375.109 122.093 373.07 121.837 371.03 121.582" stroke="#581F36" stroke-miterlimit="10"/>
<path d="M381.45 127.516C381.529 126.99 381.331 126.441 380.632 126.121C379.358 125.538 378.987 127.082 379.272 128.031C379.775 129.71 381.276 128.666 381.45 127.516Z" fill="#581F36"/>
<path d="M380.399 127.682C379.852 127.614 379.305 127.545 378.758 127.477C376.719 127.222 374.68 126.966 372.64 126.711" stroke="#581F36" stroke-miterlimit="10"/>
<path d="M377.938 133.597C378.18 133.123 378.165 132.54 377.602 132.016C376.577 131.06 375.738 132.409 375.708 133.399C375.656 135.149 377.41 134.633 377.938 133.597Z" fill="#581F36"/>
<path d="M376.888 133.423C376.391 133.185 375.893 132.948 375.396 132.71C373.542 131.824 371.687 130.938 369.833 130.052" stroke="#581F36" stroke-miterlimit="10"/>
<path d="M360.558 116.654C361.638 113.347 363.713 110.341 367.655 111.624C368.501 111.9 369.367 112.185 370.061 112.735C370.201 112.846 370.337 112.969 370.508 113.025C370.716 113.094 370.944 113.054 371.164 113.047C372.197 113.016 373.166 113.866 373.258 114.884C373.377 114.786 373.5 114.722 373.624 114.688C374.727 114.389 375.944 116.443 375.433 117.385C375.243 117.735 374.904 117.979 374.576 118.21C374.842 118.579 375.114 118.962 375.205 119.407C375.297 119.853 375.159 120.382 374.76 120.618C374.955 121.05 375.042 121.53 375.012 122.005C374.969 122.684 374.991 123.028 374.484 123.494C373.799 124.123 373.63 123.996 373.711 124.814C373.787 125.584 374.465 125.937 374.006 126.856C373.653 127.562 372.799 127.988 372.024 127.845C372.395 128.707 372.613 129.711 372.24 130.583C371.867 131.455 370.71 132.036 369.913 131.535C369.801 132.683 368.365 133.501 367.32 133.012C367.485 133.612 367.177 134.313 366.619 134.612C366.308 134.778 365.95 134.823 365.601 134.865C364.219 135.032 362.751 135.187 361.505 134.596C359.677 133.729 358.925 131.552 358.683 129.551C358.159 125.222 359.194 120.83 360.558 116.654Z" fill="#581F36"/>
<path d="M379.466 109.083C386.894 104.916 392.893 98.7329 395.388 90.4489C396.606 86.4049 396.708 77.9289 391.606 76.1859C387.686 74.8459 383.111 79.4529 380.647 81.9159C374.367 88.1939 368.704 95.0879 363.928 102.583C360.959 107.244 358.005 112.331 356.732 117.757C354.953 125.339 355.142 133.333 356.937 140.912C358.224 146.346 360.308 151.583 363.019 156.462C365.494 160.916 368.544 166.267 373.153 168.805C374.404 169.494 375.92 169.955 377.251 169.437C379.007 168.753 379.75 166.675 379.976 164.804C380.695 158.868 378.34 152.997 375.528 147.72C372.566 142.162 369.739 136.997 364.698 132.994C367.69 133.351 370.939 133.439 373.469 131.803C376.719 129.701 377.76 125.041 376.23 121.486C374.7 117.931 371.036 115.566 367.21 114.985C371.278 112.977 375.469 111.325 379.466 109.083Z" fill="#FED3D9"/>
<path d="M399.056 104.911C397.004 106.734 394.684 108.206 392.272 109.486C389.847 110.739 387.314 111.806 384.646 112.45C387.017 111.073 389.424 109.864 391.81 108.6C394.21 107.363 396.574 106.076 399.056 104.911Z" fill="#FAC3D2"/>
<path d="M404.696 128.89C401.528 128.648 398.419 128.22 395.3 127.825C392.185 127.4 389.072 127.008 385.949 126.418C389.122 126.218 392.291 126.434 395.43 126.834C398.566 127.263 401.682 127.876 404.696 128.89Z" fill="#FAC3D2"/>
<path d="M378.133 137.41C379.93 139.285 381.487 141.346 382.982 143.448C384.453 145.568 385.862 147.732 387.013 150.061C385.204 148.172 383.653 146.12 382.164 144.022C380.699 141.908 379.296 139.752 378.133 137.41Z" fill="#FAC3D2"/>
<path d="M387.835 84.625C386.922 86.812 385.793 88.904 384.545 90.923C383.305 92.949 381.894 94.868 380.389 96.707C378.866 98.531 377.244 100.276 375.487 101.874C374.604 102.668 373.707 103.444 372.79 104.195C371.845 104.913 370.907 105.635 369.915 106.284C370.338 105.869 370.766 105.461 371.201 105.064L372.465 103.827C373.31 103.007 374.139 102.176 374.948 101.324C376.559 99.617 378.134 97.881 379.619 96.069C381.122 94.272 382.531 92.399 383.907 90.497C385.275 88.59 386.558 86.619 387.835 84.625Z" fill="#FAC3D2"/>
<path d="M373.737 125.052C371.544 125.297 369.358 125.17 367.195 124.905C365.036 124.609 362.89 124.173 360.833 123.373C363.038 123.394 365.179 123.65 367.324 123.914C369.464 124.21 371.599 124.511 373.737 125.052Z" fill="#FAC3D2"/>
<path d="M362.245 138.007C363.653 139.865 364.915 141.826 366.104 143.831C367.303 145.83 368.374 147.904 369.383 150.006C370.37 152.118 371.294 154.261 372.08 156.456C372.469 157.555 372.848 158.656 373.207 159.764C373.529 160.885 373.87 161.998 374.135 163.134L371.367 156.744C370.418 154.632 369.479 152.519 368.48 150.434C367.502 148.339 366.464 146.273 365.433 144.2L362.245 138.007Z" fill="#FAC3D2"/>
<path d="M312.185 69.1131C305.42 68.5511 298.677 66.8471 292.728 63.5131C286.113 59.8061 280.301 54.5441 273.92 50.4161C269.144 47.3261 264.685 45.2231 259.122 44.0081" stroke="#93A0DD" stroke-width="2" stroke-miterlimit="10"/>
<path d="M295.103 54.565C294.022 57.884 292.425 60.738 294.515 64.035C290.579 61.447 287.091 57.448 284.564 53.499C281.948 49.41 280.193 44.795 279.203 40.052C277.666 32.691 277.904 25.057 278.894 17.603C279.182 15.433 279.535 13.253 279.41 11.068C279.186 7.16 277.461 3.516 275.74 0C287.907 0.655 295.973 16.594 297.725 27.03C298.759 33.186 298.305 39.476 297.18 45.586C296.63 48.573 296.044 51.673 295.103 54.565Z" fill="#93A0DD"/>
<path d="M278.363 2.61792C282.164 6.25092 284.661 11.1259 286.043 16.2029C286.794 18.7369 287.087 21.4219 287.09 24.0579C287.108 26.6979 286.856 29.3239 286.784 31.9079C286.577 37.0939 287.047 42.2979 288.028 47.4009C288.513 49.9549 289.151 52.4819 289.936 54.9649C290.69 57.4599 291.629 59.8979 292.67 62.2979C291.424 59.9959 290.388 57.5809 289.471 55.1219C288.585 52.6509 287.856 50.1219 287.274 47.5579C286.124 42.4249 285.653 37.1409 285.784 31.8749C285.889 29.2339 286.168 26.6489 286.18 24.0569C286.218 21.4649 285.92 18.9109 285.3 16.3939C284.701 13.8769 283.839 11.4159 282.681 9.09392C281.555 6.75592 280.103 4.57192 278.363 2.61792Z" fill="#AEC3E8"/>
<path d="M235.543 64.025C233.594 66.112 232.184 68.386 228.995 68.194C232.406 69.988 236.649 70.902 240.477 71.149C244.44 71.404 248.439 70.834 252.227 69.666C258.106 67.853 263.478 64.6619 268.423 61.0019C269.862 59.9369 271.284 58.822 272.898 58.046C275.784 56.66 279.077 56.453 282.275 56.293C276.991 47.84 262.386 48.374 254.22 51.249C249.403 52.945 245.079 55.76 241.15 58.983C239.228 60.56 237.24 62.207 235.543 64.025Z" fill="#93A0DD"/>
<path d="M279.362 55.452C277.269 55 275.133 54.834 273.016 54.967C270.899 55.066 268.801 55.43 266.769 56.004C264.729 56.566 262.792 57.357 260.957 58.412C259.111 59.446 257.375 60.67 255.523 61.795C251.795 63.971 247.819 65.728 243.679 66.924C241.607 67.515 239.504 67.986 237.381 68.321C235.253 68.623 233.112 68.828 230.969 68.827C233.098 68.602 235.213 68.301 237.293 67.839C239.378 67.41 241.436 66.86 243.451 66.189C247.483 64.86 251.389 63.14 255.01 60.937C256.829 59.868 258.613 58.649 260.516 57.617C262.41 56.577 264.459 55.718 266.577 55.263C270.773 54.253 275.265 54.131 279.362 55.452Z" fill="#AEC3E8"/>
<path d="M241.249 26.8051C243.225 27.1501 245.149 27.7611 246.979 28.7001C253.915 32.2581 258.897 38.1381 264.255 43.6071C264.636 43.9961 266.19 46.1111 266.669 46.1161C261.886 46.0631 257.786 47.7091 253.272 48.9421C240.999 52.2941 226.626 51.1581 216.649 42.4951C214.065 40.2521 211.535 37.9471 209.005 35.6441C209.112 35.7411 216.315 31.7911 217.081 31.4631C224.21 28.4071 233.171 25.3941 241.249 26.8051Z" fill="#AEC3E8"/>
<path d="M212.042 36.4241C216.56 36.4461 221.074 36.5001 225.593 36.7031C230.114 36.8911 234.622 37.3651 239.11 37.9521C243.586 38.6291 248.055 39.4461 252.419 40.6821C254.597 41.3081 256.762 41.9851 258.88 42.7891C260.988 43.6191 263.073 44.5041 265.081 45.5421C260.887 43.8601 256.596 42.4801 252.224 41.4261C247.858 40.3551 243.43 39.5371 238.97 38.9411C234.517 38.2751 230.037 37.8181 225.545 37.4671C223.299 37.2801 221.048 37.1291 218.796 36.9781C216.545 36.7941 214.291 36.6501 212.042 36.4241Z" fill="#93A0DD"/>
<path d="M318.99 45.866C319.336 52.953 318.993 60.072 317.969 67.093" stroke="#93A0DD" stroke-width="2" stroke-miterlimit="10"/>
<path d="M317.399 42.85C314.347 38.99 310.598 35.763 307.404 32.03C304.547 28.692 302.247 24.778 300.64 20.708C299.766 18.494 298.982 16.105 299.443 13.77C299.904 11.434 302.056 9.27098 304.408 9.63398C305.521 9.80598 306.48 10.489 307.375 11.172C309.162 12.536 310.932 14.046 311.934 16.059C311.388 12.765 311.44 9.37198 312.088 6.09598C312.344 4.79998 312.705 3.49498 313.446 2.40098C314.187 1.30698 315.367 0.443982 316.686 0.364982C318.997 0.226982 320.743 2.36698 321.931 4.35398C323.258 6.57398 323.862 8.49998 324.182 11.634C325.416 9.49198 327.581 7.99498 329.978 7.45498C332.453 6.89698 333.729 8.12498 334.367 10.592C335.691 15.711 333.45 21.064 330.708 25.585C327.967 30.107 324.614 34.428 323.386 39.571C323.19 40.393 322.727 40.716 322.127 41.311C321.36 42.072 320.473 42.773 319.421 43.021C318.368 43.27 318.069 43.698 317.399 42.85Z" fill="#F9D6D6"/>
<path d="M318.084 36.124C318.39 34.553 318.848 32.995 320.007 31.843C320.284 31.567 320.584 31.3 320.949 31.16C321.314 31.02 321.758 31.028 322.064 31.271C322.318 31.473 322.44 31.809 322.441 32.133C322.444 32.812 322.243 33.666 322.103 34.334C321.907 35.265 321.626 36.176 321.442 37.11C322.363 35.407 323.986 34.099 325.845 33.56C326.189 33.46 326.591 33.396 326.878 33.61C327.202 33.853 327.219 34.329 327.166 34.73C326.813 37.401 324.807 39.534 323.845 42.05C323.333 43.389 323.119 44.833 322.53 46.14C321.941 47.447 320.832 48.664 319.404 48.792C317.93 48.925 317.12 47.531 316.527 46.399C315.334 44.118 313.786 42.023 311.956 40.212C310.927 39.194 309.787 38.235 309.122 36.95C308.881 36.484 308.71 35.916 308.941 35.444C309.064 35.193 309.288 35.004 309.532 34.867C310.326 34.421 311.336 34.493 312.164 34.872C312.992 35.251 313.665 35.902 314.26 36.592C313.646 35.57 313.081 34.31 313.097 33.094C313.118 31.581 314.334 30.543 315.74 31.466C316.136 31.726 316.41 32.133 316.649 32.542C317.304 33.657 317.789 34.868 318.084 36.124Z" fill="#8865A0"/>
<path d="M304.056 14.2991C305.763 16.5301 307.226 18.8961 308.585 21.3341C309.913 23.7841 311.12 26.3331 311.843 29.0531C310.393 26.6491 309.055 24.2421 307.708 21.8141C306.387 19.3771 305.079 16.9161 304.056 14.2991Z" fill="#CFB3D8"/>
<path d="M317.293 5.08398C317.982 6.99498 318.095 9.07898 318.151 11.077C318.221 13.087 318.233 15.096 318.234 17.105C318.201 21.123 318.092 25.141 317.677 29.157C317.3 25.137 317.229 21.118 317.234 17.1C317.253 15.091 317.284 13.082 317.373 11.073C317.446 9.06698 317.602 7.08398 317.293 5.08398Z" fill="#CFB3D8"/>
<path d="M323.158 28.613C323.26 25.588 323.985 22.602 325.069 19.774C326.179 16.957 327.663 14.265 329.635 11.968C328.33 14.693 327.065 17.366 326.001 20.137C324.911 22.897 324.036 25.723 323.158 28.613Z" fill="#CFB3D8"/>
<path d="M328.654 39.7599C329.996 37.3449 332.379 34.6999 335.006 35.5529C336.64 36.0839 337.56 37.7879 338.944 38.8069C341.357 40.5839 344.691 40.0269 347.643 39.5109C350.594 38.9949 354.061 38.7549 356.151 40.9019C357.521 42.3089 357.906 44.4119 357.865 46.3749C357.773 50.7949 355.89 54.9549 354.042 58.9699C355.408 57.5379 356.829 56.0669 358.653 55.2989C360.477 54.5309 362.829 54.6519 364.159 56.1179C366.648 58.8619 363.921 63.5309 365.525 66.8699C366.554 69.0119 369.028 69.9519 370.908 71.4049C373.969 73.7699 375.554 77.9029 374.86 81.7079C374.165 85.5129 371.222 88.8199 367.523 89.9499C368.902 91.4819 368.719 93.8819 367.966 95.8009C367.213 97.7199 365.987 99.4509 365.462 101.445C364.254 106.031 366.833 111.543 363.995 115.343C362.55 117.278 360.006 118.136 357.59 118.127C355.175 118.118 352.833 117.362 350.536 116.614C351.1 120.059 351.647 123.69 350.433 126.963C349.218 130.236 345.574 132.887 342.279 131.733C341.27 131.38 340.379 130.71 339.336 130.476C336.493 129.837 334.136 132.492 331.84 134.285C329.447 136.153 326.467 137.258 323.434 137.401C322.161 137.461 320.827 137.339 319.738 136.678C318.75 136.078 318.059 135.092 317.495 134.083C315.768 130.992 314.965 127.393 315.215 123.861C311.862 125.787 307.651 126.146 304.02 124.815C300.39 123.484 297.408 120.488 296.096 116.851C295.749 115.888 295.503 114.867 294.919 114.027C293.642 112.192 291.185 111.737 289.159 110.792C285.672 109.165 283.146 105.639 282.728 101.814C282.31 97.9889 284.015 93.9999 287.068 91.6589C283.379 91.0689 280.555 87.1859 281.13 83.4939C281.481 81.2429 282.884 79.2579 283.215 77.0039C283.751 73.3509 281.443 69.3409 283.207 66.0969C285.045 62.7169 289.812 62.7069 293.633 63.1529C294.346 60.3909 292.984 57.0069 294.861 54.8599C295.863 53.7149 297.477 53.3629 298.772 52.5639C300.802 51.3109 301.971 49.0079 303.907 47.6129C307.993 44.6689 312.178 46.3459 315.704 49.0809C318.429 51.1939 321.205 53.4579 322.714 56.5579C322.553 56.2279 323.432 53.4919 323.54 52.9269C323.833 51.3939 324.349 49.8649 324.847 48.3889C325.852 45.4069 327.125 42.5129 328.654 39.7599Z" fill="#F48FA8"/>
<path d="M333.57 116.815C332.341 116.854 331.204 116.064 330.499 115.056C329.794 114.048 329.442 112.842 329.102 111.66C328.184 113.451 326.286 114.699 324.277 114.832C322.269 114.965 320.223 113.977 319.077 112.322C318.657 111.715 318.334 111.01 317.737 110.576C316.553 109.715 314.896 110.279 313.448 110.063C311.035 109.704 309.477 107.101 309.439 104.661C309.4 102.221 310.493 99.9239 311.562 97.7299C310.485 99.6089 308.388 100.917 306.223 100.858C304.058 100.799 301.959 99.2669 301.424 97.1679C301.194 96.2679 301.239 95.3179 301.032 94.4129C300.334 91.3649 296.914 89.2049 297.047 86.0809C297.12 84.3699 298.332 82.8639 299.819 82.0129C301.306 81.1619 303.039 80.8619 304.74 80.6629C306.659 80.4379 308.59 80.3229 310.522 80.3169C308.09 79.2219 305.697 77.9229 303.823 76.0259C301.948 74.1279 300.632 71.5499 300.736 68.8849C300.84 66.2199 302.594 63.5599 305.169 62.8659C306.344 62.5489 307.661 62.6179 308.674 61.9439C309.505 61.3909 309.971 60.4379 310.688 59.7439C312.232 58.2509 314.751 58.2009 316.724 59.0469C318.698 59.8929 320.253 61.4659 321.755 63.0009C321.574 60.2949 324 57.7009 326.712 57.7019C327.512 57.7019 328.3 57.8949 329.098 57.9489C331.722 58.1269 334.392 56.8089 336.924 57.5229C340.55 58.5449 341.183 62.3329 341.054 65.5279C342.991 65.1999 344.997 65.0499 346.906 65.5109C348.815 65.9729 350.63 67.1189 351.533 68.8639C352.289 70.3239 352.365 72.0809 353.229 73.4789C353.987 74.7049 355.29 75.5479 355.921 76.8429C357.662 80.4139 354.711 82.7259 351.58 83.3289C350.573 83.5229 349.566 83.7169 348.559 83.9109C350.023 84.3519 351.51 84.8049 352.782 85.6529C354.054 86.5009 355.1 87.8189 355.247 89.3409C355.371 90.6219 354.858 91.8659 354.451 93.0869C353.613 95.5979 355.203 98.5669 353.593 100.819C352.944 101.727 351.886 102.271 350.803 102.542C348.839 103.033 346.683 102.696 344.962 101.63C346.316 102.747 347.099 104.523 347.009 106.276C346.919 108.029 345.959 109.716 344.498 110.688C343.109 111.613 341.385 111.879 339.899 112.64C337.471 113.883 336.634 116.717 333.57 116.815Z" fill="#E3607D"/>
<path d="M337.303 75.9079C337.383 76.0589 337.473 76.2049 337.577 76.3389C337.833 76.6679 338.267 76.7829 338.654 76.9369C339.041 77.0909 339.45 77.3659 339.484 77.7809C339.501 77.9859 339.42 78.1869 339.411 78.3919C339.394 78.7789 339.63 79.1369 339.654 79.5239C339.696 80.2169 339.065 80.7619 338.438 81.0609C337.811 81.3599 337.097 81.5569 336.643 82.0819C338.16 82.3309 339.575 83.1619 340.531 84.3669C340.63 84.4919 340.727 84.6249 340.774 84.7779C340.826 84.9499 340.813 85.1339 340.791 85.3119C340.662 86.4029 340.539 87.3479 340.469 88.4319C340.399 89.5159 339.989 90.6129 339.176 91.3569C338.83 91.6729 338.423 91.9169 337.999 92.1159C336.839 92.6589 335.525 92.8689 334.253 92.7149C333.826 92.6629 333.283 92.6249 333.078 93.0029C333.001 93.1449 332.997 93.3149 333.002 93.4759C333.025 94.2789 333.215 95.0749 333.17 95.8769C333.125 96.6789 332.776 97.5379 332.046 97.8739C331.8 97.9869 331.507 98.0309 331.26 97.9189C331.007 97.8049 330.846 97.5509 330.611 97.4049C330.132 97.1079 329.501 97.3299 329.029 97.6379C328.557 97.9459 328.107 98.3459 327.548 98.4179C326.986 98.4899 326.412 98.2089 325.858 98.3329C325.47 98.4199 325.142 98.6959 324.751 98.7629C324.117 98.8709 323.511 98.3879 323.222 97.8139C322.932 97.2399 322.871 96.5829 322.728 95.9569C322.694 95.8069 322.651 95.6519 322.546 95.5399C322.423 95.4089 322.236 95.3599 322.057 95.3469C321.326 95.2929 320.661 95.7249 319.988 96.0149C319.315 96.3049 318.424 96.4169 317.94 95.8659C317.701 95.5929 317.6 95.1929 317.289 95.0069C316.97 94.8169 316.562 94.9289 316.198 94.8569C315.608 94.7399 315.218 94.1449 315.108 93.5539C314.997 92.9629 315.097 92.3549 315.117 91.7539C315.124 91.5489 315.117 91.3309 315.007 91.1579C314.713 90.6939 314 90.8889 313.472 90.7359C312.627 90.4919 312.404 89.2979 312.838 88.5329C313.272 87.7679 314.11 87.3409 314.901 86.9559C314.582 86.4049 314.026 86.0399 313.486 85.7029C312.946 85.3649 312.384 85.0159 312.041 84.4789C311.697 83.9429 311.647 83.1599 312.104 82.7169C312.321 82.5069 312.625 82.3939 312.811 82.1559C313.25 81.5939 312.788 80.7749 312.894 80.0699C312.979 79.5049 313.422 79.0679 313.658 78.5469C314.041 77.7059 313.924 76.5869 314.645 76.0099C315.245 75.5299 316.142 75.6959 316.818 76.0599C317.494 76.4249 318.082 76.9619 318.808 77.2139C318.751 76.5469 318.695 75.8629 318.878 75.2189C319.061 74.5749 319.539 73.9709 320.194 73.8359C320.492 73.7739 320.822 73.8079 321.08 73.6449C321.471 73.3999 321.519 72.8229 321.876 72.5319C322.313 72.1759 322.955 72.4029 323.518 72.3789C324.527 72.3359 325.497 71.4379 326.432 71.8209C326.848 71.9909 327.127 72.3799 327.383 72.7499C327.877 73.4649 328.37 74.1799 328.864 74.8949C329.137 74.2479 329.409 73.5999 329.682 72.9529C329.845 72.5669 330.027 72.1559 330.381 71.9319C331.259 71.3749 331.561 72.4549 332.286 72.6559C332.867 72.8169 333.508 72.2079 334.043 72.4849C334.303 72.6199 334.44 72.9289 334.705 73.0539C334.833 73.1139 334.978 73.1239 335.117 73.1469C336.645 73.3979 336.728 74.8209 337.303 75.9079Z" fill="#E3425E"/>
<path d="M328.045 80.357C328.511 80.015 329.192 79.939 329.668 80.268C330.143 80.597 330.288 81.358 329.892 81.779C330.904 81.556 331.93 82.715 331.587 83.693C331.553 83.791 331.507 83.892 331.518 83.995C331.536 84.162 331.69 84.274 331.814 84.387C332.35 84.876 332.452 85.772 332.039 86.368C331.626 86.964 330.752 87.185 330.106 86.856C330.454 87.62 329.79 88.598 328.955 88.675C328.119 88.752 327.331 88.05 327.175 87.226C326.734 88.261 325.82 89.083 324.745 89.414C324.148 89.597 323.458 89.621 322.938 89.276C322.418 88.931 322.186 88.132 322.589 87.654C322.048 87.445 321.658 86.893 321.642 86.314C321.626 85.735 321.984 85.162 322.512 84.923C322.009 84.374 321.68 83.669 321.582 82.931C321.531 82.549 321.624 82.049 322.002 81.97C322.128 81.943 322.268 81.972 322.381 81.912C322.821 81.676 322.729 80.726 323.261 80.455C323.89 80.134 324.72 80.582 325.144 81.071C325.119 80.704 325.189 80.318 325.413 80.026C325.637 79.735 326.034 79.561 326.385 79.668C327.255 79.931 327.063 81.127 327.211 81.798C327.315 81.245 327.585 80.694 328.045 80.357Z" fill="#481F3B"/>
<path d="M318.978 82.2849C319.18 83.3109 321.089 83.2139 320.492 81.8189C320.378 81.5529 320.189 81.3079 319.926 81.1869C319.663 81.0669 319.321 81.0969 319.122 81.3069C318.886 81.5559 318.912 81.9479 318.978 82.2849Z" fill="#481F3B"/>
<path d="M329.478 77.436C328.646 78.07 329.575 79.74 330.564 78.589C330.752 78.37 330.889 78.091 330.881 77.802C330.873 77.513 330.695 77.22 330.418 77.133C330.091 77.032 329.751 77.229 329.478 77.436Z" fill="#481F3B"/>
<path d="M328.541 90.987C328.13 90.025 326.283 90.519 327.157 91.758C327.324 91.994 327.56 92.195 327.843 92.258C328.125 92.321 328.453 92.22 328.605 91.973C328.784 91.681 328.676 91.302 328.541 90.987Z" fill="#481F3B"/>
<path d="M332.53 89.3989C332.617 89.2889 332.659 89.1349 332.611 88.9469C332.461 88.3539 331.595 88.5949 331.679 89.1659C331.753 89.6749 332.3 89.6889 332.53 89.3989Z" fill="#481F3B"/>
<path d="M324.205 91.0998C324.242 91.2358 324.341 91.3598 324.52 91.4338C325.086 91.6648 325.406 90.8258 324.896 90.5538C324.443 90.3108 324.108 90.7418 324.205 91.0998Z" fill="#481F3B"/>
<path d="M332.689 82.662C332.726 82.798 332.825 82.923 333.004 82.996C333.57 83.227 333.89 82.388 333.38 82.116C332.927 81.873 332.592 82.305 332.689 82.662Z" fill="#481F3B"/>
<path d="M320.142 89.7119C320.179 89.8479 320.278 89.9719 320.457 90.0459C321.023 90.2769 321.343 89.4379 320.833 89.1659C320.38 88.9229 320.045 89.3539 320.142 89.7119Z" fill="#481F3B"/>
<path d="M324.805 78.0749C324.892 77.9649 324.934 77.8109 324.886 77.6229C324.736 77.0299 323.87 77.2709 323.954 77.8419C324.029 78.3509 324.575 78.3649 324.805 78.0749Z" fill="#481F3B"/>
<path d="M320.316 85.5549C320.403 85.4449 320.445 85.2909 320.397 85.1029C320.247 84.5099 319.381 84.7509 319.465 85.3219C319.54 85.8319 320.086 85.8449 320.316 85.5549Z" fill="#481F3B"/>
<path d="M310.191 66.186C311.332 66.802 312.241 67.661 313.072 68.584C313.879 69.527 314.612 70.541 315.072 71.754C313.993 71.037 313.141 70.156 312.321 69.243C311.524 68.309 310.763 67.349 310.191 66.186Z" fill="#DD3E5A"/>
<path d="M331.241 61.4438C331.184 62.7768 330.888 64.0008 330.563 65.2238C330.208 66.4378 329.826 67.6388 329.181 68.8068C329.05 67.4768 329.268 66.1968 329.601 64.9548C329.963 63.7208 330.44 62.5128 331.241 61.4438Z" fill="#DD3E5A"/>
<path d="M340.89 75.4629C342.042 74.4029 343.407 73.6729 344.822 73.0929C346.248 72.5419 347.743 72.1349 349.308 72.1169C347.956 72.8989 346.577 73.4549 345.191 74.0209C343.794 74.5589 342.409 75.1019 340.89 75.4629Z" fill="#DD3E5A"/>
<path d="M342.095 90.778C343.369 90.733 344.559 90.982 345.729 91.299C346.89 91.647 348.031 92.066 349.087 92.781C347.812 92.828 346.623 92.58 345.453 92.26C344.293 91.91 343.152 91.49 342.095 90.778Z" fill="#DD3E5A"/>
<path d="M334.706 99.644C335.277 100.917 335.98 101.945 336.656 103.127C336.978 103.718 337.301 104.332 337.517 105.003C337.738 105.666 337.868 106.391 337.755 107.092C337.168 105.826 336.46 104.8 335.784 103.616C335.462 103.023 335.141 102.408 334.928 101.735C334.712 101.07 334.587 100.344 334.706 99.644Z" fill="#DD3E5A"/>
<path d="M319.364 106.947C319.407 105.797 319.733 104.762 320.125 103.754C320.547 102.758 321.037 101.79 321.812 100.938C321.771 102.089 321.445 103.124 321.05 104.131C320.628 105.126 320.138 106.094 319.364 106.947Z" fill="#DD3E5A"/>
<path d="M304.035 90.4168C304.837 89.7138 305.769 89.3218 306.724 89.0298C307.688 88.7678 308.686 88.6048 309.739 88.7758C308.86 89.3778 307.939 89.7048 307 89.9898C306.053 90.2448 305.099 90.4578 304.035 90.4168Z" fill="#DD3E5A"/>
<path d="M341.48 45.4119C341.247 47.0549 340.79 48.5849 340.316 50.1149C339.812 51.6359 339.291 53.1449 338.521 54.6149C338.521 52.9529 338.881 51.3579 339.364 49.8089C339.877 48.2689 340.514 46.7629 341.48 45.4119Z" fill="#E3607D"/>
<path d="M356.642 73.2099C357.753 72.2669 359.016 71.6249 360.315 71.0789C361.625 70.5619 362.979 70.1419 364.434 70.0459C363.246 70.8889 361.979 71.4669 360.691 72.0049C359.392 72.5139 358.081 72.9839 356.642 73.2099Z" fill="#E3607D"/>
<path d="M355.328 99.333C356.689 99.442 357.938 99.837 359.16 100.298C360.371 100.788 361.556 101.347 362.628 102.193C361.267 102.086 360.018 101.691 358.796 101.228C357.585 100.736 356.4 100.177 355.328 99.333Z" fill="#E3607D"/>
<path d="M331.727 118.679C332.096 120.282 332.244 121.849 332.405 123.424C332.535 125.001 332.674 126.569 332.6 128.213C331.895 126.723 331.571 125.122 331.41 123.515C331.279 121.906 331.306 120.273 331.727 118.679Z" fill="#E3607D"/>
<path d="M298.561 111.224C299.655 109.873 300.983 108.792 302.378 107.818C303.79 106.869 305.278 106.022 306.935 105.494C305.687 106.702 304.323 107.68 302.942 108.643C301.543 109.579 300.138 110.496 298.561 111.224Z" fill="#E3607D"/>
<path d="M289.674 76.2979C291.225 75.9759 292.792 76.0509 294.323 76.2849C295.849 76.5489 297.359 76.9769 298.726 77.7779C297.146 77.7409 295.66 77.5019 294.162 77.2719C292.669 77.0099 291.184 76.7639 289.674 76.2979Z" fill="#E3607D"/>
<path d="M304.625 53.0708C305.593 53.6978 306.316 54.5098 306.983 55.3648C307.624 56.2388 308.207 57.1568 308.543 58.2608C307.574 57.6348 306.85 56.8238 306.185 55.9668C305.546 55.0908 304.964 54.1728 304.625 53.0708Z" fill="#E3607D"/>
<path d="M310.192 138.487C310.595 140.538 314.409 140.343 313.217 137.557C312.99 137.026 312.611 136.536 312.085 136.295C311.559 136.055 310.876 136.116 310.478 136.535C310.007 137.03 310.06 137.815 310.192 138.487Z" fill="#8865A0"/>
<path d="M338.42 31.5921C338.823 33.6431 342.637 33.4481 341.445 30.6621C341.218 30.1301 340.839 29.6401 340.314 29.4001C339.788 29.1601 339.105 29.2211 338.707 29.6401C338.235 30.1361 338.288 30.9201 338.42 31.5921Z" fill="#8865A0"/>
<path d="M338.055 144.396C336.392 145.662 338.25 149 340.225 146.701C340.602 146.262 340.875 145.707 340.858 145.129C340.842 144.551 340.486 143.965 339.934 143.792C339.28 143.587 338.599 143.981 338.055 144.396Z" fill="#8865A0"/>
<path d="M357.463 28.0201C355.8 29.2861 357.658 32.6241 359.633 30.3251C360.01 29.8871 360.283 29.3311 360.266 28.7531C360.25 28.1751 359.894 27.5891 359.342 27.4161C358.689 27.2111 358.008 27.6051 357.463 28.0201Z" fill="#8865A0"/>
<path d="M339.213 154.801C338.392 152.879 334.701 153.865 336.448 156.342C336.781 156.814 337.253 157.215 337.818 157.34C338.383 157.465 339.038 157.263 339.34 156.77C339.698 156.187 339.482 155.431 339.213 154.801Z" fill="#8865A0"/>
<path d="M348.236 28.8549C348.41 28.6349 348.493 28.3269 348.398 27.9519C348.098 26.7669 346.368 27.2479 346.536 28.3899C346.685 29.4079 347.777 29.4349 348.236 28.8549Z" fill="#8865A0"/>
<path d="M354.398 158.61C354.472 158.881 354.67 159.131 355.028 159.277C356.159 159.739 356.799 158.061 355.78 157.518C354.873 157.034 354.203 157.896 354.398 158.61Z" fill="#8865A0"/>
<path d="M344.471 154.837C344.545 155.108 344.744 155.357 345.101 155.503C346.232 155.965 346.872 154.287 345.853 153.744C344.947 153.261 344.277 154.124 344.471 154.837Z" fill="#8865A0"/>
<path d="M328.252 155.009C328.326 155.28 328.525 155.529 328.882 155.675C330.013 156.137 330.653 154.459 329.634 153.916C328.727 153.433 328.057 154.296 328.252 155.009Z" fill="#8865A0"/>
<path d="M328.717 145.671C328.891 145.451 328.974 145.143 328.88 144.768C328.58 143.583 326.85 144.064 327.018 145.207C327.166 146.224 328.258 146.252 328.717 145.671Z" fill="#8865A0"/>
<path d="M354.162 23.3179C354.336 23.0979 354.419 22.7899 354.324 22.4149C354.024 21.2299 352.294 21.7109 352.462 22.8539C352.611 23.8709 353.703 23.8989 354.162 23.3179Z" fill="#8865A0"/>
<path d="M319.299 146.216C319.473 145.996 319.556 145.688 319.461 145.313C319.161 144.128 317.431 144.609 317.599 145.752C317.749 146.769 318.841 146.796 319.299 146.216Z" fill="#8865A0"/>
<path d="M10.3628 311.483C12.0568 313.906 14.3998 315.87 17.0808 317.116" stroke="#9D96C8" stroke-miterlimit="10"/>
<path d="M4.77441 317.276C42.7004 315.751 80.8654 320.323 117.358 330.765" stroke="#9D96C8" stroke-miterlimit="10"/>
<path d="M0.164585 316.992C-0.908415 320.054 3.55559 321.904 5.15559 319.121C7.27859 315.426 1.32959 313.667 0.164585 316.992Z" fill="#F23C5A"/>
<path d="M7.21074 310.604C6.13674 313.667 10.6017 315.516 12.2017 312.733C14.3247 309.038 8.37574 307.279 7.21074 310.604Z" fill="#F23C5A"/>
<path d="M39.9365 328.327C41.5335 324.61 43.9785 321.018 46.9485 318.03" stroke="#9D96C8" stroke-miterlimit="10"/>
<path d="M37.2988 328.506C36.2588 325.432 40.7438 323.631 42.3138 326.432C44.3958 330.15 38.4278 331.843 37.2988 328.506Z" fill="#F23C5A"/>
<path d="M15.2185 326.208C16.3245 325.327 18.4845 323.05 18.1525 321.42C17.7735 319.559 15.5215 320.399 14.3875 321.022C12.1855 322.233 10.0475 323.773 8.84751 325.981C8.62451 326.392 8.43251 326.87 8.57251 327.316C8.77751 327.971 9.58451 328.22 10.2705 328.201C11.8385 328.157 14.0125 327.169 15.2185 326.208Z" fill="#9D96C8"/>
<path d="M15.3076 323.024C17.5276 320.881 19.8906 318.886 22.3746 317.055" stroke="#9D96C8" stroke-miterlimit="10"/>
<path d="M39.4578 307.728C40.4028 308.78 42.1558 311.383 41.5588 312.936C40.8778 314.709 38.7948 313.508 37.7798 312.706C35.8078 311.148 33.9548 309.275 33.1358 306.899C32.9838 306.457 32.8738 305.953 33.0848 305.537C33.3958 304.925 34.2318 304.813 34.9058 304.945C36.4468 305.247 38.4278 306.581 39.4578 307.728Z" fill="#9D96C8"/>
<path d="M39.0176 310.883C40.8526 313.364 42.8526 315.723 44.9996 317.939" stroke="#9D96C8" stroke-miterlimit="10"/>
<path d="M18.9177 310.186C19.8067 311.286 22.0987 313.429 23.7267 313.086C25.5847 312.694 24.7287 310.448 24.0977 309.319C22.8717 307.125 21.3167 304.999 19.0997 303.814C18.6877 303.594 18.2077 303.405 17.7627 303.548C17.1097 303.758 16.8667 304.566 16.8897 305.252C16.9457 306.82 17.9487 308.987 18.9177 310.186Z" fill="#9D96C8"/>
<path d="M22.1035 310.252C24.2625 312.457 26.2745 314.805 28.1225 317.276" stroke="#9D96C8" stroke-miterlimit="10"/>
<path d="M31.2576 327.747C32.1476 326.648 33.7666 323.96 33.0906 322.439C32.3196 320.703 30.3016 322.009 29.3286 322.861C27.4386 324.518 25.6836 326.482 24.9866 328.897C24.8566 329.346 24.7726 329.855 25.0056 330.26C25.3476 330.855 26.1886 330.924 26.8546 330.758C28.3766 330.378 30.2866 328.945 31.2576 327.747Z" fill="#9D96C8"/>
<path d="M30.6577 324.618C32.3637 322.047 34.2407 319.589 36.2727 317.267" stroke="#9D96C8" stroke-miterlimit="10"/>
<path d="M111.036 334.758C117.208 337.583 122.973 341.476 127.436 346.63C132.4 352.363 136.081 359.285 140.681 365.334C144.125 369.862 147.605 373.354 152.425 376.385" stroke="#93A0DD" stroke-width="2" stroke-miterlimit="10"/>
<path d="M122.164 354.241C124.307 351.486 126.779 349.344 125.932 345.533C128.756 349.303 130.679 354.249 131.715 358.821C132.788 363.555 132.872 368.492 132.193 373.289C131.14 380.735 128.325 387.834 124.862 394.509C123.854 396.452 122.783 398.383 122.158 400.481C121.042 404.232 121.428 408.246 121.852 412.137C110.629 407.391 108.455 389.66 110.349 379.249C111.466 373.107 114.029 367.345 117.161 361.98C118.694 359.358 120.297 356.641 122.164 354.241Z" fill="#93A0DD"/>
<path d="M120.275 408.786C117.933 404.078 117.239 398.646 117.663 393.4C117.817 390.762 118.453 388.136 119.345 385.656C120.224 383.166 121.353 380.783 122.298 378.376C124.253 373.568 125.577 368.514 126.387 363.381C126.798 360.814 127.055 358.221 127.16 355.618C127.298 353.015 127.242 350.403 127.078 347.792C127.468 350.381 127.623 353.003 127.65 355.628C127.645 358.253 127.472 360.879 127.149 363.488C126.488 368.707 125.137 373.836 123.226 378.745C122.231 381.194 121.09 383.531 120.2 385.964C119.284 388.389 118.698 390.893 118.426 393.471C118.135 396.042 118.11 398.65 118.411 401.227C118.677 403.809 119.301 406.357 120.275 408.786Z" fill="#AEC3E8"/>
<path d="M181.399 365.562C183.94 364.26 186.039 362.601 188.974 363.864C186.375 361.019 182.694 358.718 179.177 357.187C175.536 355.601 171.581 354.78 167.622 354.593C161.477 354.303 155.341 355.481 149.447 357.244C147.731 357.757 146.015 358.324 144.234 358.505C141.048 358.829 137.881 357.906 134.819 356.97C136.92 366.715 150.838 371.171 159.495 371.238C164.602 371.278 169.625 370.099 174.415 368.4C176.756 367.57 179.185 366.697 181.399 365.562Z" fill="#93A0DD"/>
<path d="M137.271 358.751C139.086 359.887 141.039 360.768 143.075 361.362C145.1 361.987 147.196 362.358 149.303 362.507C151.413 362.671 153.503 362.585 155.588 362.216C157.675 361.87 159.724 361.308 161.848 360.879C166.093 360.098 170.43 359.795 174.73 360.076C176.879 360.224 179.018 360.494 181.128 360.9C183.232 361.338 185.316 361.872 187.331 362.601C185.252 362.09 183.16 361.655 181.047 361.384C178.94 361.08 176.817 360.898 174.694 360.845C170.45 360.727 166.193 361.018 162.038 361.861C159.964 362.249 157.872 362.79 155.732 363.115C153.598 363.45 151.379 363.562 149.231 363.272C144.944 362.794 140.677 361.384 137.271 358.751Z" fill="#AEC3E8"/>
<path d="M163.396 398.635C161.654 397.639 160.052 396.412 158.649 394.907C153.333 389.206 150.643 381.983 147.46 375.02C147.233 374.524 146.49 372.008 146.042 371.841C150.522 373.515 154.938 373.358 159.603 373.731C172.285 374.745 185.419 380.692 191.862 392.229C193.531 395.216 195.128 398.243 196.726 401.268C196.658 401.14 188.543 402.41 187.711 402.459C179.966 402.913 170.514 402.705 163.396 398.635Z" fill="#AEC3E8"/>
<path d="M194.133 399.503C189.891 397.948 185.663 396.365 181.482 394.64C177.293 392.928 173.214 390.952 169.192 388.876C165.212 386.72 161.286 384.434 157.6 381.79C155.764 380.461 153.957 379.091 152.238 377.615C150.537 376.119 148.876 374.579 147.34 372.921C150.714 375.926 154.281 378.682 158.036 381.157C161.779 383.647 165.666 385.919 169.659 387.994C173.622 390.133 177.68 392.083 181.786 393.938C183.835 394.877 185.901 395.782 187.968 396.689C190.024 397.626 192.095 398.527 194.133 399.503Z" fill="#93A0DD"/>
<path d="M70.6057 396.902C72.7857 396.656 75.1807 395.224 76.7657 394.248C78.2837 393.313 79.7237 392.205 81.2797 391.354C82.3797 390.752 84.1457 389.756 84.7527 388.583C82.9447 392.08 81.5767 395.885 81.4537 399.819C81.3287 403.803 82.8587 410.855 87.6817 411.597C92.8197 412.388 96.7517 405.866 97.5307 401.596C98.0917 398.522 98.3227 395.275 97.7817 392.182C98.9267 394.816 100.09 397.482 101.854 399.749C102.939 401.144 104.272 402.382 105.825 403.239C110.209 405.66 113.833 401.523 113.822 397.285C113.813 393.967 112.594 390.328 111.386 387.266C110.115 384.043 108.448 380.981 106.509 378.112C104.674 375.398 102.546 372.802 99.7827 371.04C98.4257 370.175 96.9377 369.527 95.4017 369.048C93.6127 368.49 91.7367 368.156 89.8657 368.269C86.3677 368.481 83.2247 370.224 80.4477 372.245C77.6617 374.273 74.8637 376.563 72.4027 378.975C69.7587 381.567 67.5697 384.707 66.5317 388.26C65.8327 390.652 65.3367 393.262 66.8847 395.395C67.8397 396.716 69.1767 397.063 70.6057 396.902Z" fill="#FBC9C3"/>
<path d="M99.2574 384.156C99.6844 384.009 100.019 383.644 99.9864 382.992C99.9254 381.804 98.6164 382.131 98.0134 382.718C96.9474 383.756 98.3234 384.477 99.2574 384.156Z" fill="#581F36"/>
<path d="M98.7198 383.43C98.5568 382.991 98.3928 382.553 98.2298 382.114C97.6208 380.478 97.0118 378.842 96.4028 377.206" stroke="#581F36" stroke-miterlimit="10"/>
<path d="M92.9025 383.415C93.3525 383.457 93.8075 383.262 94.0455 382.654C94.4785 381.545 93.1505 381.306 92.3595 381.593C90.9605 382.101 91.9185 383.323 92.9025 383.415Z" fill="#581F36"/>
<path d="M92.7104 382.532C92.7414 382.065 92.7735 381.598 92.8045 381.131C92.9215 379.389 93.0394 377.648 93.1564 375.906" stroke="#581F36" stroke-miterlimit="10"/>
<path d="M88.6315 385.029C89.0815 385.071 89.5365 384.876 89.7745 384.268C90.2075 383.159 88.8795 382.92 88.0885 383.207C86.6895 383.716 87.6475 384.938 88.6315 385.029Z" fill="#581F36"/>
<path d="M88.4395 384.147C88.4715 383.68 88.5025 383.213 88.5335 382.746C88.6505 381.004 88.7685 379.263 88.8855 377.521" stroke="#581F36" stroke-miterlimit="10"/>
<path d="M83.3046 382.347C83.7186 382.529 84.2116 382.488 84.6296 381.985C85.3896 381.07 84.2056 380.423 83.3656 380.446C81.8766 380.488 82.3996 381.95 83.3046 382.347Z" fill="#581F36"/>
<path d="M83.4004 381.449C83.5774 381.016 83.7554 380.583 83.9324 380.149C84.5934 378.533 85.2544 376.918 85.9164 375.302" stroke="#581F36" stroke-miterlimit="10"/>
<path d="M96.8266 366.785C99.6836 367.54 102.334 369.153 101.437 372.558C101.245 373.289 101.044 374.037 100.612 374.652C100.525 374.776 100.427 374.898 100.387 375.045C100.339 375.225 100.384 375.416 100.4 375.603C100.476 376.478 99.8026 377.34 98.9436 377.468C99.0326 377.564 99.0926 377.665 99.1276 377.769C99.4346 378.69 97.7526 379.822 96.9286 379.434C96.6226 379.29 96.3986 379.014 96.1876 378.747C95.8876 378.99 95.5766 379.24 95.2026 379.339C94.8286 379.438 94.3736 379.347 94.1546 379.021C93.7976 379.207 93.3946 379.305 92.9906 379.302C92.4126 379.298 92.1216 379.334 91.7016 378.926C91.1346 378.375 91.2346 378.226 90.5446 378.334C89.8946 378.436 89.6286 379.028 88.8276 378.684C88.2116 378.419 87.8086 377.715 87.8926 377.052C87.1796 377.408 86.3396 377.642 85.5816 377.368C84.8236 377.094 84.2756 376.141 84.6616 375.441C83.6826 375.402 82.9196 374.224 83.2826 373.314C82.7816 373.483 82.1716 373.257 81.8916 372.797C81.7356 372.541 81.6796 372.24 81.6266 371.946C81.4176 370.782 81.2156 369.544 81.6556 368.459C82.3016 366.867 84.1106 366.123 85.7966 365.821C89.4446 365.168 93.2186 365.832 96.8266 366.785Z" fill="#581F36"/>
<path d="M104.166 382.451C108.061 388.547 113.595 393.333 120.741 395.047C124.23 395.884 131.422 395.558 132.652 391.146C133.597 387.756 129.468 384.101 127.26 382.132C121.631 377.112 115.51 372.645 108.922 368.96C104.825 366.669 100.368 364.412 95.7036 363.596C89.1876 362.456 82.4176 363.005 76.0786 364.895C71.5326 366.25 67.1936 368.272 63.1886 370.809C59.5316 373.125 55.1426 375.971 53.2146 380.003C52.6916 381.097 52.3736 382.405 52.8776 383.509C53.5426 384.965 55.3416 385.493 56.9386 385.595C62.0076 385.916 66.8706 383.634 71.2086 380.992C75.7776 378.21 80.0196 375.562 83.1696 371.093C83.0126 373.647 83.0956 376.407 84.6066 378.473C86.5466 381.127 90.5496 381.783 93.4896 380.313C96.4296 378.842 98.2566 375.621 98.5636 372.348C100.466 375.697 102.07 379.171 104.166 382.451Z" fill="#FED3D9"/>
<path d="M108.656 398.861C106.962 397.245 105.588 395.353 104.382 393.369C103.202 391.37 102.183 389.265 101.562 387.007C102.9 388.925 104.05 390.897 105.239 392.856C106.402 394.831 107.596 396.777 108.656 398.861Z" fill="#FAC3D2"/>
<path d="M88.5964 404.809C88.5894 402.102 88.7864 399.447 88.9674 396.784C89.1784 394.124 89.3734 391.468 89.7814 388.792C90.1644 391.474 90.1494 394.175 89.9644 396.858C89.7504 399.538 89.3684 402.212 88.5964 404.809Z" fill="#FAC3D2"/>
<path d="M80.0797 382.698C78.6157 384.359 76.9497 385.79 75.2417 387.163C73.5137 388.511 71.7387 389.803 69.7837 390.844C71.2607 389.17 72.9177 387.746 74.6217 386.379C76.3457 385.037 78.1117 383.752 80.0797 382.698Z" fill="#FAC3D2"/>
<path d="M125.313 388.359C121.496 387.062 117.923 385.073 114.66 382.693C111.413 380.29 108.449 377.474 106.074 374.216C109.036 376.941 112.039 379.542 115.252 381.888C118.448 384.256 121.827 386.347 125.313 388.359Z" fill="#FAC3D2"/>
<path d="M90.3457 378.369C89.9717 376.521 89.9597 374.658 90.0767 372.809C90.2247 370.963 90.5037 369.121 91.1417 367.345C91.2897 369.224 91.1917 371.05 91.0737 372.881C90.9247 374.709 90.7597 376.531 90.3457 378.369Z" fill="#FAC3D2"/>
<path d="M78.8017 369.254C75.8117 371.859 72.4807 374.046 69.0107 375.956C65.5257 377.841 61.8837 379.457 58.0737 380.558C61.5857 378.724 65.0907 376.971 68.5317 375.079C71.9867 373.213 75.3587 371.215 78.8017 369.254Z" fill="#FAC3D2"/>
<path d="M56.6914 291.327C64.8394 295.174 72.6134 299.812 79.8694 305.154" stroke="#93A0DD" stroke-width="2" stroke-miterlimit="10"/>
<path d="M52.3606 291.309C46.2116 292.423 40.3546 294.696 34.2626 296.046C28.8146 297.253 23.0546 297.492 17.5336 296.861C14.5296 296.518 11.3846 295.969 9.04259 294.057C6.70059 292.145 5.56159 288.441 7.37459 286.021C8.23259 284.876 9.57059 284.21 10.8716 283.615C13.4676 282.428 16.2176 281.345 19.0716 281.426C15.0536 280.07 11.2826 277.984 7.99859 275.3C6.69959 274.238 5.45259 273.054 4.66959 271.57C3.88659 270.086 3.62359 268.248 4.32359 266.723C5.54959 264.051 8.99059 263.373 11.9276 263.229C15.2086 263.069 17.7276 263.542 21.4306 265.056C19.7676 262.393 19.3836 259.072 20.2106 256.064C21.0646 252.957 23.2026 252.26 26.3486 253.019C32.8776 254.594 37.5356 260.304 40.9646 266.078C44.3936 271.852 47.2336 278.19 52.2636 282.64C53.0676 283.351 53.1526 284.063 53.4616 285.091C53.8566 286.406 54.1116 287.818 53.7606 289.146C53.4106 290.473 53.7116 291.064 52.3606 291.309Z" fill="#F9D6D6"/>
<path d="M45.2335 286.522C43.6565 285.24 42.1845 283.796 41.5845 281.809C41.4415 281.334 41.3215 280.837 41.3815 280.345C41.4425 279.852 41.7165 279.359 42.1725 279.162C42.5505 278.998 42.9995 279.062 43.3645 279.254C44.1275 279.656 44.9645 280.391 45.6295 280.948C46.5565 281.724 47.4085 282.584 48.3465 283.347C46.9885 281.298 46.4915 278.697 46.9985 276.292C47.0925 275.847 47.2605 275.358 47.6715 275.164C48.1365 274.945 48.6805 275.211 49.0985 275.51C51.8805 277.501 53.0725 281.024 55.3175 283.606C56.5115 284.98 58.0025 286.082 59.1155 287.523C60.2285 288.963 60.9285 290.934 60.2205 292.61C59.4885 294.341 57.4425 294.417 55.8195 294.404C52.5505 294.378 49.2775 294.861 46.1545 295.829C44.3985 296.374 42.6425 297.079 40.8045 297.056C40.1375 297.048 39.3995 296.9 39.0095 296.359C38.8015 296.071 38.7235 295.707 38.7155 295.352C38.6895 294.196 39.3745 293.107 40.2935 292.405C41.2135 291.703 42.3445 291.338 43.4725 291.084C41.9595 291.162 40.2105 291.041 38.8585 290.297C37.1755 289.37 36.7385 287.387 38.6135 286.362C39.1415 286.073 39.7615 286.01 40.3635 285.986C42.0015 285.922 43.6485 286.103 45.2335 286.522Z" fill="#8865A0"/>
<path d="M12.3926 289.202C15.9156 288.728 19.4416 288.526 22.9846 288.465C26.5216 288.437 30.0916 288.583 33.5806 289.291L22.9956 289.465C19.4716 289.493 15.9346 289.514 12.3926 289.202Z" fill="#CFB3D8"/>
<path d="M9.97559 268.863C11.2446 269.056 12.4716 269.48 13.6696 269.946C14.8576 270.442 16.0066 271.017 17.1516 271.581C19.4406 272.712 21.6926 273.911 23.9446 275.111C26.1856 276.332 28.4246 277.555 30.6276 278.846L33.9306 280.785C35.0146 281.464 36.1136 282.112 37.1826 282.817C36.0056 282.311 34.8596 281.749 33.6976 281.216L30.2626 279.522C27.9736 278.391 25.7216 277.191 23.4706 275.99C21.2306 274.768 18.9906 273.545 16.7886 272.254C15.6876 271.608 14.5916 270.966 13.4656 270.387C12.3506 269.78 11.1876 269.275 9.97559 268.863Z" fill="#CFB3D8"/>
<path d="M39.8475 276.348C36.5835 274.343 33.6995 271.738 31.1865 268.837C28.6955 265.918 26.5535 262.675 25.0645 259.144C27.2455 262.286 29.4735 265.329 31.9445 268.185C34.3945 271.06 37.0675 273.721 39.8475 276.348Z" fill="#CFB3D8"/>
<path d="M142.031 319.194C144.648 320.08 147.677 321.95 147.309 324.689C147.08 326.392 145.568 327.603 144.814 329.147C143.499 331.839 144.645 335.02 145.683 337.831C146.721 340.642 147.579 344.008 145.842 346.45C144.703 348.05 142.704 348.807 140.765 349.119C136.401 349.822 131.97 348.716 127.688 347.618C129.342 348.705 131.044 349.839 132.126 351.496C133.208 353.153 133.512 355.488 132.309 357.06C130.056 360.001 124.974 358.156 121.977 360.333C120.055 361.73 119.573 364.332 118.482 366.443C116.705 369.879 112.923 372.18 109.055 372.179C105.187 372.179 101.406 369.876 99.6305 366.44C98.3705 368.072 95.9775 368.322 93.9545 367.925C91.9315 367.529 90.0085 366.633 87.9525 366.474C83.2245 366.109 78.2645 369.635 74.0175 367.525C71.8545 366.45 70.5535 364.102 70.1295 361.724C69.7055 359.347 70.0285 356.907 70.3525 354.513C67.0645 355.686 63.5915 356.876 60.1525 356.269C56.7145 355.662 53.4535 352.552 53.9965 349.103C54.1635 348.047 54.6625 347.051 54.7055 345.983C54.8235 343.072 51.7885 341.229 49.6125 339.292C47.3455 337.273 45.7235 334.54 45.0385 331.582C44.7505 330.34 44.6315 329.006 45.0865 327.816C45.4995 326.736 46.3455 325.88 47.2365 325.144C49.9675 322.891 53.3645 321.455 56.8825 321.066C54.3855 318.113 53.2765 314.035 53.9345 310.224C54.5925 306.414 57.0055 302.943 60.3475 300.999C61.2325 300.484 62.1935 300.06 62.9145 299.334C64.4905 297.748 64.4965 295.249 65.0625 293.087C66.0375 289.365 69.0535 286.247 72.7405 285.149C76.4285 284.051 80.6585 285.013 83.5095 287.596C83.4285 283.861 86.7415 280.386 90.4755 280.289C92.7525 280.23 94.9575 281.255 97.2345 281.176C100.924 281.048 104.455 278.058 107.963 279.211C111.618 280.413 112.483 285.1 112.73 288.94C115.575 289.145 118.66 287.198 121.109 288.66C122.416 289.44 123.051 290.965 124.069 292.095C125.666 293.868 128.141 294.604 129.861 296.258C133.49 299.749 132.591 304.167 130.534 308.127C128.944 311.187 127.215 314.324 124.436 316.365C124.732 316.148 127.581 316.521 128.157 316.526C129.717 316.539 131.314 316.773 132.856 316.997C135.974 317.451 139.049 318.183 142.031 319.194Z" fill="#F48FA8"/>
<path d="M67.1105 337.858C66.8515 336.656 67.4255 335.396 68.2895 334.521C69.1545 333.646 70.2775 333.084 71.3795 332.538C69.4525 331.956 67.8845 330.313 67.3935 328.361C66.9025 326.409 67.5065 324.219 68.9295 322.795C69.4515 322.273 70.0865 321.829 70.4065 321.163C71.0405 319.843 70.1895 318.315 70.1415 316.852C70.0615 314.413 72.3425 312.414 74.7355 311.939C77.1285 311.463 79.5845 312.126 81.9345 312.784C79.8925 312.061 78.2295 310.233 77.8985 308.093C77.5675 305.952 78.6985 303.613 80.6675 302.709C81.5115 302.322 82.4545 302.195 83.3075 301.829C86.1805 300.596 87.6915 296.843 90.7895 296.413C92.4865 296.178 94.1855 297.1 95.2895 298.41C96.3935 299.72 96.9995 301.371 97.5005 303.009C98.0665 304.856 98.5265 306.736 98.8785 308.635C99.5195 306.046 100.367 303.459 101.898 301.274C103.428 299.089 105.729 297.331 108.369 296.956C111.01 296.58 113.941 297.828 115.086 300.237C115.608 301.336 115.778 302.644 116.623 303.52C117.316 304.238 118.337 304.525 119.148 305.107C120.893 306.358 121.395 308.827 120.917 310.92C120.439 313.013 119.171 314.826 117.93 316.579C120.56 315.915 123.547 317.837 124.033 320.505C124.176 321.292 124.128 322.102 124.218 322.897C124.514 325.511 126.289 327.9 126.041 330.519C125.686 334.27 122.073 335.572 118.907 336.019C119.577 337.865 120.085 339.812 119.974 341.773C119.863 343.734 119.06 345.725 117.506 346.926C116.206 347.931 114.491 348.322 113.27 349.423C112.2 350.389 111.605 351.821 110.444 352.675C107.244 355.029 104.439 352.54 103.284 349.569C102.912 348.613 102.541 347.658 102.17 346.702C101.999 348.221 101.82 349.766 101.214 351.169C100.608 352.572 99.4995 353.839 98.0285 354.256C96.7905 354.608 95.4745 354.327 94.2005 354.145C91.5805 353.771 88.9445 355.868 86.4395 354.689C85.4295 354.214 84.7045 353.27 84.2435 352.253C83.4085 350.41 83.3525 348.227 84.0925 346.344C83.2375 347.877 81.6305 348.965 79.8895 349.192C78.1495 349.418 76.3175 348.777 75.0985 347.514C73.9395 346.313 73.3675 344.665 72.3525 343.34C70.6945 341.169 67.7565 340.855 67.1105 337.858Z" fill="#E3607D"/>
<path d="M108.022 334.189C107.887 334.295 107.761 334.409 107.647 334.536C107.369 334.847 107.334 335.295 107.252 335.703C107.17 336.111 106.972 336.563 106.57 336.671C106.371 336.724 106.16 336.681 105.956 336.709C105.572 336.762 105.262 337.058 104.885 337.151C104.211 337.317 103.561 336.794 103.155 336.23C102.749 335.667 102.427 335 101.828 334.647C101.855 336.185 101.292 337.725 100.278 338.882C100.173 339.002 100.06 339.121 99.9184 339.194C99.7594 339.276 99.5754 339.296 99.3964 339.307C98.3004 339.376 97.3474 339.425 96.2684 339.55C95.1894 339.676 94.0364 339.469 93.1594 338.803C92.7864 338.519 92.4734 338.163 92.2014 337.781C91.4594 336.737 91.0164 335.482 90.9394 334.203C90.9134 333.773 90.8544 333.233 90.4454 333.099C90.2914 333.049 90.1244 333.075 89.9664 333.109C89.1814 333.276 88.4314 333.605 87.6354 333.705C86.8384 333.805 85.9304 333.615 85.4694 332.958C85.3144 332.736 85.2184 332.455 85.2834 332.193C85.3504 331.924 85.5714 331.72 85.6724 331.462C85.8784 330.938 85.5474 330.357 85.1594 329.947C84.7724 329.538 84.2974 329.167 84.1264 328.63C83.9544 328.09 84.1274 327.475 83.9064 326.952C83.7514 326.586 83.4214 326.313 83.2854 325.94C83.0654 325.336 83.4314 324.653 83.9444 324.266C84.4574 323.878 85.0924 323.7 85.6834 323.447C85.8244 323.387 85.9694 323.317 86.0614 323.194C86.1684 323.05 86.1824 322.857 86.1634 322.678C86.0854 321.949 85.5414 321.373 85.1354 320.763C84.7284 320.153 84.4594 319.296 84.9144 318.722C85.1394 318.438 85.5154 318.267 85.6424 317.927C85.7724 317.58 85.5884 317.198 85.5944 316.827C85.6034 316.225 86.1184 315.735 86.6804 315.521C87.2424 315.306 87.8574 315.295 88.4524 315.207C88.6554 315.177 88.8684 315.131 89.0194 314.992C89.4234 314.619 89.1034 313.953 89.1584 313.406C89.2474 312.531 90.3814 312.097 91.2114 312.387C92.0414 312.677 92.6124 313.424 93.1324 314.133C93.6174 313.72 93.8764 313.108 94.1114 312.516C94.3464 311.924 94.5894 311.309 95.0554 310.875C95.5214 310.441 96.2824 310.25 96.8004 310.621C97.0464 310.797 97.2114 311.076 97.4784 311.216C98.1094 311.548 98.8324 310.946 99.5454 310.923C100.116 310.905 100.626 311.262 101.18 311.402C102.076 311.627 103.156 311.312 103.853 311.917C104.433 312.421 104.431 313.333 104.193 314.064C103.956 314.795 103.533 315.469 103.415 316.229C104.061 316.053 104.724 315.875 105.39 315.94C106.056 316.005 106.736 316.366 106.987 316.987C107.101 317.27 107.128 317.6 107.333 317.825C107.645 318.165 108.22 318.109 108.571 318.409C108.999 318.775 108.892 319.448 109.017 319.997C109.24 320.982 110.298 321.775 110.089 322.763C109.996 323.203 109.663 323.547 109.345 323.865C108.73 324.479 108.116 325.093 107.501 325.707C108.187 325.859 108.873 326.011 109.558 326.163C109.967 326.254 110.404 326.359 110.688 326.667C111.393 327.43 110.385 327.922 110.318 328.671C110.264 329.271 110.978 329.793 110.801 330.369C110.715 330.649 110.435 330.839 110.361 331.123C110.325 331.26 110.341 331.404 110.343 331.545C110.373 333.092 108.989 333.428 108.022 334.189Z" fill="#E3425E"/>
<path d="M101.986 325.88C102.406 326.277 102.603 326.934 102.364 327.46C102.125 327.986 101.403 328.266 100.918 327.952C101.319 328.908 100.363 330.125 99.3386 329.963C99.2356 329.947 99.1286 329.92 99.0286 329.949C98.8676 329.997 98.7856 330.168 98.6966 330.31C98.3116 330.925 97.4486 331.186 96.7876 330.887C96.1266 330.588 95.7526 329.768 95.9616 329.073C95.2726 329.552 94.1906 329.075 93.9656 328.267C93.7406 327.458 94.2886 326.558 95.0716 326.256C93.9746 326.008 93.0016 325.257 92.4836 324.258C92.1966 323.704 92.0486 323.029 92.2956 322.456C92.5416 321.882 93.2866 321.511 93.8286 321.821C93.9366 321.252 94.4096 320.769 94.9776 320.649C95.5446 320.529 96.1726 320.778 96.5026 321.255C96.9526 320.662 97.5876 320.211 98.2956 319.983C98.6626 319.865 99.1706 319.866 99.3166 320.224C99.3656 320.343 99.3616 320.486 99.4416 320.586C99.7526 320.976 100.671 320.716 101.033 321.19C101.461 321.751 101.17 322.648 100.765 323.153C101.121 323.062 101.514 323.062 101.841 323.23C102.168 323.398 102.409 323.757 102.368 324.122C102.265 325.025 101.054 325.051 100.421 325.316C100.981 325.321 101.571 325.488 101.986 325.88Z" fill="#481F3B"/>
<path d="M98.4613 317.307C97.4883 317.69 97.9263 319.55 99.1913 318.713C99.4323 318.553 99.6403 318.323 99.7113 318.043C99.7823 317.763 99.6913 317.432 99.4493 317.273C99.1613 317.085 98.7803 317.181 98.4613 317.307Z" fill="#481F3B"/>
<path d="M105.116 326.766C104.343 326.061 102.867 327.275 104.176 328.041C104.426 328.187 104.724 328.271 105.007 328.212C105.29 328.152 105.547 327.924 105.582 327.637C105.624 327.296 105.369 326.997 105.116 326.766Z" fill="#481F3B"/>
<path d="M91.6163 328.276C92.4883 327.699 91.6723 325.971 90.6093 327.053C90.4063 327.259 90.2523 327.528 90.2413 327.817C90.2303 328.106 90.3883 328.411 90.6583 328.515C90.9773 328.639 91.3303 328.465 91.6163 328.276Z" fill="#481F3B"/>
<path d="M93.8947 331.914C94.0187 331.98 94.1777 331.993 94.3537 331.913C94.9097 331.659 94.5177 330.85 93.9707 331.035C93.4837 331.2 93.5677 331.741 93.8947 331.914Z" fill="#481F3B"/>
<path d="M90.7276 324.03C90.6006 324.091 90.4956 324.211 90.4566 324.4C90.3306 324.999 91.2146 325.163 91.3906 324.612C91.5466 324.123 91.0616 323.87 90.7276 324.03Z" fill="#481F3B"/>
<path d="M100.55 330.862C100.423 330.923 100.318 331.043 100.278 331.232C100.152 331.831 101.036 331.995 101.212 331.444C101.369 330.955 100.884 330.702 100.55 330.862Z" fill="#481F3B"/>
<path d="M91.3633 319.784C91.2363 319.845 91.1313 319.965 91.0923 320.154C90.9663 320.753 91.8503 320.917 92.0263 320.366C92.1823 319.877 91.6973 319.624 91.3633 319.784Z" fill="#481F3B"/>
<path d="M103.649 322.283C103.773 322.349 103.932 322.362 104.108 322.282C104.664 322.028 104.272 321.219 103.725 321.404C103.238 321.569 103.322 322.109 103.649 322.283Z" fill="#481F3B"/>
<path d="M95.4844 319.209C95.6084 319.275 95.7674 319.288 95.9434 319.208C96.4994 318.954 96.1074 318.146 95.5604 318.331C95.0724 318.495 95.1574 319.035 95.4844 319.209Z" fill="#481F3B"/>
<path d="M112.722 305.773C112.32 307.006 111.639 308.055 110.88 309.038C110.097 310.002 109.231 310.904 108.12 311.574C108.632 310.384 109.345 309.387 110.097 308.416C110.873 307.465 111.681 306.544 112.722 305.773Z" fill="#DD3E5A"/>
<path d="M121.164 325.63C119.843 325.813 118.585 325.742 117.324 325.642C116.066 325.511 114.816 325.35 113.551 324.925C114.836 324.557 116.134 324.542 117.416 324.647C118.695 324.782 119.968 325.034 121.164 325.63Z" fill="#DD3E5A"/>
<path d="M109.104 337.638C110.353 338.581 111.316 339.793 112.141 341.081C112.939 342.385 113.607 343.782 113.906 345.319C112.894 344.129 112.099 342.872 111.294 341.611C110.514 340.333 109.732 339.068 109.104 337.638Z" fill="#DD3E5A"/>
<path d="M94.2547 341.572C94.5277 342.817 94.4967 344.032 94.3937 345.24C94.2597 346.445 94.0517 347.643 93.5387 348.81C93.2637 347.564 93.2947 346.349 93.3997 345.142C93.5357 343.937 93.7437 342.739 94.2547 341.572Z" fill="#DD3E5A"/>
<path d="M84.2063 335.894C83.0563 336.684 82.1713 337.561 81.1303 338.438C80.6063 338.861 80.0603 339.289 79.4383 339.622C78.8253 339.958 78.1363 340.216 77.4253 340.231C78.5663 339.427 79.4473 338.545 80.4913 337.669C81.0163 337.246 81.5643 336.819 82.1883 336.489C82.8043 336.156 83.4963 335.903 84.2063 335.894Z" fill="#DD3E5A"/>
<path d="M74.2686 322.112C75.4076 321.948 76.4846 322.083 77.5466 322.288C78.6016 322.524 79.6426 322.833 80.6196 323.442C79.4796 323.608 78.4036 323.473 77.3416 323.266C76.2866 323.028 75.2466 322.72 74.2686 322.112Z" fill="#DD3E5A"/>
<path d="M87.7793 304.065C88.6143 304.728 89.1673 305.574 89.6263 306.462C90.0573 307.363 90.3963 308.316 90.4173 309.383C89.6673 308.626 89.1803 307.779 88.7313 306.906C88.3103 306.019 87.9293 305.119 87.7793 304.065Z" fill="#DD3E5A"/>
<path d="M138.773 332.826C137.115 332.892 135.528 332.717 133.937 332.524C132.35 332.301 130.772 332.06 129.188 331.566C130.823 331.268 132.457 331.336 134.068 331.533C135.674 331.761 137.27 332.118 138.773 332.826Z" fill="#E3607D"/>
<path d="M114.148 352.73C115.275 353.654 116.134 354.781 116.904 355.961C117.647 357.158 118.304 358.414 118.66 359.827C117.617 358.81 116.822 357.667 116.061 356.497C115.325 355.311 114.628 354.105 114.148 352.73Z" fill="#E3607D"/>
<path d="M88.2132 356.125C88.3492 357.483 88.1862 358.783 87.9522 360.068C87.6872 361.348 87.3502 362.613 86.7102 363.82C86.5712 362.461 86.7352 361.162 86.9712 359.877C87.2382 358.597 87.5752 357.332 88.2132 356.125Z" fill="#E3607D"/>
<path d="M64.9456 336.379C63.4346 337.029 61.9196 337.457 60.3996 337.898C58.8706 338.309 57.3536 338.726 55.7236 338.949C57.0636 337.988 58.5796 337.382 60.1316 336.935C61.6916 336.518 63.3026 336.252 64.9456 336.379Z" fill="#E3607D"/>
<path d="M66.3276 302.414C67.8536 303.247 69.1546 304.36 70.3636 305.557C71.5506 306.776 72.6506 308.088 73.4676 309.623C72.0556 308.612 70.8476 307.446 69.6536 306.26C68.4816 305.053 67.3266 303.834 66.3276 302.414Z" fill="#E3607D"/>
<path d="M99.0926 287.403C99.6876 288.871 99.8946 290.426 99.9396 291.974C99.9536 293.523 99.8036 295.085 99.2616 296.573C99.0136 295.012 98.9826 293.507 98.9406 291.992C98.9286 290.478 98.9046 288.973 99.0926 287.403Z" fill="#E3607D"/>
<path d="M124.626 297.944C124.183 299.009 123.514 299.866 122.793 300.675C122.049 301.463 121.25 302.2 120.224 302.73C120.666 301.664 121.334 300.806 122.057 299.999C122.803 299.212 123.602 298.474 124.626 297.944Z" fill="#E3607D"/>
<path d="M56.7546 370.264C56.8006 368.175 53.0336 367.547 53.6006 370.524C53.7086 371.092 53.9736 371.652 54.4356 371.999C54.8976 372.346 55.5786 372.433 56.0566 372.109C56.6226 371.726 56.7386 370.949 56.7546 370.264Z" fill="#8865A0"/>
<path d="M96.2297 270.635C96.2757 268.546 92.5087 267.918 93.0757 270.895C93.1837 271.463 93.4477 272.023 93.9107 272.37C94.3727 272.717 95.0537 272.804 95.5317 272.48C96.0977 272.097 96.2147 271.32 96.2297 270.635Z" fill="#8865A0"/>
<path d="M30.8055 358.518C32.7015 357.638 31.6025 353.98 29.1805 355.802C28.7185 356.15 28.3325 356.634 28.2245 357.202C28.1165 357.77 28.3385 358.419 28.8405 358.706C29.4355 359.045 30.1845 358.807 30.8055 358.518Z" fill="#8865A0"/>
<path d="M121.988 280.379C123.884 279.499 122.785 275.841 120.363 277.663C119.901 278.01 119.515 278.495 119.407 279.063C119.299 279.631 119.521 280.28 120.023 280.567C120.618 280.906 121.367 280.667 121.988 280.379Z" fill="#8865A0"/>
<path d="M31.9054 348.106C32.2954 350.159 36.1114 349.988 34.9364 347.194C34.7124 346.661 34.3374 346.169 33.8124 345.925C33.2884 345.681 32.6044 345.738 32.2034 346.155C31.7294 346.649 31.7774 347.433 31.9054 348.106Z" fill="#8865A0"/>
<path d="M17.8895 341.13C17.8755 340.849 17.7345 340.563 17.4165 340.344C16.4105 339.65 15.4255 341.152 16.3045 341.901C17.0875 342.568 17.9275 341.869 17.8895 341.13Z" fill="#8865A0"/>
<path d="M26.7767 346.944C26.7627 346.664 26.6217 346.377 26.3037 346.158C25.2977 345.464 24.3127 346.966 25.1917 347.715C25.9747 348.381 26.8137 347.682 26.7767 346.944Z" fill="#8865A0"/>
<path d="M106.548 270.736C106.534 270.456 106.393 270.169 106.075 269.95C105.069 269.256 104.085 270.758 104.963 271.507C105.746 272.173 106.585 271.474 106.548 270.736Z" fill="#8865A0"/>
<path d="M42.6566 350.253C42.6426 349.972 42.5016 349.686 42.1836 349.467C41.1776 348.773 40.1926 350.275 41.0716 351.024C41.8536 351.691 42.6936 350.992 42.6566 350.253Z" fill="#8865A0"/>
<path d="M100.682 264.105C100.668 263.825 100.526 263.538 100.208 263.319C99.2025 262.625 98.2175 264.127 99.0965 264.876C99.8795 265.543 100.719 264.844 100.682 264.105Z" fill="#8865A0"/>
<path d="M116.656 270.736C116.642 270.456 116.501 270.169 116.183 269.95C115.177 269.256 114.192 270.758 115.071 271.507C115.853 272.173 116.693 271.474 116.656 270.736Z" fill="#8865A0"/>
<path d="M40.1994 359.274C39.9824 359.452 39.8354 359.735 39.8474 360.121C39.8864 361.342 41.6794 361.244 41.7604 360.092C41.8324 359.067 40.7724 358.806 40.1994 359.274Z" fill="#8865A0"/>
<path d="M49.5144 360.761C49.2974 360.939 49.1494 361.222 49.1624 361.608C49.2014 362.829 50.9944 362.731 51.0754 361.579C51.1484 360.554 50.0874 360.293 49.5144 360.761Z" fill="#8865A0"/>
</svg>
